G04*
G04 #@! TF.GenerationSoftware,Altium Limited,Altium Designer,19.0.4 (130)*
G04*
G04 Layer_Physical_Order=3*
G04 Layer_Color=128*
%FSLAX25Y25*%
%MOIN*%
G70*
G01*
G75*
%ADD48C,0.04000*%
%ADD49C,0.07937*%
%ADD50C,0.07150*%
%ADD51C,0.14000*%
%ADD52C,0.05000*%
%ADD53C,0.04984*%
D48*
X12601Y5286D02*
G03*
X9451Y8435I-3150J0D01*
G01*
Y109616D02*
G03*
X12601Y112766I0J3150D01*
G01*
X12601Y71254D02*
G03*
X12787Y77108I17J2929D01*
G01*
X0Y8435D02*
X9451D01*
X12601Y0D02*
Y5286D01*
Y0D02*
X200601D01*
Y118080D01*
X12601D02*
X200601D01*
X12601Y112766D02*
Y118080D01*
X21Y109616D02*
X9451D01*
X21Y77108D02*
Y109616D01*
Y77108D02*
X12787D01*
X0Y71254D02*
X12601D01*
X0Y8435D02*
Y71254D01*
D49*
X26236Y49134D02*
D03*
Y39291D02*
D03*
Y29449D02*
D03*
Y19606D02*
D03*
Y9764D02*
D03*
Y108362D02*
D03*
Y98520D02*
D03*
Y88677D02*
D03*
Y78835D02*
D03*
Y68992D02*
D03*
D50*
X176803Y50504D02*
D03*
Y67827D02*
D03*
D51*
X189163Y106650D02*
D03*
X189124Y11372D02*
D03*
D52*
X122614Y65992D02*
D03*
X95842Y90354D02*
D03*
X111236Y27662D02*
D03*
X36945Y50197D02*
D03*
X33598Y46899D02*
D03*
X121677Y51479D02*
D03*
X89892Y11646D02*
D03*
X88480Y7093D02*
D03*
X104276Y27662D02*
D03*
X121008Y10256D02*
D03*
X142693Y17535D02*
D03*
X175488Y31858D02*
D03*
X159559Y35896D02*
D03*
X153803Y64520D02*
D03*
X40341Y85308D02*
D03*
Y88882D02*
D03*
X51583Y105079D02*
D03*
X108827Y63474D02*
D03*
X32126Y13146D02*
D03*
X36588D02*
D03*
X87340Y44441D02*
D03*
X104945Y74374D02*
D03*
X112747Y99189D02*
D03*
X109802Y95441D02*
D03*
X115826Y102559D02*
D03*
X95842Y77346D02*
D03*
X104945Y68717D02*
D03*
X113378Y74374D02*
D03*
X113866Y37393D02*
D03*
X109496Y41777D02*
D03*
X121895Y36409D02*
D03*
X111236Y107780D02*
D03*
X42968Y58284D02*
D03*
X46449D02*
D03*
Y61083D02*
D03*
X42968D02*
D03*
X50072Y70410D02*
D03*
X78843Y95425D02*
D03*
X88079Y41094D02*
D03*
X70276Y67827D02*
D03*
Y63142D02*
D03*
X126362Y36409D02*
D03*
X131047D02*
D03*
Y31150D02*
D03*
X133457Y33866D02*
D03*
X76835Y39890D02*
D03*
X57425Y57693D02*
D03*
X114984Y110035D02*
D03*
X86339Y87410D02*
D03*
X108827Y59567D02*
D03*
Y50331D02*
D03*
X90589Y45244D02*
D03*
X93032Y47386D02*
D03*
X84732Y37614D02*
D03*
X79512D02*
D03*
X94772Y51669D02*
D03*
X197173Y95909D02*
D03*
Y86116D02*
D03*
Y91069D02*
D03*
X67331Y10307D02*
D03*
X159961Y15316D02*
D03*
X126362Y6827D02*
D03*
X196906Y3347D02*
D03*
X179466D02*
D03*
Y114315D02*
D03*
X196906D02*
D03*
X186598Y69071D02*
D03*
X191685D02*
D03*
X196772D02*
D03*
X186732Y49394D02*
D03*
X191819D02*
D03*
X196906D02*
D03*
X120874Y74374D02*
D03*
X172409Y57961D02*
D03*
X134929Y69205D02*
D03*
X104276Y21067D02*
D03*
X136000Y44173D02*
D03*
X119492Y26236D02*
D03*
X133882Y15528D02*
D03*
X127688D02*
D03*
X145059Y37347D02*
D03*
X178768Y39890D02*
D03*
X143630Y20882D02*
D03*
X145236Y15394D02*
D03*
X78173Y107277D02*
D03*
X47653Y24094D02*
D03*
X124496Y92042D02*
D03*
X104945Y36945D02*
D03*
X94638Y34607D02*
D03*
X139748Y101555D02*
D03*
X123150Y114583D02*
D03*
X51583Y93835D02*
D03*
X17402Y114583D02*
D03*
Y110924D02*
D03*
Y107265D02*
D03*
X26282Y103425D02*
D03*
X19276Y7362D02*
D03*
X15738Y7228D02*
D03*
X26504Y34782D02*
D03*
Y43857D02*
D03*
X29717Y84197D02*
D03*
Y93433D02*
D03*
X47128Y15260D02*
D03*
X75722Y49795D02*
D03*
X74158Y47252D02*
D03*
X119803Y91069D02*
D03*
X192087D02*
D03*
Y86116D02*
D03*
Y95909D02*
D03*
X186732Y28110D02*
D03*
X191819D02*
D03*
X196906D02*
D03*
Y23157D02*
D03*
X191819D02*
D03*
X186732D02*
D03*
X196906Y32951D02*
D03*
X191819D02*
D03*
X186732D02*
D03*
X186598Y59299D02*
D03*
X191685D02*
D03*
X196772D02*
D03*
Y54347D02*
D03*
X191685D02*
D03*
X186598D02*
D03*
X196772Y64140D02*
D03*
X191685D02*
D03*
X186598D02*
D03*
X127835Y114583D02*
D03*
X118465D02*
D03*
X13787Y61433D02*
D03*
X95842Y87085D02*
D03*
X144032Y101646D02*
D03*
X146709Y63315D02*
D03*
X88882Y37564D02*
D03*
X175488Y35896D02*
D03*
X175354Y44059D02*
D03*
X169732Y47819D02*
D03*
X164445D02*
D03*
X159158D02*
D03*
X36588Y15929D02*
D03*
X32126D02*
D03*
X13921Y31323D02*
D03*
X172543Y78620D02*
D03*
X177630D02*
D03*
X182717D02*
D03*
X176827Y95909D02*
D03*
X181913D02*
D03*
X187000D02*
D03*
X176827Y86116D02*
D03*
X181913D02*
D03*
X187000D02*
D03*
Y91069D02*
D03*
X181913D02*
D03*
X176827D02*
D03*
X47653Y42200D02*
D03*
X75764Y53943D02*
D03*
X82189Y39890D02*
D03*
X26504Y24630D02*
D03*
X33866Y31236D02*
D03*
X39890Y44060D02*
D03*
X70677Y108158D02*
D03*
X56756Y76835D02*
D03*
X70410D02*
D03*
X26504Y55417D02*
D03*
Y59076D02*
D03*
X14188Y103953D02*
D03*
X13921Y50331D02*
D03*
Y24898D02*
D03*
Y40157D02*
D03*
Y55417D02*
D03*
Y66126D02*
D03*
X14189Y83528D02*
D03*
Y94504D02*
D03*
X172945Y18205D02*
D03*
X95842Y80583D02*
D03*
X105213Y100661D02*
D03*
X108158Y104409D02*
D03*
X102402Y104425D02*
D03*
X84598Y85268D02*
D03*
X130512Y84465D02*
D03*
X145638Y71480D02*
D03*
X125157Y67795D02*
D03*
X141622Y75898D02*
D03*
X148449Y82858D02*
D03*
X130780Y73756D02*
D03*
X137472Y80315D02*
D03*
X74425Y113779D02*
D03*
X70766D02*
D03*
X67108D02*
D03*
X63449D02*
D03*
X15795Y3213D02*
D03*
X19454D02*
D03*
X23113D02*
D03*
X26772D02*
D03*
X21953Y114583D02*
D03*
X25611D02*
D03*
X29270D02*
D03*
X32929D02*
D03*
X77370Y42165D02*
D03*
X91559Y41094D02*
D03*
X126362Y44173D02*
D03*
X125761Y79512D02*
D03*
X149354Y102803D02*
D03*
X94905Y18070D02*
D03*
X75764Y44709D02*
D03*
X94772Y54346D02*
D03*
X95039Y22488D02*
D03*
X54347Y107894D02*
D03*
Y102343D02*
D03*
D53*
X73488Y38234D02*
D03*
Y40961D02*
D03*
X95039Y38284D02*
D03*
M02*
