G04*
G04 #@! TF.GenerationSoftware,Altium Limited,Altium Designer,19.0.4 (130)*
G04*
G04 Layer_Physical_Order=4*
G04 Layer_Color=8388608*
%FSLAX25Y25*%
%MOIN*%
G70*
G01*
G75*
%ADD10C,0.00787*%
%ADD11C,0.01000*%
%ADD17R,0.03858X0.03661*%
%ADD19R,0.03661X0.03858*%
G04:AMPARAMS|DCode=24|XSize=23.62mil|YSize=100.39mil|CornerRadius=0mil|HoleSize=0mil|Usage=FLASHONLY|Rotation=270.000|XOffset=0mil|YOffset=0mil|HoleType=Round|Shape=Octagon|*
%AMOCTAGOND24*
4,1,8,0.05020,0.00591,0.05020,-0.00591,0.04429,-0.01181,-0.04429,-0.01181,-0.05020,-0.00591,-0.05020,0.00591,-0.04429,0.01181,0.04429,0.01181,0.05020,0.00591,0.0*
%
%ADD24OCTAGOND24*%

%ADD39C,0.01181*%
%ADD40C,0.01968*%
%ADD41C,0.01575*%
%ADD42R,0.07874X0.05512*%
%ADD43O,0.07874X0.05512*%
%ADD44C,0.03937*%
%ADD45C,0.12000*%
%ADD46C,0.02000*%
%ADD47C,0.01772*%
%ADD54R,0.01600X0.07100*%
%ADD55R,0.04921X0.02756*%
%ADD56R,0.09449X0.07480*%
%ADD57R,0.06496X0.02559*%
%ADD58R,0.05787X0.04567*%
%ADD59O,0.07087X0.02756*%
%ADD60R,0.00984X0.01870*%
%ADD61R,0.01870X0.00984*%
%ADD62R,0.01772X0.01772*%
%ADD63R,0.07874X0.07874*%
%ADD64R,0.08000X0.07874*%
%ADD65R,0.07874X0.02047*%
%ADD66R,0.03937X0.08661*%
%ADD67R,0.13780X0.08661*%
%ADD68O,0.00984X0.06102*%
%ADD69O,0.06102X0.00984*%
%ADD70R,0.09449X0.07480*%
%ADD71C,0.03150*%
%ADD72C,0.03937*%
G36*
X49240Y113260D02*
X49233Y113335D01*
X49209Y113402D01*
X49169Y113461D01*
X49113Y113512D01*
X49041Y113555D01*
X48953Y113591D01*
X48849Y113618D01*
X48729Y113638D01*
X48593Y113650D01*
X48441Y113654D01*
Y114441D01*
X48593Y114445D01*
X48729Y114457D01*
X48849Y114476D01*
X48953Y114504D01*
X49041Y114539D01*
X49113Y114583D01*
X49169Y114634D01*
X49209Y114693D01*
X49233Y114760D01*
X49240Y114835D01*
Y113260D01*
D02*
G37*
G36*
X199443Y59071D02*
Y11433D01*
Y1073D01*
X173411D01*
X173220Y1535D01*
X179041Y7357D01*
X179433Y7943D01*
X179570Y8634D01*
Y23614D01*
X182789Y26833D01*
X183181Y27419D01*
X183318Y28110D01*
Y39890D01*
Y56221D01*
X183181Y56912D01*
X182789Y57498D01*
X175406Y64881D01*
X175689Y65305D01*
X176083Y65142D01*
X176803Y65047D01*
X177522Y65142D01*
X178193Y65420D01*
X178768Y65861D01*
X179210Y66437D01*
X179488Y67107D01*
X179583Y67827D01*
X179488Y68546D01*
X179210Y69217D01*
X178768Y69792D01*
X178193Y70234D01*
X177522Y70512D01*
X176803Y70606D01*
X176083Y70512D01*
X175413Y70234D01*
X174837Y69792D01*
X174396Y69217D01*
X174118Y68546D01*
X174023Y67827D01*
X174118Y67107D01*
X174281Y66713D01*
X173857Y66429D01*
X173419Y66868D01*
X172833Y67259D01*
X172142Y67397D01*
X169939D01*
X169730Y67900D01*
X169288Y68476D01*
X168713Y68918D01*
X168042Y69195D01*
X167323Y69290D01*
X162936D01*
X161725Y70312D01*
X161279Y70747D01*
X160855Y71170D01*
X160280Y71612D01*
X159609Y71890D01*
X158890Y71984D01*
X157886D01*
Y72371D01*
X150524D01*
Y66229D01*
X157886D01*
X157886Y66229D01*
Y66229D01*
X158240Y65923D01*
X159619Y64545D01*
X160003Y64249D01*
X160055Y64200D01*
X160074Y64188D01*
X160089Y64170D01*
X160120Y64143D01*
Y62757D01*
X149473D01*
X149012Y62665D01*
X148622Y62404D01*
X145755Y59538D01*
X145494Y59147D01*
X145402Y58686D01*
X145402Y58686D01*
Y47262D01*
X143500Y45360D01*
X143000Y45567D01*
Y50453D01*
X138384D01*
X138366Y50456D01*
X138349Y50453D01*
X138173D01*
X137822Y50816D01*
X137684Y51514D01*
X137390Y51953D01*
X137313Y53168D01*
Y57940D01*
X137567Y58335D01*
X143000D01*
Y63571D01*
X137567D01*
Y62179D01*
X132736D01*
Y64345D01*
X132738Y64354D01*
X132736Y64370D01*
Y64380D01*
X132740Y64398D01*
X132736Y64415D01*
Y65197D01*
X132661D01*
Y68116D01*
X132661Y68116D01*
X132569Y68577D01*
X132308Y68968D01*
X130015Y71261D01*
X129625Y71522D01*
X129164Y71614D01*
X129164Y71614D01*
X111344D01*
X110883Y71522D01*
X110492Y71261D01*
X110492Y71261D01*
X99238Y60006D01*
X98977Y59616D01*
X98885Y59155D01*
X98885Y59155D01*
Y57241D01*
X97530D01*
X97031Y57142D01*
X96608Y56859D01*
X96325Y56436D01*
X96226Y55936D01*
X96325Y55437D01*
X96608Y55014D01*
Y54890D01*
X96325Y54467D01*
X96226Y53968D01*
X96325Y53469D01*
X96387Y53376D01*
X96578Y52984D01*
X96387Y52592D01*
X96325Y52499D01*
X96226Y51999D01*
X96325Y51500D01*
X96387Y51407D01*
X96578Y51015D01*
X96387Y50623D01*
X96325Y50530D01*
X96226Y50031D01*
X96325Y49532D01*
X96608Y49108D01*
Y48985D01*
X96325Y48562D01*
X96226Y48062D01*
X96278Y47798D01*
X95946Y47298D01*
X95342D01*
X94854Y47386D01*
X94715Y48083D01*
X94320Y48674D01*
X93729Y49069D01*
X93032Y49208D01*
X92334Y49069D01*
X91743Y48674D01*
X91348Y48083D01*
X91209Y47386D01*
X90770Y47031D01*
X90589Y47067D01*
X89892Y46928D01*
X89301Y46533D01*
X88906Y45941D01*
X88767Y45244D01*
X88906Y44547D01*
X89301Y43955D01*
X89892Y43560D01*
X90589Y43422D01*
X90681Y43440D01*
X90683Y43438D01*
X90730Y43400D01*
X90833Y43298D01*
X90833Y43298D01*
X91223Y43037D01*
X91684Y42945D01*
X95962D01*
X96283Y42445D01*
X96226Y42157D01*
X96325Y41658D01*
X96387Y41565D01*
X96578Y41173D01*
X96387Y40781D01*
X96325Y40688D01*
X96235Y40236D01*
X96045Y40095D01*
X95763Y39950D01*
X95737Y39967D01*
X95039Y40106D01*
X94342Y39967D01*
X93751Y39572D01*
X93356Y38981D01*
X93217Y38284D01*
X93356Y37586D01*
X93751Y36995D01*
X94018Y36816D01*
X93940Y36291D01*
X93349Y35896D01*
X93312Y35841D01*
X93302Y35835D01*
X93286Y35829D01*
X93266Y35822D01*
X93240Y35815D01*
X93218Y35812D01*
X92574D01*
X92573Y35812D01*
X92113Y35720D01*
X91722Y35459D01*
X90290Y34027D01*
X90029Y33636D01*
X89985Y33414D01*
X89755Y33138D01*
X89437Y33073D01*
X89164Y33127D01*
X88665Y33028D01*
X88241Y32745D01*
X88118D01*
X87695Y33028D01*
X87195Y33127D01*
X86696Y33028D01*
X86273Y32745D01*
X86149D01*
X85726Y33028D01*
X85227Y33127D01*
X84728Y33028D01*
X84430Y32829D01*
X83965Y33024D01*
X83873Y33496D01*
X85584Y35206D01*
X85845Y35597D01*
X85936Y36058D01*
Y36225D01*
X85940Y36253D01*
X85945Y36275D01*
X86021Y36325D01*
X86416Y36917D01*
X86555Y37614D01*
X86416Y38312D01*
X86021Y38903D01*
X85430Y39298D01*
X84732Y39437D01*
X84419Y39374D01*
X83993Y39799D01*
X84011Y39890D01*
X83873Y40587D01*
X83478Y41178D01*
X82886Y41574D01*
X82189Y41712D01*
X81492Y41574D01*
X80900Y41178D01*
X80505Y40587D01*
X80366Y39890D01*
X80398Y39731D01*
X80394Y39722D01*
X79965Y39347D01*
X79512Y39437D01*
X78814Y39298D01*
X78223Y38903D01*
X77828Y38312D01*
X77689Y37614D01*
X77717Y37474D01*
X77716Y37463D01*
X77718Y37418D01*
X77718Y37414D01*
X77718Y37412D01*
X77717Y37409D01*
X77715Y37403D01*
X77710Y37393D01*
X77701Y37376D01*
X77693Y37364D01*
X76501Y36173D01*
X76240Y35782D01*
X76149Y35321D01*
X76149Y35321D01*
Y32471D01*
X76143Y32326D01*
X76138Y32275D01*
X76048Y31822D01*
Y26704D01*
X76148Y26205D01*
X76430Y25782D01*
X76854Y25499D01*
X77353Y25400D01*
X77852Y25499D01*
X78275Y25782D01*
X78399D01*
X78822Y25499D01*
X79321Y25400D01*
X79821Y25499D01*
X80244Y25782D01*
X80367D01*
X80791Y25499D01*
X81290Y25400D01*
X81554Y25452D01*
X82054Y25120D01*
Y24172D01*
X81681Y23866D01*
X76445D01*
Y18433D01*
X77772D01*
Y17267D01*
X59992D01*
Y20260D01*
X59523D01*
Y21378D01*
X60264D01*
Y26811D01*
X55028D01*
Y21378D01*
X57114D01*
Y20260D01*
X54086D01*
Y18327D01*
X54061Y18201D01*
Y17425D01*
X53569Y16934D01*
X52314D01*
Y20260D01*
X51043D01*
X50373Y20393D01*
X45894D01*
X45581Y20781D01*
X45549Y20893D01*
X45574Y21067D01*
X45615Y21247D01*
X45657Y21367D01*
X45662Y21378D01*
X46343D01*
Y22160D01*
X46346Y22177D01*
X46343Y22195D01*
Y25789D01*
X46464Y25918D01*
X46736Y26107D01*
X46745Y26109D01*
X46843Y26128D01*
X47386Y26020D01*
X48083Y26159D01*
X48674Y26554D01*
X49069Y27145D01*
X49208Y27843D01*
X49069Y28540D01*
X48674Y29131D01*
X48083Y29526D01*
X47386Y29665D01*
X46688Y29526D01*
X46097Y29131D01*
X45730D01*
X45138Y29526D01*
X44441Y29665D01*
X43744Y29526D01*
X43152Y29131D01*
X42919D01*
X42327Y29526D01*
X41630Y29665D01*
X40933Y29526D01*
X40341Y29131D01*
X39946Y28540D01*
X39808Y27843D01*
X39946Y27145D01*
X40341Y26554D01*
X40933Y26159D01*
X41106Y26124D01*
Y22195D01*
X41103Y22177D01*
X41106Y22160D01*
Y21378D01*
X41787D01*
X41792Y21367D01*
X41834Y21247D01*
X41875Y21067D01*
X41908Y20831D01*
X41918Y20699D01*
Y10891D01*
X41908Y10759D01*
X41875Y10524D01*
X41834Y10343D01*
X41792Y10223D01*
X41787Y10213D01*
X41106D01*
Y9430D01*
X41103Y9413D01*
X41106Y9396D01*
Y4780D01*
X46343D01*
Y9396D01*
X46346Y9413D01*
X46343Y9430D01*
Y10213D01*
X45662D01*
X45657Y10223D01*
X45615Y10343D01*
X45574Y10524D01*
X45541Y10759D01*
X45531Y10891D01*
Y16780D01*
X48500D01*
X48583Y16364D01*
X48867Y15938D01*
X50112Y14693D01*
X50538Y14409D01*
X51040Y14309D01*
X51527D01*
Y12015D01*
X51524Y11998D01*
X51527Y11981D01*
Y11205D01*
X51815D01*
Y9945D01*
X48965D01*
Y4512D01*
X54201D01*
Y8549D01*
X54224Y8665D01*
X54224Y8665D01*
Y11205D01*
X59992D01*
Y11942D01*
X77772D01*
Y9945D01*
X76445D01*
Y4512D01*
X81681D01*
Y9945D01*
X80181D01*
Y11942D01*
X81949D01*
X81949Y11942D01*
X82410Y12033D01*
X82800Y12294D01*
X85529Y15023D01*
X85991Y14832D01*
Y8378D01*
X85991Y8378D01*
X86083Y7917D01*
X86344Y7526D01*
X86625Y7245D01*
X86638Y7227D01*
X86651Y7204D01*
X86661Y7185D01*
X86668Y7169D01*
X86671Y7158D01*
X86658Y7093D01*
X86797Y6396D01*
X87192Y5804D01*
X87783Y5409D01*
X88480Y5271D01*
X89178Y5409D01*
X89769Y5804D01*
X90164Y6396D01*
X90303Y7093D01*
X90164Y7790D01*
X89769Y8382D01*
X89178Y8777D01*
X88480Y8915D01*
X88400Y9402D01*
Y14992D01*
X88862Y15183D01*
X90641Y13404D01*
X91031Y13143D01*
X91492Y13052D01*
X91492Y13052D01*
X105587D01*
Y11539D01*
X110823D01*
Y16972D01*
X105587D01*
Y15460D01*
X91991D01*
X90368Y17083D01*
Y20114D01*
X90868Y20266D01*
X90899Y20220D01*
X93068Y18050D01*
X93076Y18041D01*
X93093Y18017D01*
X93221Y17373D01*
X93616Y16781D01*
X94207Y16387D01*
X94905Y16248D01*
X95602Y16387D01*
X96193Y16781D01*
X96588Y17373D01*
X96727Y18070D01*
X96588Y18768D01*
X96193Y19359D01*
X95602Y19754D01*
X94958Y19882D01*
X94942Y19893D01*
X94916Y19916D01*
X94585Y20246D01*
X94831Y20707D01*
X95039Y20666D01*
X95737Y20805D01*
X96328Y21200D01*
X96723Y21791D01*
X96862Y22488D01*
X96723Y23186D01*
X96328Y23777D01*
X96287Y23805D01*
X96284Y23810D01*
X96276Y23828D01*
X96269Y23850D01*
X96262Y23877D01*
X96259Y23900D01*
Y25951D01*
X96262Y26099D01*
X96270Y26198D01*
X96275Y26205D01*
X96374Y26704D01*
Y29543D01*
X96874Y29695D01*
X96881Y29684D01*
X97142Y29510D01*
X97252Y29488D01*
X97406Y29031D01*
X97409Y29014D01*
Y24595D01*
X102842D01*
Y29014D01*
X102846Y29031D01*
X103000Y29488D01*
X103110Y29510D01*
X103371Y29684D01*
X103545Y29945D01*
X103606Y30252D01*
Y32394D01*
X103545Y32701D01*
X103371Y32961D01*
X103603Y33408D01*
X103853Y33784D01*
X103953Y34283D01*
X103853Y34782D01*
X103571Y35205D01*
X103147Y35488D01*
X102648Y35587D01*
X100156D01*
X100108Y35597D01*
X100059Y35587D01*
X97530D01*
X97031Y35488D01*
X96823Y35349D01*
X96726Y35340D01*
X96256Y35448D01*
X96199Y35488D01*
X95926Y35896D01*
X95659Y36075D01*
X95737Y36600D01*
X96328Y36995D01*
X96346Y37021D01*
X96346Y37021D01*
X96365Y37029D01*
X96389Y37037D01*
X96418Y37044D01*
X96441Y37047D01*
X96745D01*
X96892Y37042D01*
X97006Y37031D01*
X97031Y37015D01*
X97530Y36915D01*
X102648D01*
X103147Y37015D01*
X103571Y37297D01*
X103853Y37721D01*
X103953Y38220D01*
X103865Y38661D01*
X103897Y38783D01*
X104159Y39161D01*
X104956D01*
X116158Y27959D01*
X116548Y27698D01*
X117009Y27607D01*
X124635D01*
X127876Y24366D01*
X127669Y23866D01*
X124634D01*
Y18433D01*
X129870D01*
Y21665D01*
X130370Y21872D01*
X136815Y15427D01*
Y12873D01*
X135969D01*
Y4448D01*
X135969Y4198D01*
X135573Y3948D01*
X111063D01*
X110940Y4060D01*
X110823Y4512D01*
X110823D01*
Y5294D01*
X110826Y5311D01*
X110823Y5328D01*
Y9945D01*
X105587D01*
Y5328D01*
X105583Y5311D01*
X105587Y5294D01*
Y4512D01*
X105587D01*
X105470Y4060D01*
X105347Y3948D01*
X33744D01*
X30571Y7121D01*
X30422Y7293D01*
X30246Y7526D01*
X30211Y7583D01*
X30512Y7977D01*
X30869Y8839D01*
X30991Y9764D01*
X30869Y10689D01*
X30512Y11551D01*
X29945Y12291D01*
X29204Y12859D01*
X28342Y13216D01*
X27417Y13338D01*
X25055D01*
X24462Y13260D01*
X24197Y13495D01*
X23801Y13892D01*
X23215Y14283D01*
X22524Y14421D01*
X16573D01*
X16363Y14458D01*
X16190Y14515D01*
X16063Y14584D01*
X15968Y14661D01*
X15891Y14756D01*
X15822Y14883D01*
X15765Y15056D01*
X15728Y15266D01*
Y24817D01*
X15744Y24898D01*
X15605Y25595D01*
X15210Y26186D01*
X14619Y26581D01*
X13921Y26720D01*
X13224Y26581D01*
X12633Y26186D01*
X12238Y25595D01*
X12099Y24898D01*
X12115Y24817D01*
Y21090D01*
X11897Y21002D01*
X11429Y21352D01*
Y23047D01*
X10839Y23638D01*
X11429Y24229D01*
Y26197D01*
X10839Y26788D01*
X11429Y27378D01*
Y29347D01*
X10445Y30331D01*
X10042D01*
Y32693D01*
X10445D01*
X11429Y33678D01*
Y35646D01*
X10839Y36237D01*
X11429Y36827D01*
Y38796D01*
X10445Y39780D01*
X10042D01*
Y42142D01*
X10445D01*
X11223Y42920D01*
X11233Y42921D01*
X16551D01*
X16551Y42921D01*
X17011Y43013D01*
X17402Y43274D01*
X21050Y46922D01*
X21512Y46730D01*
Y45591D01*
X30961D01*
Y52677D01*
X21512D01*
Y50329D01*
X21098Y50246D01*
X20707Y49985D01*
X20707Y49985D01*
X16052Y45330D01*
X11201D01*
X11194Y45330D01*
X10839Y45686D01*
X11429Y46276D01*
Y48245D01*
X11811Y48530D01*
X13356D01*
X13386Y48524D01*
X13613Y48570D01*
X13921Y48508D01*
X14619Y48647D01*
X15210Y49042D01*
X15605Y49633D01*
X15744Y50331D01*
X15605Y51028D01*
X15210Y51619D01*
X14619Y52014D01*
X13921Y52153D01*
X13625Y52094D01*
X13380Y52143D01*
X11429D01*
X11286Y52146D01*
X10818Y52184D01*
X10658Y52206D01*
X10608Y52216D01*
X10445Y52379D01*
X10062D01*
X10045Y52382D01*
X10042Y52385D01*
Y54741D01*
X10445D01*
X11429Y55725D01*
Y57694D01*
X10839Y58284D01*
X11429Y58875D01*
Y60843D01*
X10839Y61434D01*
X11429Y62025D01*
Y63993D01*
X10445Y64977D01*
X10042D01*
Y70218D01*
X12506D01*
X12506Y70204D01*
X12706Y70218D01*
X12887Y70254D01*
X12985Y70267D01*
X12985Y70267D01*
X13547Y70341D01*
X14518Y70743D01*
X15351Y71382D01*
X15991Y72216D01*
X16393Y73187D01*
X16512Y74090D01*
X16862Y74267D01*
X17024Y74285D01*
X21390Y69919D01*
X21444Y69856D01*
X21523Y69753D01*
X21572Y69678D01*
X21481Y68992D01*
X21603Y68067D01*
X21960Y67205D01*
X22528Y66465D01*
X23268Y65897D01*
X24130Y65540D01*
X25055Y65418D01*
X27417D01*
X28342Y65540D01*
X29204Y65897D01*
X29945Y66465D01*
X30512Y67205D01*
X30869Y68067D01*
X30991Y68992D01*
X31238Y69274D01*
X32622D01*
Y67437D01*
X34026D01*
Y65886D01*
X32622D01*
Y60650D01*
X38055D01*
Y65886D01*
X36651D01*
Y67437D01*
X38055D01*
Y69274D01*
X39710D01*
X39813Y69267D01*
X39962Y69249D01*
X39967Y69248D01*
X40116Y69025D01*
X40832Y68547D01*
X41677Y68379D01*
X46008D01*
X46853Y68547D01*
X47569Y69025D01*
X48048Y69742D01*
X48216Y70587D01*
X48048Y71431D01*
X47569Y72148D01*
X46853Y72626D01*
X46008Y72794D01*
X41677D01*
X40832Y72626D01*
X40116Y72148D01*
X39968Y71926D01*
X39677Y71899D01*
X38055D01*
Y72673D01*
X32622D01*
Y71899D01*
X30008D01*
X29785Y71923D01*
X29673Y71943D01*
X29387Y72018D01*
X29271Y72058D01*
X29206Y72086D01*
X29204Y72087D01*
X29164Y72104D01*
X28981Y72182D01*
X28836Y72255D01*
X28720Y72288D01*
X28342Y72444D01*
X27417Y72566D01*
X25055D01*
X24130Y72444D01*
X23268Y72087D01*
X23080Y71943D01*
X23072Y71950D01*
X22409Y72613D01*
X22616Y73113D01*
X24496D01*
X24998Y73212D01*
X25424Y73497D01*
X26890Y74963D01*
X26946Y75011D01*
X27052Y75092D01*
X27151Y75157D01*
X27241Y75208D01*
X27323Y75246D01*
X27363Y75261D01*
X27417D01*
X27824Y75314D01*
X27850Y75300D01*
X27928Y75250D01*
X28133Y75081D01*
X28556Y74658D01*
X28982Y74374D01*
X29484Y74274D01*
X32622D01*
Y73500D01*
X38055D01*
Y74274D01*
X39710D01*
X39813Y74267D01*
X39962Y74249D01*
X39967Y74248D01*
X40116Y74025D01*
X40832Y73547D01*
X41677Y73379D01*
X46008D01*
X46853Y73547D01*
X47569Y74025D01*
X48048Y74742D01*
X48216Y75586D01*
X48048Y76431D01*
X47569Y77148D01*
X46853Y77626D01*
X46008Y77794D01*
X41677D01*
X40832Y77626D01*
X40116Y77148D01*
X39968Y76926D01*
X39677Y76899D01*
X38055D01*
Y78736D01*
X36651D01*
Y80287D01*
X38055D01*
Y85524D01*
X32622D01*
Y80287D01*
X34026D01*
Y78736D01*
X32622D01*
Y76899D01*
X30992D01*
X30658Y77399D01*
X30869Y77910D01*
X30991Y78835D01*
X30869Y79760D01*
X30512Y80622D01*
X29945Y81362D01*
X29204Y81930D01*
X28342Y82287D01*
X27417Y82408D01*
X25055D01*
X24130Y82287D01*
X23268Y81930D01*
X22528Y81362D01*
X21960Y80622D01*
X21603Y79760D01*
X21124Y79853D01*
Y87448D01*
X21024Y87950D01*
X20739Y88376D01*
X16838Y92277D01*
X16412Y92562D01*
X15910Y92662D01*
X11309D01*
X11192Y92669D01*
X11080Y92682D01*
X10445Y93318D01*
X10042D01*
Y95682D01*
X10445D01*
X11077Y96315D01*
X11342Y96338D01*
X16656D01*
X19954Y93040D01*
X20380Y92756D01*
X20882Y92656D01*
X23563D01*
X24065Y92756D01*
X24491Y93040D01*
X25820Y94369D01*
X26134Y94640D01*
X26282Y94750D01*
X26419Y94840D01*
X26534Y94904D01*
X26625Y94945D01*
X26628Y94946D01*
X27417D01*
X28342Y95068D01*
X28708Y95219D01*
X28808Y95243D01*
X28844Y95259D01*
X28851Y95262D01*
X28991Y95294D01*
X29052Y95303D01*
X29506Y95333D01*
X32622D01*
Y94744D01*
X38055D01*
Y96581D01*
X39710D01*
X39813Y96574D01*
X39962Y96556D01*
X39967Y96555D01*
X40116Y96333D01*
X40832Y95854D01*
X41677Y95686D01*
X46008D01*
X46853Y95854D01*
X47569Y96333D01*
X48048Y97049D01*
X48216Y97894D01*
X48048Y98738D01*
X47569Y99455D01*
X46853Y99933D01*
X46008Y100101D01*
X41677D01*
X40832Y99933D01*
X40116Y99455D01*
X39968Y99233D01*
X39677Y99206D01*
X38055D01*
Y99980D01*
X32622D01*
Y97958D01*
X31297D01*
X30967Y98334D01*
X30991Y98520D01*
X30869Y99445D01*
X30512Y100307D01*
X29945Y101047D01*
X29204Y101615D01*
X28342Y101972D01*
X27417Y102094D01*
X25055D01*
X24130Y101972D01*
X23268Y101615D01*
X22528Y101047D01*
X21960Y100307D01*
X21603Y99445D01*
X21481Y98520D01*
X21603Y97595D01*
X21960Y96733D01*
X22528Y95993D01*
X22804Y95781D01*
X22634Y95281D01*
X21426D01*
X18128Y98579D01*
X17702Y98864D01*
X17199Y98963D01*
X11699D01*
X11606Y99102D01*
X11834Y99489D01*
X17495D01*
X17997Y99589D01*
X18423Y99874D01*
X23062Y104513D01*
X23232Y104671D01*
X23365Y104777D01*
X23425Y104819D01*
X23708D01*
X23725Y104815D01*
X23743Y104819D01*
X28730D01*
X28747Y104815D01*
X28764Y104819D01*
X29047D01*
X29099Y104783D01*
X29368Y104555D01*
X30710Y103214D01*
X31135Y102929D01*
X31638Y102829D01*
X32622D01*
Y100807D01*
X38055D01*
Y101581D01*
X39710D01*
X39813Y101574D01*
X39962Y101556D01*
X39967Y101555D01*
X40116Y101332D01*
X40832Y100854D01*
X41677Y100686D01*
X46008D01*
X46853Y100854D01*
X47569Y101332D01*
X48048Y102049D01*
X48216Y102894D01*
X48048Y103739D01*
X47569Y104455D01*
X46853Y104933D01*
X46008Y105101D01*
X41677D01*
X40832Y104933D01*
X40116Y104455D01*
X39968Y104233D01*
X39677Y104206D01*
X38055D01*
Y106043D01*
X32622D01*
Y105598D01*
X32122Y105514D01*
X31267Y106369D01*
X31109Y106539D01*
X31003Y106672D01*
X30961Y106732D01*
Y107015D01*
X30964Y107033D01*
X30961Y107050D01*
Y111906D01*
X21512D01*
Y107050D01*
X21508Y107033D01*
X21512Y107015D01*
Y106732D01*
X21476Y106681D01*
X21248Y106412D01*
X16951Y102114D01*
X15554D01*
X15403Y102614D01*
X15477Y102664D01*
X15872Y103255D01*
X16011Y103953D01*
X15872Y104650D01*
X15477Y105241D01*
X14886Y105636D01*
X14188Y105775D01*
X13880Y105714D01*
X13653Y105759D01*
X11261D01*
X10956Y105768D01*
X10572Y105801D01*
X10564Y105803D01*
X10445Y105921D01*
X10062D01*
X10045Y105925D01*
X10042Y105927D01*
Y108678D01*
X10452Y108732D01*
X11471Y109154D01*
X12345Y109825D01*
X13016Y110699D01*
X13438Y111718D01*
X13582Y112811D01*
X13566D01*
Y117068D01*
X48055D01*
X48429Y116764D01*
X48429Y116568D01*
Y115252D01*
X47118D01*
X47118Y115252D01*
X46657Y115160D01*
X46267Y114899D01*
X42991Y111623D01*
X42730Y111232D01*
X42638Y110772D01*
X42638Y110772D01*
Y110101D01*
X41677D01*
X40832Y109933D01*
X40116Y109455D01*
X39638Y108739D01*
X39469Y107894D01*
X39638Y107049D01*
X40116Y106333D01*
X40832Y105854D01*
X41677Y105686D01*
X46008D01*
X46853Y105854D01*
X47569Y106333D01*
X48048Y107049D01*
X48216Y107894D01*
X48048Y108739D01*
X47569Y109455D01*
X46853Y109933D01*
X46008Y110101D01*
X45583D01*
X45375Y110601D01*
X47617Y112843D01*
X48429D01*
Y111331D01*
X53665D01*
Y116568D01*
X53665Y116764D01*
X54039Y117068D01*
X155630D01*
Y113683D01*
X155621Y113601D01*
X155591Y113517D01*
X155541Y113442D01*
X155448Y113356D01*
X155287Y113258D01*
X155045Y113160D01*
X154721Y113073D01*
X154330Y113007D01*
X153134D01*
X152995Y112980D01*
X152598Y113059D01*
X152197Y112979D01*
X150130D01*
Y113016D01*
X149357D01*
X149341Y113019D01*
X149336Y113018D01*
X149330Y113019D01*
X149313Y113016D01*
X144894D01*
Y107583D01*
X144894D01*
X145028Y107259D01*
X143497Y105728D01*
X136910D01*
X136840Y105734D01*
X136782Y105744D01*
Y106941D01*
X131349D01*
Y101705D01*
X136782D01*
Y102902D01*
X136840Y102912D01*
X136910Y102918D01*
X144079D01*
X144616Y103025D01*
X145072Y103329D01*
X148505Y106762D01*
X148810Y107218D01*
X148882Y107583D01*
X149313D01*
X149330Y107579D01*
X149348Y107583D01*
X150130D01*
Y108020D01*
X150274Y108054D01*
X150554Y108099D01*
X151527Y108162D01*
X152331D01*
Y100110D01*
X152331Y100110D01*
X152392Y99803D01*
X152566Y99543D01*
X152566Y99543D01*
X159559Y92549D01*
Y84331D01*
X159620Y84023D01*
X159795Y83763D01*
X160055Y83589D01*
X160362Y83528D01*
X160551D01*
Y83465D01*
X166063D01*
Y83528D01*
X166252D01*
X166559Y83589D01*
X166820Y83763D01*
X166994Y84023D01*
X167055Y84331D01*
Y92565D01*
X171049Y96559D01*
X173748D01*
X174055Y96621D01*
X174316Y96794D01*
X174490Y97055D01*
X174551Y97362D01*
Y112205D01*
X174490Y112512D01*
X174316Y112772D01*
X174055Y112946D01*
X173748Y113007D01*
X170984D01*
Y117068D01*
X199443D01*
Y59071D01*
D02*
G37*
G36*
X44240Y109907D02*
X44252Y109771D01*
X44272Y109651D01*
X44299Y109547D01*
X44335Y109459D01*
X44378Y109387D01*
X44429Y109331D01*
X44488Y109291D01*
X44555Y109267D01*
X44630Y109259D01*
X43055D01*
X43130Y109267D01*
X43197Y109291D01*
X43256Y109331D01*
X43307Y109387D01*
X43350Y109459D01*
X43386Y109547D01*
X43413Y109651D01*
X43433Y109771D01*
X43445Y109907D01*
X43449Y110059D01*
X44236D01*
X44240Y109907D01*
D02*
G37*
G36*
X149362Y112203D02*
X149457Y112191D01*
X149614Y112180D01*
X151882Y112146D01*
X152480Y112145D01*
Y108996D01*
X151882Y108989D01*
X150464Y108897D01*
X150118Y108842D01*
X149835Y108775D01*
X149614Y108695D01*
X149457Y108603D01*
X149362Y108499D01*
X149330Y108382D01*
Y112216D01*
X149362Y112203D01*
D02*
G37*
G36*
X148131Y108376D02*
X148125Y108357D01*
X148120Y108326D01*
X148115Y108282D01*
X148106Y108075D01*
X148102Y107756D01*
X146921D01*
X146921Y107875D01*
X146892Y108376D01*
X146886Y108382D01*
X148138D01*
X148131Y108376D01*
D02*
G37*
G36*
X23725Y105618D02*
X23648Y105675D01*
X23556Y105703D01*
X23450D01*
X23329Y105675D01*
X23195Y105618D01*
X23047Y105534D01*
X22884Y105420D01*
X22707Y105279D01*
X22311Y104911D01*
X21604Y105618D01*
X21802Y105823D01*
X22113Y106191D01*
X22226Y106354D01*
X22311Y106502D01*
X22368Y106637D01*
X22396Y106757D01*
Y106863D01*
X22368Y106955D01*
X22311Y107033D01*
X23725Y105618D01*
D02*
G37*
G36*
X30105Y106955D02*
X30076Y106863D01*
Y106757D01*
X30105Y106637D01*
X30161Y106502D01*
X30246Y106354D01*
X30359Y106191D01*
X30501Y106014D01*
X30868Y105618D01*
X30161Y104911D01*
X29956Y105109D01*
X29588Y105420D01*
X29426Y105534D01*
X29277Y105618D01*
X29143Y105675D01*
X29023Y105703D01*
X28917D01*
X28825Y105675D01*
X28747Y105618D01*
X30161Y107033D01*
X30105Y106955D01*
D02*
G37*
G36*
X135994Y105392D02*
X136030Y105291D01*
X136089Y105203D01*
X136171Y105126D01*
X136278Y105061D01*
X136408Y105008D01*
X136561Y104966D01*
X136738Y104937D01*
X136939Y104919D01*
X137164Y104913D01*
Y103732D01*
X136939Y103726D01*
X136738Y103709D01*
X136561Y103679D01*
X136408Y103638D01*
X136278Y103585D01*
X136171Y103520D01*
X136089Y103443D01*
X136030Y103354D01*
X135994Y103254D01*
X135983Y103142D01*
Y105504D01*
X135994Y105392D01*
D02*
G37*
G36*
X33433Y103142D02*
X33423Y103237D01*
X33393Y103322D01*
X33342Y103397D01*
X33272Y103462D01*
X33180Y103517D01*
X33069Y103562D01*
X32938Y103597D01*
X32786Y103622D01*
X32614Y103637D01*
X32421Y103642D01*
Y104642D01*
X32614Y104647D01*
X32786Y104662D01*
X32938Y104687D01*
X33069Y104722D01*
X33180Y104767D01*
X33272Y104822D01*
X33342Y104887D01*
X33393Y104962D01*
X33423Y105047D01*
X33433Y105142D01*
Y103142D01*
D02*
G37*
G36*
X10100Y105087D02*
X10191Y105055D01*
X10317Y105027D01*
X10479Y105003D01*
X10909Y104966D01*
X11823Y104939D01*
X12199Y104937D01*
Y102968D01*
X11823Y102967D01*
X10317Y102878D01*
X10191Y102850D01*
X10100Y102819D01*
X10045Y102784D01*
Y105122D01*
X10100Y105087D01*
D02*
G37*
G36*
X40744Y101903D02*
X40731Y101996D01*
X40690Y102080D01*
X40624Y102153D01*
X40530Y102217D01*
X40409Y102271D01*
X40262Y102315D01*
X40088Y102349D01*
X39887Y102374D01*
X39660Y102389D01*
X39406Y102394D01*
Y103394D01*
X39660Y103399D01*
X40088Y103438D01*
X40262Y103472D01*
X40409Y103516D01*
X40530Y103570D01*
X40624Y103634D01*
X40690Y103708D01*
X40731Y103791D01*
X40744Y103884D01*
Y101903D01*
D02*
G37*
G36*
X37266Y103799D02*
X37296Y103714D01*
X37346Y103639D01*
X37416Y103574D01*
X37506Y103519D01*
X37616Y103474D01*
X37746Y103439D01*
X37896Y103414D01*
X38066Y103399D01*
X38256Y103394D01*
Y102394D01*
X38066Y102389D01*
X37896Y102374D01*
X37746Y102349D01*
X37616Y102314D01*
X37506Y102269D01*
X37416Y102214D01*
X37346Y102149D01*
X37296Y102074D01*
X37266Y101989D01*
X37256Y101894D01*
Y103894D01*
X37266Y103799D01*
D02*
G37*
G36*
X10228Y101707D02*
X10271Y101622D01*
X10342Y101547D01*
X10441Y101482D01*
X10568Y101427D01*
X10724Y101382D01*
X10908Y101347D01*
X11120Y101322D01*
X11361Y101307D01*
X11630Y101302D01*
Y100302D01*
X11361Y100297D01*
X10908Y100257D01*
X10724Y100222D01*
X10568Y100177D01*
X10441Y100122D01*
X10342Y100057D01*
X10271Y99982D01*
X10228Y99897D01*
X10214Y99802D01*
Y101802D01*
X10228Y101707D01*
D02*
G37*
G36*
X40744Y96903D02*
X40731Y96996D01*
X40690Y97080D01*
X40624Y97153D01*
X40530Y97217D01*
X40409Y97271D01*
X40262Y97315D01*
X40088Y97350D01*
X39887Y97374D01*
X39660Y97389D01*
X39406Y97394D01*
Y98394D01*
X39660Y98399D01*
X40088Y98438D01*
X40262Y98472D01*
X40409Y98516D01*
X40530Y98570D01*
X40624Y98634D01*
X40690Y98708D01*
X40731Y98791D01*
X40744Y98884D01*
Y96903D01*
D02*
G37*
G36*
X37266Y98799D02*
X37296Y98714D01*
X37346Y98639D01*
X37416Y98574D01*
X37506Y98519D01*
X37616Y98474D01*
X37746Y98439D01*
X37896Y98414D01*
X38066Y98399D01*
X38256Y98394D01*
Y97394D01*
X38066Y97389D01*
X37896Y97374D01*
X37746Y97349D01*
X37616Y97314D01*
X37506Y97269D01*
X37416Y97214D01*
X37346Y97149D01*
X37296Y97074D01*
X37266Y96989D01*
X37256Y96894D01*
Y98894D01*
X37266Y98799D01*
D02*
G37*
G36*
X10228Y98556D02*
X10271Y98471D01*
X10342Y98396D01*
X10441Y98331D01*
X10568Y98276D01*
X10724Y98231D01*
X10908Y98196D01*
X11120Y98171D01*
X11361Y98156D01*
X11630Y98151D01*
Y97151D01*
X11361Y97146D01*
X10908Y97106D01*
X10724Y97071D01*
X10568Y97026D01*
X10441Y96971D01*
X10342Y96906D01*
X10271Y96831D01*
X10228Y96746D01*
X10214Y96651D01*
Y98651D01*
X10228Y98556D01*
D02*
G37*
G36*
X29933Y97553D02*
X29892Y97468D01*
X29885Y97392D01*
X29912Y97327D01*
X29974Y97272D01*
X30070Y97226D01*
X30200Y97191D01*
X30364Y97166D01*
X30562Y97151D01*
X30794Y97146D01*
X29797Y96146D01*
X29603Y96144D01*
X28966Y96102D01*
X28840Y96083D01*
X28629Y96035D01*
X28544Y96005D01*
X28473Y95972D01*
X30008Y97649D01*
X29933Y97553D01*
D02*
G37*
G36*
X33433Y95646D02*
X33423Y95741D01*
X33393Y95826D01*
X33342Y95901D01*
X33272Y95966D01*
X33180Y96021D01*
X33069Y96066D01*
X32938Y96101D01*
X32786Y96126D01*
X32614Y96141D01*
X32421Y96146D01*
Y97146D01*
X32614Y97151D01*
X32786Y97166D01*
X32938Y97191D01*
X33069Y97226D01*
X33180Y97271D01*
X33272Y97326D01*
X33342Y97391D01*
X33393Y97466D01*
X33423Y97551D01*
X33433Y97646D01*
Y95646D01*
D02*
G37*
G36*
X26771Y95775D02*
X26636Y95771D01*
X26492Y95745D01*
X26338Y95696D01*
X26175Y95623D01*
X26003Y95528D01*
X25822Y95409D01*
X25631Y95267D01*
X25222Y94913D01*
X25003Y94702D01*
X23979Y95092D01*
X24127Y95247D01*
X24245Y95386D01*
X24333Y95510D01*
X24392Y95619D01*
X24421Y95712D01*
X24420Y95790D01*
X24390Y95853D01*
X24330Y95900D01*
X24240Y95932D01*
X24121Y95948D01*
X26771Y95775D01*
D02*
G37*
G36*
X10228Y92254D02*
X10271Y92169D01*
X10342Y92094D01*
X10441Y92029D01*
X10568Y91974D01*
X10724Y91929D01*
X10908Y91894D01*
X11120Y91869D01*
X11361Y91854D01*
X11630Y91849D01*
Y90849D01*
X11361Y90844D01*
X10908Y90804D01*
X10724Y90769D01*
X10568Y90724D01*
X10441Y90669D01*
X10342Y90604D01*
X10271Y90529D01*
X10228Y90444D01*
X10214Y90349D01*
Y92349D01*
X10228Y92254D01*
D02*
G37*
G36*
Y89103D02*
X10271Y89018D01*
X10342Y88943D01*
X10441Y88878D01*
X10568Y88823D01*
X10724Y88778D01*
X10908Y88743D01*
X11120Y88718D01*
X11361Y88703D01*
X11630Y88698D01*
Y87698D01*
X11361Y87693D01*
X10908Y87653D01*
X10724Y87618D01*
X10568Y87573D01*
X10441Y87518D01*
X10342Y87453D01*
X10271Y87378D01*
X10228Y87293D01*
X10214Y87198D01*
Y89198D01*
X10228Y89103D01*
D02*
G37*
G36*
X156438Y112205D02*
X173748D01*
Y97362D01*
X170717D01*
X166252Y92898D01*
Y84331D01*
X160362D01*
Y92882D01*
X153134Y100110D01*
Y112205D01*
X154378D01*
X154417Y112208D01*
X154891Y112287D01*
X155302Y112397D01*
X155649Y112539D01*
X155934Y112712D01*
X156156Y112917D01*
X156314Y113153D01*
X156409Y113421D01*
X156441Y113720D01*
X156438Y112205D01*
D02*
G37*
G36*
X36244Y81089D02*
X36159Y81058D01*
X36084Y81008D01*
X36019Y80937D01*
X35964Y80846D01*
X35919Y80734D01*
X35884Y80603D01*
X35859Y80451D01*
X35844Y80279D01*
X35839Y80087D01*
X34839D01*
X34834Y80279D01*
X34819Y80451D01*
X34794Y80603D01*
X34759Y80734D01*
X34714Y80846D01*
X34659Y80937D01*
X34594Y81008D01*
X34519Y81058D01*
X34434Y81089D01*
X34339Y81099D01*
X36339D01*
X36244Y81089D01*
D02*
G37*
G36*
X35844Y78745D02*
X35859Y78572D01*
X35884Y78421D01*
X35919Y78289D01*
X35964Y78178D01*
X36019Y78087D01*
X36084Y78016D01*
X36159Y77965D01*
X36244Y77935D01*
X36339Y77925D01*
X34339D01*
X34434Y77935D01*
X34519Y77965D01*
X34594Y78016D01*
X34659Y78087D01*
X34714Y78178D01*
X34759Y78289D01*
X34794Y78421D01*
X34819Y78572D01*
X34834Y78745D01*
X34839Y78937D01*
X35839D01*
X35844Y78745D01*
D02*
G37*
G36*
X16182Y84765D02*
Y76813D01*
X15682Y76643D01*
X15351Y77074D01*
X14518Y77714D01*
X13547Y78116D01*
X12985Y78190D01*
X12887Y78203D01*
X12706Y78239D01*
X12506Y78253D01*
Y78239D01*
X12506Y78239D01*
X10042D01*
Y79928D01*
X10445D01*
X11429Y80912D01*
Y82881D01*
X10838Y83472D01*
X11429Y84063D01*
Y86032D01*
X11085Y86376D01*
X11287Y86881D01*
X11342Y86886D01*
X14061D01*
X16182Y84765D01*
D02*
G37*
G36*
X29381Y76969D02*
X29324Y76905D01*
X29294Y76829D01*
X29291Y76741D01*
X29313Y76642D01*
X29361Y76530D01*
X29435Y76407D01*
X29535Y76271D01*
X29661Y76124D01*
X29814Y75964D01*
X28876Y75488D01*
X28711Y75646D01*
X28404Y75897D01*
X28261Y75991D01*
X28126Y76063D01*
X27999Y76114D01*
X27879Y76144D01*
X27766Y76152D01*
X27661Y76139D01*
X27567Y76105D01*
X27577Y76105D01*
X27566Y76105D01*
X27564Y76104D01*
X27565Y76105D01*
X27439Y76099D01*
X27299Y76077D01*
X27158Y76041D01*
X27017Y75989D01*
X26875Y75923D01*
X26731Y75842D01*
X26587Y75747D01*
X26442Y75636D01*
X26296Y75511D01*
X26148Y75370D01*
X24734D01*
X24868Y75512D01*
X24974Y75639D01*
X25049Y75750D01*
X25096Y75847D01*
X25114Y75930D01*
X25102Y75997D01*
X25062Y76050D01*
X24992Y76087D01*
X24892Y76110D01*
X24764Y76118D01*
X27566Y76105D01*
X29463Y77021D01*
X29381Y76969D01*
D02*
G37*
G36*
X40744Y74596D02*
X40731Y74689D01*
X40690Y74773D01*
X40624Y74846D01*
X40530Y74910D01*
X40409Y74964D01*
X40262Y75008D01*
X40088Y75042D01*
X39887Y75067D01*
X39660Y75082D01*
X39406Y75086D01*
Y76086D01*
X39660Y76091D01*
X40088Y76131D01*
X40262Y76165D01*
X40409Y76209D01*
X40530Y76263D01*
X40624Y76327D01*
X40690Y76401D01*
X40731Y76484D01*
X40744Y76577D01*
Y74596D01*
D02*
G37*
G36*
X37266Y76491D02*
X37296Y76407D01*
X37346Y76332D01*
X37416Y76266D01*
X37506Y76212D01*
X37616Y76166D01*
X37746Y76131D01*
X37896Y76107D01*
X38066Y76091D01*
X38256Y76086D01*
Y75086D01*
X38066Y75081D01*
X37896Y75067D01*
X37746Y75042D01*
X37616Y75007D01*
X37506Y74962D01*
X37416Y74906D01*
X37346Y74841D01*
X37296Y74766D01*
X37266Y74682D01*
X37256Y74586D01*
Y76587D01*
X37266Y76491D01*
D02*
G37*
G36*
X33433Y74586D02*
X33423Y74682D01*
X33393Y74766D01*
X33342Y74841D01*
X33272Y74906D01*
X33180Y74962D01*
X33069Y75007D01*
X32938Y75042D01*
X32786Y75067D01*
X32614Y75081D01*
X32421Y75086D01*
Y76086D01*
X32614Y76091D01*
X32786Y76107D01*
X32938Y76131D01*
X33069Y76166D01*
X33180Y76212D01*
X33272Y76266D01*
X33342Y76332D01*
X33393Y76407D01*
X33423Y76491D01*
X33433Y76587D01*
Y74586D01*
D02*
G37*
G36*
X40744Y69596D02*
X40731Y69689D01*
X40690Y69773D01*
X40624Y69846D01*
X40530Y69910D01*
X40409Y69964D01*
X40262Y70008D01*
X40088Y70042D01*
X39887Y70067D01*
X39660Y70082D01*
X39406Y70086D01*
Y71087D01*
X39660Y71091D01*
X40088Y71131D01*
X40262Y71165D01*
X40409Y71209D01*
X40530Y71263D01*
X40624Y71327D01*
X40690Y71400D01*
X40731Y71484D01*
X40744Y71577D01*
Y69596D01*
D02*
G37*
G36*
X37266Y71491D02*
X37296Y71407D01*
X37346Y71332D01*
X37416Y71267D01*
X37506Y71211D01*
X37616Y71166D01*
X37746Y71131D01*
X37896Y71106D01*
X38066Y71092D01*
X38256Y71087D01*
Y70086D01*
X38066Y70082D01*
X37896Y70066D01*
X37746Y70042D01*
X37616Y70007D01*
X37506Y69962D01*
X37416Y69907D01*
X37346Y69841D01*
X37296Y69766D01*
X37266Y69682D01*
X37256Y69586D01*
Y71587D01*
X37266Y71491D01*
D02*
G37*
G36*
X33433Y69586D02*
X33423Y69682D01*
X33393Y69766D01*
X33342Y69841D01*
X33272Y69907D01*
X33180Y69962D01*
X33069Y70007D01*
X32938Y70042D01*
X32786Y70066D01*
X32614Y70082D01*
X32421Y70086D01*
Y71087D01*
X32614Y71092D01*
X32786Y71106D01*
X32938Y71131D01*
X33069Y71166D01*
X33180Y71211D01*
X33272Y71267D01*
X33342Y71332D01*
X33393Y71407D01*
X33423Y71491D01*
X33433Y71587D01*
Y69586D01*
D02*
G37*
G36*
X28642Y71453D02*
X28983Y71308D01*
X29154Y71250D01*
X29498Y71159D01*
X29670Y71127D01*
X30017Y71091D01*
X30191Y71087D01*
X30944Y70086D01*
X30707Y70082D01*
X30504Y70066D01*
X30335Y70041D01*
X30199Y70006D01*
X30097Y69961D01*
X30029Y69905D01*
X29994Y69840D01*
X29994Y69764D01*
X30026Y69679D01*
X30093Y69583D01*
X28473Y71539D01*
X28642Y71453D01*
D02*
G37*
G36*
X22478Y71401D02*
X22626Y71275D01*
X22762Y71174D01*
X22888Y71097D01*
X23002Y71047D01*
X23105Y71021D01*
X23197Y71021D01*
X23278Y71046D01*
X23347Y71097D01*
X23405Y71172D01*
X22351Y69411D01*
X22392Y69502D01*
X22412Y69601D01*
X22409Y69708D01*
X22385Y69823D01*
X22338Y69946D01*
X22270Y70077D01*
X22180Y70216D01*
X22068Y70363D01*
X21934Y70517D01*
X21778Y70680D01*
X22320Y71553D01*
X22478Y71401D01*
D02*
G37*
G36*
X36244Y68238D02*
X36159Y68208D01*
X36084Y68157D01*
X36019Y68086D01*
X35964Y67995D01*
X35919Y67884D01*
X35884Y67752D01*
X35859Y67601D01*
X35844Y67429D01*
X35839Y67236D01*
X34839D01*
X34834Y67429D01*
X34819Y67601D01*
X34794Y67752D01*
X34759Y67884D01*
X34714Y67995D01*
X34659Y68086D01*
X34594Y68157D01*
X34519Y68208D01*
X34434Y68238D01*
X34339Y68248D01*
X36339D01*
X36244Y68238D01*
D02*
G37*
G36*
X35844Y65894D02*
X35859Y65722D01*
X35884Y65570D01*
X35919Y65439D01*
X35964Y65327D01*
X36019Y65236D01*
X36084Y65166D01*
X36159Y65115D01*
X36244Y65085D01*
X36339Y65074D01*
X34339D01*
X34434Y65085D01*
X34519Y65115D01*
X34594Y65166D01*
X34659Y65236D01*
X34714Y65327D01*
X34759Y65439D01*
X34794Y65570D01*
X34819Y65722D01*
X34834Y65894D01*
X34839Y66086D01*
X35839D01*
X35844Y65894D01*
D02*
G37*
G36*
X170738Y66575D02*
Y64606D01*
X168769Y64554D01*
Y66577D01*
X170738Y66575D01*
D02*
G37*
G36*
X161186Y69717D02*
X163557Y67715D01*
X164235Y67258D01*
X164856Y66908D01*
X165420Y66664D01*
X165928Y66525D01*
X166379Y66492D01*
X166773Y66565D01*
X160919Y64554D01*
X160885Y64557D01*
X160782Y64632D01*
X160611Y64779D01*
X158730Y66588D01*
X157498Y67813D01*
X160282Y70597D01*
X161186Y69717D01*
D02*
G37*
G36*
X131851Y65035D02*
X131881Y64523D01*
X131893Y64468D01*
X131906Y64429D01*
X131920Y64405D01*
X131937Y64398D01*
X130977D01*
X130993Y64405D01*
X131008Y64429D01*
X131021Y64468D01*
X131032Y64523D01*
X131041Y64594D01*
X131055Y64783D01*
X131063Y65185D01*
X131850D01*
X131851Y65035D01*
D02*
G37*
G36*
X125071Y62687D02*
X125063Y62762D01*
X125040Y62829D01*
X125000Y62888D01*
X124945Y62939D01*
X124874Y62982D01*
X124788Y63018D01*
X124685Y63045D01*
X124567Y63065D01*
X124433Y63077D01*
X124284Y63081D01*
Y63868D01*
X124433Y63872D01*
X124567Y63884D01*
X124685Y63903D01*
X124788Y63931D01*
X124874Y63967D01*
X124945Y64010D01*
X125000Y64061D01*
X125040Y64120D01*
X125063Y64187D01*
X125071Y64262D01*
Y62687D01*
D02*
G37*
G36*
X138378Y59866D02*
X138368Y59961D01*
X138338Y60046D01*
X138287Y60121D01*
X138216Y60186D01*
X138125Y60241D01*
X138014Y60286D01*
X137882Y60321D01*
X137731Y60346D01*
X137559Y60361D01*
X137456Y60364D01*
X137310Y60356D01*
X137140Y60326D01*
X136990Y60276D01*
X136860Y60206D01*
X136750Y60116D01*
X136660Y60006D01*
X136590Y59876D01*
X136540Y59726D01*
X136510Y59556D01*
X136500Y59366D01*
X135500D01*
X135490Y59556D01*
X135460Y59726D01*
X135410Y59876D01*
X135340Y60006D01*
X135250Y60116D01*
X135140Y60206D01*
X135010Y60276D01*
X134860Y60326D01*
X134690Y60356D01*
X134500Y60366D01*
X136000Y61366D01*
X137366Y60455D01*
Y61366D01*
X137559Y61371D01*
X137731Y61386D01*
X137882Y61411D01*
X138014Y61446D01*
X138125Y61491D01*
X138216Y61546D01*
X138287Y61611D01*
X138338Y61686D01*
X138368Y61771D01*
X138378Y61866D01*
Y59866D01*
D02*
G37*
G36*
X123988Y60386D02*
X123980Y60402D01*
X123957Y60417D01*
X123917Y60430D01*
X123862Y60441D01*
X123792Y60451D01*
X123603Y60465D01*
X123201Y60472D01*
Y61260D01*
X123351Y61261D01*
X123862Y61291D01*
X123917Y61302D01*
X123957Y61315D01*
X123980Y61330D01*
X123988Y61346D01*
Y60386D01*
D02*
G37*
G36*
X108113Y58867D02*
X108051Y58925D01*
X107984Y58977D01*
X107914Y59023D01*
X107840Y59063D01*
X107761Y59097D01*
X107679Y59124D01*
X107592Y59146D01*
X107501Y59161D01*
X107406Y59170D01*
X107308Y59173D01*
Y59961D01*
X107406Y59964D01*
X107501Y59973D01*
X107592Y59988D01*
X107679Y60010D01*
X107761Y60037D01*
X107840Y60071D01*
X107914Y60111D01*
X107984Y60157D01*
X108051Y60209D01*
X108113Y60267D01*
Y58867D01*
D02*
G37*
G36*
X123988Y58417D02*
X123980Y58434D01*
X123957Y58449D01*
X123917Y58462D01*
X123862Y58473D01*
X123792Y58482D01*
X123603Y58496D01*
X123201Y58504D01*
Y59291D01*
X123351Y59292D01*
X123862Y59323D01*
X123917Y59334D01*
X123957Y59347D01*
X123980Y59361D01*
X123988Y59378D01*
Y58417D01*
D02*
G37*
G36*
X179705Y55472D02*
Y52004D01*
X179225Y51897D01*
X179205Y51900D01*
X178768Y52469D01*
X178193Y52911D01*
X177522Y53189D01*
X176803Y53284D01*
X176083Y53189D01*
X175413Y52911D01*
X174837Y52469D01*
X174396Y51894D01*
X174118Y51223D01*
X174023Y50504D01*
X174118Y49784D01*
X174396Y49114D01*
X174837Y48538D01*
X175413Y48097D01*
X176083Y47819D01*
X176803Y47724D01*
X177522Y47819D01*
X178193Y48097D01*
X178768Y48538D01*
X179205Y49108D01*
X179225Y49111D01*
X179705Y49003D01*
Y42521D01*
X179673Y42312D01*
X179618Y42129D01*
X179555Y41997D01*
X179487Y41904D01*
X179411Y41835D01*
X179315Y41777D01*
X179182Y41728D01*
X179022Y41696D01*
X178849D01*
X178768Y41712D01*
X178071Y41574D01*
X177480Y41178D01*
X177085Y40587D01*
X176946Y39890D01*
X177085Y39192D01*
X177480Y38601D01*
X178071Y38206D01*
X178768Y38067D01*
X178849Y38083D01*
X179022D01*
X179182Y38052D01*
X179315Y38002D01*
X179411Y37944D01*
X179487Y37875D01*
X179555Y37782D01*
X179618Y37650D01*
X179673Y37468D01*
X179705Y37259D01*
Y28858D01*
X176487Y25640D01*
X176095Y25054D01*
X175957Y24362D01*
Y9382D01*
X171481Y4906D01*
X170986Y5118D01*
X170880Y5651D01*
X170485Y6242D01*
X169894Y6637D01*
X169197Y6776D01*
X168499Y6637D01*
X167908Y6242D01*
X167513Y5651D01*
X167374Y4953D01*
X167475Y4448D01*
X167163Y3948D01*
X157041D01*
X156644Y4448D01*
Y12873D01*
X151261D01*
Y13826D01*
X151446Y13951D01*
X151761Y14048D01*
X152267Y13710D01*
X152964Y13571D01*
X153662Y13710D01*
X154253Y14105D01*
X154648Y14696D01*
X154787Y15394D01*
X154648Y16091D01*
X154253Y16682D01*
X153662Y17077D01*
X152964Y17216D01*
X152267Y17077D01*
X151676Y16682D01*
X151281Y16091D01*
X151177Y15570D01*
X150705Y15375D01*
X150667Y15373D01*
X145913Y20127D01*
X145913Y20127D01*
X145436Y20604D01*
X145429Y20615D01*
X145421Y20628D01*
X145418Y20636D01*
X145417Y20638D01*
X145421Y20680D01*
X145418Y20708D01*
X145452Y20882D01*
X145314Y21579D01*
X144919Y22171D01*
X144327Y22566D01*
X143630Y22704D01*
X142932Y22566D01*
X142341Y22171D01*
X141946Y21579D01*
X141807Y20882D01*
X141946Y20185D01*
X142341Y19593D01*
X142932Y19198D01*
X143326Y19120D01*
X143396Y19095D01*
X143451Y19086D01*
X143476Y19081D01*
X143501Y19073D01*
X143527Y19063D01*
X143554Y19050D01*
X143584Y19033D01*
X143616Y19013D01*
X143639Y18995D01*
X144210Y18424D01*
X144210Y18424D01*
X144963Y17672D01*
X144798Y17129D01*
X144539Y17077D01*
X143948Y16682D01*
X143552Y16091D01*
X143414Y15394D01*
X143552Y14696D01*
X143948Y14105D01*
X144539Y13710D01*
X145185Y13581D01*
X145357Y13373D01*
X145278Y13094D01*
X145091Y12873D01*
X140798D01*
Y16603D01*
X140798Y16603D01*
X140707Y17064D01*
X140446Y17455D01*
X140446Y17455D01*
X126663Y31237D01*
X126272Y31498D01*
X125811Y31590D01*
X125811Y31590D01*
X118160D01*
X107329Y42421D01*
X107536Y42921D01*
X109824D01*
X119731Y33015D01*
X119731Y33015D01*
X120121Y32754D01*
X120582Y32662D01*
X120582Y32662D01*
X132037D01*
X132059Y32658D01*
X132085Y32652D01*
X132105Y32645D01*
X132121Y32638D01*
X132131Y32633D01*
X132168Y32577D01*
X132759Y32182D01*
X133457Y32044D01*
X134154Y32182D01*
X134745Y32577D01*
X135140Y33169D01*
X135279Y33866D01*
X135140Y34563D01*
X134745Y35155D01*
X134154Y35550D01*
X133457Y35689D01*
X132759Y35550D01*
X132168Y35155D01*
X132131Y35100D01*
X132121Y35094D01*
X132105Y35087D01*
X132085Y35081D01*
X132059Y35074D01*
X132037Y35070D01*
X123751D01*
X123484Y35570D01*
X123579Y35712D01*
X123717Y36409D01*
X123579Y37107D01*
X123184Y37698D01*
X122592Y38093D01*
X121895Y38232D01*
X121782Y38209D01*
X121765Y38209D01*
X121757Y38210D01*
X121750Y38211D01*
X121742Y38213D01*
X121732Y38217D01*
X121718Y38223D01*
X121699Y38235D01*
X121684Y38245D01*
X113532Y46396D01*
X113724Y46858D01*
X114456D01*
X114456Y46858D01*
X114917Y46950D01*
X115308Y47211D01*
X123556Y55459D01*
X123856Y55475D01*
X124272Y55199D01*
Y52598D01*
X130144D01*
Y50638D01*
X128917D01*
Y45205D01*
X133337D01*
X133354Y45201D01*
X133371Y45205D01*
X134154D01*
Y45929D01*
X134157Y45956D01*
X134195Y45978D01*
X134308Y46022D01*
X134481Y46066D01*
X134710Y46102D01*
X134863Y46115D01*
X136861D01*
X137012Y46102D01*
X137242Y46067D01*
X137415Y46023D01*
X137529Y45979D01*
X137565Y45959D01*
X137567Y45940D01*
Y45217D01*
X138349D01*
X138366Y45213D01*
X138384Y45217D01*
X142650D01*
X142857Y44717D01*
X139668Y41527D01*
X139407Y41137D01*
X139315Y40676D01*
X139315Y40676D01*
Y36495D01*
X138761D01*
Y38341D01*
X138761Y38341D01*
X138669Y38802D01*
X138408Y39193D01*
X138408Y39193D01*
X136269Y41332D01*
X135878Y41593D01*
X135417Y41685D01*
X135417Y41685D01*
X134153D01*
Y43197D01*
X128917D01*
Y37764D01*
X134153D01*
Y39276D01*
X134918D01*
X136352Y37842D01*
Y36495D01*
X135969D01*
Y35713D01*
X135966Y35695D01*
X135969Y35678D01*
Y27820D01*
X149144D01*
Y36495D01*
X147415D01*
X147224Y36957D01*
X147973Y37705D01*
X148287Y37575D01*
Y37575D01*
X153524D01*
Y43008D01*
X148287D01*
Y42098D01*
X148004D01*
X147313Y41960D01*
X146727Y41569D01*
X143839Y38681D01*
X143798Y38654D01*
X143646Y38686D01*
X143298Y38828D01*
Y39525D01*
X149033Y45259D01*
X149294Y45650D01*
X149385Y46110D01*
Y57535D01*
X150624Y58774D01*
X160120D01*
Y57170D01*
X156103D01*
X156103Y57170D01*
X155642Y57078D01*
X155252Y56817D01*
X155252Y56817D01*
X154950Y56516D01*
X151221D01*
Y51279D01*
X156653D01*
Y54761D01*
X160120D01*
Y54154D01*
X169569D01*
Y57354D01*
Y60554D01*
Y63772D01*
X170026Y63784D01*
X171394D01*
X179705Y55472D01*
D02*
G37*
G36*
X123988Y56449D02*
X123982Y56465D01*
X123962Y56480D01*
X123928Y56493D01*
X123882Y56504D01*
X123822Y56514D01*
X123662Y56528D01*
X123449Y56535D01*
X123323Y56535D01*
Y57323D01*
X123449Y57324D01*
X123882Y57354D01*
X123928Y57365D01*
X123962Y57378D01*
X123982Y57393D01*
X123988Y57409D01*
Y56449D01*
D02*
G37*
G36*
X100487Y57061D02*
X100499Y56926D01*
X100518Y56806D01*
X100546Y56702D01*
X100581Y56614D01*
X100625Y56542D01*
X100676Y56486D01*
X100735Y56446D01*
X100802Y56422D01*
X100877Y56414D01*
X99302D01*
X99377Y56422D01*
X99444Y56446D01*
X99502Y56486D01*
X99554Y56542D01*
X99597Y56614D01*
X99633Y56702D01*
X99660Y56806D01*
X99680Y56926D01*
X99691Y57061D01*
X99695Y57213D01*
X100483D01*
X100487Y57061D01*
D02*
G37*
G36*
X160931Y55178D02*
X160923Y55253D01*
X160899Y55320D01*
X160859Y55379D01*
X160803Y55430D01*
X160731Y55473D01*
X160643Y55509D01*
X160539Y55536D01*
X160419Y55556D01*
X160284Y55568D01*
X160132Y55572D01*
Y56359D01*
X160284Y56363D01*
X160419Y56375D01*
X160539Y56394D01*
X160643Y56422D01*
X160731Y56458D01*
X160803Y56501D01*
X160859Y56552D01*
X160899Y56611D01*
X160923Y56678D01*
X160931Y56753D01*
Y55178D01*
D02*
G37*
G36*
X102860Y54409D02*
X102899Y54399D01*
X102951Y54390D01*
X103098Y54376D01*
X103424Y54364D01*
X103711Y54362D01*
Y53574D01*
X103560Y53574D01*
X102860Y53527D01*
X102836Y53516D01*
Y54420D01*
X102860Y54409D01*
D02*
G37*
G36*
Y52441D02*
X102899Y52431D01*
X102951Y52422D01*
X103098Y52408D01*
X103424Y52395D01*
X103711Y52393D01*
Y51606D01*
X103560Y51605D01*
X102860Y51558D01*
X102836Y51547D01*
Y52452D01*
X102860Y52441D01*
D02*
G37*
G36*
X136502Y53265D02*
X136596Y51785D01*
X136626Y51660D01*
X136652Y51588D01*
X136662Y51573D01*
X136700Y51530D01*
X136684D01*
X136696Y51512D01*
X135304D01*
X135316Y51530D01*
X135300D01*
X135338Y51573D01*
X135348Y51588D01*
X135374Y51660D01*
X135404Y51785D01*
X135429Y51946D01*
X135469Y52370D01*
X135498Y53265D01*
X135500Y53632D01*
X136500D01*
X136502Y53265D01*
D02*
G37*
G36*
X130253Y67618D02*
Y65197D01*
X130177D01*
Y64415D01*
X130174Y64398D01*
X130177Y64380D01*
Y64370D01*
X130175Y64354D01*
X130177Y64345D01*
Y61752D01*
X130177Y61752D01*
X130086Y61376D01*
X130081Y61369D01*
X129981Y60866D01*
X130081Y60364D01*
X130365Y59938D01*
X130374Y59932D01*
Y59587D01*
X131127D01*
X131293Y59553D01*
X134618D01*
X134662Y59546D01*
X134675Y59541D01*
X134680Y59528D01*
X134687Y59485D01*
Y53040D01*
X134667Y52420D01*
X134632Y52046D01*
X134620Y51968D01*
X134316Y51514D01*
X134178Y50816D01*
X133703Y50638D01*
X133371D01*
X133354Y50641D01*
X133337Y50638D01*
X132769D01*
Y54321D01*
X132736Y54487D01*
Y56043D01*
X126634D01*
Y57618D01*
Y61752D01*
X126831D01*
Y65197D01*
X124272D01*
Y64679D01*
X116019D01*
X115558Y64587D01*
X115168Y64326D01*
X115168Y64326D01*
X110986Y60144D01*
X110466Y60331D01*
X110115Y60856D01*
X109524Y61251D01*
X108827Y61389D01*
X108129Y61251D01*
X107538Y60856D01*
X107501Y60800D01*
X107491Y60795D01*
X107475Y60788D01*
X107455Y60781D01*
X107429Y60775D01*
X107407Y60771D01*
X106819D01*
X106819Y60771D01*
X106358Y60680D01*
X105967Y60418D01*
X105967Y60418D01*
X104763Y59214D01*
X104502Y58823D01*
X104410Y58362D01*
X104410Y58362D01*
Y56605D01*
X104333Y56549D01*
X104277Y56536D01*
X103691Y56679D01*
X103571Y56859D01*
X103147Y57142D01*
X102648Y57241D01*
X101293D01*
Y58656D01*
X111843Y69205D01*
X128665D01*
X130253Y67618D01*
D02*
G37*
G36*
X131962Y50648D02*
X131977Y50478D01*
X132002Y50328D01*
X132037Y50198D01*
X132082Y50088D01*
X132137Y49998D01*
X132202Y49928D01*
X132277Y49878D01*
X132362Y49848D01*
X132457Y49838D01*
X130457D01*
X130552Y49848D01*
X130637Y49878D01*
X130712Y49928D01*
X130777Y49998D01*
X130832Y50088D01*
X130877Y50198D01*
X130912Y50328D01*
X130937Y50478D01*
X130952Y50648D01*
X130957Y50838D01*
X131957D01*
X131962Y50648D01*
D02*
G37*
G36*
X109603Y50972D02*
X109669Y50920D01*
X109739Y50875D01*
X109814Y50835D01*
X109892Y50801D01*
X109975Y50773D01*
X110062Y50752D01*
X110152Y50737D01*
X110247Y50727D01*
X110346Y50724D01*
Y49937D01*
X110247Y49934D01*
X110152Y49925D01*
X110062Y49909D01*
X109975Y49888D01*
X109892Y49860D01*
X109814Y49827D01*
X109739Y49787D01*
X109669Y49741D01*
X109603Y49689D01*
X109541Y49631D01*
Y51031D01*
X109603Y50972D01*
D02*
G37*
G36*
X102860Y50472D02*
X102899Y50462D01*
X102951Y50453D01*
X103098Y50439D01*
X103424Y50427D01*
X103711Y50425D01*
Y49637D01*
X103560Y49637D01*
X102860Y49590D01*
X102836Y49579D01*
Y50483D01*
X102860Y50472D01*
D02*
G37*
G36*
X10114Y51530D02*
X10217Y51486D01*
X10354Y51448D01*
X10526Y51414D01*
X10731Y51386D01*
X11245Y51344D01*
X12272Y51321D01*
X12125Y49352D01*
X10045Y49241D01*
Y51579D01*
X10114Y51530D01*
D02*
G37*
G36*
X137000Y50453D02*
X137048Y50128D01*
X137129Y49842D01*
X137241Y49593D01*
X137386Y49383D01*
X137563Y49211D01*
X137771Y49077D01*
X137795Y49068D01*
X137874Y49093D01*
X138051Y49175D01*
X138189Y49272D01*
X138288Y49384D01*
X138347Y49511D01*
X138366Y49653D01*
Y48919D01*
X138591Y48906D01*
X138366Y48735D01*
Y46016D01*
X138347Y46191D01*
X138288Y46347D01*
X138189Y46486D01*
X138051Y46605D01*
X137874Y46707D01*
X137658Y46790D01*
X137402Y46854D01*
X137107Y46900D01*
X136772Y46928D01*
X136398Y46937D01*
Y47239D01*
X136000Y46937D01*
X135323Y47389D01*
Y46937D01*
X134949Y46928D01*
X134614Y46900D01*
X134319Y46853D01*
X134063Y46788D01*
X133846Y46704D01*
X133669Y46601D01*
X133531Y46480D01*
X133433Y46340D01*
X133374Y46181D01*
X133354Y46004D01*
Y48701D01*
X133047Y48906D01*
X133354Y48921D01*
Y49838D01*
X133374Y49661D01*
X133433Y49503D01*
X133531Y49363D01*
X133669Y49241D01*
X133846Y49139D01*
X134026Y49069D01*
X134051Y49077D01*
X134307Y49211D01*
X134524Y49383D01*
X134701Y49593D01*
X134839Y49842D01*
X134937Y50128D01*
X134996Y50453D01*
X135016Y50816D01*
X136984D01*
X137000Y50453D01*
D02*
G37*
G36*
X22323Y48382D02*
X22316Y48450D01*
X22293Y48511D01*
X22254Y48564D01*
X22201Y48611D01*
X22132Y48651D01*
X22048Y48683D01*
X21949Y48708D01*
X21834Y48726D01*
X21704Y48737D01*
X21559Y48740D01*
Y49528D01*
X21704Y49531D01*
X21834Y49542D01*
X21949Y49560D01*
X22048Y49585D01*
X22132Y49617D01*
X22201Y49657D01*
X22254Y49703D01*
X22293Y49757D01*
X22316Y49818D01*
X22323Y49886D01*
Y48382D01*
D02*
G37*
G36*
X102860Y48504D02*
X102899Y48494D01*
X102951Y48485D01*
X103098Y48471D01*
X103424Y48458D01*
X103711Y48456D01*
Y47669D01*
X103560Y47668D01*
X102860Y47621D01*
X102836Y47610D01*
Y48515D01*
X102860Y48504D01*
D02*
G37*
G36*
X94034Y47291D02*
X94044Y47207D01*
X94061Y47125D01*
X94086Y47044D01*
X94117Y46965D01*
X94156Y46887D01*
X94203Y46811D01*
X94256Y46736D01*
X94316Y46662D01*
X94384Y46590D01*
X93827Y46033D01*
X93755Y46101D01*
X93682Y46161D01*
X93607Y46215D01*
X93530Y46261D01*
X93452Y46300D01*
X93373Y46332D01*
X93292Y46356D01*
X93210Y46373D01*
X93127Y46383D01*
X93041Y46386D01*
X94031Y47376D01*
X94034Y47291D01*
D02*
G37*
G36*
X102860Y46535D02*
X102899Y46525D01*
X102951Y46516D01*
X103098Y46502D01*
X103424Y46490D01*
X103711Y46488D01*
Y45700D01*
X103560Y45700D01*
X102860Y45653D01*
X102836Y45642D01*
Y46546D01*
X102860Y46535D01*
D02*
G37*
G36*
X97343Y45642D02*
X97318Y45653D01*
X97280Y45663D01*
X97227Y45671D01*
X97080Y45686D01*
X96755Y45698D01*
X96468Y45700D01*
Y46488D01*
X96618Y46488D01*
X97318Y46535D01*
X97343Y46546D01*
Y45642D01*
D02*
G37*
G36*
X91583Y45088D02*
X91590Y45023D01*
X91605Y44956D01*
X91628Y44887D01*
X91660Y44817D01*
X91699Y44746D01*
X91748Y44674D01*
X91804Y44600D01*
X91869Y44525D01*
X91942Y44448D01*
X91385Y43892D01*
X91309Y43964D01*
X91160Y44086D01*
X91087Y44134D01*
X91016Y44174D01*
X90946Y44205D01*
X90878Y44228D01*
X90811Y44243D01*
X90745Y44250D01*
X90680Y44248D01*
X91585Y45153D01*
X91583Y45088D01*
D02*
G37*
G36*
X102860Y44567D02*
X102899Y44557D01*
X102951Y44548D01*
X103098Y44534D01*
X103424Y44521D01*
X103711Y44519D01*
Y43732D01*
X103560Y43731D01*
X102860Y43684D01*
X102836Y43673D01*
Y44578D01*
X102860Y44567D01*
D02*
G37*
G36*
X97343Y43673D02*
X97311Y43689D01*
X97267Y43703D01*
X97209Y43715D01*
X97138Y43726D01*
X96956Y43742D01*
X96583Y43755D01*
X96432Y43756D01*
X96504Y44543D01*
X97343Y44578D01*
Y43673D01*
D02*
G37*
G36*
X10424Y44838D02*
X10455Y44771D01*
X10506Y44712D01*
X10577Y44661D01*
X10667Y44618D01*
X10778Y44582D01*
X10908Y44555D01*
X11058Y44535D01*
X11227Y44523D01*
X11417Y44519D01*
Y43732D01*
X11231Y43728D01*
X10916Y43696D01*
X10789Y43669D01*
X10682Y43633D01*
X10594Y43590D01*
X10526Y43539D01*
X10478Y43480D01*
X10450Y43413D01*
X10441Y43338D01*
X10412Y44913D01*
X10424Y44838D01*
D02*
G37*
G36*
X102920Y42557D02*
X103009Y42510D01*
X103103Y42469D01*
X103202Y42433D01*
X103305Y42403D01*
X103413Y42378D01*
X103525Y42359D01*
X103642Y42345D01*
X103890Y42334D01*
X103868Y41547D01*
X103630Y41548D01*
X102887Y41603D01*
X102829Y41624D01*
X102801Y41648D01*
X102803Y41675D01*
X102836Y41705D01*
Y42609D01*
X102920Y42557D01*
D02*
G37*
G36*
X103868Y39972D02*
X103736Y39970D01*
X103490Y39951D01*
X103377Y39934D01*
X103170Y39887D01*
X103077Y39856D01*
X102990Y39821D01*
X102909Y39781D01*
X102836Y39736D01*
Y40641D01*
X102814Y40663D01*
X102821Y40683D01*
X102856Y40701D01*
X102919Y40717D01*
X103010Y40730D01*
X103130Y40740D01*
X103658Y40758D01*
X103890Y40759D01*
X103868Y39972D01*
D02*
G37*
G36*
X133350Y41193D02*
X133374Y41126D01*
X133414Y41067D01*
X133470Y41016D01*
X133542Y40973D01*
X133630Y40937D01*
X133734Y40909D01*
X133854Y40890D01*
X133990Y40878D01*
X134142Y40874D01*
Y40087D01*
X133990Y40083D01*
X133854Y40071D01*
X133734Y40051D01*
X133630Y40024D01*
X133542Y39988D01*
X133470Y39945D01*
X133414Y39894D01*
X133374Y39835D01*
X133350Y39768D01*
X133342Y39693D01*
Y41268D01*
X133350Y41193D01*
D02*
G37*
G36*
X149099Y39209D02*
X149088Y39227D01*
X149055Y39244D01*
X149000Y39259D01*
X148924Y39272D01*
X148825Y39283D01*
X148398Y39303D01*
X148004Y39307D01*
Y41276D01*
X148212Y41277D01*
X149000Y41324D01*
X149055Y41339D01*
X149088Y41355D01*
X149099Y41374D01*
Y39209D01*
D02*
G37*
G36*
X82831Y39114D02*
X82779Y39047D01*
X82733Y38977D01*
X82693Y38903D01*
X82659Y38824D01*
X82632Y38742D01*
X82610Y38655D01*
X82595Y38564D01*
X82586Y38469D01*
X82583Y38370D01*
X81795D01*
X81792Y38469D01*
X81783Y38564D01*
X81768Y38655D01*
X81746Y38742D01*
X81719Y38824D01*
X81685Y38903D01*
X81645Y38977D01*
X81599Y39047D01*
X81547Y39114D01*
X81489Y39176D01*
X82889D01*
X82831Y39114D01*
D02*
G37*
G36*
X95836Y38901D02*
X95900Y38847D01*
X95969Y38800D01*
X96042Y38759D01*
X96119Y38724D01*
X96201Y38696D01*
X96287Y38674D01*
X96378Y38658D01*
X96473Y38649D01*
X96543Y38646D01*
X97343Y38672D01*
Y37768D01*
X97309Y37785D01*
X97263Y37800D01*
X97203Y37814D01*
X97130Y37826D01*
X96946Y37843D01*
X96571Y37857D01*
X96524Y37857D01*
X96446Y37855D01*
X96351Y37846D01*
X96260Y37831D01*
X96173Y37811D01*
X96089Y37784D01*
X96010Y37751D01*
X95934Y37712D01*
X95863Y37668D01*
X95795Y37617D01*
X95731Y37561D01*
X95775Y38960D01*
X95836Y38901D01*
D02*
G37*
G36*
X182496Y39890D02*
X180528Y36937D01*
X180510Y37311D01*
X180457Y37646D01*
X180369Y37941D01*
X180246Y38197D01*
X180088Y38413D01*
X179894Y38591D01*
X179666Y38728D01*
X179402Y38827D01*
X179103Y38886D01*
X178768Y38906D01*
Y40874D01*
X179103Y40894D01*
X179402Y40953D01*
X179666Y41051D01*
X179894Y41189D01*
X180088Y41366D01*
X180246Y41583D01*
X180369Y41839D01*
X180457Y42134D01*
X180510Y42469D01*
X180528Y42843D01*
X182496Y39890D01*
D02*
G37*
G36*
X121117Y37670D02*
X121191Y37610D01*
X121266Y37558D01*
X121342Y37513D01*
X121420Y37476D01*
X121499Y37447D01*
X121580Y37425D01*
X121662Y37412D01*
X121745Y37406D01*
X121829Y37407D01*
X120896Y36364D01*
X120889Y36449D01*
X120875Y36532D01*
X120854Y36614D01*
X120827Y36695D01*
X120792Y36774D01*
X120752Y36852D01*
X120704Y36928D01*
X120650Y37003D01*
X120589Y37076D01*
X120521Y37148D01*
X121044Y37738D01*
X121117Y37670D01*
D02*
G37*
G36*
X79597Y36618D02*
X79512Y36607D01*
X79429Y36591D01*
X79347Y36567D01*
X79267Y36538D01*
X79188Y36502D01*
X79111Y36460D01*
X79035Y36411D01*
X78960Y36356D01*
X78887Y36295D01*
X78816Y36228D01*
X78201Y36727D01*
X78269Y36799D01*
X78329Y36873D01*
X78381Y36948D01*
X78425Y37025D01*
X78461Y37103D01*
X78488Y37181D01*
X78508Y37262D01*
X78519Y37343D01*
X78522Y37426D01*
X78517Y37510D01*
X79597Y36618D01*
D02*
G37*
G36*
X85333Y36807D02*
X85289Y36753D01*
X85251Y36694D01*
X85218Y36628D01*
X85190Y36555D01*
X85167Y36476D01*
X85149Y36390D01*
X85136Y36298D01*
X85128Y36200D01*
X85126Y36095D01*
X84339D01*
X84336Y36200D01*
X84328Y36298D01*
X84316Y36390D01*
X84298Y36476D01*
X84275Y36555D01*
X84247Y36628D01*
X84213Y36694D01*
X84175Y36753D01*
X84132Y36807D01*
X84083Y36854D01*
X85381D01*
X85333Y36807D01*
D02*
G37*
G36*
X145845Y35695D02*
X144269D01*
X144272Y37270D01*
X145847D01*
X145845Y35695D01*
D02*
G37*
G36*
X137954Y36333D02*
X137966Y36199D01*
X137986Y36081D01*
X138014Y35979D01*
X138049Y35892D01*
X138092Y35821D01*
X138144Y35766D01*
X138203Y35727D01*
X138270Y35703D01*
X138345Y35695D01*
X136769D01*
X136844Y35703D01*
X136911Y35727D01*
X136970Y35766D01*
X137021Y35821D01*
X137064Y35892D01*
X137100Y35979D01*
X137127Y36081D01*
X137147Y36199D01*
X137159Y36333D01*
X137163Y36483D01*
X137950D01*
X137954Y36333D01*
D02*
G37*
G36*
X93924Y33907D02*
X93862Y33966D01*
X93795Y34018D01*
X93725Y34064D01*
X93651Y34103D01*
X93572Y34137D01*
X93490Y34165D01*
X93403Y34186D01*
X93312Y34201D01*
X93217Y34211D01*
X93119Y34214D01*
Y35001D01*
X93217Y35004D01*
X93312Y35013D01*
X93403Y35029D01*
X93490Y35050D01*
X93572Y35078D01*
X93651Y35111D01*
X93725Y35151D01*
X93795Y35197D01*
X93862Y35249D01*
X93924Y35307D01*
Y33907D01*
D02*
G37*
G36*
X132743Y33166D02*
X132680Y33224D01*
X132614Y33276D01*
X132544Y33322D01*
X132470Y33362D01*
X132391Y33396D01*
X132309Y33423D01*
X132222Y33445D01*
X132131Y33460D01*
X132036Y33469D01*
X131937Y33472D01*
Y34260D01*
X132036Y34263D01*
X132131Y34272D01*
X132222Y34287D01*
X132309Y34309D01*
X132391Y34336D01*
X132470Y34370D01*
X132544Y34410D01*
X132614Y34456D01*
X132680Y34508D01*
X132743Y34566D01*
Y33166D01*
D02*
G37*
G36*
X91535Y32871D02*
X91536Y32721D01*
X91575Y32032D01*
X91585Y32010D01*
X90680D01*
X90693Y32037D01*
X90705Y32078D01*
X90715Y32132D01*
X90724Y32201D01*
X90742Y32488D01*
X90748Y32899D01*
X91535Y32871D01*
D02*
G37*
G36*
X79716Y32734D02*
X79763Y32034D01*
X79774Y32010D01*
X78869D01*
X78880Y32034D01*
X78890Y32073D01*
X78899Y32125D01*
X78913Y32272D01*
X78925Y32598D01*
X78928Y32885D01*
X79715D01*
X79716Y32734D01*
D02*
G37*
G36*
X77747D02*
X77794Y32034D01*
X77805Y32010D01*
X76901D01*
X76912Y32034D01*
X76922Y32073D01*
X76930Y32125D01*
X76945Y32272D01*
X76957Y32598D01*
X76959Y32885D01*
X77747D01*
X77747Y32734D01*
D02*
G37*
G36*
X102803Y30252D02*
X101136D01*
X101177Y29996D01*
X101244Y29740D01*
X101330Y29523D01*
X101434Y29346D01*
X101558Y29208D01*
X101701Y29110D01*
X101862Y29051D01*
X102043Y29031D01*
X98209D01*
X98383Y29051D01*
X98538Y29110D01*
X98675Y29208D01*
X98794Y29346D01*
X98895Y29523D01*
X98977Y29740D01*
X99041Y29996D01*
X99081Y30252D01*
X97449D01*
Y32394D01*
X102803D01*
Y30252D01*
D02*
G37*
G36*
X45420Y27490D02*
X45520Y26030D01*
X45543Y26012D01*
X42610Y26000D01*
X42770Y26019D01*
X42913Y26074D01*
X43039Y26166D01*
X43148Y26295D01*
X43240Y26461D01*
X43316Y26662D01*
X43375Y26901D01*
X43417Y27176D01*
X43442Y27488D01*
X43451Y27836D01*
X45419D01*
X45420Y27490D01*
D02*
G37*
G36*
X89605Y26492D02*
X89595Y26454D01*
X89586Y26401D01*
X89572Y26254D01*
X89560Y25929D01*
X89558Y25642D01*
X88770D01*
X88770Y25792D01*
X88723Y26492D01*
X88712Y26517D01*
X89616D01*
X89605Y26492D01*
D02*
G37*
G36*
X87637D02*
X87627Y26454D01*
X87618Y26401D01*
X87604Y26254D01*
X87591Y25929D01*
X87589Y25642D01*
X86802D01*
X86801Y25792D01*
X86754Y26492D01*
X86743Y26517D01*
X87648D01*
X87637Y26492D01*
D02*
G37*
G36*
X85668D02*
X85658Y26454D01*
X85649Y26401D01*
X85635Y26254D01*
X85623Y25929D01*
X85621Y25642D01*
X84833D01*
X84833Y25792D01*
X84786Y26492D01*
X84775Y26517D01*
X85679D01*
X85668Y26492D01*
D02*
G37*
G36*
X83700D02*
X83690Y26454D01*
X83681Y26401D01*
X83667Y26254D01*
X83654Y25929D01*
X83652Y25642D01*
X82865D01*
X82864Y25792D01*
X82817Y26492D01*
X82806Y26517D01*
X83711D01*
X83700Y26492D01*
D02*
G37*
G36*
X95508Y26488D02*
X95495Y26446D01*
X95484Y26390D01*
X95475Y26320D01*
X95460Y26141D01*
X95448Y25619D01*
X94661Y25664D01*
X94617Y26517D01*
X95522D01*
X95508Y26488D01*
D02*
G37*
G36*
X95448Y24001D02*
X95451Y23902D01*
X95460Y23807D01*
X95475Y23716D01*
X95496Y23629D01*
X95524Y23547D01*
X95557Y23468D01*
X95596Y23393D01*
X95641Y23322D01*
X95693Y23255D01*
X95750Y23192D01*
X94350Y23213D01*
X94409Y23274D01*
X94462Y23339D01*
X94509Y23409D01*
X94549Y23483D01*
X94583Y23561D01*
X94611Y23643D01*
X94633Y23729D01*
X94648Y23820D01*
X94658Y23915D01*
X94661Y24014D01*
X95448Y24001D01*
D02*
G37*
G36*
X129974Y23970D02*
X130531Y22857D01*
X130420Y22957D01*
X130308Y23035D01*
X130197Y23091D01*
X130086Y23124D01*
X129974Y23135D01*
X129863Y23124D01*
X129752Y23091D01*
X129640Y23035D01*
X129529Y22957D01*
X129473Y22907D01*
X129472Y22905D01*
X129227Y22616D01*
X129138Y22488D01*
X129071Y22371D01*
X129026Y22265D01*
X129004Y22170D01*
Y22087D01*
X129026Y22014D01*
X129071Y21953D01*
X127957Y23067D01*
X128018Y23022D01*
X128091Y23000D01*
X128174D01*
X128269Y23022D01*
X128375Y23067D01*
X128492Y23133D01*
X128620Y23223D01*
X128759Y23334D01*
X128943Y23505D01*
X128961Y23525D01*
X129039Y23636D01*
X129095Y23748D01*
X129128Y23859D01*
X129139Y23970D01*
X129128Y24082D01*
X129095Y24193D01*
X129039Y24305D01*
X128961Y24416D01*
X128861Y24527D01*
X129974Y23970D01*
D02*
G37*
G36*
X59031Y22170D02*
X58964Y22146D01*
X58905Y22106D01*
X58854Y22051D01*
X58811Y21981D01*
X58775Y21894D01*
X58748Y21791D01*
X58728Y21673D01*
X58716Y21540D01*
X58712Y21390D01*
X57925D01*
X57921Y21540D01*
X57909Y21673D01*
X57889Y21791D01*
X57862Y21894D01*
X57826Y21981D01*
X57783Y22051D01*
X57732Y22106D01*
X57673Y22146D01*
X57606Y22170D01*
X57531Y22177D01*
X59106D01*
X59031Y22170D01*
D02*
G37*
G36*
X45385Y22158D02*
X45243Y22099D01*
X45118Y22000D01*
X45009Y21862D01*
X44917Y21685D01*
X44842Y21469D01*
X44784Y21213D01*
X44742Y20918D01*
X44717Y20583D01*
X44709Y20209D01*
X42740D01*
X42732Y20583D01*
X42707Y20918D01*
X42665Y21213D01*
X42607Y21469D01*
X42531Y21685D01*
X42440Y21862D01*
X42331Y22000D01*
X42206Y22099D01*
X42064Y22158D01*
X41906Y22177D01*
X45543D01*
X45385Y22158D01*
D02*
G37*
G36*
X144614Y20665D02*
X144615Y20583D01*
X144625Y20502D01*
X144643Y20422D01*
X144669Y20344D01*
X144704Y20266D01*
X144747Y20190D01*
X144798Y20115D01*
X144858Y20041D01*
X144926Y19968D01*
X144294Y19487D01*
X144222Y19554D01*
X144150Y19616D01*
X144075Y19671D01*
X144000Y19721D01*
X143923Y19764D01*
X143844Y19801D01*
X143764Y19832D01*
X143683Y19857D01*
X143600Y19876D01*
X143516Y19888D01*
X144621Y20749D01*
X144614Y20665D01*
D02*
G37*
G36*
X58716Y20098D02*
X58728Y19964D01*
X58748Y19846D01*
X58775Y19744D01*
X58811Y19657D01*
X58854Y19586D01*
X58905Y19531D01*
X58964Y19492D01*
X59031Y19468D01*
X59106Y19460D01*
X57531D01*
X57606Y19468D01*
X57673Y19492D01*
X57732Y19531D01*
X57783Y19586D01*
X57826Y19657D01*
X57862Y19744D01*
X57889Y19846D01*
X57909Y19964D01*
X57921Y20098D01*
X57925Y20248D01*
X58712D01*
X58716Y20098D01*
D02*
G37*
G36*
X79689Y19237D02*
X79622Y19212D01*
X79563Y19173D01*
X79512Y19117D01*
X79469Y19045D01*
X79433Y18957D01*
X79405Y18853D01*
X79386Y18733D01*
X79374Y18597D01*
X79370Y18445D01*
X78583D01*
X78579Y18597D01*
X78567Y18733D01*
X78547Y18853D01*
X78520Y18957D01*
X78484Y19045D01*
X78441Y19117D01*
X78390Y19173D01*
X78331Y19212D01*
X78264Y19237D01*
X78189Y19244D01*
X79764D01*
X79689Y19237D01*
D02*
G37*
G36*
X94299Y19386D02*
X94447Y19260D01*
X94518Y19209D01*
X94586Y19166D01*
X94653Y19131D01*
X94717Y19104D01*
X94778Y19085D01*
X94838Y19073D01*
X94895Y19070D01*
X93905Y18080D01*
X93901Y18137D01*
X93890Y18197D01*
X93871Y18258D01*
X93844Y18322D01*
X93809Y18388D01*
X93766Y18457D01*
X93715Y18528D01*
X93656Y18601D01*
X93515Y18753D01*
X94222Y19460D01*
X94299Y19386D01*
D02*
G37*
G36*
X10100Y20048D02*
X10191Y20016D01*
X10317Y19988D01*
X10479Y19964D01*
X10909Y19927D01*
X11823Y19900D01*
X12199Y19898D01*
Y17929D01*
X11823Y17928D01*
X10317Y17839D01*
X10191Y17811D01*
X10100Y17780D01*
X10045Y17744D01*
Y20083D01*
X10100Y20048D01*
D02*
G37*
G36*
X56142Y17716D02*
X56085Y17690D01*
X56036Y17648D01*
X55993Y17588D01*
X55956Y17513D01*
X55926Y17420D01*
X55903Y17310D01*
X55887Y17184D01*
X55877Y17041D01*
X55874Y16882D01*
X54874D01*
X54885Y17713D01*
X56204Y17725D01*
X56142Y17716D01*
D02*
G37*
G36*
X79378Y17095D02*
X79402Y16961D01*
X79441Y16842D01*
X79496Y16740D01*
X79567Y16654D01*
X79654Y16583D01*
X79756Y16528D01*
X79874Y16488D01*
X80008Y16465D01*
X80158Y16457D01*
X78976Y15669D01*
X77795Y16457D01*
X77945Y16465D01*
X78079Y16488D01*
X78197Y16528D01*
X78299Y16583D01*
X78386Y16654D01*
X78457Y16740D01*
X78512Y16842D01*
X78551Y16961D01*
X78575Y17095D01*
X78583Y17244D01*
X79370D01*
X79378Y17095D01*
D02*
G37*
G36*
X146239Y15299D02*
X146249Y15215D01*
X146266Y15133D01*
X146291Y15052D01*
X146322Y14973D01*
X146361Y14895D01*
X146407Y14818D01*
X146460Y14743D01*
X146521Y14670D01*
X146589Y14598D01*
X146032Y14041D01*
X145960Y14109D01*
X145886Y14169D01*
X145811Y14223D01*
X145735Y14269D01*
X145657Y14308D01*
X145578Y14339D01*
X145497Y14364D01*
X145415Y14381D01*
X145331Y14391D01*
X145246Y14394D01*
X146236Y15384D01*
X146239Y15299D01*
D02*
G37*
G36*
X56154Y14186D02*
X56176Y13945D01*
X56188Y13886D01*
X56204Y13838D01*
X56223Y13800D01*
X56244Y13773D01*
X56268Y13757D01*
X56295Y13752D01*
X55224D01*
X55251Y13757D01*
X55275Y13773D01*
X55296Y13800D01*
X55314Y13838D01*
X55330Y13886D01*
X55343Y13945D01*
X55353Y14014D01*
X55360Y14095D01*
X55366Y14288D01*
X56153D01*
X56154Y14186D01*
D02*
G37*
G36*
X14925Y15193D02*
X14984Y14858D01*
X15083Y14563D01*
X15221Y14307D01*
X15398Y14091D01*
X15614Y13914D01*
X15870Y13776D01*
X16165Y13677D01*
X16500Y13618D01*
X16874Y13599D01*
X13921Y11630D01*
X12199Y12778D01*
Y11630D01*
X11823Y11628D01*
X10317Y11539D01*
X10191Y11512D01*
X10100Y11480D01*
X10045Y11445D01*
Y13783D01*
X10100Y13748D01*
X10191Y13717D01*
X10317Y13689D01*
X10479Y13665D01*
X10909Y13628D01*
X11303Y13616D01*
X11343Y13618D01*
X11677Y13677D01*
X11972Y13776D01*
X12228Y13914D01*
X12445Y14091D01*
X12622Y14307D01*
X12760Y14563D01*
X12858Y14858D01*
X12917Y15193D01*
X12937Y15567D01*
X14906D01*
X14925Y15193D01*
D02*
G37*
G36*
X106398Y13468D02*
X106390Y13543D01*
X106366Y13610D01*
X106326Y13669D01*
X106270Y13721D01*
X106198Y13764D01*
X106110Y13799D01*
X106006Y13827D01*
X105886Y13846D01*
X105751Y13858D01*
X105599Y13862D01*
Y14650D01*
X105751Y14653D01*
X105886Y14665D01*
X106006Y14685D01*
X106110Y14713D01*
X106198Y14748D01*
X106270Y14791D01*
X106326Y14842D01*
X106366Y14902D01*
X106390Y14968D01*
X106398Y15043D01*
Y13468D01*
D02*
G37*
G36*
X59200Y13712D02*
X59224Y13675D01*
X59263Y13644D01*
X59318Y13616D01*
X59389Y13592D01*
X59476Y13573D01*
X59578Y13558D01*
X59696Y13548D01*
X59980Y13539D01*
Y12752D01*
X59828Y12748D01*
X59693Y12736D01*
X59573Y12717D01*
X59470Y12689D01*
X59382Y12654D01*
X59310Y12610D01*
X59254Y12559D01*
X59213Y12500D01*
X59189Y12433D01*
X59180Y12358D01*
X59192Y13752D01*
X59200Y13712D01*
D02*
G37*
G36*
X150455Y12711D02*
X150467Y12577D01*
X150486Y12459D01*
X150514Y12357D01*
X150549Y12270D01*
X150593Y12199D01*
X150644Y12144D01*
X150703Y12105D01*
X150770Y12081D01*
X150845Y12073D01*
X149269D01*
X149344Y12081D01*
X149411Y12105D01*
X149470Y12144D01*
X149521Y12199D01*
X149565Y12270D01*
X149600Y12357D01*
X149628Y12459D01*
X149647Y12577D01*
X149659Y12711D01*
X149663Y12861D01*
X150451D01*
X150455Y12711D01*
D02*
G37*
G36*
X147954D02*
X147966Y12577D01*
X147986Y12459D01*
X148014Y12357D01*
X148049Y12270D01*
X148092Y12199D01*
X148144Y12144D01*
X148203Y12105D01*
X148270Y12081D01*
X148345Y12073D01*
X146769D01*
X146844Y12081D01*
X146911Y12105D01*
X146970Y12144D01*
X147021Y12199D01*
X147065Y12270D01*
X147100Y12357D01*
X147128Y12459D01*
X147147Y12577D01*
X147159Y12711D01*
X147163Y12861D01*
X147951D01*
X147954Y12711D01*
D02*
G37*
G36*
X80158Y12752D02*
X80008Y12744D01*
X79874Y12720D01*
X79756Y12681D01*
X79654Y12626D01*
X79567Y12555D01*
X79496Y12469D01*
X79441Y12366D01*
X79402Y12248D01*
X79378Y12114D01*
X79370Y11965D01*
X78583D01*
X78575Y12114D01*
X78551Y12248D01*
X78512Y12366D01*
X78457Y12469D01*
X78386Y12555D01*
X78299Y12626D01*
X78197Y12681D01*
X78079Y12720D01*
X77945Y12744D01*
X77795Y12752D01*
X78976Y13539D01*
X80158Y12752D01*
D02*
G37*
G36*
X53732Y12008D02*
X53665Y11983D01*
X53606Y11943D01*
X53555Y11887D01*
X53512Y11815D01*
X53476Y11727D01*
X53449Y11623D01*
X53429Y11503D01*
X53417Y11368D01*
X53413Y11217D01*
X52626D01*
X52623Y11366D01*
X52599Y11618D01*
X52578Y11721D01*
X52551Y11807D01*
X52518Y11878D01*
X52479Y11933D01*
X52434Y11973D01*
X52383Y11996D01*
X52326Y12004D01*
X53807Y12016D01*
X53732Y12008D01*
D02*
G37*
G36*
X23407Y13124D02*
X24243Y12379D01*
X24265Y12379D01*
X22622Y11007D01*
X22625Y11025D01*
X22611Y11060D01*
X22577Y11111D01*
X22525Y11178D01*
X22367Y11361D01*
X21828Y11918D01*
X23220Y13310D01*
X23407Y13124D01*
D02*
G37*
G36*
X44717Y11008D02*
X44742Y10673D01*
X44784Y10378D01*
X44842Y10122D01*
X44917Y9905D01*
X45009Y9728D01*
X45118Y9590D01*
X45243Y9492D01*
X45385Y9433D01*
X45543Y9413D01*
X41906D01*
X42064Y9433D01*
X42206Y9492D01*
X42331Y9590D01*
X42440Y9728D01*
X42531Y9905D01*
X42607Y10122D01*
X42665Y10378D01*
X42707Y10673D01*
X42732Y11008D01*
X42740Y11382D01*
X44709D01*
X44717Y11008D01*
D02*
G37*
G36*
X79374Y9781D02*
X79386Y9645D01*
X79405Y9525D01*
X79433Y9421D01*
X79469Y9333D01*
X79512Y9261D01*
X79563Y9205D01*
X79622Y9166D01*
X79689Y9142D01*
X79764Y9133D01*
X78189D01*
X78264Y9142D01*
X78331Y9166D01*
X78390Y9205D01*
X78441Y9261D01*
X78484Y9333D01*
X78520Y9421D01*
X78547Y9525D01*
X78567Y9645D01*
X78579Y9781D01*
X78583Y9933D01*
X79370D01*
X79374Y9781D01*
D02*
G37*
G36*
X53401Y9145D02*
X52232Y9133D01*
X52307Y9142D01*
X52374Y9167D01*
X52433Y9207D01*
X52484Y9263D01*
X52528Y9335D01*
X52563Y9423D01*
X52591Y9527D01*
X52610Y9646D01*
X52622Y9782D01*
X52626Y9933D01*
X53413D01*
X53401Y9145D01*
D02*
G37*
G36*
X87757Y8378D02*
X87830Y8317D01*
X87905Y8264D01*
X87981Y8218D01*
X88059Y8179D01*
X88139Y8147D01*
X88219Y8123D01*
X88302Y8106D01*
X88385Y8096D01*
X88470Y8093D01*
X87480Y7103D01*
X87478Y7188D01*
X87468Y7272D01*
X87450Y7354D01*
X87426Y7435D01*
X87394Y7514D01*
X87355Y7592D01*
X87309Y7668D01*
X87256Y7743D01*
X87195Y7817D01*
X87128Y7889D01*
X87684Y8446D01*
X87757Y8378D01*
D02*
G37*
G36*
X29503Y8153D02*
X29372Y8048D01*
X29299Y7912D01*
X29283Y7747D01*
X29325Y7552D01*
X29425Y7327D01*
X29583Y7072D01*
X29798Y6788D01*
X30071Y6473D01*
X30401Y6129D01*
X28131Y5615D01*
X27797Y5935D01*
X27165Y6457D01*
X26868Y6657D01*
X26583Y6818D01*
X26311Y6938D01*
X26051Y7018D01*
X25804Y7059D01*
X25569Y7059D01*
X25347Y7019D01*
X29691Y8229D01*
X29503Y8153D01*
D02*
G37*
G36*
X109865Y5291D02*
X109723Y5232D01*
X109598Y5134D01*
X109489Y4996D01*
X109398Y4819D01*
X109323Y4603D01*
X109271Y4376D01*
X109366Y4090D01*
X109504Y3835D01*
X109681Y3618D01*
X109898Y3441D01*
X110153Y3303D01*
X110449Y3205D01*
X110784Y3146D01*
X111158Y3126D01*
X108205Y2142D01*
X105252Y3126D01*
X105626Y3146D01*
X105961Y3205D01*
X106256Y3303D01*
X106512Y3441D01*
X106728Y3618D01*
X106905Y3835D01*
X107043Y4090D01*
X107139Y4376D01*
X107087Y4603D01*
X107012Y4819D01*
X106920Y4996D01*
X106812Y5134D01*
X106686Y5232D01*
X106545Y5291D01*
X106386Y5311D01*
X110023D01*
X109865Y5291D01*
D02*
G37*
G36*
X21553Y10308D02*
X21481Y9764D01*
X21603Y8839D01*
X21960Y7977D01*
X22528Y7237D01*
X23268Y6669D01*
X24130Y6312D01*
X25055Y6190D01*
X26013D01*
X26029Y6185D01*
X26223Y6099D01*
X26445Y5974D01*
X26684Y5813D01*
X27179Y5404D01*
X31048Y1535D01*
X30856Y1073D01*
X13566D01*
Y5331D01*
X13582D01*
X13438Y6424D01*
X13016Y7442D01*
X12345Y8317D01*
X11471Y8988D01*
X10452Y9410D01*
X10042Y9464D01*
Y10639D01*
X10045Y10642D01*
X10062Y10646D01*
X10445D01*
X10548Y10749D01*
X11551Y10808D01*
X21138D01*
X21553Y10308D01*
D02*
G37*
%LPC*%
G36*
X66480Y110101D02*
X62150D01*
X61305Y109933D01*
X60589Y109455D01*
X60358Y109110D01*
X60237Y109098D01*
X55766D01*
X55745Y109101D01*
X55718Y109108D01*
X55698Y109115D01*
X55682Y109122D01*
X55672Y109127D01*
X55635Y109182D01*
X55044Y109577D01*
X54347Y109716D01*
X53649Y109577D01*
X53058Y109182D01*
X52663Y108591D01*
X52524Y107894D01*
X52663Y107196D01*
X53058Y106605D01*
X53649Y106210D01*
X54347Y106071D01*
X55044Y106210D01*
X55635Y106605D01*
X55672Y106660D01*
X55682Y106666D01*
X55698Y106673D01*
X55718Y106679D01*
X55745Y106686D01*
X55766Y106689D01*
X60264D01*
X60326Y106685D01*
X60355Y106681D01*
X60589Y106333D01*
X61305Y105854D01*
X62150Y105686D01*
X66480D01*
X67325Y105854D01*
X68041Y106333D01*
X68520Y107049D01*
X68688Y107894D01*
X68520Y108739D01*
X68041Y109455D01*
X67325Y109933D01*
X66480Y110101D01*
D02*
G37*
G36*
X110972Y115360D02*
X80315D01*
X79813Y115260D01*
X79387Y114975D01*
X74456Y110045D01*
X74172Y109619D01*
X74072Y109117D01*
Y96452D01*
X73572Y96300D01*
X73561Y96317D01*
X70706Y99171D01*
X70120Y99563D01*
X69429Y99700D01*
X68538D01*
X68157Y99713D01*
X67758Y99750D01*
X67636Y99769D01*
X67565Y99785D01*
X67559Y99789D01*
X67526Y99799D01*
X67325Y99933D01*
X66480Y100101D01*
X62150D01*
X61305Y99933D01*
X60589Y99455D01*
X60110Y98738D01*
X59942Y97894D01*
X60110Y97049D01*
X60589Y96333D01*
X61305Y95854D01*
X62150Y95686D01*
X66480D01*
X67325Y95854D01*
X67526Y95988D01*
X67559Y95999D01*
X67565Y96002D01*
X67600Y96010D01*
X68688Y96080D01*
X70477Y94291D01*
Y88279D01*
X66474D01*
X66394Y88295D01*
X66313Y88279D01*
X60585D01*
X60504Y88295D01*
X60423Y88279D01*
X60025D01*
X60009Y88280D01*
X59823Y88303D01*
X59728Y88322D01*
Y89457D01*
X54492D01*
Y84024D01*
X54492Y84024D01*
X54492D01*
X54283Y83610D01*
X53067Y82393D01*
X48066D01*
X47685Y82406D01*
X47286Y82443D01*
X47163Y82462D01*
X47093Y82478D01*
X47087Y82481D01*
X47054Y82492D01*
X46853Y82626D01*
X46008Y82794D01*
X41677D01*
X40832Y82626D01*
X40116Y82148D01*
X39638Y81431D01*
X39469Y80586D01*
X39638Y79742D01*
X40116Y79025D01*
X40832Y78547D01*
X41677Y78379D01*
X46008D01*
X46853Y78547D01*
X47054Y78681D01*
X47087Y78692D01*
X47093Y78695D01*
X47128Y78703D01*
X48321Y78780D01*
X53815D01*
X54506Y78918D01*
X55092Y79309D01*
X57963Y82180D01*
X58354Y82766D01*
X58491Y83457D01*
Y83959D01*
X58498Y84024D01*
X59728D01*
Y84623D01*
X59811Y84640D01*
X60096Y84666D01*
X60423D01*
X60504Y84650D01*
X60585Y84666D01*
X66313D01*
X66394Y84650D01*
X66474Y84666D01*
X72203D01*
X72284Y84650D01*
X72364Y84666D01*
X72551D01*
X73242Y84804D01*
X73572Y85024D01*
X74072Y84756D01*
Y79277D01*
X73610Y79085D01*
X71257Y81438D01*
X70866Y81699D01*
X70406Y81791D01*
X70406Y81791D01*
X68366D01*
X68304Y81795D01*
X68274Y81799D01*
X68041Y82148D01*
X67325Y82626D01*
X66480Y82794D01*
X62150D01*
X61305Y82626D01*
X60589Y82148D01*
X60110Y81431D01*
X59942Y80586D01*
X60110Y79742D01*
X60589Y79025D01*
X61305Y78547D01*
X62150Y78379D01*
X66480D01*
X67325Y78547D01*
X68041Y79025D01*
X68272Y79370D01*
X68393Y79382D01*
X69907D01*
X72212Y77077D01*
Y64164D01*
X72206Y64018D01*
X72201Y63968D01*
X72111Y63515D01*
Y58397D01*
X72211Y57898D01*
X72493Y57475D01*
X72917Y57192D01*
X73416Y57092D01*
X73915Y57192D01*
X74338Y57475D01*
X74462D01*
X74885Y57192D01*
X75384Y57092D01*
X75884Y57192D01*
X76307Y57475D01*
X76430D01*
X76854Y57192D01*
X77353Y57092D01*
X77852Y57192D01*
X78275Y57475D01*
X78399D01*
X78822Y57192D01*
X79321Y57092D01*
X79821Y57192D01*
X80244Y57475D01*
X80367D01*
X80791Y57192D01*
X81290Y57092D01*
X81789Y57192D01*
X82212Y57475D01*
X82336D01*
X82759Y57192D01*
X83258Y57092D01*
X83345Y57110D01*
X83592Y56649D01*
X82090Y55147D01*
X77184D01*
X77162Y55151D01*
X77136Y55158D01*
X77115Y55164D01*
X77099Y55171D01*
X77089Y55177D01*
X77052Y55232D01*
X76461Y55627D01*
X75764Y55766D01*
X75066Y55627D01*
X74475Y55232D01*
X74080Y54641D01*
X73941Y53943D01*
X74080Y53246D01*
X74475Y52655D01*
X75066Y52260D01*
X75764Y52121D01*
X76461Y52260D01*
X77052Y52655D01*
X77089Y52710D01*
X77099Y52715D01*
X77115Y52722D01*
X77136Y52729D01*
X77162Y52735D01*
X77184Y52739D01*
X82589D01*
X82589Y52739D01*
X82720Y52765D01*
X82966Y52304D01*
X81661Y50999D01*
X77142D01*
X77120Y51003D01*
X77094Y51010D01*
X77074Y51016D01*
X77058Y51023D01*
X77048Y51029D01*
X77011Y51084D01*
X76420Y51479D01*
X75722Y51618D01*
X75025Y51479D01*
X74433Y51084D01*
X74038Y50493D01*
X73900Y49795D01*
X74038Y49098D01*
X74433Y48507D01*
X75025Y48112D01*
X75722Y47973D01*
X76420Y48112D01*
X77011Y48507D01*
X77048Y48562D01*
X77058Y48567D01*
X77074Y48574D01*
X77094Y48581D01*
X77120Y48587D01*
X77142Y48591D01*
X82160D01*
X82160Y48591D01*
X82255Y48610D01*
X82501Y48149D01*
X80265Y45913D01*
X77184D01*
X77162Y45917D01*
X77136Y45923D01*
X77115Y45930D01*
X77099Y45937D01*
X77089Y45942D01*
X77052Y45997D01*
X76461Y46392D01*
X75764Y46531D01*
X75066Y46392D01*
X74475Y45997D01*
X74333Y45784D01*
X73689Y45721D01*
X72465Y46946D01*
X72074Y47207D01*
X71613Y47298D01*
X71613Y47298D01*
X71456D01*
X71455Y47299D01*
X70955Y47398D01*
X65837D01*
X65338Y47299D01*
X64934Y47029D01*
X64850Y47049D01*
X64467Y47246D01*
X64468Y47252D01*
X64329Y47949D01*
X64302Y47989D01*
X65031Y48718D01*
X68396D01*
X68437Y48726D01*
X70955D01*
X71455Y48826D01*
X71878Y49108D01*
X72161Y49532D01*
X72260Y50031D01*
X72161Y50530D01*
X72098Y50623D01*
X71908Y51015D01*
X72098Y51407D01*
X72161Y51500D01*
X72260Y51999D01*
X72161Y52499D01*
X72098Y52592D01*
X71908Y52984D01*
X72098Y53376D01*
X72161Y53469D01*
X72260Y53968D01*
X72161Y54467D01*
X71878Y54890D01*
Y55014D01*
X72161Y55437D01*
X72260Y55936D01*
X72161Y56436D01*
X71878Y56859D01*
X71455Y57142D01*
X70955Y57241D01*
X67363D01*
Y63572D01*
X68041Y64025D01*
X68520Y64742D01*
X68688Y65587D01*
X68520Y66431D01*
X68041Y67148D01*
X67325Y67626D01*
X66480Y67794D01*
X62150D01*
X61343Y67634D01*
X61314Y67656D01*
X61196Y68160D01*
X61532Y68502D01*
X62150Y68379D01*
X66480D01*
X67325Y68547D01*
X68041Y69025D01*
X68520Y69742D01*
X68688Y70587D01*
X68520Y71431D01*
X68041Y72148D01*
X67325Y72626D01*
X66775Y72736D01*
X66588Y73087D01*
X66775Y73437D01*
X67325Y73547D01*
X68041Y74025D01*
X68520Y74742D01*
X68688Y75586D01*
X68520Y76431D01*
X68041Y77148D01*
X67325Y77626D01*
X66480Y77794D01*
X62150D01*
X61305Y77626D01*
X60589Y77148D01*
X60110Y76431D01*
X59942Y75586D01*
X60110Y74742D01*
X60589Y74025D01*
X61305Y73547D01*
X61855Y73437D01*
X62042Y73087D01*
X61855Y72736D01*
X61305Y72626D01*
X60589Y72148D01*
X60110Y71431D01*
X59942Y70587D01*
X59978Y70404D01*
X59870Y70274D01*
X58180Y68584D01*
X57919Y68193D01*
X57827Y67732D01*
X57827Y67732D01*
Y60236D01*
X57827Y60236D01*
X57888Y59933D01*
X57621Y59578D01*
X57503Y59500D01*
X57425Y59515D01*
X56728Y59377D01*
X56137Y58982D01*
X55742Y58390D01*
X55603Y57693D01*
X55742Y56995D01*
X56137Y56404D01*
X56441Y56201D01*
X56289Y55701D01*
X48835D01*
Y53763D01*
X46354D01*
Y55177D01*
X40921D01*
Y49941D01*
X46354D01*
Y51355D01*
X48835D01*
Y46646D01*
X53451D01*
X53502Y46389D01*
X53763Y45999D01*
X56240Y43522D01*
X56279Y43368D01*
X56241Y42891D01*
X56217Y42854D01*
X53763Y40399D01*
X53502Y40009D01*
X53412Y39559D01*
X48835D01*
Y34582D01*
X46354D01*
Y35996D01*
X40921D01*
Y30760D01*
X46354D01*
Y32174D01*
X48835D01*
Y30504D01*
X59858D01*
Y39559D01*
X56982D01*
X56790Y40021D01*
X57722Y40953D01*
X64253D01*
X64585Y40453D01*
X64533Y40188D01*
X64632Y39689D01*
X64915Y39266D01*
Y39142D01*
X64632Y38719D01*
X64533Y38220D01*
X64632Y37721D01*
X64915Y37297D01*
Y37174D01*
X64632Y36751D01*
X64533Y36251D01*
X64632Y35752D01*
X64694Y35659D01*
X64885Y35267D01*
X64694Y34875D01*
X64632Y34782D01*
X64533Y34283D01*
X64600Y33943D01*
X64563Y33758D01*
Y32047D01*
X64046Y31529D01*
X63654Y30943D01*
X63516Y30252D01*
Y29831D01*
X62606D01*
Y24595D01*
X68039D01*
Y29517D01*
X71430D01*
X71605Y29502D01*
X71680Y29490D01*
X72103Y29263D01*
Y23866D01*
X70382D01*
Y18433D01*
X75618D01*
Y23866D01*
X74729D01*
Y29263D01*
X74721Y29304D01*
Y31118D01*
X74761Y31323D01*
X74721Y31528D01*
Y31822D01*
X74621Y32322D01*
X74338Y32745D01*
X73915Y33028D01*
X73416Y33127D01*
X73191Y33082D01*
X72955Y33129D01*
X72325D01*
X72057Y33629D01*
X72161Y33784D01*
X72260Y34283D01*
X72195Y34610D01*
X72195Y34610D01*
X72161Y34782D01*
X72350Y35244D01*
X72403Y35305D01*
X72442Y35331D01*
X73670Y36559D01*
X73677Y36565D01*
X74141Y36657D01*
X74695Y37027D01*
X75064Y37581D01*
X75194Y38234D01*
X75064Y38886D01*
X74695Y39440D01*
Y39754D01*
X75064Y40308D01*
X75194Y40961D01*
X75064Y41614D01*
X74695Y42167D01*
X74693Y42168D01*
X74692Y42172D01*
Y42719D01*
X75192Y43000D01*
X75764Y42886D01*
X76461Y43025D01*
X77052Y43420D01*
X77089Y43475D01*
X77099Y43481D01*
X77115Y43488D01*
X77136Y43494D01*
X77162Y43501D01*
X77184Y43504D01*
X80764D01*
X80764Y43504D01*
X81225Y43596D01*
X81615Y43857D01*
X91984Y54226D01*
X91984Y54226D01*
X92245Y54616D01*
X92337Y55077D01*
X92337Y55077D01*
Y57749D01*
X92342Y57894D01*
X92347Y57945D01*
X92437Y58397D01*
Y63515D01*
X92338Y64014D01*
X92055Y64438D01*
X91632Y64720D01*
X91132Y64820D01*
X90633Y64720D01*
X90540Y64658D01*
X90148Y64468D01*
X89756Y64658D01*
X89663Y64720D01*
X89164Y64820D01*
X88900Y64767D01*
X88400Y65099D01*
Y66098D01*
X89992D01*
Y71335D01*
X84559D01*
X84463Y71795D01*
Y77941D01*
X89113Y82591D01*
X124220D01*
X124221Y82591D01*
X124681Y82683D01*
X125072Y82944D01*
X139663Y97534D01*
X145290D01*
X145290Y97534D01*
X145751Y97626D01*
X146141Y97887D01*
X149202Y100948D01*
X149220Y100960D01*
X149243Y100974D01*
X149262Y100984D01*
X149278Y100990D01*
X149289Y100994D01*
X149354Y100981D01*
X150052Y101119D01*
X150643Y101514D01*
X151038Y102106D01*
X151177Y102803D01*
X151038Y103501D01*
X150643Y104092D01*
X150052Y104487D01*
X149354Y104626D01*
X148657Y104487D01*
X148066Y104092D01*
X147671Y103501D01*
X147532Y102803D01*
X147545Y102738D01*
X147542Y102727D01*
X147535Y102711D01*
X147526Y102692D01*
X147512Y102669D01*
X147499Y102651D01*
X144791Y99943D01*
X139164D01*
X139164Y99943D01*
X138703Y99851D01*
X138312Y99590D01*
X138312Y99590D01*
X123722Y85000D01*
X117213D01*
X116752Y85094D01*
X116752Y85500D01*
Y90528D01*
X115070D01*
Y95966D01*
X117936Y98831D01*
X119374D01*
Y97929D01*
X127445D01*
Y102063D01*
X119374D01*
Y101240D01*
X117437D01*
X117437Y101240D01*
X116976Y101148D01*
X116586Y100887D01*
X116585Y100887D01*
X113015Y97316D01*
X112754Y96925D01*
X112662Y96465D01*
X112662Y96465D01*
Y90528D01*
X111516D01*
X111516Y85287D01*
X111102Y85053D01*
X110689Y85287D01*
Y90528D01*
X105453D01*
Y89664D01*
X105215Y89566D01*
X104953Y89509D01*
X104438Y89854D01*
X103740Y89992D01*
X103043Y89854D01*
X102452Y89458D01*
X102057Y88867D01*
X101918Y88170D01*
X102057Y87472D01*
X102452Y86881D01*
X103043Y86486D01*
X103740Y86347D01*
X104438Y86486D01*
X104953Y86830D01*
X105137Y86790D01*
X105453Y86639D01*
X105453Y85094D01*
X104992Y85000D01*
X88614D01*
X88614Y85000D01*
X88153Y84908D01*
X87763Y84647D01*
X87763Y84647D01*
X82956Y79840D01*
X82494Y80032D01*
Y86681D01*
X89644Y93831D01*
X91028D01*
Y92929D01*
X99098D01*
Y96330D01*
X107097D01*
X107097Y96330D01*
X107558Y96422D01*
X107948Y96683D01*
X115097Y103831D01*
X119374D01*
Y102929D01*
X127445D01*
Y107063D01*
X119374D01*
Y106240D01*
X114598D01*
X114598Y106240D01*
X114137Y106148D01*
X113746Y105887D01*
X113746Y105887D01*
X106598Y98738D01*
X99098D01*
Y102063D01*
X91028D01*
Y101240D01*
X87721D01*
X87721Y101240D01*
X87260Y101148D01*
X86869Y100887D01*
X86869Y100887D01*
X77159Y91177D01*
X76697Y91368D01*
Y108573D01*
X80349Y112225D01*
X80811Y112034D01*
Y107587D01*
X85427D01*
X85445Y107583D01*
X85462Y107587D01*
X86244D01*
Y108201D01*
X86353Y108235D01*
X86528Y108271D01*
X86953Y108311D01*
X88804D01*
X88882Y108296D01*
X88960Y108311D01*
X90508D01*
X90798Y108296D01*
X91008Y108273D01*
X91028Y108270D01*
Y107929D01*
X91810D01*
X91827Y107926D01*
X91844Y107929D01*
X99098D01*
Y112063D01*
X91844D01*
X91827Y112066D01*
X91810Y112063D01*
X91028D01*
Y111961D01*
X90468Y111924D01*
X88966D01*
X88882Y111941D01*
X88798Y111924D01*
X86950D01*
X86800Y111936D01*
X86570Y111972D01*
X86396Y112016D01*
X86282Y112060D01*
X86246Y112080D01*
X86244Y112099D01*
Y112735D01*
X110429D01*
X113148Y110015D01*
X113155Y110006D01*
X113172Y109983D01*
X113301Y109338D01*
X113696Y108747D01*
X114287Y108352D01*
X114984Y108213D01*
X115682Y108352D01*
X116228Y108717D01*
X116247Y108720D01*
X116282Y108723D01*
X119374D01*
Y107929D01*
X127445D01*
Y108723D01*
X131349D01*
Y107768D01*
X136782D01*
Y113004D01*
X131349D01*
Y111348D01*
X127445D01*
Y112063D01*
X119374D01*
Y111348D01*
X116269D01*
X116256Y111349D01*
X116228Y111354D01*
X115682Y111719D01*
X115037Y111847D01*
X115022Y111858D01*
X114995Y111881D01*
X111901Y114975D01*
X111475Y115260D01*
X110972Y115360D01*
D02*
G37*
G36*
X99098Y107063D02*
X91028D01*
Y106348D01*
X86244D01*
Y106760D01*
X85466D01*
X85450Y106763D01*
X85432Y106760D01*
X80811D01*
Y101524D01*
X86244D01*
Y103723D01*
X91028D01*
Y102929D01*
X99098D01*
Y107063D01*
D02*
G37*
G36*
X189163Y113470D02*
X187832Y113339D01*
X186553Y112951D01*
X185373Y112320D01*
X184340Y111472D01*
X183492Y110439D01*
X182861Y109260D01*
X182473Y107980D01*
X182342Y106650D01*
X182473Y105319D01*
X182861Y104040D01*
X183492Y102860D01*
X184340Y101827D01*
X185373Y100979D01*
X186553Y100348D01*
X187832Y99960D01*
X189163Y99829D01*
X190493Y99960D01*
X191773Y100348D01*
X192952Y100979D01*
X193985Y101827D01*
X194833Y102860D01*
X195464Y104040D01*
X195852Y105319D01*
X195983Y106650D01*
X195852Y107980D01*
X195464Y109260D01*
X194833Y110439D01*
X193985Y111472D01*
X192952Y112320D01*
X191773Y112951D01*
X190493Y113339D01*
X189163Y113470D01*
D02*
G37*
G36*
X152294Y93704D02*
X152277Y93701D01*
X151496D01*
Y92977D01*
X151477Y92810D01*
X151455Y92750D01*
X151413Y92691D01*
X151324Y92614D01*
X151163Y92522D01*
X150919Y92428D01*
X150630Y92355D01*
X150565Y92358D01*
X150130Y92567D01*
Y92567D01*
X149348D01*
X149330Y92570D01*
X149313Y92567D01*
X149299D01*
X149284Y92569D01*
X149276Y92567D01*
X144894D01*
Y87134D01*
X149276D01*
X149284Y87132D01*
X149299Y87134D01*
X149313D01*
X149330Y87130D01*
X149348Y87134D01*
X150130D01*
Y87134D01*
X150550Y87328D01*
X150630Y87337D01*
X150911Y87261D01*
X151153Y87163D01*
X151314Y87065D01*
X151407Y86978D01*
X151457Y86904D01*
X151472Y86862D01*
Y81871D01*
X151471Y81798D01*
X151397Y80585D01*
X151337Y80128D01*
X151263Y79757D01*
X151184Y79491D01*
X151133Y79379D01*
X150524D01*
Y78597D01*
X150520Y78579D01*
X150524Y78562D01*
Y73237D01*
X157886D01*
Y78562D01*
X157889Y78579D01*
X157886Y78597D01*
Y79379D01*
X157330D01*
X157294Y79466D01*
X157221Y79739D01*
X157157Y80097D01*
X157032Y81802D01*
Y87803D01*
X157008Y87984D01*
Y93701D01*
X152311D01*
X152294Y93704D01*
D02*
G37*
G36*
X54347Y104165D02*
X53649Y104027D01*
X53058Y103632D01*
X52663Y103040D01*
X52524Y102343D01*
X52663Y101646D01*
X53058Y101054D01*
X53113Y101017D01*
X53118Y101007D01*
X53125Y100991D01*
X53132Y100971D01*
X53139Y100945D01*
X53142Y100923D01*
Y96913D01*
X53142Y96913D01*
X53234Y96452D01*
X53495Y96062D01*
X57515Y92042D01*
X57905Y91781D01*
X58366Y91689D01*
X58366Y91689D01*
X60264D01*
X60326Y91685D01*
X60355Y91681D01*
X60589Y91333D01*
X61305Y90854D01*
X62150Y90686D01*
X66480D01*
X67325Y90854D01*
X68041Y91333D01*
X68520Y92049D01*
X68688Y92894D01*
X68520Y93739D01*
X68041Y94455D01*
X67325Y94933D01*
X66480Y95101D01*
X62150D01*
X61305Y94933D01*
X60589Y94455D01*
X60358Y94110D01*
X60237Y94098D01*
X58865D01*
X55551Y97412D01*
Y100923D01*
X55554Y100945D01*
X55561Y100971D01*
X55568Y100991D01*
X55575Y101007D01*
X55580Y101017D01*
X55635Y101054D01*
X56030Y101646D01*
X56169Y102343D01*
X56030Y103040D01*
X55635Y103632D01*
X55044Y104027D01*
X54347Y104165D01*
D02*
G37*
G36*
X46008Y95101D02*
X41677D01*
X40832Y94933D01*
X40116Y94455D01*
X39638Y93739D01*
X39469Y92894D01*
X39638Y92049D01*
X40116Y91333D01*
X40832Y90854D01*
X41677Y90686D01*
X46008D01*
X46853Y90854D01*
X47569Y91333D01*
X48048Y92049D01*
X48216Y92894D01*
X48048Y93739D01*
X47569Y94455D01*
X46853Y94933D01*
X46008Y95101D01*
D02*
G37*
G36*
X94772Y72767D02*
X94074Y72629D01*
X93483Y72233D01*
X93088Y71642D01*
X92949Y70945D01*
X93088Y70248D01*
X93403Y69776D01*
X93483Y69289D01*
X93088Y68697D01*
X92949Y68000D01*
X93088Y67303D01*
X93483Y66711D01*
X93757Y66528D01*
Y60956D01*
X93765Y60916D01*
Y58397D01*
X93864Y57898D01*
X94147Y57475D01*
X94570Y57192D01*
X95069Y57092D01*
X95569Y57192D01*
X95992Y57475D01*
X96275Y57898D01*
X96374Y58397D01*
Y60916D01*
X96382Y60956D01*
Y66655D01*
X96860Y66985D01*
X96878Y66985D01*
X97098Y66954D01*
X97279Y66913D01*
X97399Y66871D01*
X97409Y66865D01*
Y66185D01*
X98192D01*
X98209Y66182D01*
X98226Y66185D01*
X102842D01*
Y71421D01*
X98226D01*
X98209Y71425D01*
X98192Y71421D01*
X97409D01*
Y70930D01*
X97032Y70780D01*
X96574Y71047D01*
X96455Y71642D01*
X96060Y72233D01*
X95469Y72629D01*
X94772Y72767D01*
D02*
G37*
G36*
X38055Y59823D02*
X32622D01*
Y54587D01*
X38055D01*
Y55008D01*
X38555Y55307D01*
X39087Y55201D01*
X39784Y55340D01*
X40375Y55735D01*
X40770Y56326D01*
X40909Y57024D01*
X40770Y57721D01*
X40375Y58312D01*
X39784Y58707D01*
X39087Y58846D01*
X38555Y58740D01*
X38055Y59040D01*
Y59823D01*
D02*
G37*
G36*
X27417Y33023D02*
X25055D01*
X24130Y32901D01*
X23268Y32544D01*
X22528Y31976D01*
X21960Y31236D01*
X21603Y30374D01*
X21481Y29449D01*
X21603Y28524D01*
X21960Y27662D01*
X22528Y26922D01*
X23268Y26354D01*
X24130Y25997D01*
X25055Y25875D01*
X27417D01*
X28342Y25997D01*
X29204Y26354D01*
X29945Y26922D01*
X30512Y27662D01*
X30869Y28524D01*
X30991Y29449D01*
X30869Y30374D01*
X30512Y31236D01*
X29945Y31976D01*
X29204Y32544D01*
X28342Y32901D01*
X27417Y33023D01*
D02*
G37*
G36*
Y23180D02*
X25055D01*
X24130Y23058D01*
X23268Y22701D01*
X22528Y22133D01*
X21960Y21393D01*
X21603Y20531D01*
X21481Y19606D01*
X21603Y18681D01*
X21960Y17819D01*
X22528Y17079D01*
X23268Y16511D01*
X24130Y16154D01*
X25055Y16032D01*
X27417D01*
X28342Y16154D01*
X29204Y16511D01*
X29945Y17079D01*
X30512Y17819D01*
X30869Y18681D01*
X30991Y19606D01*
X30869Y20531D01*
X30512Y21393D01*
X29945Y22133D01*
X29204Y22701D01*
X28342Y23058D01*
X27417Y23180D01*
D02*
G37*
G36*
X128433Y12610D02*
X128416Y12606D01*
X127634D01*
Y12175D01*
X127605Y12169D01*
X126965Y12113D01*
X126443D01*
X126362Y12129D01*
X125665Y11991D01*
X125074Y11596D01*
X124679Y11005D01*
X124540Y10307D01*
X124679Y9610D01*
X125074Y9018D01*
X125665Y8623D01*
X126362Y8485D01*
X126443Y8501D01*
X127323D01*
X127426Y8498D01*
X127634Y8481D01*
Y8276D01*
X128416D01*
X128433Y8272D01*
X128435Y8272D01*
X128436Y8272D01*
X128453Y8276D01*
X134130D01*
Y12606D01*
X128451D01*
X128433Y12610D01*
D02*
G37*
G36*
X123807Y23866D02*
X118571D01*
Y18433D01*
X119507D01*
X119513Y18418D01*
X119545Y18297D01*
X119573Y18128D01*
X119583Y18010D01*
Y16769D01*
X119573Y16651D01*
X119545Y16482D01*
X119513Y16362D01*
X119507Y16346D01*
X117791D01*
Y12016D01*
X124287D01*
Y16346D01*
X122871D01*
X122865Y16362D01*
X122833Y16482D01*
X122805Y16651D01*
X122795Y16769D01*
Y18010D01*
X122805Y18128D01*
X122833Y18297D01*
X122865Y18418D01*
X122871Y18433D01*
X123807D01*
Y23866D01*
D02*
G37*
G36*
X75618Y9945D02*
X70382D01*
Y8549D01*
X64332D01*
X64319Y8551D01*
X64291Y8555D01*
X63745Y8920D01*
X63047Y9059D01*
X62350Y8920D01*
X61803Y8555D01*
X61785Y8552D01*
X61750Y8549D01*
X60264D01*
Y9945D01*
X55028D01*
Y4512D01*
X60264D01*
Y5924D01*
X61763D01*
X61775Y5923D01*
X61803Y5918D01*
X62350Y5553D01*
X63047Y5414D01*
X63745Y5553D01*
X64291Y5918D01*
X64310Y5921D01*
X64345Y5924D01*
X70382D01*
Y4512D01*
X75618D01*
Y9945D01*
D02*
G37*
G36*
X189124Y18193D02*
X187794Y18062D01*
X186514Y17674D01*
X185335Y17043D01*
X184302Y16195D01*
X183453Y15162D01*
X182823Y13983D01*
X182435Y12703D01*
X182304Y11372D01*
X182435Y10042D01*
X182823Y8762D01*
X183453Y7583D01*
X184302Y6550D01*
X185335Y5702D01*
X186514Y5071D01*
X187794Y4683D01*
X189124Y4552D01*
X190455Y4683D01*
X191734Y5071D01*
X192913Y5702D01*
X193947Y6550D01*
X194795Y7583D01*
X195425Y8762D01*
X195813Y10042D01*
X195944Y11372D01*
X195813Y12703D01*
X195425Y13983D01*
X194795Y15162D01*
X193947Y16195D01*
X192913Y17043D01*
X191734Y17674D01*
X190455Y18062D01*
X189124Y18193D01*
D02*
G37*
G36*
X116886Y24000D02*
X111650D01*
Y19384D01*
X111646Y19366D01*
X111650Y19349D01*
Y18567D01*
X112330D01*
X112335Y18556D01*
X112377Y18436D01*
X112418Y18256D01*
X112452Y18020D01*
X112461Y17888D01*
Y17651D01*
X112452Y17519D01*
X112418Y17283D01*
X112377Y17103D01*
X112335Y16983D01*
X112330Y16972D01*
X111650D01*
Y16190D01*
X111646Y16173D01*
X111650Y16156D01*
Y12356D01*
X111646Y12339D01*
X111650Y12321D01*
Y11539D01*
X112330D01*
X112335Y11529D01*
X112377Y11409D01*
X112418Y11228D01*
X112452Y10993D01*
X112461Y10860D01*
Y10624D01*
X112452Y10492D01*
X112418Y10256D01*
X112377Y10076D01*
X112335Y9956D01*
X112330Y9945D01*
X111650D01*
Y9163D01*
X111646Y9145D01*
X111650Y9128D01*
Y4512D01*
X116072D01*
X116089Y4508D01*
X116106Y4512D01*
X116886D01*
Y4668D01*
X117386Y4830D01*
X117791Y4581D01*
Y4535D01*
X118573D01*
X118591Y4532D01*
X118608Y4535D01*
X124287D01*
Y8866D01*
X118608D01*
X118591Y8870D01*
X118573Y8866D01*
X117791D01*
Y8848D01*
X117344Y8579D01*
X116886Y8775D01*
Y9128D01*
X116889Y9145D01*
X116886Y9163D01*
Y9945D01*
X116206D01*
X116200Y9955D01*
X116158Y10076D01*
X116117Y10256D01*
X116084Y10492D01*
X116074Y10624D01*
Y10860D01*
X116084Y10993D01*
X116117Y11228D01*
X116158Y11408D01*
X116200Y11529D01*
X116206Y11539D01*
X116886D01*
Y12321D01*
X116889Y12339D01*
X116886Y12356D01*
Y16156D01*
X116889Y16173D01*
X116886Y16190D01*
Y16972D01*
X116206D01*
X116200Y16983D01*
X116158Y17103D01*
X116117Y17283D01*
X116084Y17519D01*
X116074Y17651D01*
Y17888D01*
X116084Y18020D01*
X116117Y18256D01*
X116158Y18436D01*
X116200Y18556D01*
X116206Y18567D01*
X116886D01*
Y19349D01*
X116889Y19366D01*
X116886Y19384D01*
Y24000D01*
D02*
G37*
%LPD*%
G36*
X55123Y108536D02*
X55189Y108483D01*
X55259Y108438D01*
X55334Y108398D01*
X55412Y108364D01*
X55495Y108336D01*
X55581Y108315D01*
X55672Y108300D01*
X55767Y108290D01*
X55866Y108287D01*
X55866Y107500D01*
X55767Y107497D01*
X55672Y107488D01*
X55581Y107472D01*
X55494Y107451D01*
X55412Y107423D01*
X55334Y107390D01*
X55259Y107350D01*
X55189Y107304D01*
X55123Y107252D01*
X55061Y107194D01*
X55061Y108594D01*
X55123Y108536D01*
D02*
G37*
G36*
X61042Y107114D02*
X61032Y107187D01*
X61002Y107253D01*
X60952Y107311D01*
X60882Y107361D01*
X60793Y107403D01*
X60684Y107438D01*
X60554Y107465D01*
X60405Y107484D01*
X60236Y107496D01*
X60047Y107500D01*
Y108287D01*
X60236Y108291D01*
X60554Y108322D01*
X60684Y108349D01*
X60793Y108384D01*
X60882Y108426D01*
X60952Y108477D01*
X61002Y108535D01*
X61032Y108600D01*
X61042Y108674D01*
Y107114D01*
D02*
G37*
G36*
X114379Y111351D02*
X114527Y111225D01*
X114597Y111174D01*
X114666Y111132D01*
X114732Y111097D01*
X114796Y111069D01*
X114858Y111050D01*
X114917Y111039D01*
X114974Y111035D01*
X113984Y110045D01*
X113981Y110103D01*
X113970Y110162D01*
X113950Y110224D01*
X113923Y110287D01*
X113888Y110354D01*
X113845Y110422D01*
X113794Y110493D01*
X113735Y110566D01*
X113594Y110719D01*
X114301Y111426D01*
X114379Y111351D01*
D02*
G37*
G36*
X115741Y110697D02*
X115791Y110663D01*
X115848Y110633D01*
X115913Y110607D01*
X115984Y110585D01*
X116063Y110567D01*
X116149Y110553D01*
X116242Y110543D01*
X116450Y110535D01*
Y109535D01*
X116343Y109533D01*
X116149Y109517D01*
X116063Y109503D01*
X115984Y109485D01*
X115913Y109463D01*
X115848Y109437D01*
X115791Y109407D01*
X115741Y109373D01*
X115698Y109335D01*
Y110735D01*
X115741Y110697D01*
D02*
G37*
G36*
X132160Y109035D02*
X132150Y109130D01*
X132120Y109215D01*
X132069Y109290D01*
X131998Y109355D01*
X131907Y109410D01*
X131796Y109455D01*
X131664Y109490D01*
X131513Y109515D01*
X131341Y109530D01*
X131148Y109535D01*
Y110535D01*
X131341Y110540D01*
X131513Y110555D01*
X131664Y110580D01*
X131796Y110615D01*
X131907Y110660D01*
X131998Y110715D01*
X132069Y110780D01*
X132120Y110855D01*
X132150Y110940D01*
X132160Y111035D01*
Y109035D01*
D02*
G37*
G36*
X126644Y110940D02*
X126674Y110855D01*
X126725Y110780D01*
X126795Y110715D01*
X126886Y110660D01*
X126998Y110615D01*
X127129Y110580D01*
X127281Y110555D01*
X127453Y110540D01*
X127646Y110535D01*
Y109535D01*
X127453Y109530D01*
X127281Y109515D01*
X127129Y109490D01*
X126998Y109455D01*
X126886Y109410D01*
X126795Y109355D01*
X126725Y109290D01*
X126674Y109215D01*
X126644Y109130D01*
X126634Y109035D01*
Y111035D01*
X126644Y110940D01*
D02*
G37*
G36*
X120185Y109035D02*
X120175Y109130D01*
X120145Y109215D01*
X120094Y109290D01*
X120024Y109355D01*
X119932Y109410D01*
X119821Y109455D01*
X119690Y109490D01*
X119538Y109515D01*
X119366Y109530D01*
X119173Y109535D01*
Y110535D01*
X119366Y110540D01*
X119538Y110555D01*
X119690Y110580D01*
X119821Y110615D01*
X119932Y110660D01*
X120024Y110715D01*
X120094Y110780D01*
X120145Y110855D01*
X120175Y110940D01*
X120185Y111035D01*
Y109035D01*
D02*
G37*
G36*
X91827Y108729D02*
X91807Y108805D01*
X91748Y108874D01*
X91650Y108935D01*
X91512Y108988D01*
X91335Y109032D01*
X91118Y109069D01*
X90862Y109097D01*
X90232Y109129D01*
X89859Y109133D01*
Y111102D01*
X90232Y111103D01*
X91748Y111205D01*
X91807Y111233D01*
X91827Y111264D01*
Y108729D01*
D02*
G37*
G36*
X85464Y111848D02*
X85523Y111692D01*
X85622Y111553D01*
X85760Y111434D01*
X85937Y111332D01*
X86153Y111249D01*
X86409Y111185D01*
X86704Y111139D01*
X87039Y111111D01*
X87413Y111102D01*
Y109133D01*
X87039Y109126D01*
X86409Y109066D01*
X86153Y109014D01*
X85937Y108947D01*
X85760Y108864D01*
X85622Y108767D01*
X85523Y108655D01*
X85464Y108528D01*
X85445Y108386D01*
Y112023D01*
X85464Y111848D01*
D02*
G37*
G36*
X120185Y104248D02*
X120177Y104323D01*
X120153Y104390D01*
X120114Y104449D01*
X120057Y104500D01*
X119986Y104543D01*
X119898Y104579D01*
X119794Y104606D01*
X119674Y104626D01*
X119538Y104638D01*
X119386Y104642D01*
Y105429D01*
X119538Y105433D01*
X119674Y105445D01*
X119794Y105465D01*
X119898Y105492D01*
X119986Y105528D01*
X120057Y105571D01*
X120114Y105622D01*
X120153Y105681D01*
X120177Y105748D01*
X120185Y105823D01*
Y104248D01*
D02*
G37*
G36*
X149344Y101803D02*
X149259Y101801D01*
X149176Y101790D01*
X149093Y101773D01*
X149013Y101749D01*
X148933Y101717D01*
X148856Y101678D01*
X148779Y101632D01*
X148704Y101579D01*
X148631Y101518D01*
X148558Y101451D01*
X148002Y102007D01*
X148070Y102079D01*
X148130Y102153D01*
X148183Y102228D01*
X148230Y102304D01*
X148268Y102382D01*
X148300Y102462D01*
X148325Y102542D01*
X148342Y102624D01*
X148352Y102708D01*
X148354Y102793D01*
X149344Y101803D01*
D02*
G37*
G36*
X120185Y99248D02*
X120177Y99323D01*
X120153Y99390D01*
X120114Y99449D01*
X120057Y99500D01*
X119986Y99543D01*
X119898Y99579D01*
X119794Y99606D01*
X119674Y99626D01*
X119538Y99638D01*
X119386Y99642D01*
Y100429D01*
X119538Y100433D01*
X119674Y100445D01*
X119794Y100465D01*
X119898Y100492D01*
X119986Y100528D01*
X120057Y100571D01*
X120114Y100622D01*
X120153Y100681D01*
X120177Y100748D01*
X120185Y100823D01*
Y99248D01*
D02*
G37*
G36*
X91839D02*
X91831Y99323D01*
X91807Y99390D01*
X91767Y99449D01*
X91711Y99500D01*
X91639Y99543D01*
X91551Y99579D01*
X91447Y99606D01*
X91327Y99626D01*
X91191Y99638D01*
X91040Y99642D01*
Y100429D01*
X91191Y100433D01*
X91327Y100445D01*
X91447Y100465D01*
X91551Y100492D01*
X91639Y100528D01*
X91711Y100571D01*
X91767Y100622D01*
X91807Y100681D01*
X91831Y100748D01*
X91839Y100823D01*
Y99248D01*
D02*
G37*
G36*
X67241Y99047D02*
X67346Y99012D01*
X67485Y98980D01*
X67658Y98953D01*
X68107Y98911D01*
X69033Y98880D01*
X69410Y98878D01*
Y96909D01*
X69033Y96907D01*
X67485Y96807D01*
X67346Y96776D01*
X67241Y96740D01*
X67169Y96701D01*
Y99087D01*
X67241Y99047D01*
D02*
G37*
G36*
X91839Y94248D02*
X91831Y94323D01*
X91807Y94390D01*
X91767Y94449D01*
X91711Y94500D01*
X91639Y94543D01*
X91551Y94579D01*
X91447Y94606D01*
X91327Y94626D01*
X91191Y94638D01*
X91040Y94642D01*
Y95429D01*
X91191Y95433D01*
X91327Y95445D01*
X91447Y95465D01*
X91551Y95492D01*
X91639Y95528D01*
X91711Y95571D01*
X91767Y95622D01*
X91807Y95681D01*
X91831Y95748D01*
X91839Y95823D01*
Y94248D01*
D02*
G37*
G36*
X114264Y90366D02*
X114276Y90232D01*
X114295Y90114D01*
X114323Y90012D01*
X114358Y89925D01*
X114402Y89854D01*
X114453Y89799D01*
X114512Y89760D01*
X114579Y89736D01*
X114654Y89728D01*
X113079D01*
X113154Y89736D01*
X113221Y89760D01*
X113280Y89799D01*
X113331Y89854D01*
X113374Y89925D01*
X113409Y90012D01*
X113437Y90114D01*
X113457Y90232D01*
X113469Y90366D01*
X113472Y90516D01*
X114260D01*
X114264Y90366D01*
D02*
G37*
G36*
X104497Y88832D02*
X104547Y88798D01*
X104604Y88768D01*
X104669Y88742D01*
X104740Y88720D01*
X104819Y88702D01*
X104905Y88688D01*
X104998Y88678D01*
X105206Y88670D01*
Y87670D01*
X105099Y87668D01*
X104905Y87652D01*
X104819Y87638D01*
X104740Y87620D01*
X104669Y87598D01*
X104604Y87572D01*
X104547Y87542D01*
X104497Y87508D01*
X104454Y87470D01*
Y88870D01*
X104497Y88832D01*
D02*
G37*
G36*
X106264Y87170D02*
X106254Y87265D01*
X106224Y87350D01*
X106173Y87425D01*
X106102Y87490D01*
X106011Y87545D01*
X105900Y87590D01*
X105768Y87625D01*
X105616Y87650D01*
X105445Y87665D01*
X105252Y87670D01*
Y88670D01*
X105445Y88675D01*
X105616Y88690D01*
X105768Y88715D01*
X105900Y88750D01*
X106011Y88795D01*
X106102Y88850D01*
X106173Y88915D01*
X106224Y88990D01*
X106254Y89075D01*
X106264Y89170D01*
Y87170D01*
D02*
G37*
G36*
X58933Y87935D02*
X58980Y87835D01*
X59060Y87746D01*
X59171Y87669D01*
X59314Y87604D01*
X59488Y87551D01*
X59695Y87510D01*
X59933Y87480D01*
X60202Y87463D01*
X60504Y87457D01*
Y85488D01*
X60202Y85482D01*
X59695Y85435D01*
X59488Y85394D01*
X59314Y85340D01*
X59171Y85276D01*
X59060Y85199D01*
X58980Y85110D01*
X58933Y85010D01*
X58917Y84898D01*
Y88047D01*
X58933Y87935D01*
D02*
G37*
G36*
X57979Y84821D02*
X57914Y84780D01*
X57857Y84711D01*
X57807Y84614D01*
X57765Y84491D01*
X57731Y84339D01*
X57704Y84160D01*
X57685Y83953D01*
X57669Y83457D01*
X55701D01*
X55697Y83719D01*
X55667Y84160D01*
X55640Y84339D01*
X55606Y84491D01*
X55563Y84614D01*
X55514Y84711D01*
X55457Y84780D01*
X55392Y84821D01*
X55319Y84835D01*
X58051D01*
X57979Y84821D01*
D02*
G37*
G36*
X67598Y81293D02*
X67628Y81227D01*
X67678Y81170D01*
X67747Y81119D01*
X67837Y81077D01*
X67946Y81042D01*
X68076Y81015D01*
X68225Y80996D01*
X68394Y80984D01*
X68583Y80980D01*
Y80193D01*
X68394Y80189D01*
X68076Y80158D01*
X67946Y80131D01*
X67837Y80096D01*
X67747Y80054D01*
X67678Y80003D01*
X67628Y79946D01*
X67598Y79880D01*
X67588Y79806D01*
Y81367D01*
X67598Y81293D01*
D02*
G37*
G36*
X46768Y81740D02*
X46874Y81704D01*
X47013Y81673D01*
X47186Y81646D01*
X47634Y81604D01*
X48561Y81573D01*
X48937Y81571D01*
Y79602D01*
X48561Y79600D01*
X47013Y79500D01*
X46874Y79469D01*
X46768Y79433D01*
X46697Y79393D01*
Y81780D01*
X46768Y81740D01*
D02*
G37*
G36*
X66097Y74201D02*
X65929Y74142D01*
X65781Y74043D01*
X65654Y73904D01*
X65545Y73726D01*
X65457Y73508D01*
X65388Y73250D01*
X65361Y73087D01*
X65388Y72923D01*
X65457Y72665D01*
X65545Y72447D01*
X65654Y72269D01*
X65781Y72131D01*
X65929Y72031D01*
X66097Y71972D01*
X66284Y71952D01*
X62347D01*
X62533Y71972D01*
X62701Y72031D01*
X62848Y72131D01*
X62976Y72269D01*
X63085Y72447D01*
X63173Y72665D01*
X63242Y72923D01*
X63269Y73087D01*
X63242Y73250D01*
X63173Y73508D01*
X63085Y73726D01*
X62976Y73904D01*
X62848Y74043D01*
X62701Y74142D01*
X62533Y74201D01*
X62347Y74221D01*
X66284D01*
X66097Y74201D01*
D02*
G37*
G36*
X63678Y69836D02*
X63585Y69904D01*
X63472Y69964D01*
X63340Y70018D01*
X63190Y70064D01*
X63020Y70104D01*
X62831Y70136D01*
X62396Y70179D01*
X62151Y70189D01*
X61886Y70193D01*
Y70980D01*
X62151Y70984D01*
X62831Y71037D01*
X63020Y71070D01*
X63190Y71109D01*
X63340Y71155D01*
X63472Y71209D01*
X63585Y71269D01*
X63678Y71337D01*
Y69836D01*
D02*
G37*
G36*
X61710Y69303D02*
X61659Y69357D01*
X61599Y69390D01*
X61529Y69404D01*
X61451Y69397D01*
X61363Y69369D01*
X61266Y69322D01*
X61159Y69254D01*
X61044Y69166D01*
X60919Y69057D01*
X60784Y68928D01*
X60307Y69565D01*
X60439Y69702D01*
X60646Y69952D01*
X60722Y70066D01*
X60779Y70172D01*
X60817Y70270D01*
X60837Y70361D01*
X60838Y70443D01*
X60820Y70518D01*
X60784Y70585D01*
X61710Y69303D01*
D02*
G37*
G36*
X87908Y66902D02*
X87841Y66878D01*
X87782Y66838D01*
X87731Y66782D01*
X87688Y66710D01*
X87652Y66622D01*
X87625Y66518D01*
X87605Y66398D01*
X87593Y66262D01*
X87589Y66110D01*
X86802D01*
X86798Y66262D01*
X86786Y66398D01*
X86766Y66518D01*
X86739Y66622D01*
X86703Y66710D01*
X86660Y66782D01*
X86609Y66838D01*
X86550Y66878D01*
X86483Y66902D01*
X86408Y66910D01*
X87983D01*
X87908Y66902D01*
D02*
G37*
G36*
X87590Y64427D02*
X87637Y63727D01*
X87648Y63702D01*
X86743D01*
X86754Y63727D01*
X86764Y63766D01*
X86773Y63818D01*
X86787Y63965D01*
X86799Y64291D01*
X86802Y64578D01*
X87589D01*
X87590Y64427D01*
D02*
G37*
G36*
X83653D02*
X83700Y63727D01*
X83711Y63702D01*
X82806D01*
X82817Y63727D01*
X82827Y63766D01*
X82836Y63818D01*
X82850Y63965D01*
X82862Y64291D01*
X82865Y64578D01*
X83652D01*
X83653Y64427D01*
D02*
G37*
G36*
X81684D02*
X81731Y63727D01*
X81742Y63702D01*
X80838D01*
X80849Y63727D01*
X80859Y63766D01*
X80868Y63818D01*
X80882Y63965D01*
X80894Y64291D01*
X80896Y64578D01*
X81684D01*
X81684Y64427D01*
D02*
G37*
G36*
X79716D02*
X79763Y63727D01*
X79774Y63702D01*
X78869D01*
X78880Y63727D01*
X78890Y63766D01*
X78899Y63818D01*
X78913Y63965D01*
X78925Y64291D01*
X78928Y64578D01*
X79715D01*
X79716Y64427D01*
D02*
G37*
G36*
X77747D02*
X77794Y63727D01*
X77805Y63702D01*
X76901D01*
X76912Y63727D01*
X76922Y63766D01*
X76930Y63818D01*
X76945Y63965D01*
X76957Y64291D01*
X76959Y64578D01*
X77747D01*
X77747Y64427D01*
D02*
G37*
G36*
X73810D02*
X73857Y63727D01*
X73868Y63702D01*
X72964D01*
X72975Y63727D01*
X72985Y63766D01*
X72993Y63818D01*
X73008Y63965D01*
X73020Y64291D01*
X73022Y64578D01*
X73810D01*
X73810Y64427D01*
D02*
G37*
G36*
X66868Y64299D02*
X66802Y64270D01*
X66743Y64223D01*
X66693Y64160D01*
X66650Y64081D01*
X66615Y63984D01*
X66588Y63871D01*
X66568Y63741D01*
X66556Y63594D01*
X66552Y63431D01*
X65765Y63421D01*
X65761Y63577D01*
X65749Y63717D01*
X65730Y63839D01*
X65702Y63944D01*
X65667Y64032D01*
X65623Y64104D01*
X65572Y64158D01*
X65513Y64196D01*
X65446Y64217D01*
X65371Y64221D01*
X66942Y64312D01*
X66868Y64299D01*
D02*
G37*
G36*
X91574Y58185D02*
X91564Y58147D01*
X91555Y58094D01*
X91541Y57947D01*
X91528Y57622D01*
X91526Y57335D01*
X90739D01*
X90738Y57485D01*
X90691Y58185D01*
X90680Y58210D01*
X91585D01*
X91574Y58185D01*
D02*
G37*
G36*
X89605D02*
X89595Y58147D01*
X89586Y58094D01*
X89572Y57947D01*
X89560Y57622D01*
X89558Y57335D01*
X88770D01*
X88770Y57485D01*
X88723Y58185D01*
X88712Y58210D01*
X89616D01*
X89605Y58185D01*
D02*
G37*
G36*
X85668D02*
X85658Y58147D01*
X85649Y58094D01*
X85635Y57947D01*
X85623Y57622D01*
X85621Y57335D01*
X84833D01*
X84833Y57485D01*
X84786Y58185D01*
X84775Y58210D01*
X85679D01*
X85668Y58185D01*
D02*
G37*
G36*
X58285Y58214D02*
X58318Y58187D01*
X58361Y58164D01*
X58412Y58143D01*
X58471Y58126D01*
X58539Y58112D01*
X58616Y58101D01*
X58795Y58088D01*
X58898Y58087D01*
Y57299D01*
X58795Y57298D01*
X58616Y57285D01*
X58539Y57274D01*
X58471Y57260D01*
X58412Y57243D01*
X58361Y57222D01*
X58318Y57198D01*
X58285Y57172D01*
X58260Y57142D01*
Y58244D01*
X58285Y58214D01*
D02*
G37*
G36*
X66556Y57055D02*
X66568Y56914D01*
X66588Y56791D01*
X66615Y56685D01*
X66651Y56596D01*
X66694Y56525D01*
X66745Y56471D01*
X66804Y56435D01*
X66871Y56416D01*
X66946Y56414D01*
X65491Y56283D01*
X65543Y56325D01*
X65590Y56378D01*
X65631Y56442D01*
X65666Y56517D01*
X65697Y56603D01*
X65721Y56700D01*
X65740Y56809D01*
X65754Y56928D01*
X65765Y57199D01*
X66552Y57213D01*
X66556Y57055D01*
D02*
G37*
G36*
X76540Y54585D02*
X76606Y54533D01*
X76676Y54487D01*
X76751Y54447D01*
X76829Y54414D01*
X76912Y54386D01*
X76999Y54365D01*
X77089Y54349D01*
X77184Y54340D01*
X77283Y54337D01*
Y53550D01*
X77184Y53547D01*
X77089Y53537D01*
X76999Y53522D01*
X76912Y53501D01*
X76829Y53473D01*
X76751Y53439D01*
X76676Y53399D01*
X76606Y53354D01*
X76540Y53302D01*
X76478Y53243D01*
Y54643D01*
X76540Y54585D01*
D02*
G37*
G36*
X49646Y51772D02*
X49638Y51846D01*
X49614Y51913D01*
X49574Y51973D01*
X49518Y52024D01*
X49446Y52067D01*
X49358Y52102D01*
X49254Y52130D01*
X49134Y52150D01*
X48999Y52161D01*
X48847Y52165D01*
Y52953D01*
X48999Y52957D01*
X49134Y52969D01*
X49254Y52988D01*
X49358Y53016D01*
X49446Y53051D01*
X49518Y53095D01*
X49574Y53146D01*
X49614Y53205D01*
X49638Y53272D01*
X49646Y53347D01*
Y51772D01*
D02*
G37*
G36*
X45563Y53272D02*
X45586Y53205D01*
X45626Y53146D01*
X45681Y53095D01*
X45752Y53051D01*
X45838Y53016D01*
X45941Y52988D01*
X46059Y52969D01*
X46193Y52957D01*
X46342Y52953D01*
Y52165D01*
X46193Y52161D01*
X46059Y52150D01*
X45941Y52130D01*
X45838Y52102D01*
X45752Y52067D01*
X45681Y52024D01*
X45626Y51973D01*
X45586Y51913D01*
X45563Y51846D01*
X45555Y51772D01*
Y53347D01*
X45563Y53272D01*
D02*
G37*
G36*
X65650Y51547D02*
X65615Y51565D01*
X65566Y51582D01*
X65505Y51596D01*
X65432Y51609D01*
X65245Y51628D01*
X65008Y51640D01*
X64718Y51643D01*
X64831Y52431D01*
X65650Y52452D01*
Y51547D01*
D02*
G37*
G36*
X76498Y50437D02*
X76565Y50385D01*
X76635Y50339D01*
X76709Y50299D01*
X76788Y50266D01*
X76870Y50238D01*
X76957Y50217D01*
X77048Y50201D01*
X77142Y50192D01*
X77241Y50189D01*
Y49402D01*
X77142Y49398D01*
X77048Y49389D01*
X76957Y49374D01*
X76870Y49353D01*
X76788Y49325D01*
X76709Y49291D01*
X76635Y49251D01*
X76565Y49205D01*
X76498Y49154D01*
X76436Y49095D01*
Y50495D01*
X76498Y50437D01*
D02*
G37*
G36*
X63653Y48489D02*
X63577Y48410D01*
X63458Y48267D01*
X63415Y48202D01*
X63383Y48143D01*
X63362Y48089D01*
X63352Y48040D01*
X63353Y47995D01*
X63365Y47956D01*
X63388Y47922D01*
X62086Y48080D01*
X62778Y49028D01*
X63653Y48489D01*
D02*
G37*
G36*
X55171Y47439D02*
X55137Y47421D01*
X55106Y47392D01*
X55080Y47350D01*
X55058Y47296D01*
X55040Y47231D01*
X55026Y47154D01*
X55016Y47065D01*
X55010Y46963D01*
X55008Y46850D01*
X54220D01*
X54219Y46963D01*
X54202Y47154D01*
X54188Y47231D01*
X54170Y47296D01*
X54148Y47350D01*
X54122Y47392D01*
X54092Y47421D01*
X54058Y47439D01*
X54019Y47445D01*
X55209D01*
X55171Y47439D01*
D02*
G37*
G36*
X76540Y45351D02*
X76606Y45298D01*
X76676Y45252D01*
X76751Y45213D01*
X76829Y45179D01*
X76912Y45151D01*
X76999Y45130D01*
X77089Y45115D01*
X77184Y45105D01*
X77283Y45102D01*
Y44315D01*
X77184Y44312D01*
X77089Y44303D01*
X76999Y44287D01*
X76912Y44266D01*
X76829Y44238D01*
X76751Y44205D01*
X76676Y44165D01*
X76606Y44119D01*
X76540Y44067D01*
X76478Y44009D01*
Y45409D01*
X76540Y45351D01*
D02*
G37*
G36*
X65650Y43673D02*
X65625Y43684D01*
X65587Y43694D01*
X65534Y43703D01*
X65387Y43717D01*
X65062Y43729D01*
X64775Y43732D01*
Y44519D01*
X64925Y44520D01*
X65625Y44567D01*
X65650Y44578D01*
Y43673D01*
D02*
G37*
G36*
Y41705D02*
X65625Y41716D01*
X65587Y41726D01*
X65534Y41734D01*
X65387Y41749D01*
X65062Y41761D01*
X64775Y41763D01*
Y42551D01*
X64925Y42551D01*
X65625Y42598D01*
X65650Y42609D01*
Y41705D01*
D02*
G37*
G36*
X73884Y42194D02*
X73891Y42107D01*
X73902Y42026D01*
X73918Y41949D01*
X73939Y41877D01*
X73963Y41811D01*
X73993Y41749D01*
X74027Y41692D01*
X74065Y41640D01*
X74108Y41593D01*
X72868D01*
X72911Y41640D01*
X72950Y41692D01*
X72984Y41749D01*
X73013Y41811D01*
X73038Y41877D01*
X73058Y41949D01*
X73074Y42026D01*
X73085Y42107D01*
X73092Y42194D01*
X73094Y42286D01*
X73882D01*
X73884Y42194D01*
D02*
G37*
G36*
X55012Y39395D02*
X55024Y39259D01*
X55043Y39139D01*
X55071Y39035D01*
X55106Y38947D01*
X55150Y38875D01*
X55201Y38820D01*
X55260Y38780D01*
X55327Y38756D01*
X55402Y38748D01*
X53827D01*
X53902Y38756D01*
X53969Y38780D01*
X54028Y38820D01*
X54079Y38875D01*
X54122Y38947D01*
X54158Y39035D01*
X54185Y39139D01*
X54205Y39259D01*
X54217Y39395D01*
X54220Y39547D01*
X55008D01*
X55012Y39395D01*
D02*
G37*
G36*
X73479Y37348D02*
X73444Y37344D01*
X73404Y37334D01*
X73361Y37316D01*
X73314Y37291D01*
X73263Y37258D01*
X73208Y37219D01*
X73086Y37117D01*
X72949Y36987D01*
X72242Y37694D01*
X72311Y37765D01*
X72473Y37953D01*
X72513Y38008D01*
X72545Y38059D01*
X72571Y38106D01*
X72588Y38150D01*
X72599Y38189D01*
X72602Y38225D01*
X73479Y37348D01*
D02*
G37*
G36*
X49646Y32591D02*
X49638Y32665D01*
X49614Y32732D01*
X49574Y32791D01*
X49518Y32842D01*
X49446Y32886D01*
X49358Y32921D01*
X49254Y32949D01*
X49134Y32969D01*
X48999Y32980D01*
X48847Y32984D01*
Y33772D01*
X48999Y33776D01*
X49134Y33787D01*
X49254Y33807D01*
X49358Y33835D01*
X49446Y33870D01*
X49518Y33913D01*
X49574Y33965D01*
X49614Y34024D01*
X49638Y34091D01*
X49646Y34165D01*
Y32591D01*
D02*
G37*
G36*
X45551Y34091D02*
X45575Y34024D01*
X45615Y33965D01*
X45671Y33913D01*
X45743Y33870D01*
X45831Y33835D01*
X45935Y33807D01*
X46055Y33787D01*
X46190Y33776D01*
X46342Y33772D01*
Y32984D01*
X46190Y32980D01*
X46055Y32969D01*
X45935Y32949D01*
X45831Y32921D01*
X45743Y32886D01*
X45671Y32842D01*
X45615Y32791D01*
X45575Y32732D01*
X45551Y32665D01*
X45543Y32591D01*
Y34165D01*
X45551Y34091D01*
D02*
G37*
G36*
X73229Y32275D02*
X72938Y29354D01*
X72936Y29541D01*
X72891Y29709D01*
X72801Y29856D01*
X72668Y29984D01*
X72492Y30092D01*
X72272Y30181D01*
X72009Y30250D01*
X71702Y30299D01*
X71352Y30329D01*
X70958Y30339D01*
Y32307D01*
X73229Y32275D01*
D02*
G37*
G36*
X66309Y30018D02*
X66345Y29463D01*
X66366Y29327D01*
X66392Y29217D01*
X66423Y29130D01*
X66458Y29069D01*
X66499Y29032D01*
X66544Y29019D01*
X64102D01*
X64147Y29032D01*
X64187Y29069D01*
X64223Y29130D01*
X64253Y29217D01*
X64280Y29327D01*
X64301Y29463D01*
X64317Y29623D01*
X64336Y30018D01*
X64339Y30252D01*
X66307D01*
X66309Y30018D01*
D02*
G37*
G36*
X73921Y23877D02*
X73936Y23707D01*
X73961Y23557D01*
X73996Y23427D01*
X74041Y23317D01*
X74096Y23227D01*
X74161Y23157D01*
X74236Y23107D01*
X74321Y23077D01*
X74416Y23067D01*
X72416D01*
X72511Y23077D01*
X72596Y23107D01*
X72671Y23157D01*
X72736Y23227D01*
X72791Y23317D01*
X72836Y23427D01*
X72871Y23557D01*
X72896Y23707D01*
X72911Y23877D01*
X72916Y24067D01*
X73916D01*
X73921Y23877D01*
D02*
G37*
G36*
X91839Y104035D02*
X91829Y104130D01*
X91799Y104215D01*
X91748Y104290D01*
X91677Y104355D01*
X91586Y104410D01*
X91475Y104455D01*
X91343Y104490D01*
X91191Y104515D01*
X91019Y104530D01*
X90827Y104535D01*
Y105535D01*
X91019Y105540D01*
X91191Y105555D01*
X91343Y105580D01*
X91475Y105615D01*
X91586Y105660D01*
X91677Y105715D01*
X91748Y105780D01*
X91799Y105855D01*
X91829Y105940D01*
X91839Y106035D01*
Y104035D01*
D02*
G37*
G36*
X85455Y105880D02*
X85485Y105807D01*
X85535Y105744D01*
X85605Y105688D01*
X85695Y105642D01*
X85805Y105603D01*
X85935Y105574D01*
X86085Y105552D01*
X86255Y105540D01*
X86445Y105535D01*
Y104535D01*
X86253Y104530D01*
X86081Y104515D01*
X85930Y104490D01*
X85799Y104455D01*
X85687Y104410D01*
X85596Y104355D01*
X85525Y104290D01*
X85474Y104215D01*
X85443Y104130D01*
X85433Y104035D01*
X85445Y105960D01*
X85455Y105880D01*
D02*
G37*
G36*
X152298Y91429D02*
X152480Y91425D01*
Y88276D01*
X152304Y88275D01*
X152307Y86701D01*
X152275Y87000D01*
X152180Y87268D01*
X152022Y87504D01*
X151800Y87709D01*
X151516Y87882D01*
X151168Y88024D01*
X150757Y88134D01*
X150434Y88187D01*
X149835Y88152D01*
X149614Y88108D01*
X149457Y88056D01*
X149362Y87998D01*
X149330Y87933D01*
Y88271D01*
X149146Y88276D01*
Y91425D01*
X149330Y91430D01*
Y91768D01*
X149362Y91703D01*
X149457Y91644D01*
X149614Y91593D01*
X149835Y91548D01*
X150118Y91511D01*
X150345Y91494D01*
X150752Y91558D01*
X151162Y91661D01*
X151508Y91794D01*
X151792Y91957D01*
X152012Y92149D01*
X152170Y92370D01*
X152264Y92621D01*
X152295Y92901D01*
X152298Y91429D01*
D02*
G37*
G36*
X156229Y81768D02*
X156359Y79997D01*
X156437Y79564D01*
X156532Y79209D01*
X156645Y78934D01*
X156775Y78737D01*
X156922Y78619D01*
X157087Y78579D01*
X151323D01*
X151505Y78619D01*
X151669Y78737D01*
X151813Y78934D01*
X151938Y79209D01*
X152043Y79564D01*
X152130Y79997D01*
X152197Y80509D01*
X152274Y81768D01*
X152284Y82516D01*
X156220D01*
X156229Y81768D01*
D02*
G37*
G36*
X54988Y101567D02*
X54936Y101501D01*
X54890Y101430D01*
X54850Y101356D01*
X54817Y101277D01*
X54789Y101195D01*
X54768Y101108D01*
X54752Y101017D01*
X54743Y100923D01*
X54740Y100824D01*
X53953D01*
X53950Y100923D01*
X53940Y101017D01*
X53925Y101108D01*
X53904Y101195D01*
X53876Y101277D01*
X53843Y101356D01*
X53803Y101430D01*
X53757Y101501D01*
X53705Y101567D01*
X53646Y101629D01*
X55046D01*
X54988Y101567D01*
D02*
G37*
G36*
X61042Y92114D02*
X61032Y92187D01*
X61002Y92253D01*
X60952Y92311D01*
X60882Y92361D01*
X60793Y92403D01*
X60684Y92438D01*
X60554Y92465D01*
X60405Y92484D01*
X60236Y92496D01*
X60047Y92500D01*
Y93287D01*
X60236Y93291D01*
X60554Y93322D01*
X60684Y93349D01*
X60793Y93384D01*
X60882Y93427D01*
X60952Y93477D01*
X61002Y93535D01*
X61032Y93600D01*
X61042Y93674D01*
Y92114D01*
D02*
G37*
G36*
X98209Y66984D02*
X98189Y67143D01*
X98130Y67285D01*
X98032Y67410D01*
X97894Y67519D01*
X97717Y67610D01*
X97500Y67685D01*
X97244Y67744D01*
X96949Y67786D01*
X96614Y67811D01*
X96240Y67819D01*
Y69787D01*
X96614Y69796D01*
X96949Y69821D01*
X97244Y69863D01*
X97500Y69921D01*
X97717Y69996D01*
X97894Y70088D01*
X98032Y70196D01*
X98130Y70322D01*
X98189Y70463D01*
X98209Y70622D01*
Y66984D01*
D02*
G37*
G36*
X95637Y67488D02*
X95623Y67434D01*
X95610Y67365D01*
X95590Y67179D01*
X95577Y66932D01*
X95569Y66445D01*
X94569Y66421D01*
X94567Y66528D01*
X94559Y66627D01*
X94547Y66718D01*
X94529Y66799D01*
X94506Y66873D01*
X94478Y66937D01*
X94445Y66993D01*
X94407Y67041D01*
X94364Y67080D01*
X94316Y67110D01*
X95653Y67527D01*
X95637Y67488D01*
D02*
G37*
G36*
X37266Y57932D02*
X37296Y57846D01*
X37346Y57771D01*
X37416Y57706D01*
X37506Y57652D01*
X37616Y57607D01*
X37746Y57572D01*
X37896Y57547D01*
X37921Y57544D01*
X37923Y57544D01*
X38009Y57558D01*
X38088Y57576D01*
X38160Y57598D01*
X38224Y57624D01*
X38282Y57654D01*
X38332Y57688D01*
X38375Y57726D01*
X38370Y56326D01*
X38328Y56364D01*
X38278Y56398D01*
X38221Y56428D01*
X38156Y56454D01*
X38085Y56476D01*
X38006Y56494D01*
X37920Y56508D01*
X37919Y56509D01*
X37896Y56507D01*
X37746Y56481D01*
X37616Y56446D01*
X37506Y56401D01*
X37416Y56346D01*
X37346Y56282D01*
X37296Y56207D01*
X37266Y56121D01*
X37256Y56027D01*
Y58026D01*
X37266Y57932D01*
D02*
G37*
G36*
X128433Y9075D02*
X128414Y9122D01*
X128355Y9164D01*
X128256Y9201D01*
X128118Y9234D01*
X127941Y9261D01*
X127469Y9301D01*
X126465Y9323D01*
Y11291D01*
X126839Y11297D01*
X127725Y11374D01*
X127941Y11420D01*
X128118Y11477D01*
X128256Y11544D01*
X128355Y11621D01*
X128414Y11709D01*
X128433Y11807D01*
Y9075D01*
D02*
G37*
G36*
X122614Y19229D02*
X122480Y19181D01*
X122362Y19102D01*
X122260Y18991D01*
X122173Y18848D01*
X122102Y18673D01*
X122047Y18467D01*
X122008Y18229D01*
X121984Y17959D01*
X121976Y17658D01*
X120402D01*
X120394Y17959D01*
X120370Y18229D01*
X120331Y18467D01*
X120276Y18673D01*
X120205Y18848D01*
X120118Y18991D01*
X120016Y19102D01*
X119898Y19181D01*
X119764Y19229D01*
X119614Y19244D01*
X122764D01*
X122614Y19229D01*
D02*
G37*
G36*
X121984Y16820D02*
X122008Y16551D01*
X122047Y16313D01*
X122102Y16106D01*
X122173Y15932D01*
X122260Y15789D01*
X122362Y15678D01*
X122480Y15598D01*
X122614Y15551D01*
X122764Y15535D01*
X119614D01*
X119764Y15551D01*
X119898Y15598D01*
X120016Y15678D01*
X120118Y15789D01*
X120205Y15932D01*
X120276Y16106D01*
X120331Y16313D01*
X120370Y16551D01*
X120394Y16820D01*
X120402Y17122D01*
X121976D01*
X121984Y16820D01*
D02*
G37*
G36*
X63804Y7899D02*
X63854Y7865D01*
X63911Y7835D01*
X63976Y7809D01*
X64047Y7787D01*
X64126Y7769D01*
X64212Y7755D01*
X64305Y7745D01*
X64513Y7737D01*
Y6737D01*
X64406Y6735D01*
X64212Y6719D01*
X64126Y6705D01*
X64047Y6687D01*
X63976Y6665D01*
X63911Y6639D01*
X63854Y6609D01*
X63804Y6575D01*
X63761Y6537D01*
Y7937D01*
X63804Y7899D01*
D02*
G37*
G36*
X62333Y6537D02*
X62290Y6575D01*
X62240Y6609D01*
X62183Y6639D01*
X62119Y6665D01*
X62047Y6687D01*
X61968Y6705D01*
X61882Y6719D01*
X61789Y6729D01*
X61581Y6737D01*
Y7737D01*
X61689Y7739D01*
X61882Y7755D01*
X61968Y7769D01*
X62047Y7787D01*
X62119Y7809D01*
X62183Y7835D01*
X62240Y7865D01*
X62290Y7899D01*
X62333Y7937D01*
Y6537D01*
D02*
G37*
G36*
X71193Y6237D02*
X71183Y6332D01*
X71153Y6417D01*
X71102Y6492D01*
X71031Y6557D01*
X70940Y6612D01*
X70829Y6657D01*
X70697Y6692D01*
X70546Y6717D01*
X70374Y6732D01*
X70181Y6737D01*
Y7737D01*
X70374Y7742D01*
X70546Y7757D01*
X70697Y7782D01*
X70829Y7817D01*
X70940Y7862D01*
X71031Y7917D01*
X71102Y7982D01*
X71153Y8057D01*
X71183Y8142D01*
X71193Y8237D01*
Y6237D01*
D02*
G37*
G36*
X59462Y8142D02*
X59493Y8057D01*
X59544Y7982D01*
X59614Y7917D01*
X59705Y7862D01*
X59817Y7817D01*
X59948Y7782D01*
X60100Y7757D01*
X60272Y7742D01*
X60464Y7737D01*
Y6737D01*
X60272Y6732D01*
X60100Y6717D01*
X59948Y6692D01*
X59817Y6657D01*
X59705Y6612D01*
X59614Y6557D01*
X59544Y6492D01*
X59493Y6417D01*
X59462Y6332D01*
X59452Y6237D01*
Y8237D01*
X59462Y8142D01*
D02*
G37*
G36*
X115928Y19347D02*
X115786Y19288D01*
X115661Y19189D01*
X115552Y19051D01*
X115461Y18874D01*
X115385Y18658D01*
X115327Y18402D01*
X115285Y18106D01*
X115260Y17772D01*
X115260Y17770D01*
X115260Y17767D01*
X115285Y17433D01*
X115327Y17138D01*
X115385Y16882D01*
X115461Y16665D01*
X115552Y16488D01*
X115661Y16350D01*
X115786Y16252D01*
X115928Y16193D01*
X116086Y16173D01*
X112449D01*
X112608Y16193D01*
X112749Y16252D01*
X112875Y16350D01*
X112983Y16488D01*
X113075Y16665D01*
X113150Y16882D01*
X113208Y17138D01*
X113250Y17433D01*
X113275Y17767D01*
X113275Y17770D01*
X113275Y17772D01*
X113250Y18106D01*
X113208Y18402D01*
X113150Y18658D01*
X113075Y18874D01*
X112983Y19051D01*
X112875Y19189D01*
X112749Y19288D01*
X112608Y19347D01*
X112449Y19366D01*
X116086D01*
X115928Y19347D01*
D02*
G37*
G36*
Y12319D02*
X115786Y12260D01*
X115661Y12162D01*
X115552Y12024D01*
X115461Y11847D01*
X115385Y11630D01*
X115327Y11374D01*
X115285Y11079D01*
X115260Y10744D01*
X115260Y10742D01*
X115260Y10740D01*
X115285Y10405D01*
X115327Y10110D01*
X115385Y9854D01*
X115461Y9638D01*
X115552Y9460D01*
X115661Y9323D01*
X115786Y9224D01*
X115928Y9165D01*
X116086Y9145D01*
X112449D01*
X112608Y9165D01*
X112749Y9224D01*
X112875Y9323D01*
X112983Y9460D01*
X113075Y9638D01*
X113150Y9854D01*
X113208Y10110D01*
X113250Y10405D01*
X113275Y10740D01*
X113275Y10742D01*
X113275Y10744D01*
X113250Y11079D01*
X113208Y11374D01*
X113150Y11630D01*
X113075Y11847D01*
X112983Y12024D01*
X112875Y12162D01*
X112749Y12260D01*
X112608Y12319D01*
X112449Y12339D01*
X116086D01*
X115928Y12319D01*
D02*
G37*
G36*
X116095Y8482D02*
X116155Y8315D01*
X116254Y8167D01*
X116393Y8039D01*
X116571Y7931D01*
X116789Y7842D01*
X117046Y7774D01*
X117343Y7724D01*
X117429Y7717D01*
X117882Y7746D01*
X118099Y7780D01*
X118276Y7823D01*
X118414Y7872D01*
X118512Y7929D01*
X118571Y7994D01*
X118591Y8067D01*
Y5335D01*
X118571Y5407D01*
X118512Y5472D01*
X118414Y5530D01*
X118276Y5579D01*
X118099Y5621D01*
X117882Y5655D01*
X117626Y5682D01*
X117400Y5693D01*
X116795Y5652D01*
X116579Y5615D01*
X116401Y5571D01*
X116264Y5518D01*
X116165Y5457D01*
X116106Y5388D01*
X116086Y5311D01*
X116074Y8669D01*
X116095Y8482D01*
D02*
G37*
%LPC*%
G36*
X156644Y36495D02*
X150970D01*
Y28637D01*
X150966Y28620D01*
X150970Y28602D01*
Y28552D01*
X150969Y28549D01*
X150970Y28548D01*
Y27820D01*
X151148D01*
X151152Y27768D01*
Y25474D01*
X151259Y24937D01*
X151564Y24481D01*
X157840Y18205D01*
X158296Y17900D01*
X158833Y17793D01*
X164141D01*
X164559Y17375D01*
X164368Y16913D01*
X161759D01*
Y7858D01*
X172783D01*
Y16913D01*
X168215D01*
Y17111D01*
X168108Y17649D01*
X167803Y18105D01*
X165762Y20146D01*
X165718Y20249D01*
X165731Y20783D01*
X167954Y23006D01*
X168258Y23462D01*
X168365Y24000D01*
Y24000D01*
X172783D01*
Y33055D01*
X161759D01*
Y24000D01*
X164321D01*
X164512Y23538D01*
X163986Y23013D01*
X160620D01*
X156462Y27171D01*
Y27820D01*
X156644D01*
Y28548D01*
X156645Y28549D01*
X156644Y28552D01*
Y28602D01*
X156648Y28620D01*
X156644Y28637D01*
Y36495D01*
D02*
G37*
%LPD*%
G36*
X155808Y28608D02*
X155774Y28572D01*
X155744Y28513D01*
X155719Y28431D01*
X155697Y28324D01*
X155679Y28194D01*
X155656Y27864D01*
X155648Y27438D01*
X154466D01*
X154465Y27663D01*
X154417Y28324D01*
X154395Y28431D01*
X154370Y28513D01*
X154340Y28572D01*
X154307Y28608D01*
X154269Y28620D01*
X155845D01*
X155808Y28608D01*
D02*
G37*
G36*
X153308D02*
X153274Y28572D01*
X153244Y28513D01*
X153219Y28431D01*
X153197Y28324D01*
X153179Y28194D01*
X153156Y27864D01*
X153148Y27438D01*
X151967D01*
X151965Y27663D01*
X151917Y28324D01*
X151895Y28431D01*
X151870Y28513D01*
X151840Y28572D01*
X151807Y28608D01*
X151769Y28620D01*
X153345D01*
X153308Y28608D01*
D02*
G37*
G36*
X167720Y24803D02*
X167685Y24779D01*
X167653Y24738D01*
X167626Y24682D01*
X167603Y24609D01*
X167584Y24519D01*
X167570Y24414D01*
X167553Y24154D01*
X167551Y24000D01*
X166370D01*
X166368Y24154D01*
X166336Y24519D01*
X166317Y24609D01*
X166294Y24682D01*
X166267Y24738D01*
X166236Y24779D01*
X166200Y24803D01*
X166160Y24812D01*
X167760D01*
X167720Y24803D01*
D02*
G37*
G36*
X167404Y16920D02*
X167437Y16597D01*
X167465Y16465D01*
X167502Y16354D01*
X167547Y16263D01*
X167600Y16193D01*
X167661Y16142D01*
X167730Y16112D01*
X167807Y16102D01*
X165812D01*
X165890Y16112D01*
X165959Y16142D01*
X166020Y16193D01*
X166073Y16263D01*
X166118Y16354D01*
X166154Y16465D01*
X166183Y16597D01*
X166203Y16748D01*
X166215Y16920D01*
X166219Y17111D01*
X167400D01*
X167404Y16920D01*
D02*
G37*
D10*
X84732Y36058D02*
Y37614D01*
X81328Y32653D02*
X84732Y36058D01*
X81328Y29301D02*
Y32653D01*
X87195Y8378D02*
X88480Y7093D01*
X77353Y35321D02*
X79646Y37614D01*
X73488Y40961D02*
Y44219D01*
X121816Y36409D02*
X121895D01*
X112132Y46094D02*
X121816Y36409D01*
X120582Y33866D02*
X133457D01*
X110323Y44125D02*
X120582Y33866D01*
X100089Y44125D02*
X110323D01*
X100089Y46094D02*
X112132D01*
X122748Y58898D02*
X124911D01*
X114181Y50331D02*
X122748Y58898D01*
X108961Y50331D02*
X114181D01*
X114598Y105035D02*
X123180D01*
X107097Y97534D02*
X114598Y105035D01*
X88432Y97534D02*
X107097D01*
X111344Y70410D02*
X129164D01*
X100089Y59155D02*
X111344Y70410D01*
X100089Y55936D02*
Y59155D01*
X125811Y30386D02*
X139594Y16603D01*
X117661Y30386D02*
X125811D01*
X139594Y12153D02*
Y16603D01*
X71613Y46094D02*
X73488Y44219D01*
X64553Y52037D02*
X68359D01*
X58898Y57693D02*
X64553Y52037D01*
X57425Y57693D02*
X58898D01*
X68359Y52037D02*
X68396Y51999D01*
X59031Y67732D02*
X61886Y70587D01*
X59031Y60236D02*
Y67732D01*
Y60236D02*
X65300Y53968D01*
X61886Y70587D02*
X64315D01*
X65300Y53968D02*
X68396D01*
X66159Y56027D02*
Y64677D01*
X65249Y65587D02*
X66159Y64677D01*
X64315Y65587D02*
X65249D01*
X66159Y56027D02*
X66250Y55936D01*
X68396D01*
X105614Y55685D02*
Y58362D01*
X103897Y53968D02*
X105614Y55685D01*
X100089Y53968D02*
X103897D01*
X106819Y59567D02*
X108827D01*
X105614Y58362D02*
X106819Y59567D01*
X115882Y60866D02*
X124911D01*
X105047Y50031D02*
X115882Y60866D01*
X100089Y50031D02*
X105047D01*
X104544Y51999D02*
X116019Y63474D01*
X100089Y51999D02*
X104544D01*
X90589Y45244D02*
X91684Y44149D01*
X100065D01*
X93032Y47386D02*
X94323Y46094D01*
X100089D01*
X82189Y36677D02*
Y39890D01*
X79321Y33810D02*
X82189Y36677D01*
X79321Y29263D02*
Y33810D01*
X77353Y29263D02*
Y35321D01*
Y29263D02*
X77370Y29280D01*
X91142Y33176D02*
X92573Y34607D01*
X91142Y29272D02*
Y33176D01*
X92573Y34607D02*
X94638D01*
X91132Y29263D02*
X91142Y29272D01*
X138019Y12153D02*
Y15926D01*
X129974Y23970D02*
X138019Y15926D01*
X127252Y21248D02*
X129974Y23970D01*
X125134Y28811D02*
X129974Y23970D01*
X117009Y28811D02*
X125134D01*
X78976Y7228D02*
Y13146D01*
X58318D02*
X78976D01*
Y16063D02*
X80850D01*
X57535D02*
X78976D01*
Y21063D01*
X79063Y21150D01*
X78976Y13146D02*
X81949D01*
X167583Y28528D02*
X168342D01*
X130748Y10307D02*
X130882Y10441D01*
X131535Y40480D02*
X135417D01*
X145236Y15394D02*
X147557Y13073D01*
X143630Y20707D02*
Y20882D01*
Y20707D02*
X145062Y19276D01*
X147557Y8535D02*
Y13073D01*
X150057Y8535D02*
Y14280D01*
X145062Y19276D02*
X150057Y14280D01*
X137557Y32157D02*
Y38341D01*
X135417Y40480D02*
X137557Y38341D01*
X167583Y28528D02*
X168528Y27583D01*
X91492Y14256D02*
X108205D01*
X89164Y16584D02*
X91492Y14256D01*
X127252Y21150D02*
Y21248D01*
X89164Y16584D02*
Y29263D01*
X87195Y8378D02*
Y29263D01*
X146606Y46763D02*
Y58686D01*
X149473Y61553D01*
X160839D01*
X161022Y61735D01*
X164214D01*
X164844Y62365D01*
X148181Y58034D02*
X150125Y59978D01*
X160839D01*
X161022Y59795D01*
X164214D01*
X164844Y59165D01*
X148181Y46110D02*
Y58034D01*
X142094Y40024D02*
X148181Y46110D01*
X140519Y35775D02*
Y40676D01*
X146606Y46763D01*
X142094Y35775D02*
Y40024D01*
X140057Y32157D02*
X140463Y32564D01*
Y35719D01*
X140519Y35775D01*
X142150Y32564D02*
X142557Y32157D01*
X142150Y32564D02*
Y35719D01*
X142094Y35775D02*
X142150Y35719D01*
X102578Y41940D02*
X106107D01*
X117661Y30386D01*
X102578Y40365D02*
X105455D01*
X117009Y28811D01*
X139594Y12153D02*
X139650Y12097D01*
Y8942D02*
Y12097D01*
Y8942D02*
X140057Y8535D01*
X137963Y12097D02*
X138019Y12153D01*
X137963Y8942D02*
Y12097D01*
X137557Y8535D02*
X137963Y8942D01*
X95039Y38252D02*
X100057D01*
X89164Y56799D02*
Y60956D01*
X82160Y49795D02*
X89164Y56799D01*
X75722Y49795D02*
X82160D01*
X68396Y46094D02*
X71613D01*
X55759Y14288D02*
X57535Y16063D01*
X55759Y13146D02*
Y14288D01*
X79321Y88424D02*
X88432Y97534D01*
X53020Y8665D02*
Y12697D01*
X51583Y7228D02*
X53020Y8665D01*
Y12697D02*
X53200Y12878D01*
X153937Y53898D02*
X154035D01*
X156103Y55965D01*
X164844D01*
X145290Y98738D02*
X149354Y102803D01*
X139164Y98738D02*
X145290D01*
X124221Y83795D02*
X139164Y98738D01*
X82589Y53943D02*
X85227Y56581D01*
X75764Y53943D02*
X82589D01*
X56842Y86740D02*
X57110Y86472D01*
X131457Y63474D02*
Y68116D01*
X129164Y70410D02*
X131457Y68116D01*
X132097Y56929D02*
Y58898D01*
X16551Y44125D02*
X21559Y49134D01*
X5637Y44125D02*
X16551D01*
X21559Y49134D02*
X26236D01*
X5622Y44111D02*
X5637Y44125D01*
X87721Y100035D02*
X95288Y100035D01*
X77353Y89668D02*
X87721Y100035D01*
X77353Y60956D02*
Y89668D01*
X79321Y60956D02*
Y88424D01*
X123323Y56929D02*
X124911D01*
X114456Y48062D02*
X123323Y56929D01*
X100089Y48062D02*
X114456D01*
X116019Y63474D02*
X125551D01*
X138591Y47921D02*
X138677Y47835D01*
X130654Y48000D02*
X130732Y47921D01*
X138591Y60866D02*
X138677Y60953D01*
X88614Y83795D02*
X124221D01*
X85227Y56581D02*
Y60956D01*
X91132Y55077D02*
Y60956D01*
X80764Y44709D02*
X91132Y55077D01*
X75764Y44709D02*
X80764D01*
X95054Y22503D02*
Y29248D01*
X95039Y22488D02*
X95054Y22503D01*
X81290Y29263D02*
X81328Y29301D01*
X100065Y44149D02*
X100089Y44125D01*
X79244Y29341D02*
X79321Y29263D01*
X100057Y38252D02*
X100089Y38220D01*
X95054Y29248D02*
X95069Y29263D01*
X64315Y80586D02*
X70406D01*
X73416Y77576D01*
X113866Y96465D02*
X117437Y100035D01*
X113866Y87811D02*
Y96465D01*
X117437Y100035D02*
X123180D01*
X89146Y95035D02*
X95288D01*
X81290Y87180D02*
X89146Y95035D01*
X81290Y60956D02*
Y87180D01*
X81949Y13146D02*
X85227Y16424D01*
X80850Y16063D02*
X83258Y18471D01*
X87195Y60956D02*
Y68717D01*
X83258Y78439D02*
X88614Y83795D01*
X83258Y60956D02*
Y78439D01*
X43843Y107894D02*
Y110772D01*
X47118Y114047D01*
X51047D01*
X54347Y107894D02*
X64315D01*
X58366Y92894D02*
X64315D01*
X54347Y96913D02*
X58366Y92894D01*
X52425Y33378D02*
X54079Y35032D01*
X43638Y33378D02*
X52425D01*
X54614Y46850D02*
Y52472D01*
X52961Y52559D02*
X54347Y51173D01*
X43638Y52559D02*
X52693D01*
X54347Y96913D02*
Y102343D01*
X83258Y18471D02*
Y29263D01*
X57223Y42157D02*
X69199D01*
X54614Y39548D02*
X57223Y42157D01*
X54614Y36331D02*
Y39548D01*
X57339Y44125D02*
X69199D01*
X54614Y46850D02*
X57339Y44125D01*
X73416Y60956D02*
Y77576D01*
X85227Y16424D02*
Y29263D01*
X57378Y24094D02*
X58318Y23154D01*
Y18854D02*
Y23154D01*
D11*
X68396Y36251D02*
X68404Y36259D01*
X71514D01*
X73488Y38234D01*
X76835Y37882D02*
Y40291D01*
X75377Y36424D02*
X76835Y37882D01*
X75377Y29271D02*
Y36424D01*
Y29271D02*
X75384Y29263D01*
X35517Y57026D02*
X39087D01*
X35339Y57205D02*
X35517Y57026D01*
X39087Y57024D02*
Y57026D01*
X114984Y110035D02*
X133983D01*
X110972Y114047D02*
X114984Y110035D01*
X80315Y114047D02*
X110972D01*
X94772Y68000D02*
X95039Y67732D01*
X94772D02*
X95039D01*
X94772Y67462D02*
Y67732D01*
Y67462D02*
X95069Y67164D01*
Y60956D02*
Y67164D01*
X93109Y56545D02*
X94772Y54882D01*
X72992Y7237D02*
X73000Y7228D01*
X63047Y7237D02*
X72992D01*
X62646Y47252D02*
Y48189D01*
X29484Y75586D02*
X43843D01*
X24496Y74425D02*
X26594Y76523D01*
X21953Y74425D02*
X24496D01*
X11528Y53560D02*
X13386Y55417D01*
X5622Y53560D02*
X11528D01*
X51040Y15621D02*
X54113D01*
X49795Y16866D02*
X51040Y15621D01*
X49795Y16866D02*
Y17741D01*
X107444Y88170D02*
X107803Y87811D01*
X103740Y88170D02*
X107444D01*
X13291Y31418D02*
X13386Y31323D01*
X5717Y31418D02*
X13291D01*
X12582Y40961D02*
X13386Y40157D01*
X5622Y40961D02*
X12582D01*
X54113Y15621D02*
X55374Y16882D01*
Y18201D01*
X55759Y18587D01*
X57646Y7228D02*
X57654Y7237D01*
X63047D01*
X83528Y104142D02*
X84421Y105035D01*
X95288D01*
X162342Y111240D02*
X163307Y112205D01*
X147512Y110299D02*
X148452Y111240D01*
X5622Y31512D02*
X5717Y31418D01*
X13370Y66142D02*
X13386Y66126D01*
X5638Y66142D02*
X13370D01*
X5622Y66158D02*
X5638Y66142D01*
X13652Y94502D02*
X13654Y94504D01*
X5624Y94502D02*
X13652D01*
X5622Y94500D02*
X5624Y94502D01*
X73416Y21148D02*
Y29263D01*
X127520Y63474D02*
Y65802D01*
X125342Y67979D02*
X127520Y65802D01*
X136000Y60866D02*
X138591D01*
X132097D02*
X136000D01*
Y50816D02*
Y60866D01*
X27831Y70587D02*
X43843D01*
X23559Y69606D02*
X25165D01*
X17495Y75671D02*
X23559Y69606D01*
X17495Y75671D02*
Y85308D01*
X15910Y91349D02*
X19811Y87448D01*
Y76567D02*
Y87448D01*
Y76567D02*
X21953Y74425D01*
X35339Y63268D02*
Y70055D01*
X26236Y68992D02*
X27831Y70587D01*
X35339Y76118D02*
Y82906D01*
X26236Y78835D02*
X29484Y75586D01*
X5622Y91349D02*
X15910D01*
X14605Y88198D02*
X17495Y85308D01*
X5622Y88198D02*
X14605D01*
X25433Y95839D02*
Y97716D01*
X23563Y93968D02*
X25433Y95839D01*
X20882Y93968D02*
X23563D01*
X25433Y97716D02*
X26236Y98520D01*
X17199Y97651D02*
X20882Y93968D01*
X5622Y97651D02*
X17199D01*
X25055Y108362D02*
X26236D01*
X17495Y100802D02*
X25055Y108362D01*
X5622Y100802D02*
X17495D01*
X131293Y60866D02*
X132097D01*
X129488Y60081D02*
Y63474D01*
Y60081D02*
X130672Y58898D01*
X132097D01*
X127520Y63474D02*
X129488D01*
X131457Y48000D02*
Y54321D01*
X133983Y110035D02*
X134065Y110118D01*
X91827Y23446D02*
X93093Y24712D01*
X91827Y21148D02*
Y23446D01*
Y21148D02*
X94905Y18070D01*
X93093Y24712D02*
Y29255D01*
X93101Y29263D01*
X62646Y48189D02*
X64488Y50031D01*
X68396D01*
X93109Y56545D02*
Y60948D01*
X93101Y60956D02*
X93109Y60948D01*
X35339Y103693D02*
X36138Y102894D01*
X34622Y104142D02*
X35339Y103425D01*
X31638Y104142D02*
X34622D01*
X27417Y108362D02*
X31638Y104142D01*
X34622Y96646D02*
X35339Y97362D01*
X28110Y96646D02*
X34622D01*
X26236Y98520D02*
X28110Y96646D01*
X26236Y108362D02*
X27417D01*
X35602Y97894D02*
X43843D01*
X35339Y97630D02*
X35602Y97894D01*
X36138Y102894D02*
X43843D01*
X75384Y109117D02*
X80315Y114047D01*
X75384Y60956D02*
Y109117D01*
D17*
X153937Y53898D02*
D03*
Y47835D02*
D03*
X140284Y47835D02*
D03*
Y53898D02*
D03*
X35339Y82906D02*
D03*
Y88968D02*
D03*
Y76118D02*
D03*
Y70055D02*
D03*
Y103425D02*
D03*
Y97362D02*
D03*
X140284Y60953D02*
D03*
Y67016D02*
D03*
X43638Y39441D02*
D03*
Y33378D02*
D03*
X87275Y68717D02*
D03*
Y74779D02*
D03*
X100126Y21150D02*
D03*
Y27213D02*
D03*
Y68803D02*
D03*
Y74866D02*
D03*
X65323Y27213D02*
D03*
Y21150D02*
D03*
X43638Y52559D02*
D03*
Y46496D02*
D03*
X35339Y63268D02*
D03*
Y57205D02*
D03*
X83528Y110205D02*
D03*
Y104142D02*
D03*
X134065Y110386D02*
D03*
Y104323D02*
D03*
D19*
X79063Y21150D02*
D03*
X73000D02*
D03*
X73000Y7228D02*
D03*
X79063D02*
D03*
X150906Y40291D02*
D03*
X156968D02*
D03*
X114268Y21283D02*
D03*
X108205D02*
D03*
X121189Y21150D02*
D03*
X127252D02*
D03*
X108205Y7228D02*
D03*
X114268D02*
D03*
X114268Y14256D02*
D03*
X108205D02*
D03*
X131535Y40480D02*
D03*
X125472D02*
D03*
X131535Y47921D02*
D03*
X125472D02*
D03*
X51047Y114047D02*
D03*
X57110D02*
D03*
X51047Y86740D02*
D03*
X57110D02*
D03*
X57646Y24094D02*
D03*
X51583D02*
D03*
X43724D02*
D03*
X37661D02*
D03*
X43724Y7496D02*
D03*
X37661D02*
D03*
X57646Y7228D02*
D03*
X51583D02*
D03*
X147512Y89850D02*
D03*
X141449D02*
D03*
X147512Y110299D02*
D03*
X141449D02*
D03*
X114134Y87811D02*
D03*
X108071D02*
D03*
D24*
X5622Y81897D02*
D03*
Y103953D02*
D03*
Y100802D02*
D03*
Y97651D02*
D03*
Y94500D02*
D03*
Y91349D02*
D03*
Y88198D02*
D03*
Y85047D02*
D03*
Y66158D02*
D03*
Y12614D02*
D03*
Y44111D02*
D03*
Y47260D02*
D03*
Y50410D02*
D03*
Y53560D02*
D03*
Y56709D02*
D03*
Y59859D02*
D03*
Y63009D02*
D03*
Y40961D02*
D03*
Y18914D02*
D03*
Y22063D02*
D03*
Y25213D02*
D03*
Y28363D02*
D03*
Y31512D02*
D03*
Y34662D02*
D03*
Y37811D02*
D03*
Y15764D02*
D03*
D39*
X147512Y107756D02*
Y110299D01*
X144079Y104323D02*
X147512Y107756D01*
X134065Y104323D02*
X144079D01*
X166810Y12847D02*
Y17111D01*
X164723Y19198D02*
X166810Y17111D01*
X158833Y19198D02*
X164723D01*
X166960Y24000D02*
Y26102D01*
X164568Y21608D02*
X166960Y24000D01*
X160038Y21608D02*
X164568D01*
X152557Y25474D02*
X158833Y19198D01*
X155057Y26589D02*
X160038Y21608D01*
X166810Y12847D02*
X167271Y12386D01*
X152557Y25474D02*
Y32157D01*
X155057Y26589D02*
Y32157D01*
D40*
X154252Y87803D02*
Y88866D01*
X153268Y89850D02*
X154252Y88866D01*
X94772Y68000D02*
X95575Y68803D01*
X25374Y9764D02*
X32996Y2142D01*
X83615Y110117D02*
X95206D01*
X95575Y68803D02*
X100126D01*
X44435Y27836D02*
X44441Y27843D01*
X44435Y24805D02*
Y27836D01*
X66370Y31299D02*
Y33758D01*
Y31299D02*
X66394Y31323D01*
X72955D01*
X177764Y8634D02*
Y24362D01*
X171271Y2142D02*
X177764Y8634D01*
X108205Y2142D02*
X171271Y2142D01*
X32996Y2142D02*
X108205D01*
Y7228D01*
X148004Y40291D02*
X150906D01*
X145059Y37347D02*
X148004Y40291D01*
X126362Y10307D02*
X130748D01*
X181512Y39890D02*
Y56221D01*
Y28110D02*
Y39890D01*
X178768D02*
X181512D01*
X114268Y7228D02*
Y21283D01*
X114795Y6701D02*
X121039D01*
X114268Y7228D02*
X114795Y6701D01*
X114268Y21283D02*
X114268Y21283D01*
X5622Y18914D02*
X13024D01*
X13921Y12614D02*
X22524D01*
X5622D02*
X13921D01*
Y24898D01*
X13380Y50337D02*
X13386Y50331D01*
X5695Y50337D02*
X13380D01*
X44280Y18587D02*
X50373D01*
X100108Y27231D02*
Y33791D01*
X57110Y86472D02*
X60504D01*
X136000Y47921D02*
X138591D01*
X131535D02*
X136000D01*
Y50816D01*
X5622Y103953D02*
X13653D01*
X5622Y50410D02*
X5695Y50337D01*
X22524Y12614D02*
X25374Y9764D01*
X26236D01*
X172142Y65591D02*
X181512Y56221D01*
X165717Y65591D02*
X172142D01*
X177764Y24362D02*
X181512Y28110D01*
X100108Y27231D02*
X100126Y27213D01*
X65323Y30252D02*
X66236Y31165D01*
X130732Y47921D02*
X131535D01*
X65323Y27213D02*
Y30252D01*
Y27126D02*
Y27213D01*
X43724Y24094D02*
X44435Y24805D01*
X43724Y7496D02*
Y24094D01*
X72284Y86472D02*
X72551D01*
X66394D02*
X72284D01*
X60504D02*
X66394D01*
X72284D02*
Y95039D01*
X69429Y97894D02*
X72284Y95039D01*
X56685Y83457D02*
Y86583D01*
X53815Y80586D02*
X56685Y83457D01*
X43843Y80586D02*
X53815D01*
X56685Y86583D02*
X56842Y86740D01*
X83528Y110205D02*
X83615Y110117D01*
X95206D02*
X95288Y110035D01*
X64315Y70587D02*
Y75586D01*
Y97894D02*
X69429D01*
D41*
X121039Y14181D02*
X121189Y14331D01*
Y21150D01*
X178768Y39890D02*
X178768Y39890D01*
X145059Y32160D02*
Y37347D01*
D42*
X26236Y49134D02*
D03*
Y108362D02*
D03*
D43*
Y39291D02*
D03*
Y29449D02*
D03*
Y19606D02*
D03*
Y9764D02*
D03*
Y98520D02*
D03*
Y88677D02*
D03*
Y78835D02*
D03*
Y68992D02*
D03*
D44*
X176803Y50504D02*
D03*
Y67827D02*
D03*
D45*
X189163Y106650D02*
D03*
X189124Y11372D02*
D03*
D46*
X122614Y65992D02*
D03*
X95842Y90354D02*
D03*
X111236Y27662D02*
D03*
X36945Y50197D02*
D03*
X33598Y46899D02*
D03*
X121677Y51479D02*
D03*
X89892Y11646D02*
D03*
X88480Y7093D02*
D03*
X104276Y27662D02*
D03*
X121008Y10256D02*
D03*
X142693Y17535D02*
D03*
X175488Y31858D02*
D03*
X159559Y35896D02*
D03*
X153803Y64520D02*
D03*
X40341Y85308D02*
D03*
Y88882D02*
D03*
X51583Y105079D02*
D03*
X108827Y63474D02*
D03*
X32126Y13146D02*
D03*
X36588D02*
D03*
X87340Y44441D02*
D03*
X104945Y74374D02*
D03*
X112747Y99189D02*
D03*
X109802Y95441D02*
D03*
X115826Y102559D02*
D03*
X95842Y77346D02*
D03*
X104945Y68717D02*
D03*
X113378Y74374D02*
D03*
X113866Y37393D02*
D03*
X109496Y41777D02*
D03*
X121895Y36409D02*
D03*
X111236Y107780D02*
D03*
X42968Y58284D02*
D03*
X46449D02*
D03*
Y61083D02*
D03*
X42968D02*
D03*
X50072Y70410D02*
D03*
X78843Y95425D02*
D03*
X88079Y41094D02*
D03*
X70276Y67827D02*
D03*
Y63142D02*
D03*
X126362Y36409D02*
D03*
X131047D02*
D03*
Y31150D02*
D03*
X133457Y33866D02*
D03*
X76835Y39890D02*
D03*
X57425Y57693D02*
D03*
X39087Y57024D02*
D03*
X114984Y110035D02*
D03*
X86339Y87410D02*
D03*
X108827Y59567D02*
D03*
Y50331D02*
D03*
X41630Y27843D02*
D03*
X90589Y45244D02*
D03*
X93032Y47386D02*
D03*
X84732Y37614D02*
D03*
X79512D02*
D03*
X94772Y51669D02*
D03*
Y70945D02*
D03*
X197173Y95909D02*
D03*
Y86116D02*
D03*
Y91069D02*
D03*
X47386Y27843D02*
D03*
X67331Y10307D02*
D03*
X159961Y15316D02*
D03*
X126362Y6827D02*
D03*
X196906Y3347D02*
D03*
X179466D02*
D03*
Y114315D02*
D03*
X196906D02*
D03*
X186598Y69071D02*
D03*
X191685D02*
D03*
X196772D02*
D03*
X186732Y49394D02*
D03*
X191819D02*
D03*
X196906D02*
D03*
X152964Y15394D02*
D03*
X120874Y74374D02*
D03*
X172409Y57961D02*
D03*
X134929Y69205D02*
D03*
X104276Y21067D02*
D03*
X136000Y44173D02*
D03*
X119492Y26236D02*
D03*
X133882Y15528D02*
D03*
X127688D02*
D03*
X126362Y10307D02*
D03*
X145059Y37347D02*
D03*
X178768Y39890D02*
D03*
X143630Y20882D02*
D03*
X145236Y15394D02*
D03*
X78173Y107277D02*
D03*
X47653Y24094D02*
D03*
X124496Y92042D02*
D03*
X104945Y36945D02*
D03*
X94638Y34607D02*
D03*
X139748Y101555D02*
D03*
X123150Y114583D02*
D03*
X51583Y93835D02*
D03*
X17402Y114583D02*
D03*
Y110924D02*
D03*
Y107265D02*
D03*
X26282Y103425D02*
D03*
X19276Y7362D02*
D03*
X15738Y7228D02*
D03*
X26504Y34782D02*
D03*
Y43857D02*
D03*
X29717Y84197D02*
D03*
Y93433D02*
D03*
X47128Y15260D02*
D03*
X75722Y49795D02*
D03*
X74158Y47252D02*
D03*
X119803Y91069D02*
D03*
X192087D02*
D03*
Y86116D02*
D03*
Y95909D02*
D03*
X186732Y28110D02*
D03*
X191819D02*
D03*
X196906D02*
D03*
Y23157D02*
D03*
X191819D02*
D03*
X186732D02*
D03*
X196906Y32951D02*
D03*
X191819D02*
D03*
X186732D02*
D03*
X186598Y59299D02*
D03*
X191685D02*
D03*
X196772D02*
D03*
Y54347D02*
D03*
X191685D02*
D03*
X186598D02*
D03*
X196772Y64140D02*
D03*
X191685D02*
D03*
X186598D02*
D03*
X127835Y114583D02*
D03*
X118465D02*
D03*
X13787Y61433D02*
D03*
X95842Y87085D02*
D03*
X144032Y101646D02*
D03*
X146709Y63315D02*
D03*
X88882Y37564D02*
D03*
X175488Y35896D02*
D03*
X175354Y44059D02*
D03*
X169732Y47819D02*
D03*
X164445D02*
D03*
X159158D02*
D03*
X36588Y15929D02*
D03*
X32126D02*
D03*
X13921Y31323D02*
D03*
X172543Y78620D02*
D03*
X177630D02*
D03*
X182717D02*
D03*
X176827Y95909D02*
D03*
X181913D02*
D03*
X187000D02*
D03*
X176827Y86116D02*
D03*
X181913D02*
D03*
X187000D02*
D03*
Y91069D02*
D03*
X181913D02*
D03*
X176827D02*
D03*
X152598Y111236D02*
D03*
X47653Y42200D02*
D03*
X75764Y53943D02*
D03*
X82189Y39890D02*
D03*
X169197Y4953D02*
D03*
X136000Y50816D02*
D03*
X26504Y24630D02*
D03*
X33866Y31236D02*
D03*
X39890Y44060D02*
D03*
X70677Y108158D02*
D03*
X56756Y76835D02*
D03*
X70410D02*
D03*
X26504Y55417D02*
D03*
Y59076D02*
D03*
X14188Y103953D02*
D03*
X13921Y50331D02*
D03*
Y24898D02*
D03*
Y40157D02*
D03*
Y55417D02*
D03*
Y66126D02*
D03*
X14189Y83528D02*
D03*
Y94504D02*
D03*
X172945Y18205D02*
D03*
X95842Y80583D02*
D03*
X103740Y88170D02*
D03*
X105213Y100661D02*
D03*
X108158Y104409D02*
D03*
X102402Y104425D02*
D03*
X84598Y85268D02*
D03*
X130512Y84465D02*
D03*
X145638Y71480D02*
D03*
X125157Y67795D02*
D03*
X141622Y75898D02*
D03*
X148449Y82858D02*
D03*
X130780Y73756D02*
D03*
X137472Y80315D02*
D03*
X74425Y113779D02*
D03*
X70766D02*
D03*
X67108D02*
D03*
X63449D02*
D03*
X15795Y3213D02*
D03*
X19454D02*
D03*
X23113D02*
D03*
X26772D02*
D03*
X21953Y114583D02*
D03*
X25611D02*
D03*
X29270D02*
D03*
X32929D02*
D03*
X63047Y7237D02*
D03*
X77370Y42165D02*
D03*
X91559Y41094D02*
D03*
X126362Y44173D02*
D03*
X125761Y79512D02*
D03*
X167055Y100126D02*
D03*
X172142Y102268D02*
D03*
X170535Y100126D02*
D03*
X168661Y102268D02*
D03*
X165181D02*
D03*
X161701D02*
D03*
X158221D02*
D03*
X154740D02*
D03*
X149354Y102803D02*
D03*
X94905Y18070D02*
D03*
X101732Y31323D02*
D03*
X98520D02*
D03*
X66394D02*
D03*
X62646Y47252D02*
D03*
X95039Y38284D02*
D03*
X75764Y44709D02*
D03*
X94772Y54346D02*
D03*
X95039Y22488D02*
D03*
X60504Y86472D02*
D03*
X72284D02*
D03*
X44441Y27843D02*
D03*
X94772Y68000D02*
D03*
X88882Y110118D02*
D03*
X66394Y86472D02*
D03*
X54347Y107894D02*
D03*
Y102343D02*
D03*
D47*
X73488Y38234D02*
D03*
Y40961D02*
D03*
D54*
X155057Y32157D02*
D03*
X152557D02*
D03*
X150057D02*
D03*
X147557D02*
D03*
X145057D02*
D03*
X142557D02*
D03*
X140057D02*
D03*
X137557D02*
D03*
Y8535D02*
D03*
X140057D02*
D03*
X142557D02*
D03*
X145057D02*
D03*
X147557D02*
D03*
X150057D02*
D03*
X152557D02*
D03*
X155057D02*
D03*
D55*
X121039Y6701D02*
D03*
Y14181D02*
D03*
X130882Y10441D02*
D03*
D56*
X167271Y28528D02*
D03*
Y12386D02*
D03*
D57*
X95063Y109996D02*
D03*
Y104996D02*
D03*
Y99996D02*
D03*
Y94996D02*
D03*
X123409D02*
D03*
Y99996D02*
D03*
Y104996D02*
D03*
Y109996D02*
D03*
D58*
X154205Y76308D02*
D03*
Y69300D02*
D03*
D59*
X43843Y92894D02*
D03*
Y97894D02*
D03*
Y102894D02*
D03*
Y107894D02*
D03*
X64315Y92894D02*
D03*
Y97894D02*
D03*
Y102894D02*
D03*
Y107894D02*
D03*
X43843Y65587D02*
D03*
Y70587D02*
D03*
Y75586D02*
D03*
Y80586D02*
D03*
X64315Y65587D02*
D03*
Y70587D02*
D03*
Y75586D02*
D03*
Y80586D02*
D03*
D60*
X125551Y63474D02*
D03*
X127520D02*
D03*
X129488D02*
D03*
X131457D02*
D03*
Y54321D02*
D03*
X129488D02*
D03*
X127520D02*
D03*
X125551D02*
D03*
D61*
X132097Y60866D02*
D03*
Y58898D02*
D03*
Y56929D02*
D03*
X124911D02*
D03*
Y58898D02*
D03*
Y60866D02*
D03*
D62*
X50641Y18587D02*
D03*
X53200D02*
D03*
X55759D02*
D03*
X58318D02*
D03*
Y12878D02*
D03*
X55759D02*
D03*
X53200D02*
D03*
X50641D02*
D03*
D63*
X167023Y77850D02*
D03*
X188614D02*
D03*
D64*
X166960Y40480D02*
D03*
X188614D02*
D03*
D65*
X164844Y55965D02*
D03*
Y59165D02*
D03*
Y62365D02*
D03*
Y65565D02*
D03*
Y52765D02*
D03*
D66*
X172362Y88583D02*
D03*
X163307D02*
D03*
X154252D02*
D03*
D67*
X163307Y112205D02*
D03*
D68*
X73416Y29263D02*
D03*
X75384D02*
D03*
X77353D02*
D03*
X79321D02*
D03*
X81290D02*
D03*
X83258D02*
D03*
X85227D02*
D03*
X87195D02*
D03*
X89164D02*
D03*
X91132D02*
D03*
X93101D02*
D03*
X95069D02*
D03*
Y60956D02*
D03*
X93101D02*
D03*
X91132D02*
D03*
X89164D02*
D03*
X87195D02*
D03*
X85227D02*
D03*
X83258D02*
D03*
X81290D02*
D03*
X79321D02*
D03*
X77353D02*
D03*
X75384D02*
D03*
X73416D02*
D03*
D69*
X100089Y34283D02*
D03*
Y36251D02*
D03*
Y38220D02*
D03*
Y40188D02*
D03*
Y42157D02*
D03*
Y44125D02*
D03*
Y46094D02*
D03*
Y48062D02*
D03*
Y50031D02*
D03*
Y51999D02*
D03*
Y53968D02*
D03*
Y55936D02*
D03*
X68396D02*
D03*
Y53968D02*
D03*
Y51999D02*
D03*
Y50031D02*
D03*
Y48062D02*
D03*
Y46094D02*
D03*
Y44125D02*
D03*
Y42157D02*
D03*
Y40188D02*
D03*
Y38220D02*
D03*
Y36251D02*
D03*
Y34283D02*
D03*
D70*
X54347Y35032D02*
D03*
Y51173D02*
D03*
D71*
X147512Y89850D02*
X153268D01*
X148452Y110570D02*
X162342D01*
D72*
X161584Y66510D02*
X167323D01*
X154252Y76355D02*
Y87803D01*
X158890Y69205D02*
X161584Y66510D01*
X155142Y69205D02*
X158890D01*
M02*
