G04*
G04 #@! TF.GenerationSoftware,Altium Limited,Altium Designer,19.0.4 (130)*
G04*
G04 Layer_Color=128*
%FSLAX25Y25*%
%MOIN*%
G70*
G01*
G75*
%ADD17R,0.03858X0.03661*%
%ADD19R,0.03661X0.03858*%
G04:AMPARAMS|DCode=24|XSize=23.62mil|YSize=100.39mil|CornerRadius=0mil|HoleSize=0mil|Usage=FLASHONLY|Rotation=270.000|XOffset=0mil|YOffset=0mil|HoleType=Round|Shape=Octagon|*
%AMOCTAGOND24*
4,1,8,0.05020,0.00591,0.05020,-0.00591,0.04429,-0.01181,-0.04429,-0.01181,-0.05020,-0.00591,-0.05020,0.00591,-0.04429,0.01181,0.04429,0.01181,0.05020,0.00591,0.0*
%
%ADD24OCTAGOND24*%

%ADD54R,0.01600X0.07100*%
%ADD55R,0.04921X0.02756*%
%ADD56R,0.09449X0.07480*%
%ADD57R,0.06496X0.02559*%
%ADD58R,0.05787X0.04567*%
%ADD59O,0.07087X0.02756*%
%ADD60R,0.00984X0.01870*%
%ADD61R,0.01870X0.00984*%
%ADD62R,0.01772X0.01772*%
%ADD63R,0.07874X0.07874*%
%ADD64R,0.08000X0.07874*%
%ADD65R,0.07874X0.02047*%
%ADD66R,0.03937X0.08661*%
%ADD67R,0.13780X0.08661*%
%ADD68O,0.00984X0.06102*%
%ADD69O,0.06102X0.00984*%
%ADD70R,0.09449X0.07480*%
D17*
X153937Y53898D02*
D03*
Y47835D02*
D03*
X140284Y47835D02*
D03*
Y53898D02*
D03*
X35339Y82906D02*
D03*
Y88968D02*
D03*
Y76118D02*
D03*
Y70055D02*
D03*
Y103425D02*
D03*
Y97362D02*
D03*
X140284Y60953D02*
D03*
Y67016D02*
D03*
X43638Y39441D02*
D03*
Y33378D02*
D03*
X87275Y68717D02*
D03*
Y74779D02*
D03*
X100126Y21150D02*
D03*
Y27213D02*
D03*
Y68803D02*
D03*
Y74866D02*
D03*
X65323Y27213D02*
D03*
Y21150D02*
D03*
X43638Y52559D02*
D03*
Y46496D02*
D03*
X35339Y63268D02*
D03*
Y57205D02*
D03*
X83528Y110205D02*
D03*
Y104142D02*
D03*
X134065Y110386D02*
D03*
Y104323D02*
D03*
D19*
X79063Y21150D02*
D03*
X73000D02*
D03*
X73000Y7228D02*
D03*
X79063D02*
D03*
X150906Y40291D02*
D03*
X156968D02*
D03*
X114268Y21283D02*
D03*
X108205D02*
D03*
X121189Y21150D02*
D03*
X127252D02*
D03*
X108205Y7228D02*
D03*
X114268D02*
D03*
X114268Y14256D02*
D03*
X108205D02*
D03*
X131535Y40480D02*
D03*
X125472D02*
D03*
X131535Y47921D02*
D03*
X125472D02*
D03*
X51047Y114047D02*
D03*
X57110D02*
D03*
X51047Y86740D02*
D03*
X57110D02*
D03*
X57646Y24094D02*
D03*
X51583D02*
D03*
X43724D02*
D03*
X37661D02*
D03*
X43724Y7496D02*
D03*
X37661D02*
D03*
X57646Y7228D02*
D03*
X51583D02*
D03*
X147512Y89850D02*
D03*
X141449D02*
D03*
X147512Y110299D02*
D03*
X141449D02*
D03*
X114134Y87811D02*
D03*
X108071D02*
D03*
D24*
X5622Y81897D02*
D03*
Y103953D02*
D03*
Y100802D02*
D03*
Y97651D02*
D03*
Y94500D02*
D03*
Y91349D02*
D03*
Y88198D02*
D03*
Y85047D02*
D03*
Y66158D02*
D03*
Y12614D02*
D03*
Y44111D02*
D03*
Y47260D02*
D03*
Y50410D02*
D03*
Y53560D02*
D03*
Y56709D02*
D03*
Y59859D02*
D03*
Y63009D02*
D03*
Y40961D02*
D03*
Y18914D02*
D03*
Y22063D02*
D03*
Y25213D02*
D03*
Y28363D02*
D03*
Y31512D02*
D03*
Y34662D02*
D03*
Y37811D02*
D03*
Y15764D02*
D03*
D54*
X155057Y32157D02*
D03*
X152557D02*
D03*
X150057D02*
D03*
X147557D02*
D03*
X145057D02*
D03*
X142557D02*
D03*
X140057D02*
D03*
X137557D02*
D03*
Y8535D02*
D03*
X140057D02*
D03*
X142557D02*
D03*
X145057D02*
D03*
X147557D02*
D03*
X150057D02*
D03*
X152557D02*
D03*
X155057D02*
D03*
D55*
X121039Y6701D02*
D03*
Y14181D02*
D03*
X130882Y10441D02*
D03*
D56*
X167271Y28528D02*
D03*
Y12386D02*
D03*
D57*
X95063Y109996D02*
D03*
Y104996D02*
D03*
Y99996D02*
D03*
Y94996D02*
D03*
X123409D02*
D03*
Y99996D02*
D03*
Y104996D02*
D03*
Y109996D02*
D03*
D58*
X154205Y76308D02*
D03*
Y69300D02*
D03*
D59*
X43843Y92894D02*
D03*
Y97894D02*
D03*
Y102894D02*
D03*
Y107894D02*
D03*
X64315Y92894D02*
D03*
Y97894D02*
D03*
Y102894D02*
D03*
Y107894D02*
D03*
X43843Y65587D02*
D03*
Y70587D02*
D03*
Y75586D02*
D03*
Y80586D02*
D03*
X64315Y65587D02*
D03*
Y70587D02*
D03*
Y75586D02*
D03*
Y80586D02*
D03*
D60*
X125551Y63474D02*
D03*
X127520D02*
D03*
X129488D02*
D03*
X131457D02*
D03*
Y54321D02*
D03*
X129488D02*
D03*
X127520D02*
D03*
X125551D02*
D03*
D61*
X132097Y60866D02*
D03*
Y58898D02*
D03*
Y56929D02*
D03*
X124911D02*
D03*
Y58898D02*
D03*
Y60866D02*
D03*
D62*
X50641Y18587D02*
D03*
X53200D02*
D03*
X55759D02*
D03*
X58318D02*
D03*
Y12878D02*
D03*
X55759D02*
D03*
X53200D02*
D03*
X50641D02*
D03*
D63*
X167023Y77850D02*
D03*
X188614D02*
D03*
D64*
X166960Y40480D02*
D03*
X188614D02*
D03*
D65*
X164844Y55965D02*
D03*
Y59165D02*
D03*
Y62365D02*
D03*
Y65565D02*
D03*
Y52765D02*
D03*
D66*
X172362Y88583D02*
D03*
X163307D02*
D03*
X154252D02*
D03*
D67*
X163307Y112205D02*
D03*
D68*
X73416Y29263D02*
D03*
X75384D02*
D03*
X77353D02*
D03*
X79321D02*
D03*
X81290D02*
D03*
X83258D02*
D03*
X85227D02*
D03*
X87195D02*
D03*
X89164D02*
D03*
X91132D02*
D03*
X93101D02*
D03*
X95069D02*
D03*
Y60956D02*
D03*
X93101D02*
D03*
X91132D02*
D03*
X89164D02*
D03*
X87195D02*
D03*
X85227D02*
D03*
X83258D02*
D03*
X81290D02*
D03*
X79321D02*
D03*
X77353D02*
D03*
X75384D02*
D03*
X73416D02*
D03*
D69*
X100089Y34283D02*
D03*
Y36251D02*
D03*
Y38220D02*
D03*
Y40188D02*
D03*
Y42157D02*
D03*
Y44125D02*
D03*
Y46094D02*
D03*
Y48062D02*
D03*
Y50031D02*
D03*
Y51999D02*
D03*
Y53968D02*
D03*
Y55936D02*
D03*
X68396D02*
D03*
Y53968D02*
D03*
Y51999D02*
D03*
Y50031D02*
D03*
Y48062D02*
D03*
Y46094D02*
D03*
Y44125D02*
D03*
Y42157D02*
D03*
Y40188D02*
D03*
Y38220D02*
D03*
Y36251D02*
D03*
Y34283D02*
D03*
D70*
X54347Y35032D02*
D03*
Y51173D02*
D03*
M02*
