G04*
G04 #@! TF.GenerationSoftware,Altium Limited,Altium Designer,19.0.4 (130)*
G04*
G04 Layer_Color=8388736*
%FSLAX25Y25*%
%MOIN*%
G70*
G01*
G75*
G04:AMPARAMS|DCode=24|XSize=23.62mil|YSize=100.39mil|CornerRadius=0mil|HoleSize=0mil|Usage=FLASHONLY|Rotation=270.000|XOffset=0mil|YOffset=0mil|HoleType=Round|Shape=Octagon|*
%AMOCTAGOND24*
4,1,8,0.05020,0.00591,0.05020,-0.00591,0.04429,-0.01181,-0.04429,-0.01181,-0.05020,-0.00591,-0.05020,0.00591,-0.04429,0.01181,0.04429,0.01181,0.05020,0.00591,0.0*
%
%ADD24OCTAGOND24*%

G04:AMPARAMS|DCode=25|XSize=23.62mil|YSize=100.39mil|CornerRadius=0mil|HoleSize=0mil|Usage=FLASHONLY|Rotation=270.000|XOffset=0mil|YOffset=0mil|HoleType=Round|Shape=Octagon|*
%AMOCTAGOND25*
4,1,8,0.05020,0.00591,0.05020,-0.00591,0.04429,-0.01181,-0.04429,-0.01181,-0.05020,-0.00591,-0.05020,0.00591,-0.04429,0.01181,0.04429,0.01181,0.05020,0.00591,0.0*
%
%ADD25OCTAGOND25*%

%ADD27R,0.04658X0.04461*%
%ADD28C,0.04737*%
%ADD29R,0.04461X0.04658*%
%ADD30R,0.07493X0.03753*%
%ADD31R,0.08674X0.06706*%
%ADD32R,0.03950X0.10642*%
%ADD33R,0.06706X0.08477*%
%ADD34R,0.04343X0.07493*%
%ADD35R,0.08674X0.06312*%
%ADD36O,0.08674X0.06312*%
%ADD37C,0.04737*%
%ADD38C,0.12800*%
D24*
X5622Y105493D02*
D03*
Y83445D02*
D03*
Y102343D02*
D03*
Y99193D02*
D03*
Y96044D02*
D03*
Y92894D02*
D03*
Y89745D02*
D03*
Y86595D02*
D03*
Y58284D02*
D03*
X5722Y51984D02*
D03*
Y45685D02*
D03*
Y48835D02*
D03*
Y55134D02*
D03*
X5622Y39386D02*
D03*
Y33087D02*
D03*
Y36236D02*
D03*
Y42535D02*
D03*
Y26787D02*
D03*
Y20488D02*
D03*
Y23638D02*
D03*
Y29937D02*
D03*
Y17339D02*
D03*
Y14189D02*
D03*
D25*
Y67732D02*
D03*
Y61433D02*
D03*
Y64583D02*
D03*
D27*
X94236Y5268D02*
D03*
Y11331D02*
D03*
X53811Y66213D02*
D03*
Y60150D02*
D03*
X142244Y113331D02*
D03*
Y107268D02*
D03*
X149622Y113331D02*
D03*
Y107268D02*
D03*
X149386Y5087D02*
D03*
Y11150D02*
D03*
X163842Y5087D02*
D03*
Y11150D02*
D03*
X53811Y34449D02*
D03*
Y40512D02*
D03*
X61039Y40512D02*
D03*
Y34449D02*
D03*
X164646Y113331D02*
D03*
Y107268D02*
D03*
X157118Y113331D02*
D03*
Y107268D02*
D03*
X94236Y113331D02*
D03*
Y107268D02*
D03*
X61039Y60150D02*
D03*
Y66213D02*
D03*
X156614Y11150D02*
D03*
Y5087D02*
D03*
X142244Y5087D02*
D03*
Y11150D02*
D03*
X171874Y113394D02*
D03*
Y107331D02*
D03*
D28*
X86874Y32394D02*
D03*
D29*
X108071Y79691D02*
D03*
X114134D02*
D03*
X114134Y87811D02*
D03*
X108071D02*
D03*
X63803Y81921D02*
D03*
X57740D02*
D03*
X108205Y31323D02*
D03*
X114268D02*
D03*
Y24016D02*
D03*
X108205D02*
D03*
D30*
X114409Y49039D02*
D03*
Y59039D02*
D03*
Y64039D02*
D03*
Y69039D02*
D03*
Y54039D02*
D03*
X99055D02*
D03*
Y69039D02*
D03*
Y64039D02*
D03*
Y59039D02*
D03*
Y49039D02*
D03*
D31*
X133831Y109803D02*
D03*
X102599Y109725D02*
D03*
X102831Y8299D02*
D03*
X134062Y8378D02*
D03*
D32*
X75260Y24244D02*
D03*
X69354D02*
D03*
X63449D02*
D03*
X51638D02*
D03*
X57543D02*
D03*
X69354Y93819D02*
D03*
X75260D02*
D03*
X63449D02*
D03*
X57543D02*
D03*
X51638D02*
D03*
D33*
X43496Y8299D02*
D03*
X83402D02*
D03*
X43496Y109764D02*
D03*
X83402D02*
D03*
D34*
X171874Y24094D02*
D03*
X165969D02*
D03*
X160063D02*
D03*
X154157D02*
D03*
X148252D02*
D03*
X142346D02*
D03*
X136441D02*
D03*
X130535D02*
D03*
X124630D02*
D03*
Y93780D02*
D03*
X130535D02*
D03*
X136441D02*
D03*
X142346D02*
D03*
X148252D02*
D03*
X154157D02*
D03*
X160063D02*
D03*
X165969D02*
D03*
X171874D02*
D03*
D35*
X26236Y49134D02*
D03*
Y108362D02*
D03*
D36*
Y39291D02*
D03*
Y29449D02*
D03*
Y19606D02*
D03*
Y9764D02*
D03*
Y98520D02*
D03*
Y88677D02*
D03*
Y78835D02*
D03*
Y68992D02*
D03*
D37*
X176803Y50504D02*
D03*
Y67827D02*
D03*
D38*
X189163Y106650D02*
D03*
X189124Y11372D02*
D03*
M02*
