G04*
G04 #@! TF.GenerationSoftware,Altium Limited,Altium Designer,19.0.4 (130)*
G04*
G04 Layer_Color=2752767*
%FSLAX25Y25*%
%MOIN*%
G70*
G01*
G75*
%ADD11C,0.01000*%
%ADD98C,0.00200*%
%ADD99C,0.01500*%
%ADD100C,0.01600*%
D11*
X-91536Y218862D02*
G03*
X-91536Y218862I-1969J0D01*
G01*
D02*
G03*
X-91536Y218862I-1969J0D01*
G01*
X-93505Y208035D02*
X-91536Y211972D01*
X-95473D02*
X-91536D01*
X-95473D02*
X-93505Y208035D01*
X-95473Y199177D02*
X-93505Y200161D01*
X-91536Y199177D01*
X-92520Y201146D02*
X-91536Y199177D01*
X-92520Y201146D02*
X-91536Y203114D01*
X-93505Y202130D02*
X-91536Y203114D01*
X-95473D02*
X-93505Y202130D01*
X-95473Y203114D02*
X-94489Y201146D01*
X-95473Y199177D02*
X-94489Y201146D01*
X-95473Y190319D02*
X-91536D01*
Y194256D01*
X-95473D02*
X-91536D01*
X-95473Y190319D02*
Y194256D01*
X-94489Y182445D02*
X-93505Y181460D01*
X-95473Y182445D02*
X-94489D01*
X-95473D02*
X-94489Y183429D01*
X-95473Y184413D02*
X-94489Y183429D01*
X-95473Y184413D02*
X-94489D01*
X-93505Y185398D01*
X-92520Y184413D01*
X-91536D01*
X-92520Y183429D02*
X-91536Y184413D01*
X-92520Y183429D02*
X-91536Y182445D01*
X-92520D02*
X-91536D01*
X-93505Y181460D02*
X-92520Y182445D01*
X-93505Y208035D02*
X-91536Y211972D01*
X-95473D02*
X-91536D01*
X-95473D02*
X-93505Y208035D01*
X-95473Y199177D02*
X-93505Y200161D01*
X-91536Y199177D01*
X-92520Y201146D02*
X-91536Y199177D01*
X-92520Y201146D02*
X-91536Y203114D01*
X-93505Y202130D02*
X-91536Y203114D01*
X-95473D02*
X-93505Y202130D01*
X-95473Y203114D02*
X-94489Y201146D01*
X-95473Y199177D02*
X-94489Y201146D01*
X-95473Y190319D02*
X-91536D01*
Y194256D01*
X-95473D02*
X-91536D01*
X-95473Y190319D02*
Y194256D01*
X-94489Y182445D02*
X-93505Y181460D01*
X-95473Y182445D02*
X-94489D01*
X-95473D02*
X-94489Y183429D01*
X-95473Y184413D02*
X-94489Y183429D01*
X-95473Y184413D02*
X-94489D01*
X-93505Y185398D01*
X-92520Y184413D01*
X-91536D01*
X-92520Y183429D02*
X-91536Y184413D01*
X-92520Y183429D02*
X-91536Y182445D01*
X-92520D02*
X-91536D01*
X-93505Y181460D02*
X-92520Y182445D01*
X597833Y218665D02*
X600195D01*
X597833Y209806D02*
X600195D01*
X597833Y200948D02*
X600195D01*
X597833Y192090D02*
X600195D01*
X597833Y183231D02*
X600195D01*
X545395Y218665D02*
X547757D01*
X545395Y209806D02*
X547757D01*
X545395Y200948D02*
X547757D01*
X545395Y192090D02*
X547757D01*
X545395Y183231D02*
X547757D01*
X291386Y219255D02*
X289615D01*
X289025Y218665D01*
Y217484D01*
X289615Y216894D01*
X291386D01*
X292567D02*
X293748D01*
X293157D01*
Y220436D01*
X292567Y219845D01*
X295519D02*
X296109Y220436D01*
X297290D01*
X297880Y219845D01*
Y217484D01*
X297290Y216894D01*
X296109D01*
X295519Y217484D01*
Y219845D01*
X299061D02*
X299651Y220436D01*
X300832D01*
X301422Y219845D01*
Y217484D01*
X300832Y216894D01*
X299651D01*
X299061Y217484D01*
Y219845D01*
X302603Y220436D02*
Y216894D01*
Y218665D01*
X303193Y219255D01*
X304374D01*
X304964Y218665D01*
Y216894D01*
X306145Y219845D02*
X306736Y220436D01*
X307916D01*
X308507Y219845D01*
Y219255D01*
X307916Y218665D01*
X308507Y218074D01*
Y217484D01*
X307916Y216894D01*
X306736D01*
X306145Y217484D01*
Y218074D01*
X306736Y218665D01*
X306145Y219255D01*
Y219845D01*
X306736Y218665D02*
X307916D01*
X309687Y219845D02*
X310278Y220436D01*
X311458D01*
X312049Y219845D01*
Y217484D01*
X311458Y216894D01*
X310278D01*
X309687Y217484D01*
Y219845D01*
X291386Y210397D02*
X289615D01*
X289025Y209806D01*
Y208626D01*
X289615Y208035D01*
X291386D01*
X292567Y210987D02*
X293157Y211577D01*
X294338D01*
X294928Y210987D01*
Y210397D01*
X294338Y209806D01*
X293748D01*
X294338D01*
X294928Y209216D01*
Y208626D01*
X294338Y208035D01*
X293157D01*
X292567Y208626D01*
X296109Y210987D02*
X296700Y211577D01*
X297880D01*
X298471Y210987D01*
Y208626D01*
X297880Y208035D01*
X296700D01*
X296109Y208626D01*
Y210987D01*
X302013Y211577D02*
X299651D01*
Y209806D01*
X300832Y210397D01*
X301422D01*
X302013Y209806D01*
Y208626D01*
X301422Y208035D01*
X300242D01*
X299651Y208626D01*
X303193Y211577D02*
Y208035D01*
Y209806D01*
X303784Y210397D01*
X304964D01*
X305555Y209806D01*
Y208035D01*
X309097D02*
X306736D01*
X309097Y210397D01*
Y210987D01*
X308507Y211577D01*
X307326D01*
X306736Y210987D01*
X312639Y211577D02*
X310278D01*
Y209806D01*
X311458Y210397D01*
X312049D01*
X312639Y209806D01*
Y208626D01*
X312049Y208035D01*
X310868D01*
X310278Y208626D01*
X315591Y208035D02*
Y211577D01*
X313820Y209806D01*
X316181D01*
X290206Y199177D02*
X289025Y200358D01*
Y201538D01*
X290206Y202719D01*
X291977Y199177D02*
Y202719D01*
X293157Y201538D01*
X294338Y202719D01*
Y199177D01*
X295519D02*
X296700D01*
X296109D01*
Y201538D01*
X295519D01*
X298471D02*
X300832Y199177D01*
X299651Y200358D01*
X300832Y201538D01*
X298471Y199177D01*
X303784D02*
X302603D01*
X302013Y199767D01*
Y200948D01*
X302603Y201538D01*
X303784D01*
X304374Y200948D01*
Y200358D01*
X302013D01*
X307916Y202719D02*
Y199177D01*
X306145D01*
X305555Y199767D01*
Y200948D01*
X306145Y201538D01*
X307916D01*
X309097Y199177D02*
X310278Y200358D01*
Y201538D01*
X309097Y202719D01*
X290206Y190319D02*
X289025Y191499D01*
Y192680D01*
X290206Y193861D01*
X291977Y190319D02*
Y193861D01*
X293157Y192680D01*
X294338Y193861D01*
Y190319D01*
X295519D02*
X296700D01*
X296109D01*
Y192680D01*
X295519D01*
X298471D02*
X300832Y190319D01*
X299651Y191499D01*
X300832Y192680D01*
X298471Y190319D01*
X303784D02*
X302603D01*
X302013Y190909D01*
Y192090D01*
X302603Y192680D01*
X303784D01*
X304374Y192090D01*
Y191499D01*
X302013D01*
X307916Y193861D02*
Y190319D01*
X306145D01*
X305555Y190909D01*
Y192090D01*
X306145Y192680D01*
X307916D01*
X309097Y190319D02*
X310278Y191499D01*
Y192680D01*
X309097Y193861D01*
X289025Y183822D02*
X290206Y181460D01*
X291386Y183822D01*
X294928Y185003D02*
X292567D01*
Y183231D01*
X293748Y183822D01*
X294338D01*
X294928Y183231D01*
Y182051D01*
X294338Y181460D01*
X293157D01*
X292567Y182051D01*
X296109Y181460D02*
X297290D01*
X296700D01*
Y185003D01*
X296109Y184412D01*
X299061Y185003D02*
Y181460D01*
Y183231D01*
X299651Y183822D01*
X300832D01*
X301422Y183231D01*
Y181460D01*
X304964D02*
X302603D01*
X304964Y183822D01*
Y184412D01*
X304374Y185003D01*
X303193D01*
X302603Y184412D01*
X308507Y185003D02*
X306145D01*
Y183231D01*
X307326Y183822D01*
X307916D01*
X308507Y183231D01*
Y182051D01*
X307916Y181460D01*
X306736D01*
X306145Y182051D01*
X309687Y181460D02*
Y183822D01*
X310278D01*
X310868Y183231D01*
Y181460D01*
Y183231D01*
X311458Y183822D01*
X312049Y183231D01*
Y181460D01*
X313230Y184412D02*
X313820Y185003D01*
X315001D01*
X315591Y184412D01*
Y182051D01*
X315001Y181460D01*
X313820D01*
X313230Y182051D01*
Y184412D01*
X316772Y181460D02*
Y183822D01*
X317362D01*
X317952Y183231D01*
Y181460D01*
Y183231D01*
X318543Y183822D01*
X319133Y183231D01*
Y181460D01*
X320314Y183822D02*
X322675Y181460D01*
X321495Y182641D01*
X322675Y183822D01*
X320314Y181460D01*
X323856Y184412D02*
X324446Y185003D01*
X325627D01*
X326218Y184412D01*
Y182051D01*
X325627Y181460D01*
X324446D01*
X323856Y182051D01*
Y184412D01*
X243671Y216894D02*
Y220436D01*
X245442D01*
X246033Y219845D01*
Y218665D01*
X245442Y218074D01*
X243671D01*
X244852D02*
X246033Y216894D01*
X247804D02*
X248985D01*
X249575Y217484D01*
Y218665D01*
X248985Y219255D01*
X247804D01*
X247214Y218665D01*
Y217484D01*
X247804Y216894D01*
X250756Y219255D02*
Y217484D01*
X251346Y216894D01*
X253117D01*
Y219255D01*
X254298Y216894D02*
Y219255D01*
X256069D01*
X256659Y218665D01*
Y216894D01*
X260201Y220436D02*
Y216894D01*
X258430D01*
X257840Y217484D01*
Y218665D01*
X258430Y219255D01*
X260201D01*
X263153Y216894D02*
X261972D01*
X261382Y217484D01*
Y218665D01*
X261972Y219255D01*
X263153D01*
X263744Y218665D01*
Y218074D01*
X261382D01*
X267286Y220436D02*
Y216894D01*
X265515D01*
X264924Y217484D01*
Y218665D01*
X265515Y219255D01*
X267286D01*
X243671Y208035D02*
Y211577D01*
X245442D01*
X246033Y210987D01*
Y209806D01*
X245442Y209216D01*
X243671D01*
X244852D02*
X246033Y208035D01*
X247804D02*
X248985D01*
X249575Y208626D01*
Y209806D01*
X248985Y210397D01*
X247804D01*
X247214Y209806D01*
Y208626D01*
X247804Y208035D01*
X250756Y210397D02*
Y208626D01*
X251346Y208035D01*
X253117D01*
Y210397D01*
X254298Y208035D02*
Y210397D01*
X256069D01*
X256659Y209806D01*
Y208035D01*
X260201Y211577D02*
Y208035D01*
X258430D01*
X257840Y208626D01*
Y209806D01*
X258430Y210397D01*
X260201D01*
X263153Y208035D02*
X261972D01*
X261382Y208626D01*
Y209806D01*
X261972Y210397D01*
X263153D01*
X263744Y209806D01*
Y209216D01*
X261382D01*
X267286Y211577D02*
Y208035D01*
X265515D01*
X264924Y208626D01*
Y209806D01*
X265515Y210397D01*
X267286D01*
X243671Y199177D02*
Y202719D01*
X245442D01*
X246033Y202129D01*
Y200948D01*
X245442Y200358D01*
X243671D01*
X244852D02*
X246033Y199177D01*
X247804D02*
X248985D01*
X249575Y199767D01*
Y200948D01*
X248985Y201538D01*
X247804D01*
X247214Y200948D01*
Y199767D01*
X247804Y199177D01*
X250756Y201538D02*
Y199767D01*
X251346Y199177D01*
X253117D01*
Y201538D01*
X254298Y199177D02*
Y201538D01*
X256069D01*
X256659Y200948D01*
Y199177D01*
X260201Y202719D02*
Y199177D01*
X258430D01*
X257840Y199767D01*
Y200948D01*
X258430Y201538D01*
X260201D01*
X263153Y199177D02*
X261972D01*
X261382Y199767D01*
Y200948D01*
X261972Y201538D01*
X263153D01*
X263744Y200948D01*
Y200358D01*
X261382D01*
X267286Y202719D02*
Y199177D01*
X265515D01*
X264924Y199767D01*
Y200948D01*
X265515Y201538D01*
X267286D01*
X244852Y190319D02*
X243671Y191499D01*
Y192680D01*
X244852Y193861D01*
X246623Y190319D02*
Y193861D01*
X247804Y192680D01*
X248985Y193861D01*
Y190319D01*
X250165D02*
X251346D01*
X250756D01*
Y192680D01*
X250165D01*
X253117D02*
X255479Y190319D01*
X254298Y191499D01*
X255479Y192680D01*
X253117Y190319D01*
X258430D02*
X257250D01*
X256659Y190909D01*
Y192090D01*
X257250Y192680D01*
X258430D01*
X259021Y192090D01*
Y191499D01*
X256659D01*
X262563Y193861D02*
Y190319D01*
X260792D01*
X260201Y190909D01*
Y192090D01*
X260792Y192680D01*
X262563D01*
X263744Y190319D02*
X264924Y191499D01*
Y192680D01*
X263744Y193861D01*
X243671Y181460D02*
Y185003D01*
X245442D01*
X246033Y184412D01*
Y183231D01*
X245442Y182641D01*
X243671D01*
X244852D02*
X246033Y181460D01*
X247804D02*
X248985D01*
X249575Y182051D01*
Y183231D01*
X248985Y183822D01*
X247804D01*
X247214Y183231D01*
Y182051D01*
X247804Y181460D01*
X250756Y183822D02*
Y182051D01*
X251346Y181460D01*
X253117D01*
Y183822D01*
X254298Y181460D02*
Y183822D01*
X256069D01*
X256659Y183231D01*
Y181460D01*
X260201Y185003D02*
Y181460D01*
X258430D01*
X257840Y182051D01*
Y183231D01*
X258430Y183822D01*
X260201D01*
X263153Y181460D02*
X261972D01*
X261382Y182051D01*
Y183231D01*
X261972Y183822D01*
X263153D01*
X263744Y183231D01*
Y182641D01*
X261382D01*
X267286Y185003D02*
Y181460D01*
X265515D01*
X264924Y182051D01*
Y183231D01*
X265515Y183822D01*
X267286D01*
X207527Y216894D02*
Y220436D01*
X209298D01*
X209889Y219845D01*
Y218665D01*
X209298Y218074D01*
X207527D01*
X211660Y219255D02*
X212841D01*
X213431Y218665D01*
Y216894D01*
X211660D01*
X211070Y217484D01*
X211660Y218074D01*
X213431D01*
X216973Y220436D02*
Y216894D01*
X215202D01*
X214612Y217484D01*
Y218665D01*
X215202Y219255D01*
X216973D01*
X207527Y208035D02*
Y211577D01*
X209298D01*
X209889Y210987D01*
Y209806D01*
X209298Y209216D01*
X207527D01*
X211660Y210397D02*
X212841D01*
X213431Y209806D01*
Y208035D01*
X211660D01*
X211070Y208626D01*
X211660Y209216D01*
X213431D01*
X216973Y211577D02*
Y208035D01*
X215202D01*
X214612Y208626D01*
Y209806D01*
X215202Y210397D01*
X216973D01*
X207527Y202719D02*
Y200358D01*
X208708Y199177D01*
X209889Y200358D01*
Y202719D01*
X211070Y199177D02*
X212250D01*
X211660D01*
Y201538D01*
X211070D01*
X214612D02*
X215792D01*
X216383Y200948D01*
Y199177D01*
X214612D01*
X214021Y199767D01*
X214612Y200358D01*
X216383D01*
X207527Y190319D02*
Y193861D01*
X209298D01*
X209889Y193271D01*
Y192090D01*
X209298Y191499D01*
X207527D01*
X211660Y192680D02*
X212841D01*
X213431Y192090D01*
Y190319D01*
X211660D01*
X211070Y190909D01*
X211660Y191499D01*
X213431D01*
X216973Y193861D02*
Y190319D01*
X215202D01*
X214612Y190909D01*
Y192090D01*
X215202Y192680D01*
X216973D01*
X207527Y185003D02*
Y182641D01*
X208708Y181460D01*
X209889Y182641D01*
Y185003D01*
X211070Y181460D02*
X212250D01*
X211660D01*
Y183822D01*
X211070D01*
X214612D02*
X215792D01*
X216383Y183231D01*
Y181460D01*
X214612D01*
X214021Y182051D01*
X214612Y182641D01*
X216383D01*
X118152Y220436D02*
X120514D01*
X119333D01*
Y216894D01*
X122285D02*
X123466D01*
X124056Y217484D01*
Y218665D01*
X123466Y219255D01*
X122285D01*
X121695Y218665D01*
Y217484D01*
X122285Y216894D01*
X125237Y215713D02*
Y219255D01*
X127008D01*
X127598Y218665D01*
Y217484D01*
X127008Y216894D01*
X125237D01*
X132321Y220436D02*
Y216894D01*
X134683D01*
X136454Y219255D02*
X137634D01*
X138225Y218665D01*
Y216894D01*
X136454D01*
X135863Y217484D01*
X136454Y218074D01*
X138225D01*
X139405Y219255D02*
Y217484D01*
X139996Y216894D01*
X141767D01*
Y216303D01*
X141176Y215713D01*
X140586D01*
X141767Y216894D02*
Y219255D01*
X144719Y216894D02*
X143538D01*
X142948Y217484D01*
Y218665D01*
X143538Y219255D01*
X144719D01*
X145309Y218665D01*
Y218074D01*
X142948D01*
X146490Y219255D02*
Y216894D01*
Y218074D01*
X147080Y218665D01*
X147670Y219255D01*
X148261D01*
X153574Y218665D02*
X155936D01*
X160658Y220436D02*
Y216894D01*
X162429D01*
X163020Y217484D01*
Y218074D01*
X162429Y218665D01*
X160658D01*
X162429D01*
X163020Y219255D01*
Y219845D01*
X162429Y220436D01*
X160658D01*
X164791Y216894D02*
X165972D01*
X166562Y217484D01*
Y218665D01*
X165972Y219255D01*
X164791D01*
X164200Y218665D01*
Y217484D01*
X164791Y216894D01*
X168333Y219845D02*
Y219255D01*
X167743D01*
X168923D01*
X168333D01*
Y217484D01*
X168923Y216894D01*
X171285Y219845D02*
Y219255D01*
X170694D01*
X171875D01*
X171285D01*
Y217484D01*
X171875Y216894D01*
X174237D02*
X175417D01*
X176008Y217484D01*
Y218665D01*
X175417Y219255D01*
X174237D01*
X173646Y218665D01*
Y217484D01*
X174237Y216894D01*
X177189D02*
Y219255D01*
X177779D01*
X178369Y218665D01*
Y216894D01*
Y218665D01*
X178960Y219255D01*
X179550Y218665D01*
Y216894D01*
X184273Y220436D02*
Y216894D01*
X186634D01*
X188405Y219255D02*
X189586D01*
X190176Y218665D01*
Y216894D01*
X188405D01*
X187815Y217484D01*
X188405Y218074D01*
X190176D01*
X191357Y219255D02*
Y217484D01*
X191947Y216894D01*
X193719D01*
Y216303D01*
X193128Y215713D01*
X192538D01*
X193719Y216894D02*
Y219255D01*
X196670Y216894D02*
X195490D01*
X194899Y217484D01*
Y218665D01*
X195490Y219255D01*
X196670D01*
X197261Y218665D01*
Y218074D01*
X194899D01*
X198441Y219255D02*
Y216894D01*
Y218074D01*
X199032Y218665D01*
X199622Y219255D01*
X200213D01*
X118152Y211577D02*
X120514D01*
X119333D01*
Y208035D01*
X122285D02*
X123466D01*
X124056Y208626D01*
Y209806D01*
X123466Y210397D01*
X122285D01*
X121695Y209806D01*
Y208626D01*
X122285Y208035D01*
X125237Y206855D02*
Y210397D01*
X127008D01*
X127598Y209806D01*
Y208626D01*
X127008Y208035D01*
X125237D01*
X132321Y211577D02*
Y208035D01*
X134683D01*
X136454Y210397D02*
X137634D01*
X138225Y209806D01*
Y208035D01*
X136454D01*
X135863Y208626D01*
X136454Y209216D01*
X138225D01*
X139405Y210397D02*
Y208626D01*
X139996Y208035D01*
X141767D01*
Y207445D01*
X141176Y206855D01*
X140586D01*
X141767Y208035D02*
Y210397D01*
X144719Y208035D02*
X143538D01*
X142948Y208626D01*
Y209806D01*
X143538Y210397D01*
X144719D01*
X145309Y209806D01*
Y209216D01*
X142948D01*
X146490Y210397D02*
Y208035D01*
Y209216D01*
X147080Y209806D01*
X147670Y210397D01*
X148261D01*
X153574Y209806D02*
X155936D01*
X160658Y211577D02*
Y208035D01*
X162429D01*
X163020Y208626D01*
Y209216D01*
X162429Y209806D01*
X160658D01*
X162429D01*
X163020Y210397D01*
Y210987D01*
X162429Y211577D01*
X160658D01*
X164791Y208035D02*
X165972D01*
X166562Y208626D01*
Y209806D01*
X165972Y210397D01*
X164791D01*
X164200Y209806D01*
Y208626D01*
X164791Y208035D01*
X168333Y210987D02*
Y210397D01*
X167743D01*
X168923D01*
X168333D01*
Y208626D01*
X168923Y208035D01*
X171285Y210987D02*
Y210397D01*
X170694D01*
X171875D01*
X171285D01*
Y208626D01*
X171875Y208035D01*
X174237D02*
X175417D01*
X176008Y208626D01*
Y209806D01*
X175417Y210397D01*
X174237D01*
X173646Y209806D01*
Y208626D01*
X174237Y208035D01*
X177189D02*
Y210397D01*
X177779D01*
X178369Y209806D01*
Y208035D01*
Y209806D01*
X178960Y210397D01*
X179550Y209806D01*
Y208035D01*
X184273Y211577D02*
Y208035D01*
X186634D01*
X188405Y210397D02*
X189586D01*
X190176Y209806D01*
Y208035D01*
X188405D01*
X187815Y208626D01*
X188405Y209216D01*
X190176D01*
X191357Y210397D02*
Y208626D01*
X191947Y208035D01*
X193719D01*
Y207445D01*
X193128Y206855D01*
X192538D01*
X193719Y208035D02*
Y210397D01*
X196670Y208035D02*
X195490D01*
X194899Y208626D01*
Y209806D01*
X195490Y210397D01*
X196670D01*
X197261Y209806D01*
Y209216D01*
X194899D01*
X198441Y210397D02*
Y208035D01*
Y209216D01*
X199032Y209806D01*
X199622Y210397D01*
X200213D01*
X118152Y202719D02*
X120514D01*
X119333D01*
Y199177D01*
X122285D02*
X123466D01*
X124056Y199767D01*
Y200948D01*
X123466Y201538D01*
X122285D01*
X121695Y200948D01*
Y199767D01*
X122285Y199177D01*
X125237Y197996D02*
Y201538D01*
X127008D01*
X127598Y200948D01*
Y199767D01*
X127008Y199177D01*
X125237D01*
X132321Y202719D02*
Y199177D01*
X134683D01*
X136454Y201538D02*
X137634D01*
X138225Y200948D01*
Y199177D01*
X136454D01*
X135863Y199767D01*
X136454Y200358D01*
X138225D01*
X139405Y201538D02*
Y199767D01*
X139996Y199177D01*
X141767D01*
Y198587D01*
X141176Y197996D01*
X140586D01*
X141767Y199177D02*
Y201538D01*
X144719Y199177D02*
X143538D01*
X142948Y199767D01*
Y200948D01*
X143538Y201538D01*
X144719D01*
X145309Y200948D01*
Y200358D01*
X142948D01*
X146490Y201538D02*
Y199177D01*
Y200358D01*
X147080Y200948D01*
X147670Y201538D01*
X148261D01*
X153574Y200948D02*
X155936D01*
X160658Y202719D02*
Y199177D01*
X162429D01*
X163020Y199767D01*
Y200358D01*
X162429Y200948D01*
X160658D01*
X162429D01*
X163020Y201538D01*
Y202129D01*
X162429Y202719D01*
X160658D01*
X164791Y199177D02*
X165972D01*
X166562Y199767D01*
Y200948D01*
X165972Y201538D01*
X164791D01*
X164200Y200948D01*
Y199767D01*
X164791Y199177D01*
X168333Y202129D02*
Y201538D01*
X167743D01*
X168923D01*
X168333D01*
Y199767D01*
X168923Y199177D01*
X171285Y202129D02*
Y201538D01*
X170694D01*
X171875D01*
X171285D01*
Y199767D01*
X171875Y199177D01*
X174237D02*
X175417D01*
X176008Y199767D01*
Y200948D01*
X175417Y201538D01*
X174237D01*
X173646Y200948D01*
Y199767D01*
X174237Y199177D01*
X177189D02*
Y201538D01*
X177779D01*
X178369Y200948D01*
Y199177D01*
Y200948D01*
X178960Y201538D01*
X179550Y200948D01*
Y199177D01*
X184273Y202719D02*
Y199177D01*
X186634D01*
X188405Y201538D02*
X189586D01*
X190176Y200948D01*
Y199177D01*
X188405D01*
X187815Y199767D01*
X188405Y200358D01*
X190176D01*
X191357Y201538D02*
Y199767D01*
X191947Y199177D01*
X193719D01*
Y198587D01*
X193128Y197996D01*
X192538D01*
X193719Y199177D02*
Y201538D01*
X196670Y199177D02*
X195490D01*
X194899Y199767D01*
Y200948D01*
X195490Y201538D01*
X196670D01*
X197261Y200948D01*
Y200358D01*
X194899D01*
X198441Y201538D02*
Y199177D01*
Y200358D01*
X199032Y200948D01*
X199622Y201538D01*
X200213D01*
X118152Y193861D02*
X120514D01*
X119333D01*
Y190319D01*
X122285D02*
X123466D01*
X124056Y190909D01*
Y192090D01*
X123466Y192680D01*
X122285D01*
X121695Y192090D01*
Y190909D01*
X122285Y190319D01*
X125237Y189138D02*
Y192680D01*
X127008D01*
X127598Y192090D01*
Y190909D01*
X127008Y190319D01*
X125237D01*
X132321Y193861D02*
Y190319D01*
X134683D01*
X136454Y192680D02*
X137634D01*
X138225Y192090D01*
Y190319D01*
X136454D01*
X135863Y190909D01*
X136454Y191499D01*
X138225D01*
X139405Y192680D02*
Y190909D01*
X139996Y190319D01*
X141767D01*
Y189728D01*
X141176Y189138D01*
X140586D01*
X141767Y190319D02*
Y192680D01*
X144719Y190319D02*
X143538D01*
X142948Y190909D01*
Y192090D01*
X143538Y192680D01*
X144719D01*
X145309Y192090D01*
Y191499D01*
X142948D01*
X146490Y192680D02*
Y190319D01*
Y191499D01*
X147080Y192090D01*
X147670Y192680D01*
X148261D01*
X153574Y192090D02*
X155936D01*
X160658Y193861D02*
Y190319D01*
X162429D01*
X163020Y190909D01*
Y191499D01*
X162429Y192090D01*
X160658D01*
X162429D01*
X163020Y192680D01*
Y193271D01*
X162429Y193861D01*
X160658D01*
X164791Y190319D02*
X165972D01*
X166562Y190909D01*
Y192090D01*
X165972Y192680D01*
X164791D01*
X164200Y192090D01*
Y190909D01*
X164791Y190319D01*
X168333Y193271D02*
Y192680D01*
X167743D01*
X168923D01*
X168333D01*
Y190909D01*
X168923Y190319D01*
X171285Y193271D02*
Y192680D01*
X170694D01*
X171875D01*
X171285D01*
Y190909D01*
X171875Y190319D01*
X174237D02*
X175417D01*
X176008Y190909D01*
Y192090D01*
X175417Y192680D01*
X174237D01*
X173646Y192090D01*
Y190909D01*
X174237Y190319D01*
X177189D02*
Y192680D01*
X177779D01*
X178369Y192090D01*
Y190319D01*
Y192090D01*
X178960Y192680D01*
X179550Y192090D01*
Y190319D01*
X184273Y193861D02*
Y190319D01*
X186634D01*
X188405Y192680D02*
X189586D01*
X190176Y192090D01*
Y190319D01*
X188405D01*
X187815Y190909D01*
X188405Y191499D01*
X190176D01*
X191357Y192680D02*
Y190909D01*
X191947Y190319D01*
X193719D01*
Y189728D01*
X193128Y189138D01*
X192538D01*
X193719Y190319D02*
Y192680D01*
X196670Y190319D02*
X195490D01*
X194899Y190909D01*
Y192090D01*
X195490Y192680D01*
X196670D01*
X197261Y192090D01*
Y191499D01*
X194899D01*
X198441Y192680D02*
Y190319D01*
Y191499D01*
X199032Y192090D01*
X199622Y192680D01*
X200213D01*
X118152Y185003D02*
X120514D01*
X119333D01*
Y181460D01*
X122285D02*
X123466D01*
X124056Y182051D01*
Y183231D01*
X123466Y183822D01*
X122285D01*
X121695Y183231D01*
Y182051D01*
X122285Y181460D01*
X125237Y180280D02*
Y183822D01*
X127008D01*
X127598Y183231D01*
Y182051D01*
X127008Y181460D01*
X125237D01*
X132321Y185003D02*
Y181460D01*
X134683D01*
X136454Y183822D02*
X137634D01*
X138225Y183231D01*
Y181460D01*
X136454D01*
X135863Y182051D01*
X136454Y182641D01*
X138225D01*
X139405Y183822D02*
Y182051D01*
X139996Y181460D01*
X141767D01*
Y180870D01*
X141176Y180280D01*
X140586D01*
X141767Y181460D02*
Y183822D01*
X144719Y181460D02*
X143538D01*
X142948Y182051D01*
Y183231D01*
X143538Y183822D01*
X144719D01*
X145309Y183231D01*
Y182641D01*
X142948D01*
X146490Y183822D02*
Y181460D01*
Y182641D01*
X147080Y183231D01*
X147670Y183822D01*
X148261D01*
X153574Y183231D02*
X155936D01*
X160658Y185003D02*
Y181460D01*
X162429D01*
X163020Y182051D01*
Y182641D01*
X162429Y183231D01*
X160658D01*
X162429D01*
X163020Y183822D01*
Y184412D01*
X162429Y185003D01*
X160658D01*
X164791Y181460D02*
X165972D01*
X166562Y182051D01*
Y183231D01*
X165972Y183822D01*
X164791D01*
X164200Y183231D01*
Y182051D01*
X164791Y181460D01*
X168333Y184412D02*
Y183822D01*
X167743D01*
X168923D01*
X168333D01*
Y182051D01*
X168923Y181460D01*
X171285Y184412D02*
Y183822D01*
X170694D01*
X171875D01*
X171285D01*
Y182051D01*
X171875Y181460D01*
X174237D02*
X175417D01*
X176008Y182051D01*
Y183231D01*
X175417Y183822D01*
X174237D01*
X173646Y183231D01*
Y182051D01*
X174237Y181460D01*
X177189D02*
Y183822D01*
X177779D01*
X178369Y183231D01*
Y181460D01*
Y183231D01*
X178960Y183822D01*
X179550Y183231D01*
Y181460D01*
X184273Y185003D02*
Y181460D01*
X186634D01*
X188405Y183822D02*
X189586D01*
X190176Y183231D01*
Y181460D01*
X188405D01*
X187815Y182051D01*
X188405Y182641D01*
X190176D01*
X191357Y183822D02*
Y182051D01*
X191947Y181460D01*
X193719D01*
Y180870D01*
X193128Y180280D01*
X192538D01*
X193719Y181460D02*
Y183822D01*
X196670Y181460D02*
X195490D01*
X194899Y182051D01*
Y183231D01*
X195490Y183822D01*
X196670D01*
X197261Y183231D01*
Y182641D01*
X194899D01*
X198441Y183822D02*
Y181460D01*
Y182641D01*
X199032Y183231D01*
X199622Y183822D01*
X200213D01*
X73507Y216894D02*
Y220436D01*
X75279D01*
X75869Y219845D01*
Y218665D01*
X75279Y218074D01*
X73507D01*
X74688D02*
X75869Y216894D01*
X77640D02*
X78821D01*
X79411Y217484D01*
Y218665D01*
X78821Y219255D01*
X77640D01*
X77050Y218665D01*
Y217484D01*
X77640Y216894D01*
X80592Y219255D02*
Y217484D01*
X81182Y216894D01*
X82953D01*
Y219255D01*
X84134Y216894D02*
Y219255D01*
X85905D01*
X86495Y218665D01*
Y216894D01*
X90038Y220436D02*
Y216894D01*
X88266D01*
X87676Y217484D01*
Y218665D01*
X88266Y219255D01*
X90038D01*
X73507Y208035D02*
Y211577D01*
X75279D01*
X75869Y210987D01*
Y209806D01*
X75279Y209216D01*
X73507D01*
X74688D02*
X75869Y208035D01*
X77640D02*
X78821D01*
X79411Y208626D01*
Y209806D01*
X78821Y210397D01*
X77640D01*
X77050Y209806D01*
Y208626D01*
X77640Y208035D01*
X80592Y210397D02*
Y208626D01*
X81182Y208035D01*
X82953D01*
Y210397D01*
X84134Y208035D02*
Y210397D01*
X85905D01*
X86495Y209806D01*
Y208035D01*
X90038Y211577D02*
Y208035D01*
X88266D01*
X87676Y208626D01*
Y209806D01*
X88266Y210397D01*
X90038D01*
X73507Y199177D02*
Y202719D01*
X75279D01*
X75869Y202129D01*
Y200948D01*
X75279Y200358D01*
X73507D01*
X74688D02*
X75869Y199177D01*
X77640D02*
X78821D01*
X79411Y199767D01*
Y200948D01*
X78821Y201538D01*
X77640D01*
X77050Y200948D01*
Y199767D01*
X77640Y199177D01*
X80592Y201538D02*
Y199767D01*
X81182Y199177D01*
X82953D01*
Y201538D01*
X84134Y199177D02*
Y201538D01*
X85905D01*
X86495Y200948D01*
Y199177D01*
X90038Y202719D02*
Y199177D01*
X88266D01*
X87676Y199767D01*
Y200948D01*
X88266Y201538D01*
X90038D01*
X73507Y190319D02*
Y193861D01*
X75279D01*
X75869Y193271D01*
Y192090D01*
X75279Y191499D01*
X73507D01*
X74688D02*
X75869Y190319D01*
X77640D02*
X78821D01*
X79411Y190909D01*
Y192090D01*
X78821Y192680D01*
X77640D01*
X77050Y192090D01*
Y190909D01*
X77640Y190319D01*
X80592Y192680D02*
Y190909D01*
X81182Y190319D01*
X82953D01*
Y192680D01*
X84134Y190319D02*
Y192680D01*
X85905D01*
X86495Y192090D01*
Y190319D01*
X90038Y193861D02*
Y190319D01*
X88266D01*
X87676Y190909D01*
Y192090D01*
X88266Y192680D01*
X90038D01*
X73507Y181460D02*
Y185003D01*
X75279D01*
X75869Y184412D01*
Y183231D01*
X75279Y182641D01*
X73507D01*
X74688D02*
X75869Y181460D01*
X77640D02*
X78821D01*
X79411Y182051D01*
Y183231D01*
X78821Y183822D01*
X77640D01*
X77050Y183231D01*
Y182051D01*
X77640Y181460D01*
X80592Y183822D02*
Y182051D01*
X81182Y181460D01*
X82953D01*
Y183822D01*
X84134Y181460D02*
Y183822D01*
X85905D01*
X86495Y183231D01*
Y181460D01*
X90038Y185003D02*
Y181460D01*
X88266D01*
X87676Y182051D01*
Y183231D01*
X88266Y183822D01*
X90038D01*
X42323Y216894D02*
Y220436D01*
X44094D01*
X44684Y219845D01*
Y218665D01*
X44094Y218074D01*
X42323D01*
X45865Y220436D02*
X48226D01*
X47045D01*
Y216894D01*
X49407Y220436D02*
Y216894D01*
Y218665D01*
X51768D01*
Y220436D01*
Y216894D01*
X42323Y208035D02*
Y211577D01*
X44094D01*
X44684Y210987D01*
Y209806D01*
X44094Y209216D01*
X42323D01*
X45865Y211577D02*
X48226D01*
X47045D01*
Y208035D01*
X49407Y211577D02*
Y208035D01*
Y209806D01*
X51768D01*
Y211577D01*
Y208035D01*
X42323Y199177D02*
Y202719D01*
X44094D01*
X44684Y202129D01*
Y200948D01*
X44094Y200358D01*
X42323D01*
X45865Y202719D02*
X48226D01*
X47045D01*
Y199177D01*
X49407Y202719D02*
Y199177D01*
Y200948D01*
X51768D01*
Y202719D01*
Y199177D01*
X42323Y190319D02*
Y193861D01*
X44094D01*
X44684Y193271D01*
Y192090D01*
X44094Y191499D01*
X42323D01*
X45865Y193861D02*
X48226D01*
X47045D01*
Y190319D01*
X49407Y193861D02*
Y190319D01*
Y192090D01*
X51768D01*
Y193861D01*
Y190319D01*
X42323Y181460D02*
Y185003D01*
X44094D01*
X44684Y184412D01*
Y183231D01*
X44094Y182641D01*
X42323D01*
X45865Y185003D02*
X48226D01*
X47045D01*
Y181460D01*
X49407Y185003D02*
Y181460D01*
Y183231D01*
X51768D01*
Y185003D01*
Y181460D01*
X-26390Y219845D02*
X-25799Y220436D01*
X-24619D01*
X-24028Y219845D01*
Y217484D01*
X-24619Y216894D01*
X-25799D01*
X-26390Y217484D01*
Y219845D01*
X-22848Y216894D02*
Y217484D01*
X-22257D01*
Y216894D01*
X-22848D01*
X-19896Y219845D02*
X-19306Y220436D01*
X-18125D01*
X-17534Y219845D01*
Y219255D01*
X-18125Y218665D01*
X-17534Y218074D01*
Y217484D01*
X-18125Y216894D01*
X-19306D01*
X-19896Y217484D01*
Y218074D01*
X-19306Y218665D01*
X-19896Y219255D01*
Y219845D01*
X-19306Y218665D02*
X-18125D01*
X-16354Y219845D02*
X-15763Y220436D01*
X-14583D01*
X-13992Y219845D01*
Y217484D01*
X-14583Y216894D01*
X-15763D01*
X-16354Y217484D01*
Y219845D01*
X-12811D02*
X-12221Y220436D01*
X-11040D01*
X-10450Y219845D01*
Y217484D01*
X-11040Y216894D01*
X-12221D01*
X-12811Y217484D01*
Y219845D01*
X-9269Y216894D02*
Y219255D01*
X-8679D01*
X-8089Y218665D01*
Y216894D01*
Y218665D01*
X-7498Y219255D01*
X-6908Y218665D01*
Y216894D01*
X-5727D02*
Y219255D01*
X-5137D01*
X-4546Y218665D01*
Y216894D01*
Y218665D01*
X-3956Y219255D01*
X-3366Y218665D01*
Y216894D01*
X2538D02*
X1357Y218074D01*
Y219255D01*
X2538Y220436D01*
X4309Y219845D02*
X4899Y220436D01*
X6080D01*
X6670Y219845D01*
Y219255D01*
X6080Y218665D01*
X5490D01*
X6080D01*
X6670Y218074D01*
Y217484D01*
X6080Y216894D01*
X4899D01*
X4309Y217484D01*
X7851Y216894D02*
X9032D01*
X8441D01*
Y220436D01*
X7851Y219845D01*
X10803Y216894D02*
Y217484D01*
X11393D01*
Y216894D01*
X10803D01*
X16116Y220436D02*
X13755D01*
Y218665D01*
X14935Y219255D01*
X15526D01*
X16116Y218665D01*
Y217484D01*
X15526Y216894D01*
X14345D01*
X13755Y217484D01*
X17297Y219845D02*
X17887Y220436D01*
X19068D01*
X19658Y219845D01*
Y217484D01*
X19068Y216894D01*
X17887D01*
X17297Y217484D01*
Y219845D01*
X20839Y216894D02*
Y219255D01*
X21429D01*
X22020Y218665D01*
Y216894D01*
Y218665D01*
X22610Y219255D01*
X23200Y218665D01*
Y216894D01*
X24381D02*
X25562D01*
X24972D01*
Y219255D01*
X24381D01*
X27333Y216894D02*
X28514D01*
X27923D01*
Y220436D01*
X27333D01*
X30285Y216894D02*
X31466Y218074D01*
Y219255D01*
X30285Y220436D01*
X-24028Y208035D02*
X-26390D01*
X-24028Y210397D01*
Y210987D01*
X-24619Y211577D01*
X-25799D01*
X-26390Y210987D01*
X-22848Y208035D02*
Y208626D01*
X-22257D01*
Y208035D01*
X-22848D01*
X-17534Y211577D02*
X-19896D01*
Y209806D01*
X-18715Y210397D01*
X-18125D01*
X-17534Y209806D01*
Y208626D01*
X-18125Y208035D01*
X-19306D01*
X-19896Y208626D01*
X-14583Y208035D02*
Y211577D01*
X-16354Y209806D01*
X-13992D01*
X-12811Y210987D02*
X-12221Y211577D01*
X-11040D01*
X-10450Y210987D01*
Y208626D01*
X-11040Y208035D01*
X-12221D01*
X-12811Y208626D01*
Y210987D01*
X-9269Y208035D02*
Y210397D01*
X-8679D01*
X-8089Y209806D01*
Y208035D01*
Y209806D01*
X-7498Y210397D01*
X-6908Y209806D01*
Y208035D01*
X-5727D02*
Y210397D01*
X-5137D01*
X-4546Y209806D01*
Y208035D01*
Y209806D01*
X-3956Y210397D01*
X-3366Y209806D01*
Y208035D01*
X2538D02*
X1357Y209216D01*
Y210397D01*
X2538Y211577D01*
X4309Y208035D02*
X5490D01*
X4899D01*
Y211577D01*
X4309Y210987D01*
X7261D02*
X7851Y211577D01*
X9032D01*
X9622Y210987D01*
Y208626D01*
X9032Y208035D01*
X7851D01*
X7261Y208626D01*
Y210987D01*
X10803D02*
X11393Y211577D01*
X12574D01*
X13164Y210987D01*
Y208626D01*
X12574Y208035D01*
X11393D01*
X10803Y208626D01*
Y210987D01*
X14345Y208035D02*
Y208626D01*
X14935D01*
Y208035D01*
X14345D01*
X17297Y210987D02*
X17887Y211577D01*
X19068D01*
X19658Y210987D01*
Y208626D01*
X19068Y208035D01*
X17887D01*
X17297Y208626D01*
Y210987D01*
X20839D02*
X21429Y211577D01*
X22610D01*
X23200Y210987D01*
Y208626D01*
X22610Y208035D01*
X21429D01*
X20839Y208626D01*
Y210987D01*
X24381Y208035D02*
Y210397D01*
X24972D01*
X25562Y209806D01*
Y208035D01*
Y209806D01*
X26152Y210397D01*
X26743Y209806D01*
Y208035D01*
X27923D02*
X29104D01*
X28514D01*
Y210397D01*
X27923D01*
X30875Y208035D02*
X32056D01*
X31466D01*
Y211577D01*
X30875D01*
X33827Y208035D02*
X35008Y209216D01*
Y210397D01*
X33827Y211577D01*
X-26390Y202129D02*
X-25799Y202719D01*
X-24619D01*
X-24028Y202129D01*
Y199767D01*
X-24619Y199177D01*
X-25799D01*
X-26390Y199767D01*
Y202129D01*
X-22848Y199177D02*
Y199767D01*
X-22257D01*
Y199177D01*
X-22848D01*
X-17534D02*
X-19896D01*
X-17534Y201538D01*
Y202129D01*
X-18125Y202719D01*
X-19306D01*
X-19896Y202129D01*
X-13992Y202719D02*
X-16354D01*
Y200948D01*
X-15173Y201538D01*
X-14583D01*
X-13992Y200948D01*
Y199767D01*
X-14583Y199177D01*
X-15763D01*
X-16354Y199767D01*
X-12811Y202129D02*
X-12221Y202719D01*
X-11040D01*
X-10450Y202129D01*
Y199767D01*
X-11040Y199177D01*
X-12221D01*
X-12811Y199767D01*
Y202129D01*
X-9269Y199177D02*
Y201538D01*
X-8679D01*
X-8089Y200948D01*
Y199177D01*
Y200948D01*
X-7498Y201538D01*
X-6908Y200948D01*
Y199177D01*
X-5727D02*
Y201538D01*
X-5137D01*
X-4546Y200948D01*
Y199177D01*
Y200948D01*
X-3956Y201538D01*
X-3366Y200948D01*
Y199177D01*
X2538D02*
X1357Y200358D01*
Y201538D01*
X2538Y202719D01*
X4309Y199767D02*
X4899Y199177D01*
X6080D01*
X6670Y199767D01*
Y202129D01*
X6080Y202719D01*
X4899D01*
X4309Y202129D01*
Y201538D01*
X4899Y200948D01*
X6670D01*
X7851Y199177D02*
Y199767D01*
X8441D01*
Y199177D01*
X7851D01*
X10803Y202129D02*
X11393Y202719D01*
X12574D01*
X13164Y202129D01*
Y201538D01*
X12574Y200948D01*
X13164Y200358D01*
Y199767D01*
X12574Y199177D01*
X11393D01*
X10803Y199767D01*
Y200358D01*
X11393Y200948D01*
X10803Y201538D01*
Y202129D01*
X11393Y200948D02*
X12574D01*
X16116Y199177D02*
Y202719D01*
X14345Y200948D01*
X16706D01*
X17887Y199177D02*
Y201538D01*
X18478D01*
X19068Y200948D01*
Y199177D01*
Y200948D01*
X19658Y201538D01*
X20249Y200948D01*
Y199177D01*
X21429D02*
X22610D01*
X22020D01*
Y201538D01*
X21429D01*
X24381Y199177D02*
X25562D01*
X24972D01*
Y202719D01*
X24381D01*
X27333Y199177D02*
X28514Y200358D01*
Y201538D01*
X27333Y202719D01*
X-26390Y190319D02*
X-25209D01*
X-25799D01*
Y193861D01*
X-26390Y193271D01*
X-23438Y190319D02*
Y190909D01*
X-22848D01*
Y190319D01*
X-23438D01*
X-20486Y193271D02*
X-19896Y193861D01*
X-18715D01*
X-18125Y193271D01*
Y190909D01*
X-18715Y190319D01*
X-19896D01*
X-20486Y190909D01*
Y193271D01*
X-16944D02*
X-16354Y193861D01*
X-15173D01*
X-14583Y193271D01*
Y190909D01*
X-15173Y190319D01*
X-16354D01*
X-16944Y190909D01*
Y193271D01*
X-13402D02*
X-12811Y193861D01*
X-11631D01*
X-11040Y193271D01*
Y190909D01*
X-11631Y190319D01*
X-12811D01*
X-13402Y190909D01*
Y193271D01*
X-9860Y190319D02*
Y192680D01*
X-9269D01*
X-8679Y192090D01*
Y190319D01*
Y192090D01*
X-8089Y192680D01*
X-7498Y192090D01*
Y190319D01*
X-6318D02*
Y192680D01*
X-5727D01*
X-5137Y192090D01*
Y190319D01*
Y192090D01*
X-4546Y192680D01*
X-3956Y192090D01*
Y190319D01*
X1947D02*
X767Y191499D01*
Y192680D01*
X1947Y193861D01*
X3719Y193271D02*
X4309Y193861D01*
X5490D01*
X6080Y193271D01*
Y192680D01*
X5490Y192090D01*
X4899D01*
X5490D01*
X6080Y191499D01*
Y190909D01*
X5490Y190319D01*
X4309D01*
X3719Y190909D01*
X7261D02*
X7851Y190319D01*
X9032D01*
X9622Y190909D01*
Y193271D01*
X9032Y193861D01*
X7851D01*
X7261Y193271D01*
Y192680D01*
X7851Y192090D01*
X9622D01*
X10803Y190319D02*
Y190909D01*
X11393D01*
Y190319D01*
X10803D01*
X13755Y193271D02*
X14345Y193861D01*
X15526D01*
X16116Y193271D01*
Y192680D01*
X15526Y192090D01*
X14935D01*
X15526D01*
X16116Y191499D01*
Y190909D01*
X15526Y190319D01*
X14345D01*
X13755Y190909D01*
X17297Y193861D02*
X19658D01*
Y193271D01*
X17297Y190909D01*
Y190319D01*
X20839D02*
Y192680D01*
X21429D01*
X22020Y192090D01*
Y190319D01*
Y192090D01*
X22610Y192680D01*
X23200Y192090D01*
Y190319D01*
X24381D02*
X25562D01*
X24972D01*
Y192680D01*
X24381D01*
X27333Y190319D02*
X28514D01*
X27923D01*
Y193861D01*
X27333D01*
X30285Y190319D02*
X31466Y191499D01*
Y192680D01*
X30285Y193861D01*
X-26390Y184412D02*
X-25799Y185003D01*
X-24619D01*
X-24028Y184412D01*
Y182051D01*
X-24619Y181460D01*
X-25799D01*
X-26390Y182051D01*
Y184412D01*
X-22848Y181460D02*
Y182051D01*
X-22257D01*
Y181460D01*
X-22848D01*
X-17534D02*
X-19896D01*
X-17534Y183822D01*
Y184412D01*
X-18125Y185003D01*
X-19306D01*
X-19896Y184412D01*
X-13992Y185003D02*
X-16354D01*
Y183231D01*
X-15173Y183822D01*
X-14583D01*
X-13992Y183231D01*
Y182051D01*
X-14583Y181460D01*
X-15763D01*
X-16354Y182051D01*
X-11040Y181460D02*
Y185003D01*
X-12811Y183231D01*
X-10450D01*
X-9269Y181460D02*
Y183822D01*
X-8679D01*
X-8089Y183231D01*
Y181460D01*
Y183231D01*
X-7498Y183822D01*
X-6908Y183231D01*
Y181460D01*
X-5727D02*
Y183822D01*
X-5137D01*
X-4546Y183231D01*
Y181460D01*
Y183231D01*
X-3956Y183822D01*
X-3366Y183231D01*
Y181460D01*
X2538D02*
X1357Y182641D01*
Y183822D01*
X2538Y185003D01*
X4309Y181460D02*
X5490D01*
X4899D01*
Y185003D01*
X4309Y184412D01*
X7261D02*
X7851Y185003D01*
X9032D01*
X9622Y184412D01*
Y182051D01*
X9032Y181460D01*
X7851D01*
X7261Y182051D01*
Y184412D01*
X10803Y181460D02*
Y182051D01*
X11393D01*
Y181460D01*
X10803D01*
X13755Y184412D02*
X14345Y185003D01*
X15526D01*
X16116Y184412D01*
Y182051D01*
X15526Y181460D01*
X14345D01*
X13755Y182051D01*
Y184412D01*
X17297D02*
X17887Y185003D01*
X19068D01*
X19658Y184412D01*
Y182051D01*
X19068Y181460D01*
X17887D01*
X17297Y182051D01*
Y184412D01*
X20839Y181460D02*
Y183822D01*
X21429D01*
X22020Y183231D01*
Y181460D01*
Y183231D01*
X22610Y183822D01*
X23200Y183231D01*
Y181460D01*
X24381D02*
X25562D01*
X24972D01*
Y183822D01*
X24381D01*
X27333Y181460D02*
X28514D01*
X27923D01*
Y185003D01*
X27333D01*
X30285Y181460D02*
X31466Y182641D01*
Y183822D01*
X30285Y185003D01*
X-60271Y172602D02*
X-62632D01*
X-60271Y174964D01*
Y175554D01*
X-60861Y176144D01*
X-62042D01*
X-62632Y175554D01*
X-56729Y176144D02*
X-59090D01*
Y174373D01*
X-57910Y174964D01*
X-57319D01*
X-56729Y174373D01*
Y173193D01*
X-57319Y172602D01*
X-58500D01*
X-59090Y173193D01*
X-53187Y176144D02*
X-55548D01*
Y174373D01*
X-54367Y174964D01*
X-53777D01*
X-53187Y174373D01*
Y173193D01*
X-53777Y172602D01*
X-54958D01*
X-55548Y173193D01*
X-48464Y176144D02*
X-46102D01*
X-47283D01*
Y172602D01*
X-44331D02*
X-43150D01*
X-42560Y173193D01*
Y174373D01*
X-43150Y174964D01*
X-44331D01*
X-44922Y174373D01*
Y173193D01*
X-44331Y172602D01*
X-40789Y175554D02*
Y174964D01*
X-41379D01*
X-40199D01*
X-40789D01*
Y173193D01*
X-40199Y172602D01*
X-37837Y174964D02*
X-36657D01*
X-36066Y174373D01*
Y172602D01*
X-37837D01*
X-38428Y173193D01*
X-37837Y173783D01*
X-36066D01*
X-34885Y172602D02*
X-33705D01*
X-34295D01*
Y176144D01*
X-34885D01*
X-60271Y216894D02*
X-62632D01*
X-60271Y219255D01*
Y219845D01*
X-60861Y220436D01*
X-62042D01*
X-62632Y219845D01*
X-60271Y208035D02*
X-62632D01*
X-60271Y210397D01*
Y210987D01*
X-60861Y211577D01*
X-62042D01*
X-62632Y210987D01*
Y202129D02*
X-62042Y202719D01*
X-60861D01*
X-60271Y202129D01*
Y201538D01*
X-60861Y200948D01*
X-61452D01*
X-60861D01*
X-60271Y200358D01*
Y199767D01*
X-60861Y199177D01*
X-62042D01*
X-62632Y199767D01*
Y190319D02*
X-61452D01*
X-62042D01*
Y193861D01*
X-62632Y193271D01*
X-59681D02*
X-59090Y193861D01*
X-57910D01*
X-57319Y193271D01*
Y190909D01*
X-57910Y190319D01*
X-59090D01*
X-59681Y190909D01*
Y193271D01*
X-60271Y181460D02*
X-62632D01*
X-60271Y183822D01*
Y184412D01*
X-60861Y185003D01*
X-62042D01*
X-62632Y184412D01*
X-59090D02*
X-58500Y185003D01*
X-57319D01*
X-56729Y184412D01*
Y183822D01*
X-57319Y183231D01*
X-57910D01*
X-57319D01*
X-56729Y182641D01*
Y182051D01*
X-57319Y181460D01*
X-58500D01*
X-59090Y182051D01*
X-55548Y184412D02*
X-54958Y185003D01*
X-53777D01*
X-53187Y184412D01*
Y183822D01*
X-53777Y183231D01*
X-53187Y182641D01*
Y182051D01*
X-53777Y181460D01*
X-54958D01*
X-55548Y182051D01*
Y182641D01*
X-54958Y183231D01*
X-55548Y183822D01*
Y184412D01*
X-54958Y183231D02*
X-53777D01*
X597833Y218665D02*
X600195D01*
X597833Y209806D02*
X600195D01*
X597833Y200948D02*
X600195D01*
X597833Y192090D02*
X600195D01*
X597833Y183231D02*
X600195D01*
X545395Y218665D02*
X547757D01*
X545395Y209806D02*
X547757D01*
X545395Y200948D02*
X547757D01*
X545395Y192090D02*
X547757D01*
X545395Y183231D02*
X547757D01*
X291386Y219255D02*
X289615D01*
X289025Y218665D01*
Y217484D01*
X289615Y216894D01*
X291386D01*
X292567D02*
X293748D01*
X293157D01*
Y220436D01*
X292567Y219845D01*
X295519D02*
X296109Y220436D01*
X297290D01*
X297880Y219845D01*
Y217484D01*
X297290Y216894D01*
X296109D01*
X295519Y217484D01*
Y219845D01*
X299061D02*
X299651Y220436D01*
X300832D01*
X301422Y219845D01*
Y217484D01*
X300832Y216894D01*
X299651D01*
X299061Y217484D01*
Y219845D01*
X302603Y220436D02*
Y216894D01*
Y218665D01*
X303193Y219255D01*
X304374D01*
X304964Y218665D01*
Y216894D01*
X306145Y219845D02*
X306736Y220436D01*
X307916D01*
X308507Y219845D01*
Y219255D01*
X307916Y218665D01*
X308507Y218074D01*
Y217484D01*
X307916Y216894D01*
X306736D01*
X306145Y217484D01*
Y218074D01*
X306736Y218665D01*
X306145Y219255D01*
Y219845D01*
X306736Y218665D02*
X307916D01*
X309687Y219845D02*
X310278Y220436D01*
X311458D01*
X312049Y219845D01*
Y217484D01*
X311458Y216894D01*
X310278D01*
X309687Y217484D01*
Y219845D01*
X291386Y210397D02*
X289615D01*
X289025Y209806D01*
Y208626D01*
X289615Y208035D01*
X291386D01*
X292567Y210987D02*
X293157Y211577D01*
X294338D01*
X294928Y210987D01*
Y210397D01*
X294338Y209806D01*
X293748D01*
X294338D01*
X294928Y209216D01*
Y208626D01*
X294338Y208035D01*
X293157D01*
X292567Y208626D01*
X296109Y210987D02*
X296700Y211577D01*
X297880D01*
X298471Y210987D01*
Y208626D01*
X297880Y208035D01*
X296700D01*
X296109Y208626D01*
Y210987D01*
X302013Y211577D02*
X299651D01*
Y209806D01*
X300832Y210397D01*
X301422D01*
X302013Y209806D01*
Y208626D01*
X301422Y208035D01*
X300242D01*
X299651Y208626D01*
X303193Y211577D02*
Y208035D01*
Y209806D01*
X303784Y210397D01*
X304964D01*
X305555Y209806D01*
Y208035D01*
X309097D02*
X306736D01*
X309097Y210397D01*
Y210987D01*
X308507Y211577D01*
X307326D01*
X306736Y210987D01*
X312639Y211577D02*
X310278D01*
Y209806D01*
X311458Y210397D01*
X312049D01*
X312639Y209806D01*
Y208626D01*
X312049Y208035D01*
X310868D01*
X310278Y208626D01*
X315591Y208035D02*
Y211577D01*
X313820Y209806D01*
X316181D01*
X290206Y199177D02*
X289025Y200358D01*
Y201538D01*
X290206Y202719D01*
X291977Y199177D02*
Y202719D01*
X293157Y201538D01*
X294338Y202719D01*
Y199177D01*
X295519D02*
X296700D01*
X296109D01*
Y201538D01*
X295519D01*
X298471D02*
X300832Y199177D01*
X299651Y200358D01*
X300832Y201538D01*
X298471Y199177D01*
X303784D02*
X302603D01*
X302013Y199767D01*
Y200948D01*
X302603Y201538D01*
X303784D01*
X304374Y200948D01*
Y200358D01*
X302013D01*
X307916Y202719D02*
Y199177D01*
X306145D01*
X305555Y199767D01*
Y200948D01*
X306145Y201538D01*
X307916D01*
X309097Y199177D02*
X310278Y200358D01*
Y201538D01*
X309097Y202719D01*
X290206Y190319D02*
X289025Y191499D01*
Y192680D01*
X290206Y193861D01*
X291977Y190319D02*
Y193861D01*
X293157Y192680D01*
X294338Y193861D01*
Y190319D01*
X295519D02*
X296700D01*
X296109D01*
Y192680D01*
X295519D01*
X298471D02*
X300832Y190319D01*
X299651Y191499D01*
X300832Y192680D01*
X298471Y190319D01*
X303784D02*
X302603D01*
X302013Y190909D01*
Y192090D01*
X302603Y192680D01*
X303784D01*
X304374Y192090D01*
Y191499D01*
X302013D01*
X307916Y193861D02*
Y190319D01*
X306145D01*
X305555Y190909D01*
Y192090D01*
X306145Y192680D01*
X307916D01*
X309097Y190319D02*
X310278Y191499D01*
Y192680D01*
X309097Y193861D01*
X289025Y183822D02*
X290206Y181460D01*
X291386Y183822D01*
X294928Y185003D02*
X292567D01*
Y183231D01*
X293748Y183822D01*
X294338D01*
X294928Y183231D01*
Y182051D01*
X294338Y181460D01*
X293157D01*
X292567Y182051D01*
X296109Y181460D02*
X297290D01*
X296700D01*
Y185003D01*
X296109Y184412D01*
X299061Y185003D02*
Y181460D01*
Y183231D01*
X299651Y183822D01*
X300832D01*
X301422Y183231D01*
Y181460D01*
X304964D02*
X302603D01*
X304964Y183822D01*
Y184412D01*
X304374Y185003D01*
X303193D01*
X302603Y184412D01*
X308507Y185003D02*
X306145D01*
Y183231D01*
X307326Y183822D01*
X307916D01*
X308507Y183231D01*
Y182051D01*
X307916Y181460D01*
X306736D01*
X306145Y182051D01*
X309687Y181460D02*
Y183822D01*
X310278D01*
X310868Y183231D01*
Y181460D01*
Y183231D01*
X311458Y183822D01*
X312049Y183231D01*
Y181460D01*
X313230Y184412D02*
X313820Y185003D01*
X315001D01*
X315591Y184412D01*
Y182051D01*
X315001Y181460D01*
X313820D01*
X313230Y182051D01*
Y184412D01*
X316772Y181460D02*
Y183822D01*
X317362D01*
X317952Y183231D01*
Y181460D01*
Y183231D01*
X318543Y183822D01*
X319133Y183231D01*
Y181460D01*
X320314Y183822D02*
X322675Y181460D01*
X321495Y182641D01*
X322675Y183822D01*
X320314Y181460D01*
X323856Y184412D02*
X324446Y185003D01*
X325627D01*
X326218Y184412D01*
Y182051D01*
X325627Y181460D01*
X324446D01*
X323856Y182051D01*
Y184412D01*
X243671Y216894D02*
Y220436D01*
X245442D01*
X246033Y219845D01*
Y218665D01*
X245442Y218074D01*
X243671D01*
X244852D02*
X246033Y216894D01*
X247804D02*
X248985D01*
X249575Y217484D01*
Y218665D01*
X248985Y219255D01*
X247804D01*
X247214Y218665D01*
Y217484D01*
X247804Y216894D01*
X250756Y219255D02*
Y217484D01*
X251346Y216894D01*
X253117D01*
Y219255D01*
X254298Y216894D02*
Y219255D01*
X256069D01*
X256659Y218665D01*
Y216894D01*
X260201Y220436D02*
Y216894D01*
X258430D01*
X257840Y217484D01*
Y218665D01*
X258430Y219255D01*
X260201D01*
X263153Y216894D02*
X261972D01*
X261382Y217484D01*
Y218665D01*
X261972Y219255D01*
X263153D01*
X263744Y218665D01*
Y218074D01*
X261382D01*
X267286Y220436D02*
Y216894D01*
X265515D01*
X264924Y217484D01*
Y218665D01*
X265515Y219255D01*
X267286D01*
X243671Y208035D02*
Y211577D01*
X245442D01*
X246033Y210987D01*
Y209806D01*
X245442Y209216D01*
X243671D01*
X244852D02*
X246033Y208035D01*
X247804D02*
X248985D01*
X249575Y208626D01*
Y209806D01*
X248985Y210397D01*
X247804D01*
X247214Y209806D01*
Y208626D01*
X247804Y208035D01*
X250756Y210397D02*
Y208626D01*
X251346Y208035D01*
X253117D01*
Y210397D01*
X254298Y208035D02*
Y210397D01*
X256069D01*
X256659Y209806D01*
Y208035D01*
X260201Y211577D02*
Y208035D01*
X258430D01*
X257840Y208626D01*
Y209806D01*
X258430Y210397D01*
X260201D01*
X263153Y208035D02*
X261972D01*
X261382Y208626D01*
Y209806D01*
X261972Y210397D01*
X263153D01*
X263744Y209806D01*
Y209216D01*
X261382D01*
X267286Y211577D02*
Y208035D01*
X265515D01*
X264924Y208626D01*
Y209806D01*
X265515Y210397D01*
X267286D01*
X243671Y199177D02*
Y202719D01*
X245442D01*
X246033Y202129D01*
Y200948D01*
X245442Y200358D01*
X243671D01*
X244852D02*
X246033Y199177D01*
X247804D02*
X248985D01*
X249575Y199767D01*
Y200948D01*
X248985Y201538D01*
X247804D01*
X247214Y200948D01*
Y199767D01*
X247804Y199177D01*
X250756Y201538D02*
Y199767D01*
X251346Y199177D01*
X253117D01*
Y201538D01*
X254298Y199177D02*
Y201538D01*
X256069D01*
X256659Y200948D01*
Y199177D01*
X260201Y202719D02*
Y199177D01*
X258430D01*
X257840Y199767D01*
Y200948D01*
X258430Y201538D01*
X260201D01*
X263153Y199177D02*
X261972D01*
X261382Y199767D01*
Y200948D01*
X261972Y201538D01*
X263153D01*
X263744Y200948D01*
Y200358D01*
X261382D01*
X267286Y202719D02*
Y199177D01*
X265515D01*
X264924Y199767D01*
Y200948D01*
X265515Y201538D01*
X267286D01*
X244852Y190319D02*
X243671Y191499D01*
Y192680D01*
X244852Y193861D01*
X246623Y190319D02*
Y193861D01*
X247804Y192680D01*
X248985Y193861D01*
Y190319D01*
X250165D02*
X251346D01*
X250756D01*
Y192680D01*
X250165D01*
X253117D02*
X255479Y190319D01*
X254298Y191499D01*
X255479Y192680D01*
X253117Y190319D01*
X258430D02*
X257250D01*
X256659Y190909D01*
Y192090D01*
X257250Y192680D01*
X258430D01*
X259021Y192090D01*
Y191499D01*
X256659D01*
X262563Y193861D02*
Y190319D01*
X260792D01*
X260201Y190909D01*
Y192090D01*
X260792Y192680D01*
X262563D01*
X263744Y190319D02*
X264924Y191499D01*
Y192680D01*
X263744Y193861D01*
X243671Y181460D02*
Y185003D01*
X245442D01*
X246033Y184412D01*
Y183231D01*
X245442Y182641D01*
X243671D01*
X244852D02*
X246033Y181460D01*
X247804D02*
X248985D01*
X249575Y182051D01*
Y183231D01*
X248985Y183822D01*
X247804D01*
X247214Y183231D01*
Y182051D01*
X247804Y181460D01*
X250756Y183822D02*
Y182051D01*
X251346Y181460D01*
X253117D01*
Y183822D01*
X254298Y181460D02*
Y183822D01*
X256069D01*
X256659Y183231D01*
Y181460D01*
X260201Y185003D02*
Y181460D01*
X258430D01*
X257840Y182051D01*
Y183231D01*
X258430Y183822D01*
X260201D01*
X263153Y181460D02*
X261972D01*
X261382Y182051D01*
Y183231D01*
X261972Y183822D01*
X263153D01*
X263744Y183231D01*
Y182641D01*
X261382D01*
X267286Y185003D02*
Y181460D01*
X265515D01*
X264924Y182051D01*
Y183231D01*
X265515Y183822D01*
X267286D01*
X207527Y216894D02*
Y220436D01*
X209298D01*
X209889Y219845D01*
Y218665D01*
X209298Y218074D01*
X207527D01*
X211660Y219255D02*
X212841D01*
X213431Y218665D01*
Y216894D01*
X211660D01*
X211070Y217484D01*
X211660Y218074D01*
X213431D01*
X216973Y220436D02*
Y216894D01*
X215202D01*
X214612Y217484D01*
Y218665D01*
X215202Y219255D01*
X216973D01*
X207527Y208035D02*
Y211577D01*
X209298D01*
X209889Y210987D01*
Y209806D01*
X209298Y209216D01*
X207527D01*
X211660Y210397D02*
X212841D01*
X213431Y209806D01*
Y208035D01*
X211660D01*
X211070Y208626D01*
X211660Y209216D01*
X213431D01*
X216973Y211577D02*
Y208035D01*
X215202D01*
X214612Y208626D01*
Y209806D01*
X215202Y210397D01*
X216973D01*
X207527Y202719D02*
Y200358D01*
X208708Y199177D01*
X209889Y200358D01*
Y202719D01*
X211070Y199177D02*
X212250D01*
X211660D01*
Y201538D01*
X211070D01*
X214612D02*
X215792D01*
X216383Y200948D01*
Y199177D01*
X214612D01*
X214021Y199767D01*
X214612Y200358D01*
X216383D01*
X207527Y190319D02*
Y193861D01*
X209298D01*
X209889Y193271D01*
Y192090D01*
X209298Y191499D01*
X207527D01*
X211660Y192680D02*
X212841D01*
X213431Y192090D01*
Y190319D01*
X211660D01*
X211070Y190909D01*
X211660Y191499D01*
X213431D01*
X216973Y193861D02*
Y190319D01*
X215202D01*
X214612Y190909D01*
Y192090D01*
X215202Y192680D01*
X216973D01*
X207527Y185003D02*
Y182641D01*
X208708Y181460D01*
X209889Y182641D01*
Y185003D01*
X211070Y181460D02*
X212250D01*
X211660D01*
Y183822D01*
X211070D01*
X214612D02*
X215792D01*
X216383Y183231D01*
Y181460D01*
X214612D01*
X214021Y182051D01*
X214612Y182641D01*
X216383D01*
X118152Y220436D02*
X120514D01*
X119333D01*
Y216894D01*
X122285D02*
X123466D01*
X124056Y217484D01*
Y218665D01*
X123466Y219255D01*
X122285D01*
X121695Y218665D01*
Y217484D01*
X122285Y216894D01*
X125237Y215713D02*
Y219255D01*
X127008D01*
X127598Y218665D01*
Y217484D01*
X127008Y216894D01*
X125237D01*
X132321Y220436D02*
Y216894D01*
X134683D01*
X136454Y219255D02*
X137634D01*
X138225Y218665D01*
Y216894D01*
X136454D01*
X135863Y217484D01*
X136454Y218074D01*
X138225D01*
X139405Y219255D02*
Y217484D01*
X139996Y216894D01*
X141767D01*
Y216303D01*
X141176Y215713D01*
X140586D01*
X141767Y216894D02*
Y219255D01*
X144719Y216894D02*
X143538D01*
X142948Y217484D01*
Y218665D01*
X143538Y219255D01*
X144719D01*
X145309Y218665D01*
Y218074D01*
X142948D01*
X146490Y219255D02*
Y216894D01*
Y218074D01*
X147080Y218665D01*
X147670Y219255D01*
X148261D01*
X153574Y218665D02*
X155936D01*
X160658Y220436D02*
Y216894D01*
X162429D01*
X163020Y217484D01*
Y218074D01*
X162429Y218665D01*
X160658D01*
X162429D01*
X163020Y219255D01*
Y219845D01*
X162429Y220436D01*
X160658D01*
X164791Y216894D02*
X165972D01*
X166562Y217484D01*
Y218665D01*
X165972Y219255D01*
X164791D01*
X164200Y218665D01*
Y217484D01*
X164791Y216894D01*
X168333Y219845D02*
Y219255D01*
X167743D01*
X168923D01*
X168333D01*
Y217484D01*
X168923Y216894D01*
X171285Y219845D02*
Y219255D01*
X170694D01*
X171875D01*
X171285D01*
Y217484D01*
X171875Y216894D01*
X174237D02*
X175417D01*
X176008Y217484D01*
Y218665D01*
X175417Y219255D01*
X174237D01*
X173646Y218665D01*
Y217484D01*
X174237Y216894D01*
X177189D02*
Y219255D01*
X177779D01*
X178369Y218665D01*
Y216894D01*
Y218665D01*
X178960Y219255D01*
X179550Y218665D01*
Y216894D01*
X184273Y220436D02*
Y216894D01*
X186634D01*
X188405Y219255D02*
X189586D01*
X190176Y218665D01*
Y216894D01*
X188405D01*
X187815Y217484D01*
X188405Y218074D01*
X190176D01*
X191357Y219255D02*
Y217484D01*
X191947Y216894D01*
X193719D01*
Y216303D01*
X193128Y215713D01*
X192538D01*
X193719Y216894D02*
Y219255D01*
X196670Y216894D02*
X195490D01*
X194899Y217484D01*
Y218665D01*
X195490Y219255D01*
X196670D01*
X197261Y218665D01*
Y218074D01*
X194899D01*
X198441Y219255D02*
Y216894D01*
Y218074D01*
X199032Y218665D01*
X199622Y219255D01*
X200213D01*
X118152Y211577D02*
X120514D01*
X119333D01*
Y208035D01*
X122285D02*
X123466D01*
X124056Y208626D01*
Y209806D01*
X123466Y210397D01*
X122285D01*
X121695Y209806D01*
Y208626D01*
X122285Y208035D01*
X125237Y206855D02*
Y210397D01*
X127008D01*
X127598Y209806D01*
Y208626D01*
X127008Y208035D01*
X125237D01*
X132321Y211577D02*
Y208035D01*
X134683D01*
X136454Y210397D02*
X137634D01*
X138225Y209806D01*
Y208035D01*
X136454D01*
X135863Y208626D01*
X136454Y209216D01*
X138225D01*
X139405Y210397D02*
Y208626D01*
X139996Y208035D01*
X141767D01*
Y207445D01*
X141176Y206855D01*
X140586D01*
X141767Y208035D02*
Y210397D01*
X144719Y208035D02*
X143538D01*
X142948Y208626D01*
Y209806D01*
X143538Y210397D01*
X144719D01*
X145309Y209806D01*
Y209216D01*
X142948D01*
X146490Y210397D02*
Y208035D01*
Y209216D01*
X147080Y209806D01*
X147670Y210397D01*
X148261D01*
X153574Y209806D02*
X155936D01*
X160658Y211577D02*
Y208035D01*
X162429D01*
X163020Y208626D01*
Y209216D01*
X162429Y209806D01*
X160658D01*
X162429D01*
X163020Y210397D01*
Y210987D01*
X162429Y211577D01*
X160658D01*
X164791Y208035D02*
X165972D01*
X166562Y208626D01*
Y209806D01*
X165972Y210397D01*
X164791D01*
X164200Y209806D01*
Y208626D01*
X164791Y208035D01*
X168333Y210987D02*
Y210397D01*
X167743D01*
X168923D01*
X168333D01*
Y208626D01*
X168923Y208035D01*
X171285Y210987D02*
Y210397D01*
X170694D01*
X171875D01*
X171285D01*
Y208626D01*
X171875Y208035D01*
X174237D02*
X175417D01*
X176008Y208626D01*
Y209806D01*
X175417Y210397D01*
X174237D01*
X173646Y209806D01*
Y208626D01*
X174237Y208035D01*
X177189D02*
Y210397D01*
X177779D01*
X178369Y209806D01*
Y208035D01*
Y209806D01*
X178960Y210397D01*
X179550Y209806D01*
Y208035D01*
X184273Y211577D02*
Y208035D01*
X186634D01*
X188405Y210397D02*
X189586D01*
X190176Y209806D01*
Y208035D01*
X188405D01*
X187815Y208626D01*
X188405Y209216D01*
X190176D01*
X191357Y210397D02*
Y208626D01*
X191947Y208035D01*
X193719D01*
Y207445D01*
X193128Y206855D01*
X192538D01*
X193719Y208035D02*
Y210397D01*
X196670Y208035D02*
X195490D01*
X194899Y208626D01*
Y209806D01*
X195490Y210397D01*
X196670D01*
X197261Y209806D01*
Y209216D01*
X194899D01*
X198441Y210397D02*
Y208035D01*
Y209216D01*
X199032Y209806D01*
X199622Y210397D01*
X200213D01*
X118152Y202719D02*
X120514D01*
X119333D01*
Y199177D01*
X122285D02*
X123466D01*
X124056Y199767D01*
Y200948D01*
X123466Y201538D01*
X122285D01*
X121695Y200948D01*
Y199767D01*
X122285Y199177D01*
X125237Y197996D02*
Y201538D01*
X127008D01*
X127598Y200948D01*
Y199767D01*
X127008Y199177D01*
X125237D01*
X132321Y202719D02*
Y199177D01*
X134683D01*
X136454Y201538D02*
X137634D01*
X138225Y200948D01*
Y199177D01*
X136454D01*
X135863Y199767D01*
X136454Y200358D01*
X138225D01*
X139405Y201538D02*
Y199767D01*
X139996Y199177D01*
X141767D01*
Y198587D01*
X141176Y197996D01*
X140586D01*
X141767Y199177D02*
Y201538D01*
X144719Y199177D02*
X143538D01*
X142948Y199767D01*
Y200948D01*
X143538Y201538D01*
X144719D01*
X145309Y200948D01*
Y200358D01*
X142948D01*
X146490Y201538D02*
Y199177D01*
Y200358D01*
X147080Y200948D01*
X147670Y201538D01*
X148261D01*
X153574Y200948D02*
X155936D01*
X160658Y202719D02*
Y199177D01*
X162429D01*
X163020Y199767D01*
Y200358D01*
X162429Y200948D01*
X160658D01*
X162429D01*
X163020Y201538D01*
Y202129D01*
X162429Y202719D01*
X160658D01*
X164791Y199177D02*
X165972D01*
X166562Y199767D01*
Y200948D01*
X165972Y201538D01*
X164791D01*
X164200Y200948D01*
Y199767D01*
X164791Y199177D01*
X168333Y202129D02*
Y201538D01*
X167743D01*
X168923D01*
X168333D01*
Y199767D01*
X168923Y199177D01*
X171285Y202129D02*
Y201538D01*
X170694D01*
X171875D01*
X171285D01*
Y199767D01*
X171875Y199177D01*
X174237D02*
X175417D01*
X176008Y199767D01*
Y200948D01*
X175417Y201538D01*
X174237D01*
X173646Y200948D01*
Y199767D01*
X174237Y199177D01*
X177189D02*
Y201538D01*
X177779D01*
X178369Y200948D01*
Y199177D01*
Y200948D01*
X178960Y201538D01*
X179550Y200948D01*
Y199177D01*
X184273Y202719D02*
Y199177D01*
X186634D01*
X188405Y201538D02*
X189586D01*
X190176Y200948D01*
Y199177D01*
X188405D01*
X187815Y199767D01*
X188405Y200358D01*
X190176D01*
X191357Y201538D02*
Y199767D01*
X191947Y199177D01*
X193719D01*
Y198587D01*
X193128Y197996D01*
X192538D01*
X193719Y199177D02*
Y201538D01*
X196670Y199177D02*
X195490D01*
X194899Y199767D01*
Y200948D01*
X195490Y201538D01*
X196670D01*
X197261Y200948D01*
Y200358D01*
X194899D01*
X198441Y201538D02*
Y199177D01*
Y200358D01*
X199032Y200948D01*
X199622Y201538D01*
X200213D01*
X118152Y193861D02*
X120514D01*
X119333D01*
Y190319D01*
X122285D02*
X123466D01*
X124056Y190909D01*
Y192090D01*
X123466Y192680D01*
X122285D01*
X121695Y192090D01*
Y190909D01*
X122285Y190319D01*
X125237Y189138D02*
Y192680D01*
X127008D01*
X127598Y192090D01*
Y190909D01*
X127008Y190319D01*
X125237D01*
X132321Y193861D02*
Y190319D01*
X134683D01*
X136454Y192680D02*
X137634D01*
X138225Y192090D01*
Y190319D01*
X136454D01*
X135863Y190909D01*
X136454Y191499D01*
X138225D01*
X139405Y192680D02*
Y190909D01*
X139996Y190319D01*
X141767D01*
Y189728D01*
X141176Y189138D01*
X140586D01*
X141767Y190319D02*
Y192680D01*
X144719Y190319D02*
X143538D01*
X142948Y190909D01*
Y192090D01*
X143538Y192680D01*
X144719D01*
X145309Y192090D01*
Y191499D01*
X142948D01*
X146490Y192680D02*
Y190319D01*
Y191499D01*
X147080Y192090D01*
X147670Y192680D01*
X148261D01*
X153574Y192090D02*
X155936D01*
X160658Y193861D02*
Y190319D01*
X162429D01*
X163020Y190909D01*
Y191499D01*
X162429Y192090D01*
X160658D01*
X162429D01*
X163020Y192680D01*
Y193271D01*
X162429Y193861D01*
X160658D01*
X164791Y190319D02*
X165972D01*
X166562Y190909D01*
Y192090D01*
X165972Y192680D01*
X164791D01*
X164200Y192090D01*
Y190909D01*
X164791Y190319D01*
X168333Y193271D02*
Y192680D01*
X167743D01*
X168923D01*
X168333D01*
Y190909D01*
X168923Y190319D01*
X171285Y193271D02*
Y192680D01*
X170694D01*
X171875D01*
X171285D01*
Y190909D01*
X171875Y190319D01*
X174237D02*
X175417D01*
X176008Y190909D01*
Y192090D01*
X175417Y192680D01*
X174237D01*
X173646Y192090D01*
Y190909D01*
X174237Y190319D01*
X177189D02*
Y192680D01*
X177779D01*
X178369Y192090D01*
Y190319D01*
Y192090D01*
X178960Y192680D01*
X179550Y192090D01*
Y190319D01*
X184273Y193861D02*
Y190319D01*
X186634D01*
X188405Y192680D02*
X189586D01*
X190176Y192090D01*
Y190319D01*
X188405D01*
X187815Y190909D01*
X188405Y191499D01*
X190176D01*
X191357Y192680D02*
Y190909D01*
X191947Y190319D01*
X193719D01*
Y189728D01*
X193128Y189138D01*
X192538D01*
X193719Y190319D02*
Y192680D01*
X196670Y190319D02*
X195490D01*
X194899Y190909D01*
Y192090D01*
X195490Y192680D01*
X196670D01*
X197261Y192090D01*
Y191499D01*
X194899D01*
X198441Y192680D02*
Y190319D01*
Y191499D01*
X199032Y192090D01*
X199622Y192680D01*
X200213D01*
X118152Y185003D02*
X120514D01*
X119333D01*
Y181460D01*
X122285D02*
X123466D01*
X124056Y182051D01*
Y183231D01*
X123466Y183822D01*
X122285D01*
X121695Y183231D01*
Y182051D01*
X122285Y181460D01*
X125237Y180280D02*
Y183822D01*
X127008D01*
X127598Y183231D01*
Y182051D01*
X127008Y181460D01*
X125237D01*
X132321Y185003D02*
Y181460D01*
X134683D01*
X136454Y183822D02*
X137634D01*
X138225Y183231D01*
Y181460D01*
X136454D01*
X135863Y182051D01*
X136454Y182641D01*
X138225D01*
X139405Y183822D02*
Y182051D01*
X139996Y181460D01*
X141767D01*
Y180870D01*
X141176Y180280D01*
X140586D01*
X141767Y181460D02*
Y183822D01*
X144719Y181460D02*
X143538D01*
X142948Y182051D01*
Y183231D01*
X143538Y183822D01*
X144719D01*
X145309Y183231D01*
Y182641D01*
X142948D01*
X146490Y183822D02*
Y181460D01*
Y182641D01*
X147080Y183231D01*
X147670Y183822D01*
X148261D01*
X153574Y183231D02*
X155936D01*
X160658Y185003D02*
Y181460D01*
X162429D01*
X163020Y182051D01*
Y182641D01*
X162429Y183231D01*
X160658D01*
X162429D01*
X163020Y183822D01*
Y184412D01*
X162429Y185003D01*
X160658D01*
X164791Y181460D02*
X165972D01*
X166562Y182051D01*
Y183231D01*
X165972Y183822D01*
X164791D01*
X164200Y183231D01*
Y182051D01*
X164791Y181460D01*
X168333Y184412D02*
Y183822D01*
X167743D01*
X168923D01*
X168333D01*
Y182051D01*
X168923Y181460D01*
X171285Y184412D02*
Y183822D01*
X170694D01*
X171875D01*
X171285D01*
Y182051D01*
X171875Y181460D01*
X174237D02*
X175417D01*
X176008Y182051D01*
Y183231D01*
X175417Y183822D01*
X174237D01*
X173646Y183231D01*
Y182051D01*
X174237Y181460D01*
X177189D02*
Y183822D01*
X177779D01*
X178369Y183231D01*
Y181460D01*
Y183231D01*
X178960Y183822D01*
X179550Y183231D01*
Y181460D01*
X184273Y185003D02*
Y181460D01*
X186634D01*
X188405Y183822D02*
X189586D01*
X190176Y183231D01*
Y181460D01*
X188405D01*
X187815Y182051D01*
X188405Y182641D01*
X190176D01*
X191357Y183822D02*
Y182051D01*
X191947Y181460D01*
X193719D01*
Y180870D01*
X193128Y180280D01*
X192538D01*
X193719Y181460D02*
Y183822D01*
X196670Y181460D02*
X195490D01*
X194899Y182051D01*
Y183231D01*
X195490Y183822D01*
X196670D01*
X197261Y183231D01*
Y182641D01*
X194899D01*
X198441Y183822D02*
Y181460D01*
Y182641D01*
X199032Y183231D01*
X199622Y183822D01*
X200213D01*
X73507Y216894D02*
Y220436D01*
X75279D01*
X75869Y219845D01*
Y218665D01*
X75279Y218074D01*
X73507D01*
X74688D02*
X75869Y216894D01*
X77640D02*
X78821D01*
X79411Y217484D01*
Y218665D01*
X78821Y219255D01*
X77640D01*
X77050Y218665D01*
Y217484D01*
X77640Y216894D01*
X80592Y219255D02*
Y217484D01*
X81182Y216894D01*
X82953D01*
Y219255D01*
X84134Y216894D02*
Y219255D01*
X85905D01*
X86495Y218665D01*
Y216894D01*
X90038Y220436D02*
Y216894D01*
X88266D01*
X87676Y217484D01*
Y218665D01*
X88266Y219255D01*
X90038D01*
X73507Y208035D02*
Y211577D01*
X75279D01*
X75869Y210987D01*
Y209806D01*
X75279Y209216D01*
X73507D01*
X74688D02*
X75869Y208035D01*
X77640D02*
X78821D01*
X79411Y208626D01*
Y209806D01*
X78821Y210397D01*
X77640D01*
X77050Y209806D01*
Y208626D01*
X77640Y208035D01*
X80592Y210397D02*
Y208626D01*
X81182Y208035D01*
X82953D01*
Y210397D01*
X84134Y208035D02*
Y210397D01*
X85905D01*
X86495Y209806D01*
Y208035D01*
X90038Y211577D02*
Y208035D01*
X88266D01*
X87676Y208626D01*
Y209806D01*
X88266Y210397D01*
X90038D01*
X73507Y199177D02*
Y202719D01*
X75279D01*
X75869Y202129D01*
Y200948D01*
X75279Y200358D01*
X73507D01*
X74688D02*
X75869Y199177D01*
X77640D02*
X78821D01*
X79411Y199767D01*
Y200948D01*
X78821Y201538D01*
X77640D01*
X77050Y200948D01*
Y199767D01*
X77640Y199177D01*
X80592Y201538D02*
Y199767D01*
X81182Y199177D01*
X82953D01*
Y201538D01*
X84134Y199177D02*
Y201538D01*
X85905D01*
X86495Y200948D01*
Y199177D01*
X90038Y202719D02*
Y199177D01*
X88266D01*
X87676Y199767D01*
Y200948D01*
X88266Y201538D01*
X90038D01*
X73507Y190319D02*
Y193861D01*
X75279D01*
X75869Y193271D01*
Y192090D01*
X75279Y191499D01*
X73507D01*
X74688D02*
X75869Y190319D01*
X77640D02*
X78821D01*
X79411Y190909D01*
Y192090D01*
X78821Y192680D01*
X77640D01*
X77050Y192090D01*
Y190909D01*
X77640Y190319D01*
X80592Y192680D02*
Y190909D01*
X81182Y190319D01*
X82953D01*
Y192680D01*
X84134Y190319D02*
Y192680D01*
X85905D01*
X86495Y192090D01*
Y190319D01*
X90038Y193861D02*
Y190319D01*
X88266D01*
X87676Y190909D01*
Y192090D01*
X88266Y192680D01*
X90038D01*
X73507Y181460D02*
Y185003D01*
X75279D01*
X75869Y184412D01*
Y183231D01*
X75279Y182641D01*
X73507D01*
X74688D02*
X75869Y181460D01*
X77640D02*
X78821D01*
X79411Y182051D01*
Y183231D01*
X78821Y183822D01*
X77640D01*
X77050Y183231D01*
Y182051D01*
X77640Y181460D01*
X80592Y183822D02*
Y182051D01*
X81182Y181460D01*
X82953D01*
Y183822D01*
X84134Y181460D02*
Y183822D01*
X85905D01*
X86495Y183231D01*
Y181460D01*
X90038Y185003D02*
Y181460D01*
X88266D01*
X87676Y182051D01*
Y183231D01*
X88266Y183822D01*
X90038D01*
X42323Y216894D02*
Y220436D01*
X44094D01*
X44684Y219845D01*
Y218665D01*
X44094Y218074D01*
X42323D01*
X45865Y220436D02*
X48226D01*
X47045D01*
Y216894D01*
X49407Y220436D02*
Y216894D01*
Y218665D01*
X51768D01*
Y220436D01*
Y216894D01*
X42323Y208035D02*
Y211577D01*
X44094D01*
X44684Y210987D01*
Y209806D01*
X44094Y209216D01*
X42323D01*
X45865Y211577D02*
X48226D01*
X47045D01*
Y208035D01*
X49407Y211577D02*
Y208035D01*
Y209806D01*
X51768D01*
Y211577D01*
Y208035D01*
X42323Y199177D02*
Y202719D01*
X44094D01*
X44684Y202129D01*
Y200948D01*
X44094Y200358D01*
X42323D01*
X45865Y202719D02*
X48226D01*
X47045D01*
Y199177D01*
X49407Y202719D02*
Y199177D01*
Y200948D01*
X51768D01*
Y202719D01*
Y199177D01*
X42323Y190319D02*
Y193861D01*
X44094D01*
X44684Y193271D01*
Y192090D01*
X44094Y191499D01*
X42323D01*
X45865Y193861D02*
X48226D01*
X47045D01*
Y190319D01*
X49407Y193861D02*
Y190319D01*
Y192090D01*
X51768D01*
Y193861D01*
Y190319D01*
X42323Y181460D02*
Y185003D01*
X44094D01*
X44684Y184412D01*
Y183231D01*
X44094Y182641D01*
X42323D01*
X45865Y185003D02*
X48226D01*
X47045D01*
Y181460D01*
X49407Y185003D02*
Y181460D01*
Y183231D01*
X51768D01*
Y185003D01*
Y181460D01*
X-26390Y219845D02*
X-25799Y220436D01*
X-24619D01*
X-24028Y219845D01*
Y217484D01*
X-24619Y216894D01*
X-25799D01*
X-26390Y217484D01*
Y219845D01*
X-22848Y216894D02*
Y217484D01*
X-22257D01*
Y216894D01*
X-22848D01*
X-19896Y219845D02*
X-19306Y220436D01*
X-18125D01*
X-17534Y219845D01*
Y219255D01*
X-18125Y218665D01*
X-17534Y218074D01*
Y217484D01*
X-18125Y216894D01*
X-19306D01*
X-19896Y217484D01*
Y218074D01*
X-19306Y218665D01*
X-19896Y219255D01*
Y219845D01*
X-19306Y218665D02*
X-18125D01*
X-16354Y219845D02*
X-15763Y220436D01*
X-14583D01*
X-13992Y219845D01*
Y217484D01*
X-14583Y216894D01*
X-15763D01*
X-16354Y217484D01*
Y219845D01*
X-12811D02*
X-12221Y220436D01*
X-11040D01*
X-10450Y219845D01*
Y217484D01*
X-11040Y216894D01*
X-12221D01*
X-12811Y217484D01*
Y219845D01*
X-9269Y216894D02*
Y219255D01*
X-8679D01*
X-8089Y218665D01*
Y216894D01*
Y218665D01*
X-7498Y219255D01*
X-6908Y218665D01*
Y216894D01*
X-5727D02*
Y219255D01*
X-5137D01*
X-4546Y218665D01*
Y216894D01*
Y218665D01*
X-3956Y219255D01*
X-3366Y218665D01*
Y216894D01*
X2538D02*
X1357Y218074D01*
Y219255D01*
X2538Y220436D01*
X4309Y219845D02*
X4899Y220436D01*
X6080D01*
X6670Y219845D01*
Y219255D01*
X6080Y218665D01*
X5490D01*
X6080D01*
X6670Y218074D01*
Y217484D01*
X6080Y216894D01*
X4899D01*
X4309Y217484D01*
X7851Y216894D02*
X9032D01*
X8441D01*
Y220436D01*
X7851Y219845D01*
X10803Y216894D02*
Y217484D01*
X11393D01*
Y216894D01*
X10803D01*
X16116Y220436D02*
X13755D01*
Y218665D01*
X14935Y219255D01*
X15526D01*
X16116Y218665D01*
Y217484D01*
X15526Y216894D01*
X14345D01*
X13755Y217484D01*
X17297Y219845D02*
X17887Y220436D01*
X19068D01*
X19658Y219845D01*
Y217484D01*
X19068Y216894D01*
X17887D01*
X17297Y217484D01*
Y219845D01*
X20839Y216894D02*
Y219255D01*
X21429D01*
X22020Y218665D01*
Y216894D01*
Y218665D01*
X22610Y219255D01*
X23200Y218665D01*
Y216894D01*
X24381D02*
X25562D01*
X24972D01*
Y219255D01*
X24381D01*
X27333Y216894D02*
X28514D01*
X27923D01*
Y220436D01*
X27333D01*
X30285Y216894D02*
X31466Y218074D01*
Y219255D01*
X30285Y220436D01*
X-24028Y208035D02*
X-26390D01*
X-24028Y210397D01*
Y210987D01*
X-24619Y211577D01*
X-25799D01*
X-26390Y210987D01*
X-22848Y208035D02*
Y208626D01*
X-22257D01*
Y208035D01*
X-22848D01*
X-17534Y211577D02*
X-19896D01*
Y209806D01*
X-18715Y210397D01*
X-18125D01*
X-17534Y209806D01*
Y208626D01*
X-18125Y208035D01*
X-19306D01*
X-19896Y208626D01*
X-14583Y208035D02*
Y211577D01*
X-16354Y209806D01*
X-13992D01*
X-12811Y210987D02*
X-12221Y211577D01*
X-11040D01*
X-10450Y210987D01*
Y208626D01*
X-11040Y208035D01*
X-12221D01*
X-12811Y208626D01*
Y210987D01*
X-9269Y208035D02*
Y210397D01*
X-8679D01*
X-8089Y209806D01*
Y208035D01*
Y209806D01*
X-7498Y210397D01*
X-6908Y209806D01*
Y208035D01*
X-5727D02*
Y210397D01*
X-5137D01*
X-4546Y209806D01*
Y208035D01*
Y209806D01*
X-3956Y210397D01*
X-3366Y209806D01*
Y208035D01*
X2538D02*
X1357Y209216D01*
Y210397D01*
X2538Y211577D01*
X4309Y208035D02*
X5490D01*
X4899D01*
Y211577D01*
X4309Y210987D01*
X7261D02*
X7851Y211577D01*
X9032D01*
X9622Y210987D01*
Y208626D01*
X9032Y208035D01*
X7851D01*
X7261Y208626D01*
Y210987D01*
X10803D02*
X11393Y211577D01*
X12574D01*
X13164Y210987D01*
Y208626D01*
X12574Y208035D01*
X11393D01*
X10803Y208626D01*
Y210987D01*
X14345Y208035D02*
Y208626D01*
X14935D01*
Y208035D01*
X14345D01*
X17297Y210987D02*
X17887Y211577D01*
X19068D01*
X19658Y210987D01*
Y208626D01*
X19068Y208035D01*
X17887D01*
X17297Y208626D01*
Y210987D01*
X20839D02*
X21429Y211577D01*
X22610D01*
X23200Y210987D01*
Y208626D01*
X22610Y208035D01*
X21429D01*
X20839Y208626D01*
Y210987D01*
X24381Y208035D02*
Y210397D01*
X24972D01*
X25562Y209806D01*
Y208035D01*
Y209806D01*
X26152Y210397D01*
X26743Y209806D01*
Y208035D01*
X27923D02*
X29104D01*
X28514D01*
Y210397D01*
X27923D01*
X30875Y208035D02*
X32056D01*
X31466D01*
Y211577D01*
X30875D01*
X33827Y208035D02*
X35008Y209216D01*
Y210397D01*
X33827Y211577D01*
X-26390Y202129D02*
X-25799Y202719D01*
X-24619D01*
X-24028Y202129D01*
Y199767D01*
X-24619Y199177D01*
X-25799D01*
X-26390Y199767D01*
Y202129D01*
X-22848Y199177D02*
Y199767D01*
X-22257D01*
Y199177D01*
X-22848D01*
X-17534D02*
X-19896D01*
X-17534Y201538D01*
Y202129D01*
X-18125Y202719D01*
X-19306D01*
X-19896Y202129D01*
X-13992Y202719D02*
X-16354D01*
Y200948D01*
X-15173Y201538D01*
X-14583D01*
X-13992Y200948D01*
Y199767D01*
X-14583Y199177D01*
X-15763D01*
X-16354Y199767D01*
X-12811Y202129D02*
X-12221Y202719D01*
X-11040D01*
X-10450Y202129D01*
Y199767D01*
X-11040Y199177D01*
X-12221D01*
X-12811Y199767D01*
Y202129D01*
X-9269Y199177D02*
Y201538D01*
X-8679D01*
X-8089Y200948D01*
Y199177D01*
Y200948D01*
X-7498Y201538D01*
X-6908Y200948D01*
Y199177D01*
X-5727D02*
Y201538D01*
X-5137D01*
X-4546Y200948D01*
Y199177D01*
Y200948D01*
X-3956Y201538D01*
X-3366Y200948D01*
Y199177D01*
X2538D02*
X1357Y200358D01*
Y201538D01*
X2538Y202719D01*
X4309Y199767D02*
X4899Y199177D01*
X6080D01*
X6670Y199767D01*
Y202129D01*
X6080Y202719D01*
X4899D01*
X4309Y202129D01*
Y201538D01*
X4899Y200948D01*
X6670D01*
X7851Y199177D02*
Y199767D01*
X8441D01*
Y199177D01*
X7851D01*
X10803Y202129D02*
X11393Y202719D01*
X12574D01*
X13164Y202129D01*
Y201538D01*
X12574Y200948D01*
X13164Y200358D01*
Y199767D01*
X12574Y199177D01*
X11393D01*
X10803Y199767D01*
Y200358D01*
X11393Y200948D01*
X10803Y201538D01*
Y202129D01*
X11393Y200948D02*
X12574D01*
X16116Y199177D02*
Y202719D01*
X14345Y200948D01*
X16706D01*
X17887Y199177D02*
Y201538D01*
X18478D01*
X19068Y200948D01*
Y199177D01*
Y200948D01*
X19658Y201538D01*
X20249Y200948D01*
Y199177D01*
X21429D02*
X22610D01*
X22020D01*
Y201538D01*
X21429D01*
X24381Y199177D02*
X25562D01*
X24972D01*
Y202719D01*
X24381D01*
X27333Y199177D02*
X28514Y200358D01*
Y201538D01*
X27333Y202719D01*
X-26390Y190319D02*
X-25209D01*
X-25799D01*
Y193861D01*
X-26390Y193271D01*
X-23438Y190319D02*
Y190909D01*
X-22848D01*
Y190319D01*
X-23438D01*
X-20486Y193271D02*
X-19896Y193861D01*
X-18715D01*
X-18125Y193271D01*
Y190909D01*
X-18715Y190319D01*
X-19896D01*
X-20486Y190909D01*
Y193271D01*
X-16944D02*
X-16354Y193861D01*
X-15173D01*
X-14583Y193271D01*
Y190909D01*
X-15173Y190319D01*
X-16354D01*
X-16944Y190909D01*
Y193271D01*
X-13402D02*
X-12811Y193861D01*
X-11631D01*
X-11040Y193271D01*
Y190909D01*
X-11631Y190319D01*
X-12811D01*
X-13402Y190909D01*
Y193271D01*
X-9860Y190319D02*
Y192680D01*
X-9269D01*
X-8679Y192090D01*
Y190319D01*
Y192090D01*
X-8089Y192680D01*
X-7498Y192090D01*
Y190319D01*
X-6318D02*
Y192680D01*
X-5727D01*
X-5137Y192090D01*
Y190319D01*
Y192090D01*
X-4546Y192680D01*
X-3956Y192090D01*
Y190319D01*
X1947D02*
X767Y191499D01*
Y192680D01*
X1947Y193861D01*
X3719Y193271D02*
X4309Y193861D01*
X5490D01*
X6080Y193271D01*
Y192680D01*
X5490Y192090D01*
X4899D01*
X5490D01*
X6080Y191499D01*
Y190909D01*
X5490Y190319D01*
X4309D01*
X3719Y190909D01*
X7261D02*
X7851Y190319D01*
X9032D01*
X9622Y190909D01*
Y193271D01*
X9032Y193861D01*
X7851D01*
X7261Y193271D01*
Y192680D01*
X7851Y192090D01*
X9622D01*
X10803Y190319D02*
Y190909D01*
X11393D01*
Y190319D01*
X10803D01*
X13755Y193271D02*
X14345Y193861D01*
X15526D01*
X16116Y193271D01*
Y192680D01*
X15526Y192090D01*
X14935D01*
X15526D01*
X16116Y191499D01*
Y190909D01*
X15526Y190319D01*
X14345D01*
X13755Y190909D01*
X17297Y193861D02*
X19658D01*
Y193271D01*
X17297Y190909D01*
Y190319D01*
X20839D02*
Y192680D01*
X21429D01*
X22020Y192090D01*
Y190319D01*
Y192090D01*
X22610Y192680D01*
X23200Y192090D01*
Y190319D01*
X24381D02*
X25562D01*
X24972D01*
Y192680D01*
X24381D01*
X27333Y190319D02*
X28514D01*
X27923D01*
Y193861D01*
X27333D01*
X30285Y190319D02*
X31466Y191499D01*
Y192680D01*
X30285Y193861D01*
X-26390Y184412D02*
X-25799Y185003D01*
X-24619D01*
X-24028Y184412D01*
Y182051D01*
X-24619Y181460D01*
X-25799D01*
X-26390Y182051D01*
Y184412D01*
X-22848Y181460D02*
Y182051D01*
X-22257D01*
Y181460D01*
X-22848D01*
X-17534D02*
X-19896D01*
X-17534Y183822D01*
Y184412D01*
X-18125Y185003D01*
X-19306D01*
X-19896Y184412D01*
X-13992Y185003D02*
X-16354D01*
Y183231D01*
X-15173Y183822D01*
X-14583D01*
X-13992Y183231D01*
Y182051D01*
X-14583Y181460D01*
X-15763D01*
X-16354Y182051D01*
X-11040Y181460D02*
Y185003D01*
X-12811Y183231D01*
X-10450D01*
X-9269Y181460D02*
Y183822D01*
X-8679D01*
X-8089Y183231D01*
Y181460D01*
Y183231D01*
X-7498Y183822D01*
X-6908Y183231D01*
Y181460D01*
X-5727D02*
Y183822D01*
X-5137D01*
X-4546Y183231D01*
Y181460D01*
Y183231D01*
X-3956Y183822D01*
X-3366Y183231D01*
Y181460D01*
X2538D02*
X1357Y182641D01*
Y183822D01*
X2538Y185003D01*
X4309Y181460D02*
X5490D01*
X4899D01*
Y185003D01*
X4309Y184412D01*
X7261D02*
X7851Y185003D01*
X9032D01*
X9622Y184412D01*
Y182051D01*
X9032Y181460D01*
X7851D01*
X7261Y182051D01*
Y184412D01*
X10803Y181460D02*
Y182051D01*
X11393D01*
Y181460D01*
X10803D01*
X13755Y184412D02*
X14345Y185003D01*
X15526D01*
X16116Y184412D01*
Y182051D01*
X15526Y181460D01*
X14345D01*
X13755Y182051D01*
Y184412D01*
X17297D02*
X17887Y185003D01*
X19068D01*
X19658Y184412D01*
Y182051D01*
X19068Y181460D01*
X17887D01*
X17297Y182051D01*
Y184412D01*
X20839Y181460D02*
Y183822D01*
X21429D01*
X22020Y183231D01*
Y181460D01*
Y183231D01*
X22610Y183822D01*
X23200Y183231D01*
Y181460D01*
X24381D02*
X25562D01*
X24972D01*
Y183822D01*
X24381D01*
X27333Y181460D02*
X28514D01*
X27923D01*
Y185003D01*
X27333D01*
X30285Y181460D02*
X31466Y182641D01*
Y183822D01*
X30285Y185003D01*
X-60271Y172602D02*
X-62632D01*
X-60271Y174964D01*
Y175554D01*
X-60861Y176144D01*
X-62042D01*
X-62632Y175554D01*
X-56729Y176144D02*
X-59090D01*
Y174373D01*
X-57910Y174964D01*
X-57319D01*
X-56729Y174373D01*
Y173193D01*
X-57319Y172602D01*
X-58500D01*
X-59090Y173193D01*
X-53187Y176144D02*
X-55548D01*
Y174373D01*
X-54367Y174964D01*
X-53777D01*
X-53187Y174373D01*
Y173193D01*
X-53777Y172602D01*
X-54958D01*
X-55548Y173193D01*
X-48464Y176144D02*
X-46102D01*
X-47283D01*
Y172602D01*
X-44331D02*
X-43150D01*
X-42560Y173193D01*
Y174373D01*
X-43150Y174964D01*
X-44331D01*
X-44922Y174373D01*
Y173193D01*
X-44331Y172602D01*
X-40789Y175554D02*
Y174964D01*
X-41379D01*
X-40199D01*
X-40789D01*
Y173193D01*
X-40199Y172602D01*
X-37837Y174964D02*
X-36657D01*
X-36066Y174373D01*
Y172602D01*
X-37837D01*
X-38428Y173193D01*
X-37837Y173783D01*
X-36066D01*
X-34885Y172602D02*
X-33705D01*
X-34295D01*
Y176144D01*
X-34885D01*
X-60271Y216894D02*
X-62632D01*
X-60271Y219255D01*
Y219845D01*
X-60861Y220436D01*
X-62042D01*
X-62632Y219845D01*
X-60271Y208035D02*
X-62632D01*
X-60271Y210397D01*
Y210987D01*
X-60861Y211577D01*
X-62042D01*
X-62632Y210987D01*
Y202129D02*
X-62042Y202719D01*
X-60861D01*
X-60271Y202129D01*
Y201538D01*
X-60861Y200948D01*
X-61452D01*
X-60861D01*
X-60271Y200358D01*
Y199767D01*
X-60861Y199177D01*
X-62042D01*
X-62632Y199767D01*
Y190319D02*
X-61452D01*
X-62042D01*
Y193861D01*
X-62632Y193271D01*
X-59681D02*
X-59090Y193861D01*
X-57910D01*
X-57319Y193271D01*
Y190909D01*
X-57910Y190319D01*
X-59090D01*
X-59681Y190909D01*
Y193271D01*
X-60271Y181460D02*
X-62632D01*
X-60271Y183822D01*
Y184412D01*
X-60861Y185003D01*
X-62042D01*
X-62632Y184412D01*
X-59090D02*
X-58500Y185003D01*
X-57319D01*
X-56729Y184412D01*
Y183822D01*
X-57319Y183231D01*
X-57910D01*
X-57319D01*
X-56729Y182641D01*
Y182051D01*
X-57319Y181460D01*
X-58500D01*
X-59090Y182051D01*
X-55548Y184412D02*
X-54958Y185003D01*
X-53777D01*
X-53187Y184412D01*
Y183822D01*
X-53777Y183231D01*
X-53187Y182641D01*
Y182051D01*
X-53777Y181460D01*
X-54958D01*
X-55548Y182051D01*
Y182641D01*
X-54958Y183231D01*
X-55548Y183822D01*
Y184412D01*
X-54958Y183231D02*
X-53777D01*
D98*
X177803Y67827D02*
G03*
X177803Y67827I-1000J0D01*
G01*
Y50504D02*
G03*
X177803Y50504I-1000J0D01*
G01*
X53847Y101843D02*
X54347Y101343D01*
X53347Y101843D02*
X53847D01*
X53347D02*
X53847Y102343D01*
X53347Y102843D02*
X53847Y102343D01*
X53347Y102843D02*
X53847D01*
X54347Y103343D01*
X54847Y102843D01*
X55347D01*
X54847Y102343D02*
X55347Y102843D01*
X54847Y102343D02*
X55347Y101843D01*
X54847D02*
X55347D01*
X54347Y101343D02*
X54847Y101843D01*
X53847Y107394D02*
X54347Y106894D01*
X53347Y107394D02*
X53847D01*
X53347D02*
X53847Y107894D01*
X53347Y108394D02*
X53847Y107894D01*
X53347Y108394D02*
X53847D01*
X54347Y108894D01*
X54847Y108394D01*
X55347D01*
X54847Y107894D02*
X55347Y108394D01*
X54847Y107894D02*
X55347Y107394D01*
X54847D02*
X55347D01*
X54347Y106894D02*
X54847Y107394D01*
X65894Y85972D02*
X66394Y85472D01*
X65394Y85972D02*
X65894D01*
X65394D02*
X65894Y86472D01*
X65394Y86972D02*
X65894Y86472D01*
X65394Y86972D02*
X65894D01*
X66394Y87472D01*
X66894Y86972D01*
X67394D01*
X66894Y86472D02*
X67394Y86972D01*
X66894Y86472D02*
X67394Y85972D01*
X66894D02*
X67394D01*
X66394Y85472D02*
X66894Y85972D01*
X88382Y109618D02*
X88882Y109118D01*
X87882Y109618D02*
X88382D01*
X87882D02*
X88382Y110118D01*
X87882Y110618D02*
X88382Y110118D01*
X87882Y110618D02*
X88382D01*
X88882Y111118D01*
X89382Y110618D01*
X89882D01*
X89382Y110118D02*
X89882Y110618D01*
X89382Y110118D02*
X89882Y109618D01*
X89382D02*
X89882D01*
X88882Y109118D02*
X89382Y109618D01*
X94272Y67500D02*
X94772Y67000D01*
X93772Y67500D02*
X94272D01*
X93772D02*
X94272Y68000D01*
X93772Y68500D02*
X94272Y68000D01*
X93772Y68500D02*
X94272D01*
X94772Y69000D01*
X95272Y68500D01*
X95772D01*
X95272Y68000D02*
X95772Y68500D01*
X95272Y68000D02*
X95772Y67500D01*
X95272D02*
X95772D01*
X94772Y67000D02*
X95272Y67500D01*
X43941Y27343D02*
X44441Y26842D01*
X43441Y27343D02*
X43941D01*
X43441D02*
X43941Y27843D01*
X43441Y28343D02*
X43941Y27843D01*
X43441Y28343D02*
X43941D01*
X44441Y28842D01*
X44941Y28343D01*
X45441D01*
X44941Y27843D02*
X45441Y28343D01*
X44941Y27843D02*
X45441Y27343D01*
X44941D02*
X45441D01*
X44441Y26842D02*
X44941Y27343D01*
X71784Y85972D02*
X72284Y85472D01*
X71284Y85972D02*
X71784D01*
X71284D02*
X71784Y86472D01*
X71284Y86972D02*
X71784Y86472D01*
X71284Y86972D02*
X71784D01*
X72284Y87472D01*
X72783Y86972D01*
X73283D01*
X72783Y86472D02*
X73283Y86972D01*
X72783Y86472D02*
X73283Y85972D01*
X72783D02*
X73283D01*
X72284Y85472D02*
X72783Y85972D01*
X60004D02*
X60504Y85472D01*
X59504Y85972D02*
X60004D01*
X59504D02*
X60004Y86472D01*
X59504Y86972D02*
X60004Y86472D01*
X59504Y86972D02*
X60004D01*
X60504Y87472D01*
X61004Y86972D01*
X61504D01*
X61004Y86472D02*
X61504Y86972D01*
X61004Y86472D02*
X61504Y85972D01*
X61004D02*
X61504D01*
X60504Y85472D02*
X61004Y85972D01*
X94539Y21988D02*
X95039Y21488D01*
X94039Y21988D02*
X94539D01*
X94039D02*
X94539Y22488D01*
X94039Y22988D02*
X94539Y22488D01*
X94039Y22988D02*
X94539D01*
X95039Y23488D01*
X95539Y22988D01*
X96039D01*
X95539Y22488D02*
X96039Y22988D01*
X95539Y22488D02*
X96039Y21988D01*
X95539D02*
X96039D01*
X95039Y21488D02*
X95539Y21988D01*
X94272Y53846D02*
X94772Y53346D01*
X93772Y53846D02*
X94272D01*
X93772D02*
X94272Y54346D01*
X93772Y54846D02*
X94272Y54346D01*
X93772Y54846D02*
X94272D01*
X94772Y55346D01*
X95272Y54846D01*
X95772D01*
X95272Y54346D02*
X95772Y54846D01*
X95272Y54346D02*
X95772Y53846D01*
X95272D02*
X95772D01*
X94772Y53346D02*
X95272Y53846D01*
X75264Y44209D02*
X75764Y43709D01*
X74764Y44209D02*
X75264D01*
X74764D02*
X75264Y44709D01*
X74764Y45209D02*
X75264Y44709D01*
X74764Y45209D02*
X75264D01*
X75764Y45709D01*
X76264Y45209D01*
X76764D01*
X76264Y44709D02*
X76764Y45209D01*
X76264Y44709D02*
X76764Y44209D01*
X76264D02*
X76764D01*
X75764Y43709D02*
X76264Y44209D01*
X94039Y37284D02*
X95039Y37784D01*
X96039Y37284D01*
X95539Y38284D02*
X96039Y37284D01*
X95539Y38284D02*
X96039Y39283D01*
X95039Y38783D02*
X96039Y39283D01*
X94039D02*
X95039Y38783D01*
X94039Y39283D02*
X94539Y38284D01*
X94039Y37284D02*
X94539Y38284D01*
X62146Y46752D02*
X62646Y46252D01*
X61646Y46752D02*
X62146D01*
X61646D02*
X62146Y47252D01*
X61646Y47752D02*
X62146Y47252D01*
X61646Y47752D02*
X62146D01*
X62646Y48252D01*
X63146Y47752D01*
X63646D01*
X63146Y47252D02*
X63646Y47752D01*
X63146Y47252D02*
X63646Y46752D01*
X63146D02*
X63646D01*
X62646Y46252D02*
X63146Y46752D01*
X65894Y30823D02*
X66394Y30323D01*
X65394Y30823D02*
X65894D01*
X65394D02*
X65894Y31323D01*
X65394Y31823D02*
X65894Y31323D01*
X65394Y31823D02*
X65894D01*
X66394Y32323D01*
X66894Y31823D01*
X67394D01*
X66894Y31323D02*
X67394Y31823D01*
X66894Y31323D02*
X67394Y30823D01*
X66894D02*
X67394D01*
X66394Y30323D02*
X66894Y30823D01*
X98020D02*
X98520Y30323D01*
X97520Y30823D02*
X98020D01*
X97520D02*
X98020Y31323D01*
X97520Y31823D02*
X98020Y31323D01*
X97520Y31823D02*
X98020D01*
X98520Y32323D01*
X99020Y31823D01*
X99520D01*
X99020Y31323D02*
X99520Y31823D01*
X99020Y31323D02*
X99520Y30823D01*
X99020D02*
X99520D01*
X98520Y30323D02*
X99020Y30823D01*
X101232D02*
X101732Y30323D01*
X100732Y30823D02*
X101232D01*
X100732D02*
X101232Y31323D01*
X100732Y31823D02*
X101232Y31323D01*
X100732Y31823D02*
X101232D01*
X101732Y32323D01*
X102232Y31823D01*
X102732D01*
X102232Y31323D02*
X102732Y31823D01*
X102232Y31323D02*
X102732Y30823D01*
X102232D02*
X102732D01*
X101732Y30323D02*
X102232Y30823D01*
X94405Y17570D02*
X94905Y17070D01*
X93905Y17570D02*
X94405D01*
X93905D02*
X94405Y18070D01*
X93905Y18570D02*
X94405Y18070D01*
X93905Y18570D02*
X94405D01*
X94905Y19070D01*
X95405Y18570D01*
X95905D01*
X95405Y18070D02*
X95905Y18570D01*
X95405Y18070D02*
X95905Y17570D01*
X95405D02*
X95905D01*
X94905Y17070D02*
X95405Y17570D01*
X148854Y102303D02*
X149354Y101803D01*
X148354Y102303D02*
X148854D01*
X148354D02*
X148854Y102803D01*
X148354Y103303D02*
X148854Y102803D01*
X148354Y103303D02*
X148854D01*
X149354Y103803D01*
X149854Y103303D01*
X150354D01*
X149854Y102803D02*
X150354Y103303D01*
X149854Y102803D02*
X150354Y102303D01*
X149854D02*
X150354D01*
X149354Y101803D02*
X149854Y102303D01*
X154240Y101768D02*
X154740Y101268D01*
X153740Y101768D02*
X154240D01*
X153740D02*
X154240Y102268D01*
X153740Y102768D02*
X154240Y102268D01*
X153740Y102768D02*
X154240D01*
X154740Y103268D01*
X155240Y102768D01*
X155740D01*
X155240Y102268D02*
X155740Y102768D01*
X155240Y102268D02*
X155740Y101768D01*
X155240D02*
X155740D01*
X154740Y101268D02*
X155240Y101768D01*
X157720D02*
X158221Y101268D01*
X157220Y101768D02*
X157720D01*
X157220D02*
X157720Y102268D01*
X157220Y102768D02*
X157720Y102268D01*
X157220Y102768D02*
X157720D01*
X158221Y103268D01*
X158721Y102768D01*
X159221D01*
X158721Y102268D02*
X159221Y102768D01*
X158721Y102268D02*
X159221Y101768D01*
X158721D02*
X159221D01*
X158221Y101268D02*
X158721Y101768D01*
X161201D02*
X161701Y101268D01*
X160701Y101768D02*
X161201D01*
X160701D02*
X161201Y102268D01*
X160701Y102768D02*
X161201Y102268D01*
X160701Y102768D02*
X161201D01*
X161701Y103268D01*
X162201Y102768D01*
X162701D01*
X162201Y102268D02*
X162701Y102768D01*
X162201Y102268D02*
X162701Y101768D01*
X162201D02*
X162701D01*
X161701Y101268D02*
X162201Y101768D01*
X164681D02*
X165181Y101268D01*
X164181Y101768D02*
X164681D01*
X164181D02*
X164681Y102268D01*
X164181Y102768D02*
X164681Y102268D01*
X164181Y102768D02*
X164681D01*
X165181Y103268D01*
X165681Y102768D01*
X166181D01*
X165681Y102268D02*
X166181Y102768D01*
X165681Y102268D02*
X166181Y101768D01*
X165681D02*
X166181D01*
X165181Y101268D02*
X165681Y101768D01*
X168161D02*
X168661Y101268D01*
X167661Y101768D02*
X168161D01*
X167661D02*
X168161Y102268D01*
X167661Y102768D02*
X168161Y102268D01*
X167661Y102768D02*
X168161D01*
X168661Y103268D01*
X169161Y102768D01*
X169661D01*
X169161Y102268D02*
X169661Y102768D01*
X169161Y102268D02*
X169661Y101768D01*
X169161D02*
X169661D01*
X168661Y101268D02*
X169161Y101768D01*
X170035Y99626D02*
X170535Y99126D01*
X169535Y99626D02*
X170035D01*
X169535D02*
X170035Y100126D01*
X169535Y100626D02*
X170035Y100126D01*
X169535Y100626D02*
X170035D01*
X170535Y101126D01*
X171035Y100626D01*
X171535D01*
X171035Y100126D02*
X171535Y100626D01*
X171035Y100126D02*
X171535Y99626D01*
X171035D02*
X171535D01*
X170535Y99126D02*
X171035Y99626D01*
X171642Y101768D02*
X172142Y101268D01*
X171142Y101768D02*
X171642D01*
X171142D02*
X171642Y102268D01*
X171142Y102768D02*
X171642Y102268D01*
X171142Y102768D02*
X171642D01*
X172142Y103268D01*
X172642Y102768D01*
X173142D01*
X172642Y102268D02*
X173142Y102768D01*
X172642Y102268D02*
X173142Y101768D01*
X172642D02*
X173142D01*
X172142Y101268D02*
X172642Y101768D01*
X166555Y99626D02*
X167055Y99126D01*
X166055Y99626D02*
X166555D01*
X166055D02*
X166555Y100126D01*
X166055Y100626D02*
X166555Y100126D01*
X166055Y100626D02*
X166555D01*
X167055Y101126D01*
X167555Y100626D01*
X168055D01*
X167555Y100126D02*
X168055Y100626D01*
X167555Y100126D02*
X168055Y99626D01*
X167555D02*
X168055D01*
X167055Y99126D02*
X167555Y99626D01*
X125261Y79012D02*
X125761Y78512D01*
X124761Y79012D02*
X125261D01*
X124761D02*
X125261Y79512D01*
X124761Y80012D02*
X125261Y79512D01*
X124761Y80012D02*
X125261D01*
X125761Y80512D01*
X126261Y80012D01*
X126761D01*
X126261Y79512D02*
X126761Y80012D01*
X126261Y79512D02*
X126761Y79012D01*
X126261D02*
X126761D01*
X125761Y78512D02*
X126261Y79012D01*
X125862Y43673D02*
X126362Y43173D01*
X125362Y43673D02*
X125862D01*
X125362D02*
X125862Y44173D01*
X125362Y44673D02*
X125862Y44173D01*
X125362Y44673D02*
X125862D01*
X126362Y45173D01*
X126862Y44673D01*
X127362D01*
X126862Y44173D02*
X127362Y44673D01*
X126862Y44173D02*
X127362Y43673D01*
X126862D02*
X127362D01*
X126362Y43173D02*
X126862Y43673D01*
X91059Y40595D02*
X91559Y40095D01*
X90559Y40595D02*
X91059D01*
X90559D02*
X91059Y41094D01*
X90559Y41594D02*
X91059Y41094D01*
X90559Y41594D02*
X91059D01*
X91559Y42094D01*
X92059Y41594D01*
X92559D01*
X92059Y41094D02*
X92559Y41594D01*
X92059Y41094D02*
X92559Y40595D01*
X92059D02*
X92559D01*
X91559Y40095D02*
X92059Y40595D01*
X76870Y41665D02*
X77370Y41165D01*
X76370Y41665D02*
X76870D01*
X76370D02*
X76870Y42165D01*
X76370Y42665D02*
X76870Y42165D01*
X76370Y42665D02*
X76870D01*
X77370Y43165D01*
X77870Y42665D01*
X78370D01*
X77870Y42165D02*
X78370Y42665D01*
X77870Y42165D02*
X78370Y41665D01*
X77870D02*
X78370D01*
X77370Y41165D02*
X77870Y41665D01*
X62547Y6737D02*
X63047Y6237D01*
X62047Y6737D02*
X62547D01*
X62047D02*
X62547Y7237D01*
X62047Y7737D02*
X62547Y7237D01*
X62047Y7737D02*
X62547D01*
X63047Y8237D01*
X63547Y7737D01*
X64047D01*
X63547Y7237D02*
X64047Y7737D01*
X63547Y7237D02*
X64047Y6737D01*
X63547D02*
X64047D01*
X63047Y6237D02*
X63547Y6737D01*
X32429Y114083D02*
X32929Y113583D01*
X31929Y114083D02*
X32429D01*
X31929D02*
X32429Y114583D01*
X31929Y115083D02*
X32429Y114583D01*
X31929Y115083D02*
X32429D01*
X32929Y115583D01*
X33429Y115083D01*
X33929D01*
X33429Y114583D02*
X33929Y115083D01*
X33429Y114583D02*
X33929Y114083D01*
X33429D02*
X33929D01*
X32929Y113583D02*
X33429Y114083D01*
X28770D02*
X29270Y113583D01*
X28270Y114083D02*
X28770D01*
X28270D02*
X28770Y114583D01*
X28270Y115083D02*
X28770Y114583D01*
X28270Y115083D02*
X28770D01*
X29270Y115583D01*
X29770Y115083D01*
X30270D01*
X29770Y114583D02*
X30270Y115083D01*
X29770Y114583D02*
X30270Y114083D01*
X29770D02*
X30270D01*
X29270Y113583D02*
X29770Y114083D01*
X25111D02*
X25611Y113583D01*
X24611Y114083D02*
X25111D01*
X24611D02*
X25111Y114583D01*
X24611Y115083D02*
X25111Y114583D01*
X24611Y115083D02*
X25111D01*
X25611Y115583D01*
X26112Y115083D01*
X26612D01*
X26112Y114583D02*
X26612Y115083D01*
X26112Y114583D02*
X26612Y114083D01*
X26112D02*
X26612D01*
X25611Y113583D02*
X26112Y114083D01*
X21453D02*
X21953Y113583D01*
X20953Y114083D02*
X21453D01*
X20953D02*
X21453Y114583D01*
X20953Y115083D02*
X21453Y114583D01*
X20953Y115083D02*
X21453D01*
X21953Y115583D01*
X22453Y115083D01*
X22953D01*
X22453Y114583D02*
X22953Y115083D01*
X22453Y114583D02*
X22953Y114083D01*
X22453D02*
X22953D01*
X21953Y113583D02*
X22453Y114083D01*
X26272Y2713D02*
X26772Y2213D01*
X25772Y2713D02*
X26272D01*
X25772D02*
X26272Y3213D01*
X25772Y3713D02*
X26272Y3213D01*
X25772Y3713D02*
X26272D01*
X26772Y4213D01*
X27272Y3713D01*
X27772D01*
X27272Y3213D02*
X27772Y3713D01*
X27272Y3213D02*
X27772Y2713D01*
X27272D02*
X27772D01*
X26772Y2213D02*
X27272Y2713D01*
X22613D02*
X23113Y2213D01*
X22113Y2713D02*
X22613D01*
X22113D02*
X22613Y3213D01*
X22113Y3713D02*
X22613Y3213D01*
X22113Y3713D02*
X22613D01*
X23113Y4213D01*
X23613Y3713D01*
X24113D01*
X23613Y3213D02*
X24113Y3713D01*
X23613Y3213D02*
X24113Y2713D01*
X23613D02*
X24113D01*
X23113Y2213D02*
X23613Y2713D01*
X18954D02*
X19454Y2213D01*
X18454Y2713D02*
X18954D01*
X18454D02*
X18954Y3213D01*
X18454Y3713D02*
X18954Y3213D01*
X18454Y3713D02*
X18954D01*
X19454Y4213D01*
X19954Y3713D01*
X20454D01*
X19954Y3213D02*
X20454Y3713D01*
X19954Y3213D02*
X20454Y2713D01*
X19954D02*
X20454D01*
X19454Y2213D02*
X19954Y2713D01*
X15295D02*
X15795Y2213D01*
X14795Y2713D02*
X15295D01*
X14795D02*
X15295Y3213D01*
X14795Y3713D02*
X15295Y3213D01*
X14795Y3713D02*
X15295D01*
X15795Y4213D01*
X16295Y3713D01*
X16795D01*
X16295Y3213D02*
X16795Y3713D01*
X16295Y3213D02*
X16795Y2713D01*
X16295D02*
X16795D01*
X15795Y2213D02*
X16295Y2713D01*
X62949Y113279D02*
X63449Y112779D01*
X62449Y113279D02*
X62949D01*
X62449D02*
X62949Y113779D01*
X62449Y114279D02*
X62949Y113779D01*
X62449Y114279D02*
X62949D01*
X63449Y114779D01*
X63949Y114279D01*
X64449D01*
X63949Y113779D02*
X64449Y114279D01*
X63949Y113779D02*
X64449Y113279D01*
X63949D02*
X64449D01*
X63449Y112779D02*
X63949Y113279D01*
X66608D02*
X67108Y112779D01*
X66108Y113279D02*
X66608D01*
X66108D02*
X66608Y113779D01*
X66108Y114279D02*
X66608Y113779D01*
X66108Y114279D02*
X66608D01*
X67108Y114779D01*
X67608Y114279D01*
X68108D01*
X67608Y113779D02*
X68108Y114279D01*
X67608Y113779D02*
X68108Y113279D01*
X67608D02*
X68108D01*
X67108Y112779D02*
X67608Y113279D01*
X70266D02*
X70766Y112779D01*
X69766Y113279D02*
X70266D01*
X69766D02*
X70266Y113779D01*
X69766Y114279D02*
X70266Y113779D01*
X69766Y114279D02*
X70266D01*
X70766Y114779D01*
X71266Y114279D01*
X71766D01*
X71266Y113779D02*
X71766Y114279D01*
X71266Y113779D02*
X71766Y113279D01*
X71266D02*
X71766D01*
X70766Y112779D02*
X71266Y113279D01*
X73925D02*
X74425Y112779D01*
X73425Y113279D02*
X73925D01*
X73425D02*
X73925Y113779D01*
X73425Y114279D02*
X73925Y113779D01*
X73425Y114279D02*
X73925D01*
X74425Y114779D01*
X74925Y114279D01*
X75425D01*
X74925Y113779D02*
X75425Y114279D01*
X74925Y113779D02*
X75425Y113279D01*
X74925D02*
X75425D01*
X74425Y112779D02*
X74925Y113279D01*
X136972Y79815D02*
X137472Y79315D01*
X136472Y79815D02*
X136972D01*
X136472D02*
X136972Y80315D01*
X136472Y80815D02*
X136972Y80315D01*
X136472Y80815D02*
X136972D01*
X137472Y81315D01*
X137972Y80815D01*
X138472D01*
X137972Y80315D02*
X138472Y80815D01*
X137972Y80315D02*
X138472Y79815D01*
X137972D02*
X138472D01*
X137472Y79315D02*
X137972Y79815D01*
X130280Y73256D02*
X130780Y72756D01*
X129780Y73256D02*
X130280D01*
X129780D02*
X130280Y73756D01*
X129780Y74256D02*
X130280Y73756D01*
X129780Y74256D02*
X130280D01*
X130780Y74756D01*
X131280Y74256D01*
X131780D01*
X131280Y73756D02*
X131780Y74256D01*
X131280Y73756D02*
X131780Y73256D01*
X131280D02*
X131780D01*
X130780Y72756D02*
X131280Y73256D01*
X147949Y82358D02*
X148449Y81858D01*
X147449Y82358D02*
X147949D01*
X147449D02*
X147949Y82858D01*
X147449Y83358D02*
X147949Y82858D01*
X147449Y83358D02*
X147949D01*
X148449Y83858D01*
X148949Y83358D01*
X149449D01*
X148949Y82858D02*
X149449Y83358D01*
X148949Y82858D02*
X149449Y82358D01*
X148949D02*
X149449D01*
X148449Y81858D02*
X148949Y82358D01*
X141122Y75398D02*
X141622Y74898D01*
X140622Y75398D02*
X141122D01*
X140622D02*
X141122Y75898D01*
X140622Y76398D02*
X141122Y75898D01*
X140622Y76398D02*
X141122D01*
X141622Y76898D01*
X142122Y76398D01*
X142622D01*
X142122Y75898D02*
X142622Y76398D01*
X142122Y75898D02*
X142622Y75398D01*
X142122D02*
X142622D01*
X141622Y74898D02*
X142122Y75398D01*
X124657Y67295D02*
X125157Y66795D01*
X124158Y67295D02*
X124657D01*
X124158D02*
X124657Y67795D01*
X124158Y68295D02*
X124657Y67795D01*
X124158Y68295D02*
X124657D01*
X125157Y68795D01*
X125657Y68295D01*
X126157D01*
X125657Y67795D02*
X126157Y68295D01*
X125657Y67795D02*
X126157Y67295D01*
X125657D02*
X126157D01*
X125157Y66795D02*
X125657Y67295D01*
X145138Y70980D02*
X145638Y70480D01*
X144638Y70980D02*
X145138D01*
X144638D02*
X145138Y71480D01*
X144638Y71980D02*
X145138Y71480D01*
X144638Y71980D02*
X145138D01*
X145638Y72480D01*
X146138Y71980D01*
X146638D01*
X146138Y71480D02*
X146638Y71980D01*
X146138Y71480D02*
X146638Y70980D01*
X146138D02*
X146638D01*
X145638Y70480D02*
X146138Y70980D01*
X130012Y83965D02*
X130512Y83465D01*
X129512Y83965D02*
X130012D01*
X129512D02*
X130012Y84465D01*
X129512Y84965D02*
X130012Y84465D01*
X129512Y84965D02*
X130012D01*
X130512Y85465D01*
X131012Y84965D01*
X131512D01*
X131012Y84465D02*
X131512Y84965D01*
X131012Y84465D02*
X131512Y83965D01*
X131012D02*
X131512D01*
X130512Y83465D02*
X131012Y83965D01*
X84098Y84768D02*
X84598Y84268D01*
X83598Y84768D02*
X84098D01*
X83598D02*
X84098Y85268D01*
X83598Y85768D02*
X84098Y85268D01*
X83598Y85768D02*
X84098D01*
X84598Y86268D01*
X85098Y85768D01*
X85598D01*
X85098Y85268D02*
X85598Y85768D01*
X85098Y85268D02*
X85598Y84768D01*
X85098D02*
X85598D01*
X84598Y84268D02*
X85098Y84768D01*
X101902Y103925D02*
X102402Y103425D01*
X101402Y103925D02*
X101902D01*
X101402D02*
X101902Y104425D01*
X101402Y104925D02*
X101902Y104425D01*
X101402Y104925D02*
X101902D01*
X102402Y105425D01*
X102902Y104925D01*
X103402D01*
X102902Y104425D02*
X103402Y104925D01*
X102902Y104425D02*
X103402Y103925D01*
X102902D02*
X103402D01*
X102402Y103425D02*
X102902Y103925D01*
X107658Y103909D02*
X108158Y103409D01*
X107158Y103909D02*
X107658D01*
X107158D02*
X107658Y104409D01*
X107158Y104909D02*
X107658Y104409D01*
X107158Y104909D02*
X107658D01*
X108158Y105409D01*
X108658Y104909D01*
X109158D01*
X108658Y104409D02*
X109158Y104909D01*
X108658Y104409D02*
X109158Y103909D01*
X108658D02*
X109158D01*
X108158Y103409D02*
X108658Y103909D01*
X104713Y100161D02*
X105213Y99661D01*
X104213Y100161D02*
X104713D01*
X104213D02*
X104713Y100661D01*
X104213Y101161D02*
X104713Y100661D01*
X104213Y101161D02*
X104713D01*
X105213Y101661D01*
X105713Y101161D01*
X106213D01*
X105713Y100661D02*
X106213Y101161D01*
X105713Y100661D02*
X106213Y100161D01*
X105713D02*
X106213D01*
X105213Y99661D02*
X105713Y100161D01*
X103240Y87670D02*
X103740Y87170D01*
X102740Y87670D02*
X103240D01*
X102740D02*
X103240Y88170D01*
X102740Y88670D02*
X103240Y88170D01*
X102740Y88670D02*
X103240D01*
X103740Y89170D01*
X104240Y88670D01*
X104740D01*
X104240Y88170D02*
X104740Y88670D01*
X104240Y88170D02*
X104740Y87670D01*
X104240D02*
X104740D01*
X103740Y87170D02*
X104240Y87670D01*
X95342Y80083D02*
X95842Y79583D01*
X94842Y80083D02*
X95342D01*
X94842D02*
X95342Y80583D01*
X94842Y81083D02*
X95342Y80583D01*
X94842Y81083D02*
X95342D01*
X95842Y81583D01*
X96342Y81083D01*
X96842D01*
X96342Y80583D02*
X96842Y81083D01*
X96342Y80583D02*
X96842Y80083D01*
X96342D02*
X96842D01*
X95842Y79583D02*
X96342Y80083D01*
X172445Y17705D02*
X172945Y17205D01*
X171945Y17705D02*
X172445D01*
X171945D02*
X172445Y18205D01*
X171945Y18705D02*
X172445Y18205D01*
X171945Y18705D02*
X172445D01*
X172945Y19205D01*
X173445Y18705D01*
X173945D01*
X173445Y18205D02*
X173945Y18705D01*
X173445Y18205D02*
X173945Y17705D01*
X173445D02*
X173945D01*
X172945Y17205D02*
X173445Y17705D01*
X13689Y94004D02*
X14189Y93504D01*
X13189Y94004D02*
X13689D01*
X13189D02*
X13689Y94504D01*
X13189Y95004D02*
X13689Y94504D01*
X13189Y95004D02*
X13689D01*
X14189Y95504D01*
X14689Y95004D01*
X15189D01*
X14689Y94504D02*
X15189Y95004D01*
X14689Y94504D02*
X15189Y94004D01*
X14689D02*
X15189D01*
X14189Y93504D02*
X14689Y94004D01*
X13689Y83028D02*
X14189Y82528D01*
X13189Y83028D02*
X13689D01*
X13189D02*
X13689Y83528D01*
X13189Y84028D02*
X13689Y83528D01*
X13189Y84028D02*
X13689D01*
X14189Y84528D01*
X14689Y84028D01*
X15189D01*
X14689Y83528D02*
X15189Y84028D01*
X14689Y83528D02*
X15189Y83028D01*
X14689D02*
X15189D01*
X14189Y82528D02*
X14689Y83028D01*
X13421Y65626D02*
X13921Y65126D01*
X12921Y65626D02*
X13421D01*
X12921D02*
X13421Y66126D01*
X12921Y66626D02*
X13421Y66126D01*
X12921Y66626D02*
X13421D01*
X13921Y67126D01*
X14421Y66626D01*
X14921D01*
X14421Y66126D02*
X14921Y66626D01*
X14421Y66126D02*
X14921Y65626D01*
X14421D02*
X14921D01*
X13921Y65126D02*
X14421Y65626D01*
X13421Y54917D02*
X13921Y54417D01*
X12921Y54917D02*
X13421D01*
X12921D02*
X13421Y55417D01*
X12921Y55917D02*
X13421Y55417D01*
X12921Y55917D02*
X13421D01*
X13921Y56417D01*
X14421Y55917D01*
X14921D01*
X14421Y55417D02*
X14921Y55917D01*
X14421Y55417D02*
X14921Y54917D01*
X14421D02*
X14921D01*
X13921Y54417D02*
X14421Y54917D01*
X13421Y39658D02*
X13921Y39158D01*
X12921Y39658D02*
X13421D01*
X12921D02*
X13421Y40157D01*
X12921Y40657D02*
X13421Y40157D01*
X12921Y40657D02*
X13421D01*
X13921Y41157D01*
X14421Y40657D01*
X14921D01*
X14421Y40157D02*
X14921Y40657D01*
X14421Y40157D02*
X14921Y39658D01*
X14421D02*
X14921D01*
X13921Y39158D02*
X14421Y39658D01*
X13421Y24398D02*
X13921Y23898D01*
X12921Y24398D02*
X13421D01*
X12921D02*
X13421Y24898D01*
X12921Y25398D02*
X13421Y24898D01*
X12921Y25398D02*
X13421D01*
X13921Y25898D01*
X14421Y25398D01*
X14921D01*
X14421Y24898D02*
X14921Y25398D01*
X14421Y24898D02*
X14921Y24398D01*
X14421D02*
X14921D01*
X13921Y23898D02*
X14421Y24398D01*
X13421Y49831D02*
X13921Y49331D01*
X12921Y49831D02*
X13421D01*
X12921D02*
X13421Y50331D01*
X12921Y50831D02*
X13421Y50331D01*
X12921Y50831D02*
X13421D01*
X13921Y51331D01*
X14421Y50831D01*
X14921D01*
X14421Y50331D02*
X14921Y50831D01*
X14421Y50331D02*
X14921Y49831D01*
X14421D02*
X14921D01*
X13921Y49331D02*
X14421Y49831D01*
X13688Y103453D02*
X14188Y102953D01*
X13188Y103453D02*
X13688D01*
X13188D02*
X13688Y103953D01*
X13188Y104453D02*
X13688Y103953D01*
X13188Y104453D02*
X13688D01*
X14188Y104953D01*
X14688Y104453D01*
X15188D01*
X14688Y103953D02*
X15188Y104453D01*
X14688Y103953D02*
X15188Y103453D01*
X14688D02*
X15188D01*
X14188Y102953D02*
X14688Y103453D01*
X26004Y58576D02*
X26504Y58076D01*
X25504Y58576D02*
X26004D01*
X25504D02*
X26004Y59076D01*
X25504Y59576D02*
X26004Y59076D01*
X25504Y59576D02*
X26004D01*
X26504Y60076D01*
X27004Y59576D01*
X27504D01*
X27004Y59076D02*
X27504Y59576D01*
X27004Y59076D02*
X27504Y58576D01*
X27004D02*
X27504D01*
X26504Y58076D02*
X27004Y58576D01*
X26004Y54917D02*
X26504Y54417D01*
X25504Y54917D02*
X26004D01*
X25504D02*
X26004Y55417D01*
X25504Y55917D02*
X26004Y55417D01*
X25504Y55917D02*
X26004D01*
X26504Y56417D01*
X27004Y55917D01*
X27504D01*
X27004Y55417D02*
X27504Y55917D01*
X27004Y55417D02*
X27504Y54917D01*
X27004D02*
X27504D01*
X26504Y54417D02*
X27004Y54917D01*
X69910Y76335D02*
X70410Y75835D01*
X69410Y76335D02*
X69910D01*
X69410D02*
X69910Y76835D01*
X69410Y77335D02*
X69910Y76835D01*
X69410Y77335D02*
X69910D01*
X70410Y77835D01*
X70910Y77335D01*
X71409D01*
X70910Y76835D02*
X71409Y77335D01*
X70910Y76835D02*
X71409Y76335D01*
X70910D02*
X71409D01*
X70410Y75835D02*
X70910Y76335D01*
X56256D02*
X56756Y75835D01*
X55756Y76335D02*
X56256D01*
X55756D02*
X56256Y76835D01*
X55756Y77335D02*
X56256Y76835D01*
X55756Y77335D02*
X56256D01*
X56756Y77835D01*
X57256Y77335D01*
X57756D01*
X57256Y76835D02*
X57756Y77335D01*
X57256Y76835D02*
X57756Y76335D01*
X57256D02*
X57756D01*
X56756Y75835D02*
X57256Y76335D01*
X70177Y107658D02*
X70677Y107158D01*
X69677Y107658D02*
X70177D01*
X69677D02*
X70177Y108158D01*
X69677Y108658D02*
X70177Y108158D01*
X69677Y108658D02*
X70177D01*
X70677Y109158D01*
X71177Y108658D01*
X71677D01*
X71177Y108158D02*
X71677Y108658D01*
X71177Y108158D02*
X71677Y107658D01*
X71177D02*
X71677D01*
X70677Y107158D02*
X71177Y107658D01*
X39390Y43560D02*
X39890Y43060D01*
X38890Y43560D02*
X39390D01*
X38890D02*
X39390Y44060D01*
X38890Y44560D02*
X39390Y44060D01*
X38890Y44560D02*
X39390D01*
X39890Y45060D01*
X40390Y44560D01*
X40890D01*
X40390Y44060D02*
X40890Y44560D01*
X40390Y44060D02*
X40890Y43560D01*
X40390D02*
X40890D01*
X39890Y43060D02*
X40390Y43560D01*
X33366Y30736D02*
X33866Y30236D01*
X32866Y30736D02*
X33366D01*
X32866D02*
X33366Y31236D01*
X32866Y31736D02*
X33366Y31236D01*
X32866Y31736D02*
X33366D01*
X33866Y32236D01*
X34366Y31736D01*
X34866D01*
X34366Y31236D02*
X34866Y31736D01*
X34366Y31236D02*
X34866Y30736D01*
X34366D02*
X34866D01*
X33866Y30236D02*
X34366Y30736D01*
X26004Y24130D02*
X26504Y23630D01*
X25504Y24130D02*
X26004D01*
X25504D02*
X26004Y24630D01*
X25504Y25130D02*
X26004Y24630D01*
X25504Y25130D02*
X26004D01*
X26504Y25630D01*
X27004Y25130D01*
X27504D01*
X27004Y24630D02*
X27504Y25130D01*
X27004Y24630D02*
X27504Y24130D01*
X27004D02*
X27504D01*
X26504Y23630D02*
X27004Y24130D01*
X135500Y50316D02*
X136000Y49816D01*
X135000Y50316D02*
X135500D01*
X135000D02*
X135500Y50816D01*
X135000Y51316D02*
X135500Y50816D01*
X135000Y51316D02*
X135500D01*
X136000Y51816D01*
X136500Y51316D01*
X137000D01*
X136500Y50816D02*
X137000Y51316D01*
X136500Y50816D02*
X137000Y50316D01*
X136500D02*
X137000D01*
X136000Y49816D02*
X136500Y50316D01*
X168697Y4453D02*
X169197Y3953D01*
X168197Y4453D02*
X168697D01*
X168197D02*
X168697Y4953D01*
X168197Y5453D02*
X168697Y4953D01*
X168197Y5453D02*
X168697D01*
X169197Y5953D01*
X169697Y5453D01*
X170197D01*
X169697Y4953D02*
X170197Y5453D01*
X169697Y4953D02*
X170197Y4453D01*
X169697D02*
X170197D01*
X169197Y3953D02*
X169697Y4453D01*
X81689Y39390D02*
X82189Y38890D01*
X81189Y39390D02*
X81689D01*
X81189D02*
X81689Y39890D01*
X81189Y40390D02*
X81689Y39890D01*
X81189Y40390D02*
X81689D01*
X82189Y40890D01*
X82689Y40390D01*
X83189D01*
X82689Y39890D02*
X83189Y40390D01*
X82689Y39890D02*
X83189Y39390D01*
X82689D02*
X83189D01*
X82189Y38890D02*
X82689Y39390D01*
X75264Y53443D02*
X75764Y52943D01*
X74764Y53443D02*
X75264D01*
X74764D02*
X75264Y53943D01*
X74764Y54443D02*
X75264Y53943D01*
X74764Y54443D02*
X75264D01*
X75764Y54943D01*
X76264Y54443D01*
X76764D01*
X76264Y53943D02*
X76764Y54443D01*
X76264Y53943D02*
X76764Y53443D01*
X76264D02*
X76764D01*
X75764Y52943D02*
X76264Y53443D01*
X47153Y41700D02*
X47653Y41200D01*
X46654Y41700D02*
X47153D01*
X46654D02*
X47153Y42200D01*
X46654Y42700D02*
X47153Y42200D01*
X46654Y42700D02*
X47153D01*
X47653Y43200D01*
X48153Y42700D01*
X48654D01*
X48153Y42200D02*
X48654Y42700D01*
X48153Y42200D02*
X48654Y41700D01*
X48153D02*
X48654D01*
X47653Y41200D02*
X48153Y41700D01*
X152098Y110736D02*
X152598Y110236D01*
X151598Y110736D02*
X152098D01*
X151598D02*
X152098Y111236D01*
X151598Y111736D02*
X152098Y111236D01*
X151598Y111736D02*
X152098D01*
X152598Y112236D01*
X153098Y111736D01*
X153598D01*
X153098Y111236D02*
X153598Y111736D01*
X153098Y111236D02*
X153598Y110736D01*
X153098D02*
X153598D01*
X152598Y110236D02*
X153098Y110736D01*
X176327Y90569D02*
X176827Y90069D01*
X175827Y90569D02*
X176327D01*
X175827D02*
X176327Y91069D01*
X175827Y91569D02*
X176327Y91069D01*
X175827Y91569D02*
X176327D01*
X176827Y92069D01*
X177327Y91569D01*
X177827D01*
X177327Y91069D02*
X177827Y91569D01*
X177327Y91069D02*
X177827Y90569D01*
X177327D02*
X177827D01*
X176827Y90069D02*
X177327Y90569D01*
X181413D02*
X181913Y90069D01*
X180913Y90569D02*
X181413D01*
X180913D02*
X181413Y91069D01*
X180913Y91569D02*
X181413Y91069D01*
X180913Y91569D02*
X181413D01*
X181913Y92069D01*
X182413Y91569D01*
X182913D01*
X182413Y91069D02*
X182913Y91569D01*
X182413Y91069D02*
X182913Y90569D01*
X182413D02*
X182913D01*
X181913Y90069D02*
X182413Y90569D01*
X186500D02*
X187000Y90069D01*
X186000Y90569D02*
X186500D01*
X186000D02*
X186500Y91069D01*
X186000Y91569D02*
X186500Y91069D01*
X186000Y91569D02*
X186500D01*
X187000Y92069D01*
X187500Y91569D01*
X188000D01*
X187500Y91069D02*
X188000Y91569D01*
X187500Y91069D02*
X188000Y90569D01*
X187500D02*
X188000D01*
X187000Y90069D02*
X187500Y90569D01*
X186500Y85616D02*
X187000Y85116D01*
X186000Y85616D02*
X186500D01*
X186000D02*
X186500Y86116D01*
X186000Y86616D02*
X186500Y86116D01*
X186000Y86616D02*
X186500D01*
X187000Y87116D01*
X187500Y86616D01*
X188000D01*
X187500Y86116D02*
X188000Y86616D01*
X187500Y86116D02*
X188000Y85616D01*
X187500D02*
X188000D01*
X187000Y85116D02*
X187500Y85616D01*
X181413D02*
X181913Y85116D01*
X180913Y85616D02*
X181413D01*
X180913D02*
X181413Y86116D01*
X180913Y86616D02*
X181413Y86116D01*
X180913Y86616D02*
X181413D01*
X181913Y87116D01*
X182413Y86616D01*
X182913D01*
X182413Y86116D02*
X182913Y86616D01*
X182413Y86116D02*
X182913Y85616D01*
X182413D02*
X182913D01*
X181913Y85116D02*
X182413Y85616D01*
X176327D02*
X176827Y85116D01*
X175827Y85616D02*
X176327D01*
X175827D02*
X176327Y86116D01*
X175827Y86616D02*
X176327Y86116D01*
X175827Y86616D02*
X176327D01*
X176827Y87116D01*
X177327Y86616D01*
X177827D01*
X177327Y86116D02*
X177827Y86616D01*
X177327Y86116D02*
X177827Y85616D01*
X177327D02*
X177827D01*
X176827Y85116D02*
X177327Y85616D01*
X186500Y95409D02*
X187000Y94909D01*
X186000Y95409D02*
X186500D01*
X186000D02*
X186500Y95909D01*
X186000Y96409D02*
X186500Y95909D01*
X186000Y96409D02*
X186500D01*
X187000Y96909D01*
X187500Y96409D01*
X188000D01*
X187500Y95909D02*
X188000Y96409D01*
X187500Y95909D02*
X188000Y95409D01*
X187500D02*
X188000D01*
X187000Y94909D02*
X187500Y95409D01*
X181413D02*
X181913Y94909D01*
X180913Y95409D02*
X181413D01*
X180913D02*
X181413Y95909D01*
X180913Y96409D02*
X181413Y95909D01*
X180913Y96409D02*
X181413D01*
X181913Y96909D01*
X182413Y96409D01*
X182913D01*
X182413Y95909D02*
X182913Y96409D01*
X182413Y95909D02*
X182913Y95409D01*
X182413D02*
X182913D01*
X181913Y94909D02*
X182413Y95409D01*
X176327D02*
X176827Y94909D01*
X175827Y95409D02*
X176327D01*
X175827D02*
X176327Y95909D01*
X175827Y96409D02*
X176327Y95909D01*
X175827Y96409D02*
X176327D01*
X176827Y96909D01*
X177327Y96409D01*
X177827D01*
X177327Y95909D02*
X177827Y96409D01*
X177327Y95909D02*
X177827Y95409D01*
X177327D02*
X177827D01*
X176827Y94909D02*
X177327Y95409D01*
X182217Y78120D02*
X182717Y77620D01*
X181717Y78120D02*
X182217D01*
X181717D02*
X182217Y78620D01*
X181717Y79120D02*
X182217Y78620D01*
X181717Y79120D02*
X182217D01*
X182717Y79620D01*
X183217Y79120D01*
X183716D01*
X183217Y78620D02*
X183716Y79120D01*
X183217Y78620D02*
X183716Y78120D01*
X183217D02*
X183716D01*
X182717Y77620D02*
X183217Y78120D01*
X177130D02*
X177630Y77620D01*
X176630Y78120D02*
X177130D01*
X176630D02*
X177130Y78620D01*
X176630Y79120D02*
X177130Y78620D01*
X176630Y79120D02*
X177130D01*
X177630Y79620D01*
X178130Y79120D01*
X178630D01*
X178130Y78620D02*
X178630Y79120D01*
X178130Y78620D02*
X178630Y78120D01*
X178130D02*
X178630D01*
X177630Y77620D02*
X178130Y78120D01*
X172043D02*
X172543Y77620D01*
X171543Y78120D02*
X172043D01*
X171543D02*
X172043Y78620D01*
X171543Y79120D02*
X172043Y78620D01*
X171543Y79120D02*
X172043D01*
X172543Y79620D01*
X173043Y79120D01*
X173543D01*
X173043Y78620D02*
X173543Y79120D01*
X173043Y78620D02*
X173543Y78120D01*
X173043D02*
X173543D01*
X172543Y77620D02*
X173043Y78120D01*
X13421Y30823D02*
X13921Y30323D01*
X12921Y30823D02*
X13421D01*
X12921D02*
X13421Y31323D01*
X12921Y31823D02*
X13421Y31323D01*
X12921Y31823D02*
X13421D01*
X13921Y32323D01*
X14421Y31823D01*
X14921D01*
X14421Y31323D02*
X14921Y31823D01*
X14421Y31323D02*
X14921Y30823D01*
X14421D02*
X14921D01*
X13921Y30323D02*
X14421Y30823D01*
X31626Y15429D02*
X32126Y14929D01*
X31126Y15429D02*
X31626D01*
X31126D02*
X31626Y15929D01*
X31126Y16429D02*
X31626Y15929D01*
X31126Y16429D02*
X31626D01*
X32126Y16929D01*
X32626Y16429D01*
X33126D01*
X32626Y15929D02*
X33126Y16429D01*
X32626Y15929D02*
X33126Y15429D01*
X32626D02*
X33126D01*
X32126Y14929D02*
X32626Y15429D01*
X36088D02*
X36588Y14929D01*
X35588Y15429D02*
X36088D01*
X35588D02*
X36088Y15929D01*
X35588Y16429D02*
X36088Y15929D01*
X35588Y16429D02*
X36088D01*
X36588Y16929D01*
X37088Y16429D01*
X37588D01*
X37088Y15929D02*
X37588Y16429D01*
X37088Y15929D02*
X37588Y15429D01*
X37088D02*
X37588D01*
X36588Y14929D02*
X37088Y15429D01*
X158658Y47319D02*
X159158Y46819D01*
X158158Y47319D02*
X158658D01*
X158158D02*
X158658Y47819D01*
X158158Y48319D02*
X158658Y47819D01*
X158158Y48319D02*
X158658D01*
X159158Y48819D01*
X159658Y48319D01*
X160158D01*
X159658Y47819D02*
X160158Y48319D01*
X159658Y47819D02*
X160158Y47319D01*
X159658D02*
X160158D01*
X159158Y46819D02*
X159658Y47319D01*
X163945D02*
X164445Y46819D01*
X163445Y47319D02*
X163945D01*
X163445D02*
X163945Y47819D01*
X163445Y48319D02*
X163945Y47819D01*
X163445Y48319D02*
X163945D01*
X164445Y48819D01*
X164945Y48319D01*
X165445D01*
X164945Y47819D02*
X165445Y48319D01*
X164945Y47819D02*
X165445Y47319D01*
X164945D02*
X165445D01*
X164445Y46819D02*
X164945Y47319D01*
X169232D02*
X169732Y46819D01*
X168732Y47319D02*
X169232D01*
X168732D02*
X169232Y47819D01*
X168732Y48319D02*
X169232Y47819D01*
X168732Y48319D02*
X169232D01*
X169732Y48819D01*
X170232Y48319D01*
X170732D01*
X170232Y47819D02*
X170732Y48319D01*
X170232Y47819D02*
X170732Y47319D01*
X170232D02*
X170732D01*
X169732Y46819D02*
X170232Y47319D01*
X174854Y43559D02*
X175354Y43059D01*
X174354Y43559D02*
X174854D01*
X174354D02*
X174854Y44059D01*
X174354Y44559D02*
X174854Y44059D01*
X174354Y44559D02*
X174854D01*
X175354Y45059D01*
X175854Y44559D01*
X176354D01*
X175854Y44059D02*
X176354Y44559D01*
X175854Y44059D02*
X176354Y43559D01*
X175854D02*
X176354D01*
X175354Y43059D02*
X175854Y43559D01*
X174988Y35396D02*
X175488Y34896D01*
X174488Y35396D02*
X174988D01*
X174488D02*
X174988Y35896D01*
X174488Y36396D02*
X174988Y35896D01*
X174488Y36396D02*
X174988D01*
X175488Y36896D01*
X175988Y36396D01*
X176488D01*
X175988Y35896D02*
X176488Y36396D01*
X175988Y35896D02*
X176488Y35396D01*
X175988D02*
X176488D01*
X175488Y34896D02*
X175988Y35396D01*
X88382Y37064D02*
X88882Y36564D01*
X87882Y37064D02*
X88382D01*
X87882D02*
X88382Y37564D01*
X87882Y38064D02*
X88382Y37564D01*
X87882Y38064D02*
X88382D01*
X88882Y38564D01*
X89382Y38064D01*
X89882D01*
X89382Y37564D02*
X89882Y38064D01*
X89382Y37564D02*
X89882Y37064D01*
X89382D02*
X89882D01*
X88882Y36564D02*
X89382Y37064D01*
X146209Y62815D02*
X146709Y62315D01*
X145709Y62815D02*
X146209D01*
X145709D02*
X146209Y63315D01*
X145709Y63815D02*
X146209Y63315D01*
X145709Y63815D02*
X146209D01*
X146709Y64315D01*
X147209Y63815D01*
X147709D01*
X147209Y63315D02*
X147709Y63815D01*
X147209Y63315D02*
X147709Y62815D01*
X147209D02*
X147709D01*
X146709Y62315D02*
X147209Y62815D01*
X143532Y101146D02*
X144032Y100646D01*
X143032Y101146D02*
X143532D01*
X143032D02*
X143532Y101646D01*
X143032Y102146D02*
X143532Y101646D01*
X143032Y102146D02*
X143532D01*
X144032Y102646D01*
X144532Y102146D01*
X145031D01*
X144532Y101646D02*
X145031Y102146D01*
X144532Y101646D02*
X145031Y101146D01*
X144532D02*
X145031D01*
X144032Y100646D02*
X144532Y101146D01*
X95342Y86585D02*
X95842Y86085D01*
X94842Y86585D02*
X95342D01*
X94842D02*
X95342Y87085D01*
X94842Y87585D02*
X95342Y87085D01*
X94842Y87585D02*
X95342D01*
X95842Y88085D01*
X96342Y87585D01*
X96842D01*
X96342Y87085D02*
X96842Y87585D01*
X96342Y87085D02*
X96842Y86585D01*
X96342D02*
X96842D01*
X95842Y86085D02*
X96342Y86585D01*
X13287Y60933D02*
X13787Y60433D01*
X12787Y60933D02*
X13287D01*
X12787D02*
X13287Y61433D01*
X12787Y61933D02*
X13287Y61433D01*
X12787Y61933D02*
X13287D01*
X13787Y62433D01*
X14287Y61933D01*
X14787D01*
X14287Y61433D02*
X14787Y61933D01*
X14287Y61433D02*
X14787Y60933D01*
X14287D02*
X14787D01*
X13787Y60433D02*
X14287Y60933D01*
X117965Y114083D02*
X118465Y113583D01*
X117465Y114083D02*
X117965D01*
X117465D02*
X117965Y114583D01*
X117465Y115083D02*
X117965Y114583D01*
X117465Y115083D02*
X117965D01*
X118465Y115583D01*
X118965Y115083D01*
X119465D01*
X118965Y114583D02*
X119465Y115083D01*
X118965Y114583D02*
X119465Y114083D01*
X118965D02*
X119465D01*
X118465Y113583D02*
X118965Y114083D01*
X127335D02*
X127835Y113583D01*
X126835Y114083D02*
X127335D01*
X126835D02*
X127335Y114583D01*
X126835Y115083D02*
X127335Y114583D01*
X126835Y115083D02*
X127335D01*
X127835Y115583D01*
X128335Y115083D01*
X128835D01*
X128335Y114583D02*
X128835Y115083D01*
X128335Y114583D02*
X128835Y114083D01*
X128335D02*
X128835D01*
X127835Y113583D02*
X128335Y114083D01*
X186098Y63640D02*
X186598Y63140D01*
X185598Y63640D02*
X186098D01*
X185598D02*
X186098Y64140D01*
X185598Y64640D02*
X186098Y64140D01*
X185598Y64640D02*
X186098D01*
X186598Y65140D01*
X187098Y64640D01*
X187598D01*
X187098Y64140D02*
X187598Y64640D01*
X187098Y64140D02*
X187598Y63640D01*
X187098D02*
X187598D01*
X186598Y63140D02*
X187098Y63640D01*
X191185D02*
X191685Y63140D01*
X190685Y63640D02*
X191185D01*
X190685D02*
X191185Y64140D01*
X190685Y64640D02*
X191185Y64140D01*
X190685Y64640D02*
X191185D01*
X191685Y65140D01*
X192185Y64640D01*
X192685D01*
X192185Y64140D02*
X192685Y64640D01*
X192185Y64140D02*
X192685Y63640D01*
X192185D02*
X192685D01*
X191685Y63140D02*
X192185Y63640D01*
X196272D02*
X196772Y63140D01*
X195772Y63640D02*
X196272D01*
X195772D02*
X196272Y64140D01*
X195772Y64640D02*
X196272Y64140D01*
X195772Y64640D02*
X196272D01*
X196772Y65140D01*
X197272Y64640D01*
X197772D01*
X197272Y64140D02*
X197772Y64640D01*
X197272Y64140D02*
X197772Y63640D01*
X197272D02*
X197772D01*
X196772Y63140D02*
X197272Y63640D01*
X186098Y53847D02*
X186598Y53347D01*
X185598Y53847D02*
X186098D01*
X185598D02*
X186098Y54347D01*
X185598Y54847D02*
X186098Y54347D01*
X185598Y54847D02*
X186098D01*
X186598Y55347D01*
X187098Y54847D01*
X187598D01*
X187098Y54347D02*
X187598Y54847D01*
X187098Y54347D02*
X187598Y53847D01*
X187098D02*
X187598D01*
X186598Y53347D02*
X187098Y53847D01*
X191185D02*
X191685Y53347D01*
X190685Y53847D02*
X191185D01*
X190685D02*
X191185Y54347D01*
X190685Y54847D02*
X191185Y54347D01*
X190685Y54847D02*
X191185D01*
X191685Y55347D01*
X192185Y54847D01*
X192685D01*
X192185Y54347D02*
X192685Y54847D01*
X192185Y54347D02*
X192685Y53847D01*
X192185D02*
X192685D01*
X191685Y53347D02*
X192185Y53847D01*
X196272D02*
X196772Y53347D01*
X195772Y53847D02*
X196272D01*
X195772D02*
X196272Y54347D01*
X195772Y54847D02*
X196272Y54347D01*
X195772Y54847D02*
X196272D01*
X196772Y55347D01*
X197272Y54847D01*
X197772D01*
X197272Y54347D02*
X197772Y54847D01*
X197272Y54347D02*
X197772Y53847D01*
X197272D02*
X197772D01*
X196772Y53347D02*
X197272Y53847D01*
X196272Y58799D02*
X196772Y58299D01*
X195772Y58799D02*
X196272D01*
X195772D02*
X196272Y59299D01*
X195772Y59799D02*
X196272Y59299D01*
X195772Y59799D02*
X196272D01*
X196772Y60299D01*
X197272Y59799D01*
X197772D01*
X197272Y59299D02*
X197772Y59799D01*
X197272Y59299D02*
X197772Y58799D01*
X197272D02*
X197772D01*
X196772Y58299D02*
X197272Y58799D01*
X191185D02*
X191685Y58299D01*
X190685Y58799D02*
X191185D01*
X190685D02*
X191185Y59299D01*
X190685Y59799D02*
X191185Y59299D01*
X190685Y59799D02*
X191185D01*
X191685Y60299D01*
X192185Y59799D01*
X192685D01*
X192185Y59299D02*
X192685Y59799D01*
X192185Y59299D02*
X192685Y58799D01*
X192185D02*
X192685D01*
X191685Y58299D02*
X192185Y58799D01*
X186098D02*
X186598Y58299D01*
X185598Y58799D02*
X186098D01*
X185598D02*
X186098Y59299D01*
X185598Y59799D02*
X186098Y59299D01*
X185598Y59799D02*
X186098D01*
X186598Y60299D01*
X187098Y59799D01*
X187598D01*
X187098Y59299D02*
X187598Y59799D01*
X187098Y59299D02*
X187598Y58799D01*
X187098D02*
X187598D01*
X186598Y58299D02*
X187098Y58799D01*
X186232Y32451D02*
X186732Y31951D01*
X185732Y32451D02*
X186232D01*
X185732D02*
X186232Y32951D01*
X185732Y33451D02*
X186232Y32951D01*
X185732Y33451D02*
X186232D01*
X186732Y33951D01*
X187232Y33451D01*
X187732D01*
X187232Y32951D02*
X187732Y33451D01*
X187232Y32951D02*
X187732Y32451D01*
X187232D02*
X187732D01*
X186732Y31951D02*
X187232Y32451D01*
X191319D02*
X191819Y31951D01*
X190819Y32451D02*
X191319D01*
X190819D02*
X191319Y32951D01*
X190819Y33451D02*
X191319Y32951D01*
X190819Y33451D02*
X191319D01*
X191819Y33951D01*
X192319Y33451D01*
X192819D01*
X192319Y32951D02*
X192819Y33451D01*
X192319Y32951D02*
X192819Y32451D01*
X192319D02*
X192819D01*
X191819Y31951D02*
X192319Y32451D01*
X196405D02*
X196906Y31951D01*
X195905Y32451D02*
X196405D01*
X195905D02*
X196405Y32951D01*
X195905Y33451D02*
X196405Y32951D01*
X195905Y33451D02*
X196405D01*
X196906Y33951D01*
X197406Y33451D01*
X197906D01*
X197406Y32951D02*
X197906Y33451D01*
X197406Y32951D02*
X197906Y32451D01*
X197406D02*
X197906D01*
X196906Y31951D02*
X197406Y32451D01*
X186232Y22658D02*
X186732Y22158D01*
X185732Y22658D02*
X186232D01*
X185732D02*
X186232Y23157D01*
X185732Y23658D02*
X186232Y23157D01*
X185732Y23658D02*
X186232D01*
X186732Y24158D01*
X187232Y23658D01*
X187732D01*
X187232Y23157D02*
X187732Y23658D01*
X187232Y23157D02*
X187732Y22658D01*
X187232D02*
X187732D01*
X186732Y22158D02*
X187232Y22658D01*
X191319D02*
X191819Y22158D01*
X190819Y22658D02*
X191319D01*
X190819D02*
X191319Y23157D01*
X190819Y23658D02*
X191319Y23157D01*
X190819Y23658D02*
X191319D01*
X191819Y24158D01*
X192319Y23658D01*
X192819D01*
X192319Y23157D02*
X192819Y23658D01*
X192319Y23157D02*
X192819Y22658D01*
X192319D02*
X192819D01*
X191819Y22158D02*
X192319Y22658D01*
X196405D02*
X196906Y22158D01*
X195905Y22658D02*
X196405D01*
X195905D02*
X196405Y23157D01*
X195905Y23658D02*
X196405Y23157D01*
X195905Y23658D02*
X196405D01*
X196906Y24158D01*
X197406Y23658D01*
X197906D01*
X197406Y23157D02*
X197906Y23658D01*
X197406Y23157D02*
X197906Y22658D01*
X197406D02*
X197906D01*
X196906Y22158D02*
X197406Y22658D01*
X196405Y27610D02*
X196906Y27110D01*
X195905Y27610D02*
X196405D01*
X195905D02*
X196405Y28110D01*
X195905Y28610D02*
X196405Y28110D01*
X195905Y28610D02*
X196405D01*
X196906Y29110D01*
X197406Y28610D01*
X197906D01*
X197406Y28110D02*
X197906Y28610D01*
X197406Y28110D02*
X197906Y27610D01*
X197406D02*
X197906D01*
X196906Y27110D02*
X197406Y27610D01*
X191319D02*
X191819Y27110D01*
X190819Y27610D02*
X191319D01*
X190819D02*
X191319Y28110D01*
X190819Y28610D02*
X191319Y28110D01*
X190819Y28610D02*
X191319D01*
X191819Y29110D01*
X192319Y28610D01*
X192819D01*
X192319Y28110D02*
X192819Y28610D01*
X192319Y28110D02*
X192819Y27610D01*
X192319D02*
X192819D01*
X191819Y27110D02*
X192319Y27610D01*
X186232D02*
X186732Y27110D01*
X185732Y27610D02*
X186232D01*
X185732D02*
X186232Y28110D01*
X185732Y28610D02*
X186232Y28110D01*
X185732Y28610D02*
X186232D01*
X186732Y29110D01*
X187232Y28610D01*
X187732D01*
X187232Y28110D02*
X187732Y28610D01*
X187232Y28110D02*
X187732Y27610D01*
X187232D02*
X187732D01*
X186732Y27110D02*
X187232Y27610D01*
X191587Y95409D02*
X192087Y94909D01*
X191087Y95409D02*
X191587D01*
X191087D02*
X191587Y95909D01*
X191087Y96409D02*
X191587Y95909D01*
X191087Y96409D02*
X191587D01*
X192087Y96909D01*
X192587Y96409D01*
X193087D01*
X192587Y95909D02*
X193087Y96409D01*
X192587Y95909D02*
X193087Y95409D01*
X192587D02*
X193087D01*
X192087Y94909D02*
X192587Y95409D01*
X191587Y85616D02*
X192087Y85116D01*
X191087Y85616D02*
X191587D01*
X191087D02*
X191587Y86116D01*
X191087Y86616D02*
X191587Y86116D01*
X191087Y86616D02*
X191587D01*
X192087Y87116D01*
X192587Y86616D01*
X193087D01*
X192587Y86116D02*
X193087Y86616D01*
X192587Y86116D02*
X193087Y85616D01*
X192587D02*
X193087D01*
X192087Y85116D02*
X192587Y85616D01*
X191587Y90569D02*
X192087Y90069D01*
X191087Y90569D02*
X191587D01*
X191087D02*
X191587Y91069D01*
X191087Y91569D02*
X191587Y91069D01*
X191087Y91569D02*
X191587D01*
X192087Y92069D01*
X192587Y91569D01*
X193087D01*
X192587Y91069D02*
X193087Y91569D01*
X192587Y91069D02*
X193087Y90569D01*
X192587D02*
X193087D01*
X192087Y90069D02*
X192587Y90569D01*
X119303D02*
X119803Y90069D01*
X118803Y90569D02*
X119303D01*
X118803D02*
X119303Y91069D01*
X118803Y91569D02*
X119303Y91069D01*
X118803Y91569D02*
X119303D01*
X119803Y92069D01*
X120303Y91569D01*
X120803D01*
X120303Y91069D02*
X120803Y91569D01*
X120303Y91069D02*
X120803Y90569D01*
X120303D02*
X120803D01*
X119803Y90069D02*
X120303Y90569D01*
X73658Y46752D02*
X74158Y46252D01*
X73158Y46752D02*
X73658D01*
X73158D02*
X73658Y47252D01*
X73158Y47752D02*
X73658Y47252D01*
X73158Y47752D02*
X73658D01*
X74158Y48252D01*
X74657Y47752D01*
X75157D01*
X74657Y47252D02*
X75157Y47752D01*
X74657Y47252D02*
X75157Y46752D01*
X74657D02*
X75157D01*
X74158Y46252D02*
X74657Y46752D01*
X75222Y49295D02*
X75722Y48795D01*
X74722Y49295D02*
X75222D01*
X74722D02*
X75222Y49795D01*
X74722Y50295D02*
X75222Y49795D01*
X74722Y50295D02*
X75222D01*
X75722Y50795D01*
X76222Y50295D01*
X76722D01*
X76222Y49795D02*
X76722Y50295D01*
X76222Y49795D02*
X76722Y49295D01*
X76222D02*
X76722D01*
X75722Y48795D02*
X76222Y49295D01*
X46628Y14760D02*
X47128Y14260D01*
X46128Y14760D02*
X46628D01*
X46128D02*
X46628Y15260D01*
X46128Y15760D02*
X46628Y15260D01*
X46128Y15760D02*
X46628D01*
X47128Y16260D01*
X47627Y15760D01*
X48127D01*
X47627Y15260D02*
X48127Y15760D01*
X47627Y15260D02*
X48127Y14760D01*
X47627D02*
X48127D01*
X47128Y14260D02*
X47627Y14760D01*
X29217Y92933D02*
X29717Y92433D01*
X28716Y92933D02*
X29217D01*
X28716D02*
X29217Y93433D01*
X28716Y93933D02*
X29217Y93433D01*
X28716Y93933D02*
X29217D01*
X29717Y94433D01*
X30217Y93933D01*
X30716D01*
X30217Y93433D02*
X30716Y93933D01*
X30217Y93433D02*
X30716Y92933D01*
X30217D02*
X30716D01*
X29717Y92433D02*
X30217Y92933D01*
X29217Y83697D02*
X29717Y83197D01*
X28716Y83697D02*
X29217D01*
X28716D02*
X29217Y84197D01*
X28716Y84697D02*
X29217Y84197D01*
X28716Y84697D02*
X29217D01*
X29717Y85197D01*
X30217Y84697D01*
X30716D01*
X30217Y84197D02*
X30716Y84697D01*
X30217Y84197D02*
X30716Y83697D01*
X30217D02*
X30716D01*
X29717Y83197D02*
X30217Y83697D01*
X26004Y43357D02*
X26504Y42857D01*
X25504Y43357D02*
X26004D01*
X25504D02*
X26004Y43857D01*
X25504Y44357D02*
X26004Y43857D01*
X25504Y44357D02*
X26004D01*
X26504Y44857D01*
X27004Y44357D01*
X27504D01*
X27004Y43857D02*
X27504Y44357D01*
X27004Y43857D02*
X27504Y43357D01*
X27004D02*
X27504D01*
X26504Y42857D02*
X27004Y43357D01*
X26004Y34282D02*
X26504Y33782D01*
X25504Y34282D02*
X26004D01*
X25504D02*
X26004Y34782D01*
X25504Y35282D02*
X26004Y34782D01*
X25504Y35282D02*
X26004D01*
X26504Y35782D01*
X27004Y35282D01*
X27504D01*
X27004Y34782D02*
X27504Y35282D01*
X27004Y34782D02*
X27504Y34282D01*
X27004D02*
X27504D01*
X26504Y33782D02*
X27004Y34282D01*
X15238Y6728D02*
X15738Y6228D01*
X14738Y6728D02*
X15238D01*
X14738D02*
X15238Y7228D01*
X14738Y7728D02*
X15238Y7228D01*
X14738Y7728D02*
X15238D01*
X15738Y8228D01*
X16238Y7728D01*
X16738D01*
X16238Y7228D02*
X16738Y7728D01*
X16238Y7228D02*
X16738Y6728D01*
X16238D02*
X16738D01*
X15738Y6228D02*
X16238Y6728D01*
X18776Y6862D02*
X19276Y6362D01*
X18276Y6862D02*
X18776D01*
X18276D02*
X18776Y7362D01*
X18276Y7862D02*
X18776Y7362D01*
X18276Y7862D02*
X18776D01*
X19276Y8362D01*
X19776Y7862D01*
X20276D01*
X19776Y7362D02*
X20276Y7862D01*
X19776Y7362D02*
X20276Y6862D01*
X19776D02*
X20276D01*
X19276Y6362D02*
X19776Y6862D01*
X25782Y102925D02*
X26282Y102425D01*
X25282Y102925D02*
X25782D01*
X25282D02*
X25782Y103425D01*
X25282Y103925D02*
X25782Y103425D01*
X25282Y103925D02*
X25782D01*
X26282Y104425D01*
X26782Y103925D01*
X27282D01*
X26782Y103425D02*
X27282Y103925D01*
X26782Y103425D02*
X27282Y102925D01*
X26782D02*
X27282D01*
X26282Y102425D02*
X26782Y102925D01*
X16902Y106765D02*
X17402Y106265D01*
X16402Y106765D02*
X16902D01*
X16402D02*
X16902Y107265D01*
X16402Y107765D02*
X16902Y107265D01*
X16402Y107765D02*
X16902D01*
X17402Y108265D01*
X17902Y107765D01*
X18402D01*
X17902Y107265D02*
X18402Y107765D01*
X17902Y107265D02*
X18402Y106765D01*
X17902D02*
X18402D01*
X17402Y106265D02*
X17902Y106765D01*
X16902Y110424D02*
X17402Y109924D01*
X16402Y110424D02*
X16902D01*
X16402D02*
X16902Y110924D01*
X16402Y111424D02*
X16902Y110924D01*
X16402Y111424D02*
X16902D01*
X17402Y111924D01*
X17902Y111424D01*
X18402D01*
X17902Y110924D02*
X18402Y111424D01*
X17902Y110924D02*
X18402Y110424D01*
X17902D02*
X18402D01*
X17402Y109924D02*
X17902Y110424D01*
X16902Y114083D02*
X17402Y113583D01*
X16402Y114083D02*
X16902D01*
X16402D02*
X16902Y114583D01*
X16402Y115083D02*
X16902Y114583D01*
X16402Y115083D02*
X16902D01*
X17402Y115583D01*
X17902Y115083D01*
X18402D01*
X17902Y114583D02*
X18402Y115083D01*
X17902Y114583D02*
X18402Y114083D01*
X17902D02*
X18402D01*
X17402Y113583D02*
X17902Y114083D01*
X51083Y93335D02*
X51583Y92835D01*
X50583Y93335D02*
X51083D01*
X50583D02*
X51083Y93835D01*
X50583Y94335D02*
X51083Y93835D01*
X50583Y94335D02*
X51083D01*
X51583Y94835D01*
X52083Y94335D01*
X52583D01*
X52083Y93835D02*
X52583Y94335D01*
X52083Y93835D02*
X52583Y93335D01*
X52083D02*
X52583D01*
X51583Y92835D02*
X52083Y93335D01*
X122650Y114083D02*
X123150Y113583D01*
X122150Y114083D02*
X122650D01*
X122150D02*
X122650Y114583D01*
X122150Y115083D02*
X122650Y114583D01*
X122150Y115083D02*
X122650D01*
X123150Y115583D01*
X123650Y115083D01*
X124150D01*
X123650Y114583D02*
X124150Y115083D01*
X123650Y114583D02*
X124150Y114083D01*
X123650D02*
X124150D01*
X123150Y113583D02*
X123650Y114083D01*
X139248Y101055D02*
X139748Y100555D01*
X138748Y101055D02*
X139248D01*
X138748D02*
X139248Y101555D01*
X138748Y102055D02*
X139248Y101555D01*
X138748Y102055D02*
X139248D01*
X139748Y102555D01*
X140248Y102055D01*
X140748D01*
X140248Y101555D02*
X140748Y102055D01*
X140248Y101555D02*
X140748Y101055D01*
X140248D02*
X140748D01*
X139748Y100555D02*
X140248Y101055D01*
X94138Y34107D02*
X94638Y33607D01*
X93638Y34107D02*
X94138D01*
X93638D02*
X94138Y34607D01*
X93638Y35107D02*
X94138Y34607D01*
X93638Y35107D02*
X94138D01*
X94638Y35607D01*
X95138Y35107D01*
X95638D01*
X95138Y34607D02*
X95638Y35107D01*
X95138Y34607D02*
X95638Y34107D01*
X95138D02*
X95638D01*
X94638Y33607D02*
X95138Y34107D01*
X104445Y36445D02*
X104945Y35945D01*
X103945Y36445D02*
X104445D01*
X103945D02*
X104445Y36945D01*
X103945Y37445D02*
X104445Y36945D01*
X103945Y37445D02*
X104445D01*
X104945Y37945D01*
X105445Y37445D01*
X105945D01*
X105445Y36945D02*
X105945Y37445D01*
X105445Y36945D02*
X105945Y36445D01*
X105445D02*
X105945D01*
X104945Y35945D02*
X105445Y36445D01*
X123996Y91542D02*
X124496Y91042D01*
X123496Y91542D02*
X123996D01*
X123496D02*
X123996Y92042D01*
X123496Y92542D02*
X123996Y92042D01*
X123496Y92542D02*
X123996D01*
X124496Y93042D01*
X124996Y92542D01*
X125496D01*
X124996Y92042D02*
X125496Y92542D01*
X124996Y92042D02*
X125496Y91542D01*
X124996D02*
X125496D01*
X124496Y91042D02*
X124996Y91542D01*
X47153Y23595D02*
X47653Y23095D01*
X46654Y23595D02*
X47153D01*
X46654D02*
X47153Y24094D01*
X46654Y24595D02*
X47153Y24094D01*
X46654Y24595D02*
X47153D01*
X47653Y25095D01*
X48153Y24595D01*
X48654D01*
X48153Y24094D02*
X48654Y24595D01*
X48153Y24094D02*
X48654Y23595D01*
X48153D02*
X48654D01*
X47653Y23095D02*
X48153Y23595D01*
X77673Y106777D02*
X78173Y106277D01*
X77173Y106777D02*
X77673D01*
X77173D02*
X77673Y107277D01*
X77173Y107777D02*
X77673Y107277D01*
X77173Y107777D02*
X77673D01*
X78173Y108277D01*
X78673Y107777D01*
X79173D01*
X78673Y107277D02*
X79173Y107777D01*
X78673Y107277D02*
X79173Y106777D01*
X78673D02*
X79173D01*
X78173Y106277D02*
X78673Y106777D01*
X144736Y14894D02*
X145236Y14394D01*
X144236Y14894D02*
X144736D01*
X144236D02*
X144736Y15394D01*
X144236Y15894D02*
X144736Y15394D01*
X144236Y15894D02*
X144736D01*
X145236Y16394D01*
X145736Y15894D01*
X146236D01*
X145736Y15394D02*
X146236Y15894D01*
X145736Y15394D02*
X146236Y14894D01*
X145736D02*
X146236D01*
X145236Y14394D02*
X145736Y14894D01*
X143130Y20382D02*
X143630Y19882D01*
X142630Y20382D02*
X143130D01*
X142630D02*
X143130Y20882D01*
X142630Y21382D02*
X143130Y20882D01*
X142630Y21382D02*
X143130D01*
X143630Y21882D01*
X144130Y21382D01*
X144630D01*
X144130Y20882D02*
X144630Y21382D01*
X144130Y20882D02*
X144630Y20382D01*
X144130D02*
X144630D01*
X143630Y19882D02*
X144130Y20382D01*
X178268Y39390D02*
X178768Y38890D01*
X177768Y39390D02*
X178268D01*
X177768D02*
X178268Y39890D01*
X177768Y40390D02*
X178268Y39890D01*
X177768Y40390D02*
X178268D01*
X178768Y40890D01*
X179268Y40390D01*
X179768D01*
X179268Y39890D02*
X179768Y40390D01*
X179268Y39890D02*
X179768Y39390D01*
X179268D02*
X179768D01*
X178768Y38890D02*
X179268Y39390D01*
X144559Y36847D02*
X145059Y36347D01*
X144059Y36847D02*
X144559D01*
X144059D02*
X144559Y37347D01*
X144059Y37846D02*
X144559Y37347D01*
X144059Y37846D02*
X144559D01*
X145059Y38346D01*
X145559Y37846D01*
X146059D01*
X145559Y37347D02*
X146059Y37846D01*
X145559Y37347D02*
X146059Y36847D01*
X145559D02*
X146059D01*
X145059Y36347D02*
X145559Y36847D01*
X125862Y9807D02*
X126362Y9307D01*
X125362Y9807D02*
X125862D01*
X125362D02*
X125862Y10307D01*
X125362Y10807D02*
X125862Y10307D01*
X125362Y10807D02*
X125862D01*
X126362Y11307D01*
X126862Y10807D01*
X127362D01*
X126862Y10307D02*
X127362Y10807D01*
X126862Y10307D02*
X127362Y9807D01*
X126862D02*
X127362D01*
X126362Y9307D02*
X126862Y9807D01*
X127188Y15028D02*
X127688Y14528D01*
X126688Y15028D02*
X127188D01*
X126688D02*
X127188Y15528D01*
X126688Y16028D02*
X127188Y15528D01*
X126688Y16028D02*
X127188D01*
X127688Y16528D01*
X128188Y16028D01*
X128688D01*
X128188Y15528D02*
X128688Y16028D01*
X128188Y15528D02*
X128688Y15028D01*
X128188D02*
X128688D01*
X127688Y14528D02*
X128188Y15028D01*
X133382D02*
X133882Y14528D01*
X132882Y15028D02*
X133382D01*
X132882D02*
X133382Y15528D01*
X132882Y16028D02*
X133382Y15528D01*
X132882Y16028D02*
X133382D01*
X133882Y16528D01*
X134382Y16028D01*
X134882D01*
X134382Y15528D02*
X134882Y16028D01*
X134382Y15528D02*
X134882Y15028D01*
X134382D02*
X134882D01*
X133882Y14528D02*
X134382Y15028D01*
X118992Y25736D02*
X119492Y25236D01*
X118492Y25736D02*
X118992D01*
X118492D02*
X118992Y26236D01*
X118492Y26736D02*
X118992Y26236D01*
X118492Y26736D02*
X118992D01*
X119492Y27236D01*
X119992Y26736D01*
X120492D01*
X119992Y26236D02*
X120492Y26736D01*
X119992Y26236D02*
X120492Y25736D01*
X119992D02*
X120492D01*
X119492Y25236D02*
X119992Y25736D01*
X135500Y43673D02*
X136000Y43173D01*
X135000Y43673D02*
X135500D01*
X135000D02*
X135500Y44173D01*
X135000Y44673D02*
X135500Y44173D01*
X135000Y44673D02*
X135500D01*
X136000Y45173D01*
X136500Y44673D01*
X137000D01*
X136500Y44173D02*
X137000Y44673D01*
X136500Y44173D02*
X137000Y43673D01*
X136500D02*
X137000D01*
X136000Y43173D02*
X136500Y43673D01*
X103776Y20567D02*
X104276Y20067D01*
X103276Y20567D02*
X103776D01*
X103276D02*
X103776Y21067D01*
X103276Y21567D02*
X103776Y21067D01*
X103276Y21567D02*
X103776D01*
X104276Y22067D01*
X104776Y21567D01*
X105276D01*
X104776Y21067D02*
X105276Y21567D01*
X104776Y21067D02*
X105276Y20567D01*
X104776D02*
X105276D01*
X104276Y20067D02*
X104776Y20567D01*
X134429Y68705D02*
X134929Y68205D01*
X133929Y68705D02*
X134429D01*
X133929D02*
X134429Y69205D01*
X133929Y69705D02*
X134429Y69205D01*
X133929Y69705D02*
X134429D01*
X134929Y70205D01*
X135429Y69705D01*
X135929D01*
X135429Y69205D02*
X135929Y69705D01*
X135429Y69205D02*
X135929Y68705D01*
X135429D02*
X135929D01*
X134929Y68205D02*
X135429Y68705D01*
X171909Y57461D02*
X172409Y56961D01*
X171409Y57461D02*
X171909D01*
X171409D02*
X171909Y57961D01*
X171409Y58461D02*
X171909Y57961D01*
X171409Y58461D02*
X171909D01*
X172409Y58961D01*
X172909Y58461D01*
X173409D01*
X172909Y57961D02*
X173409Y58461D01*
X172909Y57961D02*
X173409Y57461D01*
X172909D02*
X173409D01*
X172409Y56961D02*
X172909Y57461D01*
X120374Y73874D02*
X120874Y73374D01*
X119874Y73874D02*
X120374D01*
X119874D02*
X120374Y74374D01*
X119874Y74874D02*
X120374Y74374D01*
X119874Y74874D02*
X120374D01*
X120874Y75374D01*
X121374Y74874D01*
X121874D01*
X121374Y74374D02*
X121874Y74874D01*
X121374Y74374D02*
X121874Y73874D01*
X121374D02*
X121874D01*
X120874Y73374D02*
X121374Y73874D01*
X152464Y14894D02*
X152964Y14394D01*
X151964Y14894D02*
X152464D01*
X151964D02*
X152464Y15394D01*
X151964Y15894D02*
X152464Y15394D01*
X151964Y15894D02*
X152464D01*
X152964Y16394D01*
X153464Y15894D01*
X153964D01*
X153464Y15394D02*
X153964Y15894D01*
X153464Y15394D02*
X153964Y14894D01*
X153464D02*
X153964D01*
X152964Y14394D02*
X153464Y14894D01*
X196405Y48894D02*
X196906Y48394D01*
X195905Y48894D02*
X196405D01*
X195905D02*
X196405Y49394D01*
X195905Y49894D02*
X196405Y49394D01*
X195905Y49894D02*
X196405D01*
X196906Y50394D01*
X197406Y49894D01*
X197906D01*
X197406Y49394D02*
X197906Y49894D01*
X197406Y49394D02*
X197906Y48894D01*
X197406D02*
X197906D01*
X196906Y48394D02*
X197406Y48894D01*
X191319D02*
X191819Y48394D01*
X190819Y48894D02*
X191319D01*
X190819D02*
X191319Y49394D01*
X190819Y49894D02*
X191319Y49394D01*
X190819Y49894D02*
X191319D01*
X191819Y50394D01*
X192319Y49894D01*
X192819D01*
X192319Y49394D02*
X192819Y49894D01*
X192319Y49394D02*
X192819Y48894D01*
X192319D02*
X192819D01*
X191819Y48394D02*
X192319Y48894D01*
X186232D02*
X186732Y48394D01*
X185732Y48894D02*
X186232D01*
X185732D02*
X186232Y49394D01*
X185732Y49894D02*
X186232Y49394D01*
X185732Y49894D02*
X186232D01*
X186732Y50394D01*
X187232Y49894D01*
X187732D01*
X187232Y49394D02*
X187732Y49894D01*
X187232Y49394D02*
X187732Y48894D01*
X187232D02*
X187732D01*
X186732Y48394D02*
X187232Y48894D01*
X196272Y68571D02*
X196772Y68071D01*
X195772Y68571D02*
X196272D01*
X195772D02*
X196272Y69071D01*
X195772Y69571D02*
X196272Y69071D01*
X195772Y69571D02*
X196272D01*
X196772Y70071D01*
X197272Y69571D01*
X197772D01*
X197272Y69071D02*
X197772Y69571D01*
X197272Y69071D02*
X197772Y68571D01*
X197272D02*
X197772D01*
X196772Y68071D02*
X197272Y68571D01*
X191185D02*
X191685Y68071D01*
X190685Y68571D02*
X191185D01*
X190685D02*
X191185Y69071D01*
X190685Y69571D02*
X191185Y69071D01*
X190685Y69571D02*
X191185D01*
X191685Y70071D01*
X192185Y69571D01*
X192685D01*
X192185Y69071D02*
X192685Y69571D01*
X192185Y69071D02*
X192685Y68571D01*
X192185D02*
X192685D01*
X191685Y68071D02*
X192185Y68571D01*
X186098D02*
X186598Y68071D01*
X185598Y68571D02*
X186098D01*
X185598D02*
X186098Y69071D01*
X185598Y69571D02*
X186098Y69071D01*
X185598Y69571D02*
X186098D01*
X186598Y70071D01*
X187098Y69571D01*
X187598D01*
X187098Y69071D02*
X187598Y69571D01*
X187098Y69071D02*
X187598Y68571D01*
X187098D02*
X187598D01*
X186598Y68071D02*
X187098Y68571D01*
X196405Y113815D02*
X196906Y113315D01*
X195905Y113815D02*
X196405D01*
X195905D02*
X196405Y114315D01*
X195905Y114815D02*
X196405Y114315D01*
X195905Y114815D02*
X196405D01*
X196906Y115315D01*
X197406Y114815D01*
X197906D01*
X197406Y114315D02*
X197906Y114815D01*
X197406Y114315D02*
X197906Y113815D01*
X197406D02*
X197906D01*
X196906Y113315D02*
X197406Y113815D01*
X178966D02*
X179466Y113315D01*
X178466Y113815D02*
X178966D01*
X178466D02*
X178966Y114315D01*
X178466Y114815D02*
X178966Y114315D01*
X178466Y114815D02*
X178966D01*
X179466Y115315D01*
X179966Y114815D01*
X180466D01*
X179966Y114315D02*
X180466Y114815D01*
X179966Y114315D02*
X180466Y113815D01*
X179966D02*
X180466D01*
X179466Y113315D02*
X179966Y113815D01*
X178966Y2847D02*
X179466Y2347D01*
X178466Y2847D02*
X178966D01*
X178466D02*
X178966Y3347D01*
X178466Y3847D02*
X178966Y3347D01*
X178466Y3847D02*
X178966D01*
X179466Y4346D01*
X179966Y3847D01*
X180466D01*
X179966Y3347D02*
X180466Y3847D01*
X179966Y3347D02*
X180466Y2847D01*
X179966D02*
X180466D01*
X179466Y2347D02*
X179966Y2847D01*
X196405D02*
X196906Y2347D01*
X195905Y2847D02*
X196405D01*
X195905D02*
X196405Y3347D01*
X195905Y3847D02*
X196405Y3347D01*
X195905Y3847D02*
X196405D01*
X196906Y4346D01*
X197406Y3847D01*
X197906D01*
X197406Y3347D02*
X197906Y3847D01*
X197406Y3347D02*
X197906Y2847D01*
X197406D02*
X197906D01*
X196906Y2347D02*
X197406Y2847D01*
X125862Y6327D02*
X126362Y5827D01*
X125362Y6327D02*
X125862D01*
X125362D02*
X125862Y6827D01*
X125362Y7327D02*
X125862Y6827D01*
X125362Y7327D02*
X125862D01*
X126362Y7827D01*
X126862Y7327D01*
X127362D01*
X126862Y6827D02*
X127362Y7327D01*
X126862Y6827D02*
X127362Y6327D01*
X126862D02*
X127362D01*
X126362Y5827D02*
X126862Y6327D01*
X159461Y14816D02*
X159961Y14316D01*
X158961Y14816D02*
X159461D01*
X158961D02*
X159461Y15316D01*
X158961Y15816D02*
X159461Y15316D01*
X158961Y15816D02*
X159461D01*
X159961Y16316D01*
X160461Y15816D01*
X160961D01*
X160461Y15316D02*
X160961Y15816D01*
X160461Y15316D02*
X160961Y14816D01*
X160461D02*
X160961D01*
X159961Y14316D02*
X160461Y14816D01*
X66831Y9807D02*
X67331Y9307D01*
X66331Y9807D02*
X66831D01*
X66331D02*
X66831Y10307D01*
X66331Y10807D02*
X66831Y10307D01*
X66331Y10807D02*
X66831D01*
X67331Y11307D01*
X67831Y10807D01*
X68331D01*
X67831Y10307D02*
X68331Y10807D01*
X67831Y10307D02*
X68331Y9807D01*
X67831D02*
X68331D01*
X67331Y9307D02*
X67831Y9807D01*
X46886Y27343D02*
X47386Y26842D01*
X46386Y27343D02*
X46886D01*
X46386D02*
X46886Y27843D01*
X46386Y28343D02*
X46886Y27843D01*
X46386Y28343D02*
X46886D01*
X47386Y28842D01*
X47886Y28343D01*
X48386D01*
X47886Y27843D02*
X48386Y28343D01*
X47886Y27843D02*
X48386Y27343D01*
X47886D02*
X48386D01*
X47386Y26842D02*
X47886Y27343D01*
X196673Y90569D02*
X197173Y90069D01*
X196173Y90569D02*
X196673D01*
X196173D02*
X196673Y91069D01*
X196173Y91569D02*
X196673Y91069D01*
X196173Y91569D02*
X196673D01*
X197173Y92069D01*
X197673Y91569D01*
X198173D01*
X197673Y91069D02*
X198173Y91569D01*
X197673Y91069D02*
X198173Y90569D01*
X197673D02*
X198173D01*
X197173Y90069D02*
X197673Y90569D01*
X196673Y85616D02*
X197173Y85116D01*
X196173Y85616D02*
X196673D01*
X196173D02*
X196673Y86116D01*
X196173Y86616D02*
X196673Y86116D01*
X196173Y86616D02*
X196673D01*
X197173Y87116D01*
X197673Y86616D01*
X198173D01*
X197673Y86116D02*
X198173Y86616D01*
X197673Y86116D02*
X198173Y85616D01*
X197673D02*
X198173D01*
X197173Y85116D02*
X197673Y85616D01*
X196673Y95409D02*
X197173Y94909D01*
X196173Y95409D02*
X196673D01*
X196173D02*
X196673Y95909D01*
X196173Y96409D02*
X196673Y95909D01*
X196173Y96409D02*
X196673D01*
X197173Y96909D01*
X197673Y96409D01*
X198173D01*
X197673Y95909D02*
X198173Y96409D01*
X197673Y95909D02*
X198173Y95409D01*
X197673D02*
X198173D01*
X197173Y94909D02*
X197673Y95409D01*
X94272Y70445D02*
X94772Y69945D01*
X93772Y70445D02*
X94272D01*
X93772D02*
X94272Y70945D01*
X93772Y71445D02*
X94272Y70945D01*
X93772Y71445D02*
X94272D01*
X94772Y71945D01*
X95272Y71445D01*
X95772D01*
X95272Y70945D02*
X95772Y71445D01*
X95272Y70945D02*
X95772Y70445D01*
X95272D02*
X95772D01*
X94772Y69945D02*
X95272Y70445D01*
X94272Y51169D02*
X94772Y50669D01*
X93772Y51169D02*
X94272D01*
X93772D02*
X94272Y51669D01*
X93772Y52169D02*
X94272Y51669D01*
X93772Y52169D02*
X94272D01*
X94772Y52669D01*
X95272Y52169D01*
X95772D01*
X95272Y51669D02*
X95772Y52169D01*
X95272Y51669D02*
X95772Y51169D01*
X95272D02*
X95772D01*
X94772Y50669D02*
X95272Y51169D01*
X79012Y37114D02*
X79512Y36614D01*
X78512Y37114D02*
X79012D01*
X78512D02*
X79012Y37614D01*
X78512Y38114D02*
X79012Y37614D01*
X78512Y38114D02*
X79012D01*
X79512Y38614D01*
X80012Y38114D01*
X80512D01*
X80012Y37614D02*
X80512Y38114D01*
X80012Y37614D02*
X80512Y37114D01*
X80012D02*
X80512D01*
X79512Y36614D02*
X80012Y37114D01*
X84232D02*
X84732Y36614D01*
X83732Y37114D02*
X84232D01*
X83732D02*
X84232Y37614D01*
X83732Y38114D02*
X84232Y37614D01*
X83732Y38114D02*
X84232D01*
X84732Y38614D01*
X85232Y38114D01*
X85732D01*
X85232Y37614D02*
X85732Y38114D01*
X85232Y37614D02*
X85732Y37114D01*
X85232D02*
X85732D01*
X84732Y36614D02*
X85232Y37114D01*
X92532Y46886D02*
X93032Y46386D01*
X92032Y46886D02*
X92532D01*
X92032D02*
X92532Y47386D01*
X92032Y47886D02*
X92532Y47386D01*
X92032Y47886D02*
X92532D01*
X93032Y48386D01*
X93532Y47886D01*
X94032D01*
X93532Y47386D02*
X94032Y47886D01*
X93532Y47386D02*
X94032Y46886D01*
X93532D02*
X94032D01*
X93032Y46386D02*
X93532Y46886D01*
X90089Y44744D02*
X90589Y44244D01*
X89589Y44744D02*
X90089D01*
X89589D02*
X90089Y45244D01*
X89589Y45744D02*
X90089Y45244D01*
X89589Y45744D02*
X90089D01*
X90589Y46244D01*
X91089Y45744D01*
X91589D01*
X91089Y45244D02*
X91589Y45744D01*
X91089Y45244D02*
X91589Y44744D01*
X91089D02*
X91589D01*
X90589Y44244D02*
X91089Y44744D01*
X41130Y27343D02*
X41630Y26842D01*
X40630Y27343D02*
X41130D01*
X40630D02*
X41130Y27843D01*
X40630Y28343D02*
X41130Y27843D01*
X40630Y28343D02*
X41130D01*
X41630Y28842D01*
X42130Y28343D01*
X42630D01*
X42130Y27843D02*
X42630Y28343D01*
X42130Y27843D02*
X42630Y27343D01*
X42130D02*
X42630D01*
X41630Y26842D02*
X42130Y27343D01*
X108327Y49831D02*
X108827Y49331D01*
X107827Y49831D02*
X108327D01*
X107827D02*
X108327Y50331D01*
X107827Y50831D02*
X108327Y50331D01*
X107827Y50831D02*
X108327D01*
X108827Y51331D01*
X109327Y50831D01*
X109827D01*
X109327Y50331D02*
X109827Y50831D01*
X109327Y50331D02*
X109827Y49831D01*
X109327D02*
X109827D01*
X108827Y49331D02*
X109327Y49831D01*
X108327Y59067D02*
X108827Y58567D01*
X107827Y59067D02*
X108327D01*
X107827D02*
X108327Y59567D01*
X107827Y60067D02*
X108327Y59567D01*
X107827Y60067D02*
X108327D01*
X108827Y60567D01*
X109327Y60067D01*
X109827D01*
X109327Y59567D02*
X109827Y60067D01*
X109327Y59567D02*
X109827Y59067D01*
X109327D02*
X109827D01*
X108827Y58567D02*
X109327Y59067D01*
X85839Y86910D02*
X86339Y86409D01*
X85339Y86910D02*
X85839D01*
X85339D02*
X85839Y87410D01*
X85339Y87910D02*
X85839Y87410D01*
X85339Y87910D02*
X85839D01*
X86339Y88410D01*
X86839Y87910D01*
X87339D01*
X86839Y87410D02*
X87339Y87910D01*
X86839Y87410D02*
X87339Y86910D01*
X86839D02*
X87339D01*
X86339Y86409D02*
X86839Y86910D01*
X114484Y109535D02*
X114984Y109035D01*
X113984Y109535D02*
X114484D01*
X113984D02*
X114484Y110035D01*
X113984Y110535D02*
X114484Y110035D01*
X113984Y110535D02*
X114484D01*
X114984Y111035D01*
X115484Y110535D01*
X115984D01*
X115484Y110035D02*
X115984Y110535D01*
X115484Y110035D02*
X115984Y109535D01*
X115484D02*
X115984D01*
X114984Y109035D02*
X115484Y109535D01*
X38587Y56524D02*
X39087Y56024D01*
X38087Y56524D02*
X38587D01*
X38087D02*
X38587Y57024D01*
X38087Y57524D02*
X38587Y57024D01*
X38087Y57524D02*
X38587D01*
X39087Y58024D01*
X39587Y57524D01*
X40087D01*
X39587Y57024D02*
X40087Y57524D01*
X39587Y57024D02*
X40087Y56524D01*
X39587D02*
X40087D01*
X39087Y56024D02*
X39587Y56524D01*
X56925Y57193D02*
X57425Y56693D01*
X56425Y57193D02*
X56925D01*
X56425D02*
X56925Y57693D01*
X56425Y58193D02*
X56925Y57693D01*
X56425Y58193D02*
X56925D01*
X57425Y58693D01*
X57925Y58193D01*
X58425D01*
X57925Y57693D02*
X58425Y58193D01*
X57925Y57693D02*
X58425Y57193D01*
X57925D02*
X58425D01*
X57425Y56693D02*
X57925Y57193D01*
X76335Y39390D02*
X76835Y38890D01*
X75835Y39390D02*
X76335D01*
X75835D02*
X76335Y39890D01*
X75835Y40390D02*
X76335Y39890D01*
X75835Y40390D02*
X76335D01*
X76835Y40890D01*
X77335Y40390D01*
X77835D01*
X77335Y39890D02*
X77835Y40390D01*
X77335Y39890D02*
X77835Y39390D01*
X77335D02*
X77835D01*
X76835Y38890D02*
X77335Y39390D01*
X72488Y39961D02*
X73488Y40461D01*
X74488Y39961D01*
X73988Y40961D02*
X74488Y39961D01*
X73988Y40961D02*
X74488Y41961D01*
X73488Y41461D02*
X74488Y41961D01*
X72488D02*
X73488Y41461D01*
X72488Y41961D02*
X72988Y40961D01*
X72488Y39961D02*
X72988Y40961D01*
X72488Y37233D02*
X73488Y37734D01*
X74488Y37233D01*
X73988Y38234D02*
X74488Y37233D01*
X73988Y38234D02*
X74488Y39233D01*
X73488Y38734D02*
X74488Y39233D01*
X72488D02*
X73488Y38734D01*
X72488Y39233D02*
X72988Y38234D01*
X72488Y37233D02*
X72988Y38234D01*
X132957Y33366D02*
X133457Y32866D01*
X132457Y33366D02*
X132957D01*
X132457D02*
X132957Y33866D01*
X132457Y34366D02*
X132957Y33866D01*
X132457Y34366D02*
X132957D01*
X133457Y34866D01*
X133957Y34366D01*
X134457D01*
X133957Y33866D02*
X134457Y34366D01*
X133957Y33866D02*
X134457Y33366D01*
X133957D02*
X134457D01*
X133457Y32866D02*
X133957Y33366D01*
X130547Y30650D02*
X131047Y30150D01*
X130047Y30650D02*
X130547D01*
X130047D02*
X130547Y31150D01*
X130047Y31650D02*
X130547Y31150D01*
X130047Y31650D02*
X130547D01*
X131047Y32150D01*
X131547Y31650D01*
X132047D01*
X131547Y31150D02*
X132047Y31650D01*
X131547Y31150D02*
X132047Y30650D01*
X131547D02*
X132047D01*
X131047Y30150D02*
X131547Y30650D01*
X130547Y35909D02*
X131047Y35409D01*
X130047Y35909D02*
X130547D01*
X130047D02*
X130547Y36409D01*
X130047Y36909D02*
X130547Y36409D01*
X130047Y36909D02*
X130547D01*
X131047Y37409D01*
X131547Y36909D01*
X132047D01*
X131547Y36409D02*
X132047Y36909D01*
X131547Y36409D02*
X132047Y35909D01*
X131547D02*
X132047D01*
X131047Y35409D02*
X131547Y35909D01*
X125862D02*
X126362Y35409D01*
X125362Y35909D02*
X125862D01*
X125362D02*
X125862Y36409D01*
X125362Y36909D02*
X125862Y36409D01*
X125362Y36909D02*
X125862D01*
X126362Y37409D01*
X126862Y36909D01*
X127362D01*
X126862Y36409D02*
X127362Y36909D01*
X126862Y36409D02*
X127362Y35909D01*
X126862D02*
X127362D01*
X126362Y35409D02*
X126862Y35909D01*
X69776Y62642D02*
X70276Y62142D01*
X69276Y62642D02*
X69776D01*
X69276D02*
X69776Y63142D01*
X69276Y63642D02*
X69776Y63142D01*
X69276Y63642D02*
X69776D01*
X70276Y64142D01*
X70776Y63642D01*
X71276D01*
X70776Y63142D02*
X71276Y63642D01*
X70776Y63142D02*
X71276Y62642D01*
X70776D02*
X71276D01*
X70276Y62142D02*
X70776Y62642D01*
X69776Y67327D02*
X70276Y66827D01*
X69276Y67327D02*
X69776D01*
X69276D02*
X69776Y67827D01*
X69276Y68327D02*
X69776Y67827D01*
X69276Y68327D02*
X69776D01*
X70276Y68827D01*
X70776Y68327D01*
X71276D01*
X70776Y67827D02*
X71276Y68327D01*
X70776Y67827D02*
X71276Y67327D01*
X70776D02*
X71276D01*
X70276Y66827D02*
X70776Y67327D01*
X87579Y40595D02*
X88079Y40095D01*
X87079Y40595D02*
X87579D01*
X87079D02*
X87579Y41094D01*
X87079Y41594D02*
X87579Y41094D01*
X87079Y41594D02*
X87579D01*
X88079Y42094D01*
X88579Y41594D01*
X89079D01*
X88579Y41094D02*
X89079Y41594D01*
X88579Y41094D02*
X89079Y40595D01*
X88579D02*
X89079D01*
X88079Y40095D02*
X88579Y40595D01*
X78342Y94925D02*
X78843Y94425D01*
X77842Y94925D02*
X78342D01*
X77842D02*
X78342Y95425D01*
X77842Y95925D02*
X78342Y95425D01*
X77842Y95925D02*
X78342D01*
X78843Y96425D01*
X79343Y95925D01*
X79843D01*
X79343Y95425D02*
X79843Y95925D01*
X79343Y95425D02*
X79843Y94925D01*
X79343D02*
X79843D01*
X78843Y94425D02*
X79343Y94925D01*
X49572Y69910D02*
X50072Y69410D01*
X49072Y69910D02*
X49572D01*
X49072D02*
X49572Y70410D01*
X49072Y70910D02*
X49572Y70410D01*
X49072Y70910D02*
X49572D01*
X50072Y71409D01*
X50572Y70910D01*
X51072D01*
X50572Y70410D02*
X51072Y70910D01*
X50572Y70410D02*
X51072Y69910D01*
X50572D02*
X51072D01*
X50072Y69410D02*
X50572Y69910D01*
X42469Y60583D02*
X42968Y60083D01*
X41969Y60583D02*
X42469D01*
X41969D02*
X42469Y61083D01*
X41969Y61583D02*
X42469Y61083D01*
X41969Y61583D02*
X42469D01*
X42968Y62083D01*
X43468Y61583D01*
X43968D01*
X43468Y61083D02*
X43968Y61583D01*
X43468Y61083D02*
X43968Y60583D01*
X43468D02*
X43968D01*
X42968Y60083D02*
X43468Y60583D01*
X45949D02*
X46449Y60083D01*
X45449Y60583D02*
X45949D01*
X45449D02*
X45949Y61083D01*
X45449Y61583D02*
X45949Y61083D01*
X45449Y61583D02*
X45949D01*
X46449Y62083D01*
X46949Y61583D01*
X47449D01*
X46949Y61083D02*
X47449Y61583D01*
X46949Y61083D02*
X47449Y60583D01*
X46949D02*
X47449D01*
X46449Y60083D02*
X46949Y60583D01*
X45949Y57784D02*
X46449Y57284D01*
X45449Y57784D02*
X45949D01*
X45449D02*
X45949Y58284D01*
X45449Y58784D02*
X45949Y58284D01*
X45449Y58784D02*
X45949D01*
X46449Y59284D01*
X46949Y58784D01*
X47449D01*
X46949Y58284D02*
X47449Y58784D01*
X46949Y58284D02*
X47449Y57784D01*
X46949D02*
X47449D01*
X46449Y57284D02*
X46949Y57784D01*
X42469D02*
X42968Y57284D01*
X41969Y57784D02*
X42469D01*
X41969D02*
X42469Y58284D01*
X41969Y58784D02*
X42469Y58284D01*
X41969Y58784D02*
X42469D01*
X42968Y59284D01*
X43468Y58784D01*
X43968D01*
X43468Y58284D02*
X43968Y58784D01*
X43468Y58284D02*
X43968Y57784D01*
X43468D02*
X43968D01*
X42968Y57284D02*
X43468Y57784D01*
X110736Y107280D02*
X111236Y106780D01*
X110236Y107280D02*
X110736D01*
X110236D02*
X110736Y107780D01*
X110236Y108280D02*
X110736Y107780D01*
X110236Y108280D02*
X110736D01*
X111236Y108780D01*
X111736Y108280D01*
X112236D01*
X111736Y107780D02*
X112236Y108280D01*
X111736Y107780D02*
X112236Y107280D01*
X111736D02*
X112236D01*
X111236Y106780D02*
X111736Y107280D01*
X121395Y35909D02*
X121895Y35409D01*
X120895Y35909D02*
X121395D01*
X120895D02*
X121395Y36409D01*
X120895Y36909D02*
X121395Y36409D01*
X120895Y36909D02*
X121395D01*
X121895Y37409D01*
X122395Y36909D01*
X122895D01*
X122395Y36409D02*
X122895Y36909D01*
X122395Y36409D02*
X122895Y35909D01*
X122395D02*
X122895D01*
X121895Y35409D02*
X122395Y35909D01*
X108996Y41277D02*
X109496Y40777D01*
X108496Y41277D02*
X108996D01*
X108496D02*
X108996Y41777D01*
X108496Y42277D02*
X108996Y41777D01*
X108496Y42277D02*
X108996D01*
X109496Y42777D01*
X109996Y42277D01*
X110496D01*
X109996Y41777D02*
X110496Y42277D01*
X109996Y41777D02*
X110496Y41277D01*
X109996D02*
X110496D01*
X109496Y40777D02*
X109996Y41277D01*
X113366Y36893D02*
X113866Y36393D01*
X112866Y36893D02*
X113366D01*
X112866D02*
X113366Y37393D01*
X112866Y37892D02*
X113366Y37393D01*
X112866Y37892D02*
X113366D01*
X113866Y38392D01*
X114366Y37892D01*
X114866D01*
X114366Y37393D02*
X114866Y37892D01*
X114366Y37393D02*
X114866Y36893D01*
X114366D02*
X114866D01*
X113866Y36393D02*
X114366Y36893D01*
X112878Y73874D02*
X113378Y73374D01*
X112378Y73874D02*
X112878D01*
X112378D02*
X112878Y74374D01*
X112378Y74874D02*
X112878Y74374D01*
X112378Y74874D02*
X112878D01*
X113378Y75374D01*
X113878Y74874D01*
X114378D01*
X113878Y74374D02*
X114378Y74874D01*
X113878Y74374D02*
X114378Y73874D01*
X113878D02*
X114378D01*
X113378Y73374D02*
X113878Y73874D01*
X104445Y68217D02*
X104945Y67716D01*
X103945Y68217D02*
X104445D01*
X103945D02*
X104445Y68717D01*
X103945Y69217D02*
X104445Y68717D01*
X103945Y69217D02*
X104445D01*
X104945Y69717D01*
X105445Y69217D01*
X105945D01*
X105445Y68717D02*
X105945Y69217D01*
X105445Y68717D02*
X105945Y68217D01*
X105445D02*
X105945D01*
X104945Y67716D02*
X105445Y68217D01*
X95342Y76846D02*
X95842Y76346D01*
X94842Y76846D02*
X95342D01*
X94842D02*
X95342Y77346D01*
X94842Y77846D02*
X95342Y77346D01*
X94842Y77846D02*
X95342D01*
X95842Y78346D01*
X96342Y77846D01*
X96842D01*
X96342Y77346D02*
X96842Y77846D01*
X96342Y77346D02*
X96842Y76846D01*
X96342D02*
X96842D01*
X95842Y76346D02*
X96342Y76846D01*
X115326Y102059D02*
X115826Y101559D01*
X114826Y102059D02*
X115326D01*
X114826D02*
X115326Y102559D01*
X114826Y103059D02*
X115326Y102559D01*
X114826Y103059D02*
X115326D01*
X115826Y103559D01*
X116326Y103059D01*
X116826D01*
X116326Y102559D02*
X116826Y103059D01*
X116326Y102559D02*
X116826Y102059D01*
X116326D02*
X116826D01*
X115826Y101559D02*
X116326Y102059D01*
X109302Y94941D02*
X109802Y94441D01*
X108802Y94941D02*
X109302D01*
X108802D02*
X109302Y95441D01*
X108802Y95941D02*
X109302Y95441D01*
X108802Y95941D02*
X109302D01*
X109802Y96441D01*
X110302Y95941D01*
X110802D01*
X110302Y95441D02*
X110802Y95941D01*
X110302Y95441D02*
X110802Y94941D01*
X110302D02*
X110802D01*
X109802Y94441D02*
X110302Y94941D01*
X112247Y98689D02*
X112747Y98189D01*
X111747Y98689D02*
X112247D01*
X111747D02*
X112247Y99189D01*
X111747Y99689D02*
X112247Y99189D01*
X111747Y99689D02*
X112247D01*
X112747Y100189D01*
X113247Y99689D01*
X113747D01*
X113247Y99189D02*
X113747Y99689D01*
X113247Y99189D02*
X113747Y98689D01*
X113247D02*
X113747D01*
X112747Y98189D02*
X113247Y98689D01*
X104445Y73874D02*
X104945Y73374D01*
X103945Y73874D02*
X104445D01*
X103945D02*
X104445Y74374D01*
X103945Y74874D02*
X104445Y74374D01*
X103945Y74874D02*
X104445D01*
X104945Y75374D01*
X105445Y74874D01*
X105945D01*
X105445Y74374D02*
X105945Y74874D01*
X105445Y74374D02*
X105945Y73874D01*
X105445D02*
X105945D01*
X104945Y73374D02*
X105445Y73874D01*
X86840Y43941D02*
X87340Y43441D01*
X86340Y43941D02*
X86840D01*
X86340D02*
X86840Y44441D01*
X86340Y44941D02*
X86840Y44441D01*
X86340Y44941D02*
X86840D01*
X87340Y45441D01*
X87840Y44941D01*
X88340D01*
X87840Y44441D02*
X88340Y44941D01*
X87840Y44441D02*
X88340Y43941D01*
X87840D02*
X88340D01*
X87340Y43441D02*
X87840Y43941D01*
X36088Y12646D02*
X36588Y12146D01*
X35588Y12646D02*
X36088D01*
X35588D02*
X36088Y13146D01*
X35588Y13646D02*
X36088Y13146D01*
X35588Y13646D02*
X36088D01*
X36588Y14146D01*
X37088Y13646D01*
X37588D01*
X37088Y13146D02*
X37588Y13646D01*
X37088Y13146D02*
X37588Y12646D01*
X37088D02*
X37588D01*
X36588Y12146D02*
X37088Y12646D01*
X31626D02*
X32126Y12146D01*
X31126Y12646D02*
X31626D01*
X31126D02*
X31626Y13146D01*
X31126Y13646D02*
X31626Y13146D01*
X31126Y13646D02*
X31626D01*
X32126Y14146D01*
X32626Y13646D01*
X33126D01*
X32626Y13146D02*
X33126Y13646D01*
X32626Y13146D02*
X33126Y12646D01*
X32626D02*
X33126D01*
X32126Y12146D02*
X32626Y12646D01*
X108327Y62974D02*
X108827Y62474D01*
X107827Y62974D02*
X108327D01*
X107827D02*
X108327Y63474D01*
X107827Y63974D02*
X108327Y63474D01*
X107827Y63974D02*
X108327D01*
X108827Y64474D01*
X109327Y63974D01*
X109827D01*
X109327Y63474D02*
X109827Y63974D01*
X109327Y63474D02*
X109827Y62974D01*
X109327D02*
X109827D01*
X108827Y62474D02*
X109327Y62974D01*
X51083Y104579D02*
X51583Y104079D01*
X50583Y104579D02*
X51083D01*
X50583D02*
X51083Y105079D01*
X50583Y105579D02*
X51083Y105079D01*
X50583Y105579D02*
X51083D01*
X51583Y106079D01*
X52083Y105579D01*
X52583D01*
X52083Y105079D02*
X52583Y105579D01*
X52083Y105079D02*
X52583Y104579D01*
X52083D02*
X52583D01*
X51583Y104079D02*
X52083Y104579D01*
X39841Y88382D02*
X40341Y87882D01*
X39341Y88382D02*
X39841D01*
X39341D02*
X39841Y88882D01*
X39341Y89382D02*
X39841Y88882D01*
X39341Y89382D02*
X39841D01*
X40341Y89882D01*
X40841Y89382D01*
X41341D01*
X40841Y88882D02*
X41341Y89382D01*
X40841Y88882D02*
X41341Y88382D01*
X40841D02*
X41341D01*
X40341Y87882D02*
X40841Y88382D01*
X39841Y84808D02*
X40341Y84308D01*
X39341Y84808D02*
X39841D01*
X39341D02*
X39841Y85308D01*
X39341Y85808D02*
X39841Y85308D01*
X39341Y85808D02*
X39841D01*
X40341Y86308D01*
X40841Y85808D01*
X41341D01*
X40841Y85308D02*
X41341Y85808D01*
X40841Y85308D02*
X41341Y84808D01*
X40841D02*
X41341D01*
X40341Y84308D02*
X40841Y84808D01*
X153303Y64020D02*
X153803Y63520D01*
X152803Y64020D02*
X153303D01*
X152803D02*
X153303Y64520D01*
X152803Y65020D02*
X153303Y64520D01*
X152803Y65020D02*
X153303D01*
X153803Y65520D01*
X154303Y65020D01*
X154803D01*
X154303Y64520D02*
X154803Y65020D01*
X154303Y64520D02*
X154803Y64020D01*
X154303D02*
X154803D01*
X153803Y63520D02*
X154303Y64020D01*
X159059Y35396D02*
X159559Y34896D01*
X158559Y35396D02*
X159059D01*
X158559D02*
X159059Y35896D01*
X158559Y36396D02*
X159059Y35896D01*
X158559Y36396D02*
X159059D01*
X159559Y36896D01*
X160059Y36396D01*
X160559D01*
X160059Y35896D02*
X160559Y36396D01*
X160059Y35896D02*
X160559Y35396D01*
X160059D02*
X160559D01*
X159559Y34896D02*
X160059Y35396D01*
X174988Y31358D02*
X175488Y30858D01*
X174488Y31358D02*
X174988D01*
X174488D02*
X174988Y31858D01*
X174488Y32358D02*
X174988Y31858D01*
X174488Y32358D02*
X174988D01*
X175488Y32858D01*
X175988Y32358D01*
X176488D01*
X175988Y31858D02*
X176488Y32358D01*
X175988Y31858D02*
X176488Y31358D01*
X175988D02*
X176488D01*
X175488Y30858D02*
X175988Y31358D01*
X142193Y17035D02*
X142693Y16535D01*
X141693Y17035D02*
X142193D01*
X141693D02*
X142193Y17535D01*
X141693Y18035D02*
X142193Y17535D01*
X141693Y18035D02*
X142193D01*
X142693Y18535D01*
X143193Y18035D01*
X143693D01*
X143193Y17535D02*
X143693Y18035D01*
X143193Y17535D02*
X143693Y17035D01*
X143193D02*
X143693D01*
X142693Y16535D02*
X143193Y17035D01*
X120508Y9756D02*
X121008Y9256D01*
X120008Y9756D02*
X120508D01*
X120008D02*
X120508Y10256D01*
X120008Y10756D02*
X120508Y10256D01*
X120008Y10756D02*
X120508D01*
X121008Y11256D01*
X121508Y10756D01*
X122008D01*
X121508Y10256D02*
X122008Y10756D01*
X121508Y10256D02*
X122008Y9756D01*
X121508D02*
X122008D01*
X121008Y9256D02*
X121508Y9756D01*
X103776Y27162D02*
X104276Y26662D01*
X103276Y27162D02*
X103776D01*
X103276D02*
X103776Y27662D01*
X103276Y28162D02*
X103776Y27662D01*
X103276Y28162D02*
X103776D01*
X104276Y28662D01*
X104776Y28162D01*
X105276D01*
X104776Y27662D02*
X105276Y28162D01*
X104776Y27662D02*
X105276Y27162D01*
X104776D02*
X105276D01*
X104276Y26662D02*
X104776Y27162D01*
X87980Y6593D02*
X88480Y6093D01*
X87480Y6593D02*
X87980D01*
X87480D02*
X87980Y7093D01*
X87480Y7593D02*
X87980Y7093D01*
X87480Y7593D02*
X87980D01*
X88480Y8093D01*
X88980Y7593D01*
X89480D01*
X88980Y7093D02*
X89480Y7593D01*
X88980Y7093D02*
X89480Y6593D01*
X88980D02*
X89480D01*
X88480Y6093D02*
X88980Y6593D01*
X89392Y11146D02*
X89892Y10646D01*
X88892Y11146D02*
X89392D01*
X88892D02*
X89392Y11646D01*
X88892Y12146D02*
X89392Y11646D01*
X88892Y12146D02*
X89392D01*
X89892Y12646D01*
X90392Y12146D01*
X90892D01*
X90392Y11646D02*
X90892Y12146D01*
X90392Y11646D02*
X90892Y11146D01*
X90392D02*
X90892D01*
X89892Y10646D02*
X90392Y11146D01*
X121177Y50979D02*
X121677Y50479D01*
X120677Y50979D02*
X121177D01*
X120677D02*
X121177Y51479D01*
X120677Y51979D02*
X121177Y51479D01*
X120677Y51979D02*
X121177D01*
X121677Y52479D01*
X122177Y51979D01*
X122677D01*
X122177Y51479D02*
X122677Y51979D01*
X122177Y51479D02*
X122677Y50979D01*
X122177D02*
X122677D01*
X121677Y50479D02*
X122177Y50979D01*
X33098Y46399D02*
X33598Y45899D01*
X32598Y46399D02*
X33098D01*
X32598D02*
X33098Y46899D01*
X32598Y47399D02*
X33098Y46899D01*
X32598Y47399D02*
X33098D01*
X33598Y47899D01*
X34098Y47399D01*
X34598D01*
X34098Y46899D02*
X34598Y47399D01*
X34098Y46899D02*
X34598Y46399D01*
X34098D02*
X34598D01*
X33598Y45899D02*
X34098Y46399D01*
X36445Y49697D02*
X36945Y49197D01*
X35945Y49697D02*
X36445D01*
X35945D02*
X36445Y50197D01*
X35945Y50697D02*
X36445Y50197D01*
X35945Y50697D02*
X36445D01*
X36945Y51197D01*
X37445Y50697D01*
X37945D01*
X37445Y50197D02*
X37945Y50697D01*
X37445Y50197D02*
X37945Y49697D01*
X37445D02*
X37945D01*
X36945Y49197D02*
X37445Y49697D01*
X110736Y27162D02*
X111236Y26662D01*
X110236Y27162D02*
X110736D01*
X110236D02*
X110736Y27662D01*
X110236Y28162D02*
X110736Y27662D01*
X110236Y28162D02*
X110736D01*
X111236Y28662D01*
X111736Y28162D01*
X112236D01*
X111736Y27662D02*
X112236Y28162D01*
X111736Y27662D02*
X112236Y27162D01*
X111736D02*
X112236D01*
X111236Y26662D02*
X111736Y27162D01*
X95342Y89854D02*
X95842Y89354D01*
X94842Y89854D02*
X95342D01*
X94842D02*
X95342Y90354D01*
X94842Y90854D02*
X95342Y90354D01*
X94842Y90854D02*
X95342D01*
X95842Y91354D01*
X96342Y90854D01*
X96842D01*
X96342Y90354D02*
X96842Y90854D01*
X96342Y90354D02*
X96842Y89854D01*
X96342D02*
X96842D01*
X95842Y89354D02*
X96342Y89854D01*
X122114Y65492D02*
X122614Y64992D01*
X121614Y65492D02*
X122114D01*
X121614D02*
X122114Y65992D01*
X121614Y66492D02*
X122114Y65992D01*
X121614Y66492D02*
X122114D01*
X122614Y66992D01*
X123114Y66492D01*
X123614D01*
X123114Y65992D02*
X123614Y66492D01*
X123114Y65992D02*
X123614Y65492D01*
X123114D02*
X123614D01*
X122614Y64992D02*
X123114Y65492D01*
X189124Y10373D02*
X190124Y12372D01*
X188124D02*
X190124D01*
X188124D02*
X189124Y10373D01*
X189163Y105650D02*
X190163Y107650D01*
X188163D02*
X190163D01*
X188163D02*
X189163Y105650D01*
X25236Y67992D02*
X27236D01*
Y69992D01*
X25236D02*
X27236D01*
X25236Y67992D02*
Y69992D01*
Y77835D02*
X27236D01*
Y79835D01*
X25236D02*
X27236D01*
X25236Y77835D02*
Y79835D01*
Y87677D02*
X27236D01*
Y89677D01*
X25236D02*
X27236D01*
X25236Y87677D02*
Y89677D01*
Y97520D02*
X27236D01*
Y99520D01*
X25236D02*
X27236D01*
X25236Y97520D02*
Y99520D01*
Y107362D02*
X27236D01*
Y109362D01*
X25236D02*
X27236D01*
X25236Y107362D02*
Y109362D01*
Y8764D02*
X27236D01*
Y10764D01*
X25236D02*
X27236D01*
X25236Y8764D02*
Y10764D01*
Y18606D02*
X27236D01*
Y20606D01*
X25236D02*
X27236D01*
X25236Y18606D02*
Y20606D01*
Y28449D02*
X27236D01*
Y30449D01*
X25236D02*
X27236D01*
X25236Y28449D02*
Y30449D01*
Y38291D02*
X27236D01*
Y40291D01*
X25236D02*
X27236D01*
X25236Y38291D02*
Y40291D01*
Y48134D02*
X27236D01*
Y50134D01*
X25236D02*
X27236D01*
X25236Y48134D02*
Y50134D01*
D99*
X-99132Y223094D02*
X679317D01*
X-99132Y178803D02*
X679317D01*
X-99132Y169945D02*
X679317D01*
Y231953D01*
X-99132D02*
X679317D01*
X-99132Y169945D02*
Y231953D01*
X595176Y169945D02*
Y231953D01*
X542738Y169945D02*
Y231953D01*
X462671Y169945D02*
Y231953D01*
X382604Y169945D02*
Y231953D01*
X330875Y169945D02*
Y231953D01*
X286367Y169945D02*
Y231953D01*
X241014Y169945D02*
Y231953D01*
X204870Y169945D02*
Y231953D01*
X115495Y169945D02*
Y231953D01*
X70850Y169945D02*
Y231953D01*
X39665Y169945D02*
Y231953D01*
X-29047Y169945D02*
Y231953D01*
X-65290Y169945D02*
Y231953D01*
X-99132Y223094D02*
X679317D01*
X-99132Y178803D02*
X679317D01*
X-99132Y169945D02*
X679317D01*
Y231953D01*
X-99132D02*
X679317D01*
X-99132Y169945D02*
Y231953D01*
X595176Y169945D02*
Y231953D01*
X542738Y169945D02*
Y231953D01*
X462671Y169945D02*
Y231953D01*
X382604Y169945D02*
Y231953D01*
X330875Y169945D02*
Y231953D01*
X286367Y169945D02*
Y231953D01*
X241014Y169945D02*
Y231953D01*
X204870Y169945D02*
Y231953D01*
X115495Y169945D02*
Y231953D01*
X70850Y169945D02*
Y231953D01*
X39665Y169945D02*
Y231953D01*
X-29047Y169945D02*
Y231953D01*
X-65290Y169945D02*
Y231953D01*
D100*
X597833Y225752D02*
Y230002D01*
X599958D01*
X600667Y229294D01*
Y227877D01*
X599958Y227169D01*
X597833D01*
X599250D02*
X600667Y225752D01*
X602792D02*
X604209D01*
X604917Y226460D01*
Y227877D01*
X604209Y228586D01*
X602792D01*
X602084Y227877D01*
Y226460D01*
X602792Y225752D01*
X606334Y228586D02*
Y226460D01*
X607043Y225752D01*
X609168D01*
Y228586D01*
X611293Y229294D02*
Y228586D01*
X610585D01*
X612002D01*
X611293D01*
Y226460D01*
X612002Y225752D01*
X616252D02*
X614835D01*
X614127Y226460D01*
Y227877D01*
X614835Y228586D01*
X616252D01*
X616961Y227877D01*
Y227169D01*
X614127D01*
X621211Y230002D02*
Y225752D01*
X619086D01*
X618378Y226460D01*
Y227877D01*
X619086Y228586D01*
X621211D01*
X626879Y225752D02*
Y230002D01*
X629004D01*
X629712Y229294D01*
Y227877D01*
X629004Y227169D01*
X626879D01*
X631838Y228586D02*
X633255D01*
X633963Y227877D01*
Y225752D01*
X631838D01*
X631129Y226460D01*
X631838Y227169D01*
X633963D01*
X636088Y229294D02*
Y228586D01*
X635380D01*
X636797D01*
X636088D01*
Y226460D01*
X636797Y225752D01*
X638922Y230002D02*
Y225752D01*
Y227877D01*
X639631Y228586D01*
X641047D01*
X641756Y227877D01*
Y225752D01*
X647423Y230002D02*
Y225752D01*
X650257D01*
X653799D02*
X652382D01*
X651674Y226460D01*
Y227877D01*
X652382Y228586D01*
X653799D01*
X654508Y227877D01*
Y227169D01*
X651674D01*
X655925Y225752D02*
Y228586D01*
X658050D01*
X658758Y227877D01*
Y225752D01*
X661592Y224335D02*
X662300D01*
X663009Y225043D01*
Y228586D01*
X660884D01*
X660175Y227877D01*
Y226460D01*
X660884Y225752D01*
X663009D01*
X665134Y229294D02*
Y228586D01*
X664426D01*
X665843D01*
X665134D01*
Y226460D01*
X665843Y225752D01*
X667968Y230002D02*
Y225752D01*
Y227877D01*
X668676Y228586D01*
X670093D01*
X670802Y227877D01*
Y225752D01*
X545395Y230002D02*
Y225752D01*
Y227877D01*
X548229D01*
Y230002D01*
Y225752D01*
X550354D02*
X551771D01*
X552480Y226460D01*
Y227877D01*
X551771Y228586D01*
X550354D01*
X549646Y227877D01*
Y226460D01*
X550354Y225752D01*
X553896D02*
X555313D01*
X554605D01*
Y230002D01*
X553896D01*
X559564Y225752D02*
X558147D01*
X557439Y226460D01*
Y227877D01*
X558147Y228586D01*
X559564D01*
X560272Y227877D01*
Y227169D01*
X557439D01*
X565940Y230002D02*
Y225752D01*
X568774D01*
X572316D02*
X570899D01*
X570190Y226460D01*
Y227877D01*
X570899Y228586D01*
X572316D01*
X573024Y227877D01*
Y227169D01*
X570190D01*
X574441Y225752D02*
Y228586D01*
X576566D01*
X577275Y227877D01*
Y225752D01*
X580108Y224335D02*
X580817D01*
X581525Y225043D01*
Y228586D01*
X579400D01*
X578692Y227877D01*
Y226460D01*
X579400Y225752D01*
X581525D01*
X583651Y229294D02*
Y228586D01*
X582942D01*
X584359D01*
X583651D01*
Y226460D01*
X584359Y225752D01*
X586484Y230002D02*
Y225752D01*
Y227877D01*
X587193Y228586D01*
X588610D01*
X589318Y227877D01*
Y225752D01*
X465329Y230002D02*
Y225752D01*
Y227877D01*
X468162D01*
Y230002D01*
Y225752D01*
X470288D02*
X471704D01*
X472413Y226460D01*
Y227877D01*
X471704Y228586D01*
X470288D01*
X469579Y227877D01*
Y226460D01*
X470288Y225752D01*
X473830D02*
X475247D01*
X474538D01*
Y230002D01*
X473830D01*
X479497Y225752D02*
X478080D01*
X477372Y226460D01*
Y227877D01*
X478080Y228586D01*
X479497D01*
X480206Y227877D01*
Y227169D01*
X477372D01*
X485873Y230002D02*
X488707D01*
X487290D01*
Y225752D01*
X490832D02*
X492249D01*
X492957Y226460D01*
Y227877D01*
X492249Y228586D01*
X490832D01*
X490124Y227877D01*
Y226460D01*
X490832Y225752D01*
X494374D02*
X495791D01*
X495083D01*
Y230002D01*
X494374D01*
X500042Y225752D02*
X498625D01*
X497916Y226460D01*
Y227877D01*
X498625Y228586D01*
X500042D01*
X500750Y227877D01*
Y227169D01*
X497916D01*
X502167Y228586D02*
Y225752D01*
Y227169D01*
X502876Y227877D01*
X503584Y228586D01*
X504292D01*
X507126D02*
X508543D01*
X509251Y227877D01*
Y225752D01*
X507126D01*
X506418Y226460D01*
X507126Y227169D01*
X509251D01*
X510668Y225752D02*
Y228586D01*
X512793D01*
X513502Y227877D01*
Y225752D01*
X517753Y228586D02*
X515627D01*
X514919Y227877D01*
Y226460D01*
X515627Y225752D01*
X517753D01*
X521295D02*
X519878D01*
X519169Y226460D01*
Y227877D01*
X519878Y228586D01*
X521295D01*
X522003Y227877D01*
Y227169D01*
X519169D01*
X529087Y225752D02*
X527671Y227169D01*
Y228586D01*
X529087Y230002D01*
X531213Y227877D02*
X534047D01*
X535463Y225752D02*
X536880Y227169D01*
Y228586D01*
X535463Y230002D01*
X385262D02*
Y225752D01*
Y227877D01*
X388095D01*
Y230002D01*
Y225752D01*
X390221D02*
X391638D01*
X392346Y226460D01*
Y227877D01*
X391638Y228586D01*
X390221D01*
X389512Y227877D01*
Y226460D01*
X390221Y225752D01*
X393763D02*
X395180D01*
X394471D01*
Y230002D01*
X393763D01*
X399430Y225752D02*
X398014D01*
X397305Y226460D01*
Y227877D01*
X398014Y228586D01*
X399430D01*
X400139Y227877D01*
Y227169D01*
X397305D01*
X405806Y230002D02*
X408640D01*
X407223D01*
Y225752D01*
X410765D02*
X412182D01*
X412891Y226460D01*
Y227877D01*
X412182Y228586D01*
X410765D01*
X410057Y227877D01*
Y226460D01*
X410765Y225752D01*
X414308D02*
X415724D01*
X415016D01*
Y230002D01*
X414308D01*
X419975Y225752D02*
X418558D01*
X417850Y226460D01*
Y227877D01*
X418558Y228586D01*
X419975D01*
X420683Y227877D01*
Y227169D01*
X417850D01*
X422100Y228586D02*
Y225752D01*
Y227169D01*
X422809Y227877D01*
X423517Y228586D01*
X424226D01*
X427059D02*
X428476D01*
X429185Y227877D01*
Y225752D01*
X427059D01*
X426351Y226460D01*
X427059Y227169D01*
X429185D01*
X430602Y225752D02*
Y228586D01*
X432727D01*
X433435Y227877D01*
Y225752D01*
X437686Y228586D02*
X435561D01*
X434852Y227877D01*
Y226460D01*
X435561Y225752D01*
X437686D01*
X441228D02*
X439811D01*
X439103Y226460D01*
Y227877D01*
X439811Y228586D01*
X441228D01*
X441936Y227877D01*
Y227169D01*
X439103D01*
X449021Y225752D02*
X447604Y227169D01*
Y228586D01*
X449021Y230002D01*
X451146Y227877D02*
X453980D01*
X452563Y229294D02*
Y226460D01*
X455397Y225752D02*
X456814Y227169D01*
Y228586D01*
X455397Y230002D01*
X333532D02*
Y225752D01*
X335658D01*
X336366Y226460D01*
Y229294D01*
X335658Y230002D01*
X333532D01*
X339908Y225752D02*
X338492D01*
X337783Y226460D01*
Y227877D01*
X338492Y228586D01*
X339908D01*
X340617Y227877D01*
Y227169D01*
X337783D01*
X342034Y225752D02*
X344159D01*
X344867Y226460D01*
X344159Y227169D01*
X342742D01*
X342034Y227877D01*
X342742Y228586D01*
X344867D01*
X349118D02*
X346993D01*
X346284Y227877D01*
Y226460D01*
X346993Y225752D01*
X349118D01*
X350535Y228586D02*
Y225752D01*
Y227169D01*
X351243Y227877D01*
X351952Y228586D01*
X352660D01*
X354785Y225752D02*
X356202D01*
X355494D01*
Y228586D01*
X354785D01*
X358328Y224335D02*
Y228586D01*
X360453D01*
X361161Y227877D01*
Y226460D01*
X360453Y225752D01*
X358328D01*
X363287Y229294D02*
Y228586D01*
X362578D01*
X363995D01*
X363287D01*
Y226460D01*
X363995Y225752D01*
X366120D02*
X367537D01*
X366829D01*
Y228586D01*
X366120D01*
X370371Y225752D02*
X371788D01*
X372496Y226460D01*
Y227877D01*
X371788Y228586D01*
X370371D01*
X369662Y227877D01*
Y226460D01*
X370371Y225752D01*
X373913D02*
Y228586D01*
X376038D01*
X376747Y227877D01*
Y225752D01*
X289025Y230002D02*
X291859D01*
X290442D01*
Y225752D01*
X295401D02*
X293984D01*
X293275Y226460D01*
Y227877D01*
X293984Y228586D01*
X295401D01*
X296109Y227877D01*
Y227169D01*
X293275D01*
X297526Y225752D02*
Y228586D01*
X298234D01*
X298943Y227877D01*
Y225752D01*
Y227877D01*
X299651Y228586D01*
X300360Y227877D01*
Y225752D01*
X301777Y224335D02*
Y228586D01*
X303902D01*
X304610Y227877D01*
Y226460D01*
X303902Y225752D01*
X301777D01*
X306027D02*
X307444D01*
X306736D01*
Y230002D01*
X306027D01*
X310278Y228586D02*
X311695D01*
X312403Y227877D01*
Y225752D01*
X310278D01*
X309569Y226460D01*
X310278Y227169D01*
X312403D01*
X314528Y229294D02*
Y228586D01*
X313820D01*
X315237D01*
X314528D01*
Y226460D01*
X315237Y225752D01*
X319487D02*
X318071D01*
X317362Y226460D01*
Y227877D01*
X318071Y228586D01*
X319487D01*
X320196Y227877D01*
Y227169D01*
X317362D01*
X243671Y225752D02*
Y230002D01*
X245797D01*
X246505Y229294D01*
Y227877D01*
X245797Y227169D01*
X243671D01*
X248630Y228586D02*
X250047D01*
X250756Y227877D01*
Y225752D01*
X248630D01*
X247922Y226460D01*
X248630Y227169D01*
X250756D01*
X255006Y230002D02*
Y225752D01*
X252881D01*
X252172Y226460D01*
Y227877D01*
X252881Y228586D01*
X255006D01*
X263507Y229294D02*
X262799Y230002D01*
X261382D01*
X260674Y229294D01*
Y228586D01*
X261382Y227877D01*
X262799D01*
X263507Y227169D01*
Y226460D01*
X262799Y225752D01*
X261382D01*
X260674Y226460D01*
X264924Y230002D02*
Y225752D01*
Y227877D01*
X265633Y228586D01*
X267050D01*
X267758Y227877D01*
Y225752D01*
X269883Y228586D02*
X271300D01*
X272009Y227877D01*
Y225752D01*
X269883D01*
X269175Y226460D01*
X269883Y227169D01*
X272009D01*
X273426Y224335D02*
Y228586D01*
X275551D01*
X276259Y227877D01*
Y226460D01*
X275551Y225752D01*
X273426D01*
X279801D02*
X278384D01*
X277676Y226460D01*
Y227877D01*
X278384Y228586D01*
X279801D01*
X280510Y227877D01*
Y227169D01*
X277676D01*
X207527Y230002D02*
Y227169D01*
X208944Y225752D01*
X210361Y227169D01*
Y230002D01*
X211778Y225752D02*
X213195D01*
X212487D01*
Y228586D01*
X211778D01*
X216029D02*
X217445D01*
X218154Y227877D01*
Y225752D01*
X216029D01*
X215320Y226460D01*
X216029Y227169D01*
X218154D01*
X219571Y225752D02*
X222405Y228586D01*
X223821Y225752D02*
Y230002D01*
X225947D01*
X226655Y229294D01*
Y227877D01*
X225947Y227169D01*
X223821D01*
X228781Y228586D02*
X230197D01*
X230906Y227877D01*
Y225752D01*
X228781D01*
X228072Y226460D01*
X228781Y227169D01*
X230906D01*
X235156Y230002D02*
Y225752D01*
X233031D01*
X232323Y226460D01*
Y227877D01*
X233031Y228586D01*
X235156D01*
X118152Y230002D02*
Y225752D01*
X120278D01*
X120986Y226460D01*
Y229294D01*
X120278Y230002D01*
X118152D01*
X122403Y228586D02*
Y225752D01*
Y227169D01*
X123111Y227877D01*
X123820Y228586D01*
X124528D01*
X126654Y225752D02*
X128070D01*
X127362D01*
Y228586D01*
X126654D01*
X130196Y225752D02*
X131613D01*
X130904D01*
Y230002D01*
X130196D01*
X133738Y225752D02*
X135155D01*
X134446D01*
Y230002D01*
X133738D01*
X141531D02*
Y225752D01*
X144365D01*
X146490Y228586D02*
X147907D01*
X148615Y227877D01*
Y225752D01*
X146490D01*
X145781Y226460D01*
X146490Y227169D01*
X148615D01*
X150032Y228586D02*
Y226460D01*
X150740Y225752D01*
X152866D01*
Y225043D01*
X152157Y224335D01*
X151449D01*
X152866Y225752D02*
Y228586D01*
X156408Y225752D02*
X154991D01*
X154282Y226460D01*
Y227877D01*
X154991Y228586D01*
X156408D01*
X157116Y227877D01*
Y227169D01*
X154282D01*
X158533Y228586D02*
Y225752D01*
Y227169D01*
X159242Y227877D01*
X159950Y228586D01*
X160658D01*
X167034Y225752D02*
Y230002D01*
X169160D01*
X169868Y229294D01*
Y227877D01*
X169160Y227169D01*
X167034D01*
X171993Y228586D02*
X173410D01*
X174119Y227877D01*
Y225752D01*
X171993D01*
X171285Y226460D01*
X171993Y227169D01*
X174119D01*
X175536Y225752D02*
X176952D01*
X176244D01*
Y228586D01*
X175536D01*
X179078D02*
Y225752D01*
Y227169D01*
X179786Y227877D01*
X180495Y228586D01*
X181203D01*
X73507Y230002D02*
Y225752D01*
Y227877D01*
X76341D01*
Y230002D01*
Y225752D01*
X78466D02*
X79883D01*
X80592Y226460D01*
Y227877D01*
X79883Y228586D01*
X78466D01*
X77758Y227877D01*
Y226460D01*
X78466Y225752D01*
X82009D02*
X83425D01*
X82717D01*
Y230002D01*
X82009D01*
X87676Y225752D02*
X86259D01*
X85551Y226460D01*
Y227877D01*
X86259Y228586D01*
X87676D01*
X88384Y227877D01*
Y227169D01*
X85551D01*
X94052Y230002D02*
X96886D01*
X95469D01*
Y225752D01*
X98303Y228586D02*
Y226460D01*
X99011Y225752D01*
X101136D01*
Y225043D01*
X100428Y224335D01*
X99719D01*
X101136Y225752D02*
Y228586D01*
X102553Y224335D02*
Y228586D01*
X104678D01*
X105387Y227877D01*
Y226460D01*
X104678Y225752D01*
X102553D01*
X108929D02*
X107512D01*
X106804Y226460D01*
Y227877D01*
X107512Y228586D01*
X108929D01*
X109637Y227877D01*
Y227169D01*
X106804D01*
X42323Y225752D02*
Y230002D01*
X44448D01*
X45156Y229294D01*
Y227877D01*
X44448Y227169D01*
X42323D01*
X46573Y225752D02*
X47990D01*
X47282D01*
Y230002D01*
X46573D01*
X50824Y228586D02*
X52241D01*
X52949Y227877D01*
Y225752D01*
X50824D01*
X50115Y226460D01*
X50824Y227169D01*
X52949D01*
X55074Y229294D02*
Y228586D01*
X54366D01*
X55783D01*
X55074D01*
Y226460D01*
X55783Y225752D01*
X60033D02*
X58617D01*
X57908Y226460D01*
Y227877D01*
X58617Y228586D01*
X60033D01*
X60742Y227877D01*
Y227169D01*
X57908D01*
X64992Y230002D02*
Y225752D01*
X62867D01*
X62159Y226460D01*
Y227877D01*
X62867Y228586D01*
X64992D01*
X-26390Y230002D02*
Y225752D01*
Y227877D01*
X-23556D01*
Y230002D01*
Y225752D01*
X-21431D02*
X-20014D01*
X-19306Y226460D01*
Y227877D01*
X-20014Y228586D01*
X-21431D01*
X-22139Y227877D01*
Y226460D01*
X-21431Y225752D01*
X-17889D02*
X-16472D01*
X-17180D01*
Y230002D01*
X-17889D01*
X-12221Y225752D02*
X-13638D01*
X-14346Y226460D01*
Y227877D01*
X-13638Y228586D01*
X-12221D01*
X-11513Y227877D01*
Y227169D01*
X-14346D01*
X-3012Y229294D02*
X-3720Y230002D01*
X-5137D01*
X-5845Y229294D01*
Y228586D01*
X-5137Y227877D01*
X-3720D01*
X-3012Y227169D01*
Y226460D01*
X-3720Y225752D01*
X-5137D01*
X-5845Y226460D01*
X-1595Y225752D02*
X-178D01*
X-886D01*
Y228586D01*
X-1595D01*
X1947D02*
X4781D01*
X1947Y225752D01*
X4781D01*
X8323D02*
X6907D01*
X6198Y226460D01*
Y227877D01*
X6907Y228586D01*
X8323D01*
X9032Y227877D01*
Y227169D01*
X6198D01*
X-59799Y229294D02*
X-60507Y230002D01*
X-61924D01*
X-62632Y229294D01*
Y226460D01*
X-61924Y225752D01*
X-60507D01*
X-59799Y226460D01*
X-57673Y225752D02*
X-56257D01*
X-55548Y226460D01*
Y227877D01*
X-56257Y228586D01*
X-57673D01*
X-58382Y227877D01*
Y226460D01*
X-57673Y225752D01*
X-54131Y228586D02*
Y226460D01*
X-53423Y225752D01*
X-51297D01*
Y228586D01*
X-49881Y225752D02*
Y228586D01*
X-47755D01*
X-47047Y227877D01*
Y225752D01*
X-44922Y229294D02*
Y228586D01*
X-45630D01*
X-44213D01*
X-44922D01*
Y226460D01*
X-44213Y225752D01*
X-90983Y229294D02*
X-91692Y230002D01*
X-93109D01*
X-93817Y229294D01*
Y228586D01*
X-93109Y227877D01*
X-91692D01*
X-90983Y227169D01*
Y226460D01*
X-91692Y225752D01*
X-93109D01*
X-93817Y226460D01*
X-89567Y228586D02*
Y226460D01*
X-88858Y225752D01*
X-86733D01*
Y225043D01*
X-87441Y224335D01*
X-88150D01*
X-86733Y225752D02*
Y228586D01*
X-85316Y225752D02*
Y228586D01*
X-84608D01*
X-83899Y227877D01*
Y225752D01*
Y227877D01*
X-83191Y228586D01*
X-82482Y227877D01*
Y225752D01*
X-81065Y230002D02*
Y225752D01*
X-78940D01*
X-78232Y226460D01*
Y227169D01*
Y227877D01*
X-78940Y228586D01*
X-81065D01*
X-76106Y225752D02*
X-74690D01*
X-73981Y226460D01*
Y227877D01*
X-74690Y228586D01*
X-76106D01*
X-76815Y227877D01*
Y226460D01*
X-76106Y225752D01*
X-72564D02*
X-71147D01*
X-71856D01*
Y230002D01*
X-72564D01*
X597833Y225752D02*
Y230002D01*
X599958D01*
X600667Y229294D01*
Y227877D01*
X599958Y227169D01*
X597833D01*
X599250D02*
X600667Y225752D01*
X602792D02*
X604209D01*
X604917Y226460D01*
Y227877D01*
X604209Y228586D01*
X602792D01*
X602084Y227877D01*
Y226460D01*
X602792Y225752D01*
X606334Y228586D02*
Y226460D01*
X607043Y225752D01*
X609168D01*
Y228586D01*
X611293Y229294D02*
Y228586D01*
X610585D01*
X612002D01*
X611293D01*
Y226460D01*
X612002Y225752D01*
X616252D02*
X614835D01*
X614127Y226460D01*
Y227877D01*
X614835Y228586D01*
X616252D01*
X616961Y227877D01*
Y227169D01*
X614127D01*
X621211Y230002D02*
Y225752D01*
X619086D01*
X618378Y226460D01*
Y227877D01*
X619086Y228586D01*
X621211D01*
X626879Y225752D02*
Y230002D01*
X629004D01*
X629712Y229294D01*
Y227877D01*
X629004Y227169D01*
X626879D01*
X631838Y228586D02*
X633255D01*
X633963Y227877D01*
Y225752D01*
X631838D01*
X631129Y226460D01*
X631838Y227169D01*
X633963D01*
X636088Y229294D02*
Y228586D01*
X635380D01*
X636797D01*
X636088D01*
Y226460D01*
X636797Y225752D01*
X638922Y230002D02*
Y225752D01*
Y227877D01*
X639631Y228586D01*
X641047D01*
X641756Y227877D01*
Y225752D01*
X647423Y230002D02*
Y225752D01*
X650257D01*
X653799D02*
X652382D01*
X651674Y226460D01*
Y227877D01*
X652382Y228586D01*
X653799D01*
X654508Y227877D01*
Y227169D01*
X651674D01*
X655925Y225752D02*
Y228586D01*
X658050D01*
X658758Y227877D01*
Y225752D01*
X661592Y224335D02*
X662300D01*
X663009Y225043D01*
Y228586D01*
X660884D01*
X660175Y227877D01*
Y226460D01*
X660884Y225752D01*
X663009D01*
X665134Y229294D02*
Y228586D01*
X664426D01*
X665843D01*
X665134D01*
Y226460D01*
X665843Y225752D01*
X667968Y230002D02*
Y225752D01*
Y227877D01*
X668676Y228586D01*
X670093D01*
X670802Y227877D01*
Y225752D01*
X545395Y230002D02*
Y225752D01*
Y227877D01*
X548229D01*
Y230002D01*
Y225752D01*
X550354D02*
X551771D01*
X552480Y226460D01*
Y227877D01*
X551771Y228586D01*
X550354D01*
X549646Y227877D01*
Y226460D01*
X550354Y225752D01*
X553896D02*
X555313D01*
X554605D01*
Y230002D01*
X553896D01*
X559564Y225752D02*
X558147D01*
X557439Y226460D01*
Y227877D01*
X558147Y228586D01*
X559564D01*
X560272Y227877D01*
Y227169D01*
X557439D01*
X565940Y230002D02*
Y225752D01*
X568774D01*
X572316D02*
X570899D01*
X570190Y226460D01*
Y227877D01*
X570899Y228586D01*
X572316D01*
X573024Y227877D01*
Y227169D01*
X570190D01*
X574441Y225752D02*
Y228586D01*
X576566D01*
X577275Y227877D01*
Y225752D01*
X580108Y224335D02*
X580817D01*
X581525Y225043D01*
Y228586D01*
X579400D01*
X578692Y227877D01*
Y226460D01*
X579400Y225752D01*
X581525D01*
X583651Y229294D02*
Y228586D01*
X582942D01*
X584359D01*
X583651D01*
Y226460D01*
X584359Y225752D01*
X586484Y230002D02*
Y225752D01*
Y227877D01*
X587193Y228586D01*
X588610D01*
X589318Y227877D01*
Y225752D01*
X465329Y230002D02*
Y225752D01*
Y227877D01*
X468162D01*
Y230002D01*
Y225752D01*
X470288D02*
X471704D01*
X472413Y226460D01*
Y227877D01*
X471704Y228586D01*
X470288D01*
X469579Y227877D01*
Y226460D01*
X470288Y225752D01*
X473830D02*
X475247D01*
X474538D01*
Y230002D01*
X473830D01*
X479497Y225752D02*
X478080D01*
X477372Y226460D01*
Y227877D01*
X478080Y228586D01*
X479497D01*
X480206Y227877D01*
Y227169D01*
X477372D01*
X485873Y230002D02*
X488707D01*
X487290D01*
Y225752D01*
X490832D02*
X492249D01*
X492957Y226460D01*
Y227877D01*
X492249Y228586D01*
X490832D01*
X490124Y227877D01*
Y226460D01*
X490832Y225752D01*
X494374D02*
X495791D01*
X495083D01*
Y230002D01*
X494374D01*
X500042Y225752D02*
X498625D01*
X497916Y226460D01*
Y227877D01*
X498625Y228586D01*
X500042D01*
X500750Y227877D01*
Y227169D01*
X497916D01*
X502167Y228586D02*
Y225752D01*
Y227169D01*
X502876Y227877D01*
X503584Y228586D01*
X504292D01*
X507126D02*
X508543D01*
X509251Y227877D01*
Y225752D01*
X507126D01*
X506418Y226460D01*
X507126Y227169D01*
X509251D01*
X510668Y225752D02*
Y228586D01*
X512793D01*
X513502Y227877D01*
Y225752D01*
X517753Y228586D02*
X515627D01*
X514919Y227877D01*
Y226460D01*
X515627Y225752D01*
X517753D01*
X521295D02*
X519878D01*
X519169Y226460D01*
Y227877D01*
X519878Y228586D01*
X521295D01*
X522003Y227877D01*
Y227169D01*
X519169D01*
X529087Y225752D02*
X527671Y227169D01*
Y228586D01*
X529087Y230002D01*
X531213Y227877D02*
X534047D01*
X535463Y225752D02*
X536880Y227169D01*
Y228586D01*
X535463Y230002D01*
X385262D02*
Y225752D01*
Y227877D01*
X388095D01*
Y230002D01*
Y225752D01*
X390221D02*
X391638D01*
X392346Y226460D01*
Y227877D01*
X391638Y228586D01*
X390221D01*
X389512Y227877D01*
Y226460D01*
X390221Y225752D01*
X393763D02*
X395180D01*
X394471D01*
Y230002D01*
X393763D01*
X399430Y225752D02*
X398014D01*
X397305Y226460D01*
Y227877D01*
X398014Y228586D01*
X399430D01*
X400139Y227877D01*
Y227169D01*
X397305D01*
X405806Y230002D02*
X408640D01*
X407223D01*
Y225752D01*
X410765D02*
X412182D01*
X412891Y226460D01*
Y227877D01*
X412182Y228586D01*
X410765D01*
X410057Y227877D01*
Y226460D01*
X410765Y225752D01*
X414308D02*
X415724D01*
X415016D01*
Y230002D01*
X414308D01*
X419975Y225752D02*
X418558D01*
X417850Y226460D01*
Y227877D01*
X418558Y228586D01*
X419975D01*
X420683Y227877D01*
Y227169D01*
X417850D01*
X422100Y228586D02*
Y225752D01*
Y227169D01*
X422809Y227877D01*
X423517Y228586D01*
X424226D01*
X427059D02*
X428476D01*
X429185Y227877D01*
Y225752D01*
X427059D01*
X426351Y226460D01*
X427059Y227169D01*
X429185D01*
X430602Y225752D02*
Y228586D01*
X432727D01*
X433435Y227877D01*
Y225752D01*
X437686Y228586D02*
X435561D01*
X434852Y227877D01*
Y226460D01*
X435561Y225752D01*
X437686D01*
X441228D02*
X439811D01*
X439103Y226460D01*
Y227877D01*
X439811Y228586D01*
X441228D01*
X441936Y227877D01*
Y227169D01*
X439103D01*
X449021Y225752D02*
X447604Y227169D01*
Y228586D01*
X449021Y230002D01*
X451146Y227877D02*
X453980D01*
X452563Y229294D02*
Y226460D01*
X455397Y225752D02*
X456814Y227169D01*
Y228586D01*
X455397Y230002D01*
X333532D02*
Y225752D01*
X335658D01*
X336366Y226460D01*
Y229294D01*
X335658Y230002D01*
X333532D01*
X339908Y225752D02*
X338492D01*
X337783Y226460D01*
Y227877D01*
X338492Y228586D01*
X339908D01*
X340617Y227877D01*
Y227169D01*
X337783D01*
X342034Y225752D02*
X344159D01*
X344867Y226460D01*
X344159Y227169D01*
X342742D01*
X342034Y227877D01*
X342742Y228586D01*
X344867D01*
X349118D02*
X346993D01*
X346284Y227877D01*
Y226460D01*
X346993Y225752D01*
X349118D01*
X350535Y228586D02*
Y225752D01*
Y227169D01*
X351243Y227877D01*
X351952Y228586D01*
X352660D01*
X354785Y225752D02*
X356202D01*
X355494D01*
Y228586D01*
X354785D01*
X358328Y224335D02*
Y228586D01*
X360453D01*
X361161Y227877D01*
Y226460D01*
X360453Y225752D01*
X358328D01*
X363287Y229294D02*
Y228586D01*
X362578D01*
X363995D01*
X363287D01*
Y226460D01*
X363995Y225752D01*
X366120D02*
X367537D01*
X366829D01*
Y228586D01*
X366120D01*
X370371Y225752D02*
X371788D01*
X372496Y226460D01*
Y227877D01*
X371788Y228586D01*
X370371D01*
X369662Y227877D01*
Y226460D01*
X370371Y225752D01*
X373913D02*
Y228586D01*
X376038D01*
X376747Y227877D01*
Y225752D01*
X289025Y230002D02*
X291859D01*
X290442D01*
Y225752D01*
X295401D02*
X293984D01*
X293275Y226460D01*
Y227877D01*
X293984Y228586D01*
X295401D01*
X296109Y227877D01*
Y227169D01*
X293275D01*
X297526Y225752D02*
Y228586D01*
X298234D01*
X298943Y227877D01*
Y225752D01*
Y227877D01*
X299651Y228586D01*
X300360Y227877D01*
Y225752D01*
X301777Y224335D02*
Y228586D01*
X303902D01*
X304610Y227877D01*
Y226460D01*
X303902Y225752D01*
X301777D01*
X306027D02*
X307444D01*
X306736D01*
Y230002D01*
X306027D01*
X310278Y228586D02*
X311695D01*
X312403Y227877D01*
Y225752D01*
X310278D01*
X309569Y226460D01*
X310278Y227169D01*
X312403D01*
X314528Y229294D02*
Y228586D01*
X313820D01*
X315237D01*
X314528D01*
Y226460D01*
X315237Y225752D01*
X319487D02*
X318071D01*
X317362Y226460D01*
Y227877D01*
X318071Y228586D01*
X319487D01*
X320196Y227877D01*
Y227169D01*
X317362D01*
X243671Y225752D02*
Y230002D01*
X245797D01*
X246505Y229294D01*
Y227877D01*
X245797Y227169D01*
X243671D01*
X248630Y228586D02*
X250047D01*
X250756Y227877D01*
Y225752D01*
X248630D01*
X247922Y226460D01*
X248630Y227169D01*
X250756D01*
X255006Y230002D02*
Y225752D01*
X252881D01*
X252172Y226460D01*
Y227877D01*
X252881Y228586D01*
X255006D01*
X263507Y229294D02*
X262799Y230002D01*
X261382D01*
X260674Y229294D01*
Y228586D01*
X261382Y227877D01*
X262799D01*
X263507Y227169D01*
Y226460D01*
X262799Y225752D01*
X261382D01*
X260674Y226460D01*
X264924Y230002D02*
Y225752D01*
Y227877D01*
X265633Y228586D01*
X267050D01*
X267758Y227877D01*
Y225752D01*
X269883Y228586D02*
X271300D01*
X272009Y227877D01*
Y225752D01*
X269883D01*
X269175Y226460D01*
X269883Y227169D01*
X272009D01*
X273426Y224335D02*
Y228586D01*
X275551D01*
X276259Y227877D01*
Y226460D01*
X275551Y225752D01*
X273426D01*
X279801D02*
X278384D01*
X277676Y226460D01*
Y227877D01*
X278384Y228586D01*
X279801D01*
X280510Y227877D01*
Y227169D01*
X277676D01*
X207527Y230002D02*
Y227169D01*
X208944Y225752D01*
X210361Y227169D01*
Y230002D01*
X211778Y225752D02*
X213195D01*
X212487D01*
Y228586D01*
X211778D01*
X216029D02*
X217445D01*
X218154Y227877D01*
Y225752D01*
X216029D01*
X215320Y226460D01*
X216029Y227169D01*
X218154D01*
X219571Y225752D02*
X222405Y228586D01*
X223821Y225752D02*
Y230002D01*
X225947D01*
X226655Y229294D01*
Y227877D01*
X225947Y227169D01*
X223821D01*
X228781Y228586D02*
X230197D01*
X230906Y227877D01*
Y225752D01*
X228781D01*
X228072Y226460D01*
X228781Y227169D01*
X230906D01*
X235156Y230002D02*
Y225752D01*
X233031D01*
X232323Y226460D01*
Y227877D01*
X233031Y228586D01*
X235156D01*
X118152Y230002D02*
Y225752D01*
X120278D01*
X120986Y226460D01*
Y229294D01*
X120278Y230002D01*
X118152D01*
X122403Y228586D02*
Y225752D01*
Y227169D01*
X123111Y227877D01*
X123820Y228586D01*
X124528D01*
X126654Y225752D02*
X128070D01*
X127362D01*
Y228586D01*
X126654D01*
X130196Y225752D02*
X131613D01*
X130904D01*
Y230002D01*
X130196D01*
X133738Y225752D02*
X135155D01*
X134446D01*
Y230002D01*
X133738D01*
X141531D02*
Y225752D01*
X144365D01*
X146490Y228586D02*
X147907D01*
X148615Y227877D01*
Y225752D01*
X146490D01*
X145781Y226460D01*
X146490Y227169D01*
X148615D01*
X150032Y228586D02*
Y226460D01*
X150740Y225752D01*
X152866D01*
Y225043D01*
X152157Y224335D01*
X151449D01*
X152866Y225752D02*
Y228586D01*
X156408Y225752D02*
X154991D01*
X154282Y226460D01*
Y227877D01*
X154991Y228586D01*
X156408D01*
X157116Y227877D01*
Y227169D01*
X154282D01*
X158533Y228586D02*
Y225752D01*
Y227169D01*
X159242Y227877D01*
X159950Y228586D01*
X160658D01*
X167034Y225752D02*
Y230002D01*
X169160D01*
X169868Y229294D01*
Y227877D01*
X169160Y227169D01*
X167034D01*
X171993Y228586D02*
X173410D01*
X174119Y227877D01*
Y225752D01*
X171993D01*
X171285Y226460D01*
X171993Y227169D01*
X174119D01*
X175536Y225752D02*
X176952D01*
X176244D01*
Y228586D01*
X175536D01*
X179078D02*
Y225752D01*
Y227169D01*
X179786Y227877D01*
X180495Y228586D01*
X181203D01*
X73507Y230002D02*
Y225752D01*
Y227877D01*
X76341D01*
Y230002D01*
Y225752D01*
X78466D02*
X79883D01*
X80592Y226460D01*
Y227877D01*
X79883Y228586D01*
X78466D01*
X77758Y227877D01*
Y226460D01*
X78466Y225752D01*
X82009D02*
X83425D01*
X82717D01*
Y230002D01*
X82009D01*
X87676Y225752D02*
X86259D01*
X85551Y226460D01*
Y227877D01*
X86259Y228586D01*
X87676D01*
X88384Y227877D01*
Y227169D01*
X85551D01*
X94052Y230002D02*
X96886D01*
X95469D01*
Y225752D01*
X98303Y228586D02*
Y226460D01*
X99011Y225752D01*
X101136D01*
Y225043D01*
X100428Y224335D01*
X99719D01*
X101136Y225752D02*
Y228586D01*
X102553Y224335D02*
Y228586D01*
X104678D01*
X105387Y227877D01*
Y226460D01*
X104678Y225752D01*
X102553D01*
X108929D02*
X107512D01*
X106804Y226460D01*
Y227877D01*
X107512Y228586D01*
X108929D01*
X109637Y227877D01*
Y227169D01*
X106804D01*
X42323Y225752D02*
Y230002D01*
X44448D01*
X45156Y229294D01*
Y227877D01*
X44448Y227169D01*
X42323D01*
X46573Y225752D02*
X47990D01*
X47282D01*
Y230002D01*
X46573D01*
X50824Y228586D02*
X52241D01*
X52949Y227877D01*
Y225752D01*
X50824D01*
X50115Y226460D01*
X50824Y227169D01*
X52949D01*
X55074Y229294D02*
Y228586D01*
X54366D01*
X55783D01*
X55074D01*
Y226460D01*
X55783Y225752D01*
X60033D02*
X58617D01*
X57908Y226460D01*
Y227877D01*
X58617Y228586D01*
X60033D01*
X60742Y227877D01*
Y227169D01*
X57908D01*
X64992Y230002D02*
Y225752D01*
X62867D01*
X62159Y226460D01*
Y227877D01*
X62867Y228586D01*
X64992D01*
X-26390Y230002D02*
Y225752D01*
Y227877D01*
X-23556D01*
Y230002D01*
Y225752D01*
X-21431D02*
X-20014D01*
X-19306Y226460D01*
Y227877D01*
X-20014Y228586D01*
X-21431D01*
X-22139Y227877D01*
Y226460D01*
X-21431Y225752D01*
X-17889D02*
X-16472D01*
X-17180D01*
Y230002D01*
X-17889D01*
X-12221Y225752D02*
X-13638D01*
X-14346Y226460D01*
Y227877D01*
X-13638Y228586D01*
X-12221D01*
X-11513Y227877D01*
Y227169D01*
X-14346D01*
X-3012Y229294D02*
X-3720Y230002D01*
X-5137D01*
X-5845Y229294D01*
Y228586D01*
X-5137Y227877D01*
X-3720D01*
X-3012Y227169D01*
Y226460D01*
X-3720Y225752D01*
X-5137D01*
X-5845Y226460D01*
X-1595Y225752D02*
X-178D01*
X-886D01*
Y228586D01*
X-1595D01*
X1947D02*
X4781D01*
X1947Y225752D01*
X4781D01*
X8323D02*
X6907D01*
X6198Y226460D01*
Y227877D01*
X6907Y228586D01*
X8323D01*
X9032Y227877D01*
Y227169D01*
X6198D01*
X-59799Y229294D02*
X-60507Y230002D01*
X-61924D01*
X-62632Y229294D01*
Y226460D01*
X-61924Y225752D01*
X-60507D01*
X-59799Y226460D01*
X-57673Y225752D02*
X-56257D01*
X-55548Y226460D01*
Y227877D01*
X-56257Y228586D01*
X-57673D01*
X-58382Y227877D01*
Y226460D01*
X-57673Y225752D01*
X-54131Y228586D02*
Y226460D01*
X-53423Y225752D01*
X-51297D01*
Y228586D01*
X-49881Y225752D02*
Y228586D01*
X-47755D01*
X-47047Y227877D01*
Y225752D01*
X-44922Y229294D02*
Y228586D01*
X-45630D01*
X-44213D01*
X-44922D01*
Y226460D01*
X-44213Y225752D01*
X-90983Y229294D02*
X-91692Y230002D01*
X-93109D01*
X-93817Y229294D01*
Y228586D01*
X-93109Y227877D01*
X-91692D01*
X-90983Y227169D01*
Y226460D01*
X-91692Y225752D01*
X-93109D01*
X-93817Y226460D01*
X-89567Y228586D02*
Y226460D01*
X-88858Y225752D01*
X-86733D01*
Y225043D01*
X-87441Y224335D01*
X-88150D01*
X-86733Y225752D02*
Y228586D01*
X-85316Y225752D02*
Y228586D01*
X-84608D01*
X-83899Y227877D01*
Y225752D01*
Y227877D01*
X-83191Y228586D01*
X-82482Y227877D01*
Y225752D01*
X-81065Y230002D02*
Y225752D01*
X-78940D01*
X-78232Y226460D01*
Y227169D01*
Y227877D01*
X-78940Y228586D01*
X-81065D01*
X-76106Y225752D02*
X-74690D01*
X-73981Y226460D01*
Y227877D01*
X-74690Y228586D01*
X-76106D01*
X-76815Y227877D01*
Y226460D01*
X-76106Y225752D01*
X-72564D02*
X-71147D01*
X-71856D01*
Y230002D01*
X-72564D01*
M02*
