G04*
G04 #@! TF.GenerationSoftware,Altium Limited,Altium Designer,19.0.4 (130)*
G04*
G04 Layer_Color=128*
%FSLAX25Y25*%
%MOIN*%
G70*
G01*
G75*
%ADD98C,0.00200*%
D98*
X24268Y49134D02*
X28205D01*
X26236Y47165D02*
Y51102D01*
X24268Y39291D02*
X28205D01*
X26236Y37323D02*
Y41260D01*
X24268Y29449D02*
X28205D01*
X26236Y27480D02*
Y31417D01*
X24268Y19606D02*
X28205D01*
X26236Y17638D02*
Y21575D01*
X24268Y9764D02*
X28205D01*
X26236Y7795D02*
Y11732D01*
X24268Y108362D02*
X28205D01*
X26236Y106394D02*
Y110331D01*
X24268Y98520D02*
X28205D01*
X26236Y96551D02*
Y100488D01*
X24268Y88677D02*
X28205D01*
X26236Y86709D02*
Y90646D01*
X24268Y78835D02*
X28205D01*
X26236Y76866D02*
Y80803D01*
X24268Y68992D02*
X28205D01*
X26236Y67024D02*
Y70961D01*
X175228Y50504D02*
X178378D01*
X176803Y48929D02*
Y52079D01*
X175228Y67827D02*
X178378D01*
X176803Y66252D02*
Y69402D01*
X184163Y106650D02*
X194163D01*
X189163Y101650D02*
Y111650D01*
X184124Y11372D02*
X194124D01*
X189124Y6373D02*
Y16373D01*
X122114Y65992D02*
X123114D01*
X122614Y65492D02*
Y66492D01*
X95342Y90354D02*
X96342D01*
X95842Y89854D02*
Y90854D01*
X110736Y27662D02*
X111736D01*
X111236Y27162D02*
Y28162D01*
X36445Y50197D02*
X37445D01*
X36945Y49697D02*
Y50697D01*
X33098Y46899D02*
X34098D01*
X33598Y46399D02*
Y47399D01*
X121177Y51479D02*
X122177D01*
X121677Y50979D02*
Y51979D01*
X89392Y11646D02*
X90392D01*
X89892Y11146D02*
Y12146D01*
X87980Y7093D02*
X88980D01*
X88480Y6593D02*
Y7593D01*
X103776Y27662D02*
X104776D01*
X104276Y27162D02*
Y28162D01*
X120508Y10256D02*
X121508D01*
X121008Y9756D02*
Y10756D01*
X142193Y17535D02*
X143193D01*
X142693Y17035D02*
Y18035D01*
X174988Y31858D02*
X175988D01*
X175488Y31358D02*
Y32358D01*
X159059Y35896D02*
X160059D01*
X159559Y35396D02*
Y36396D01*
X153303Y64520D02*
X154303D01*
X153803Y64020D02*
Y65020D01*
X39841Y85308D02*
X40841D01*
X40341Y84808D02*
Y85808D01*
X39841Y88882D02*
X40841D01*
X40341Y88382D02*
Y89382D01*
X51083Y105079D02*
X52083D01*
X51583Y104579D02*
Y105579D01*
X108327Y63474D02*
X109327D01*
X108827Y62974D02*
Y63974D01*
X31626Y13146D02*
X32626D01*
X32126Y12646D02*
Y13646D01*
X36088Y13146D02*
X37088D01*
X36588Y12646D02*
Y13646D01*
X86840Y44441D02*
X87840D01*
X87340Y43941D02*
Y44941D01*
X104445Y74374D02*
X105445D01*
X104945Y73874D02*
Y74874D01*
X112247Y99189D02*
X113247D01*
X112747Y98689D02*
Y99689D01*
X109302Y95441D02*
X110302D01*
X109802Y94941D02*
Y95941D01*
X115326Y102559D02*
X116326D01*
X115826Y102059D02*
Y103059D01*
X95342Y77346D02*
X96342D01*
X95842Y76846D02*
Y77846D01*
X104445Y68717D02*
X105445D01*
X104945Y68217D02*
Y69217D01*
X112878Y74374D02*
X113878D01*
X113378Y73874D02*
Y74874D01*
X113366Y37393D02*
X114366D01*
X113866Y36893D02*
Y37892D01*
X108996Y41777D02*
X109996D01*
X109496Y41277D02*
Y42277D01*
X121395Y36409D02*
X122395D01*
X121895Y35909D02*
Y36909D01*
X110736Y107780D02*
X111736D01*
X111236Y107280D02*
Y108280D01*
X42469Y58284D02*
X43468D01*
X42968Y57784D02*
Y58784D01*
X45949Y58284D02*
X46949D01*
X46449Y57784D02*
Y58784D01*
X45949Y61083D02*
X46949D01*
X46449Y60583D02*
Y61583D01*
X42469Y61083D02*
X43468D01*
X42968Y60583D02*
Y61583D01*
X49572Y70410D02*
X50572D01*
X50072Y69910D02*
Y70910D01*
X78342Y95425D02*
X79343D01*
X78843Y94925D02*
Y95925D01*
X87579Y41094D02*
X88579D01*
X88079Y40595D02*
Y41594D01*
X69776Y67827D02*
X70776D01*
X70276Y67327D02*
Y68327D01*
X69776Y63142D02*
X70776D01*
X70276Y62642D02*
Y63642D01*
X125862Y36409D02*
X126862D01*
X126362Y35909D02*
Y36909D01*
X130547Y36409D02*
X131547D01*
X131047Y35909D02*
Y36909D01*
X130547Y31150D02*
X131547D01*
X131047Y30650D02*
Y31650D01*
X132957Y33866D02*
X133957D01*
X133457Y33366D02*
Y34366D01*
X72996Y38234D02*
X73980D01*
X73488Y37741D02*
Y38726D01*
X72996Y40961D02*
X73980D01*
X73488Y40468D02*
Y41453D01*
X76335Y39890D02*
X77335D01*
X76835Y39390D02*
Y40390D01*
X56925Y57693D02*
X57925D01*
X57425Y57193D02*
Y58193D01*
X38587Y57024D02*
X39587D01*
X39087Y56524D02*
Y57524D01*
X114484Y110035D02*
X115484D01*
X114984Y109535D02*
Y110535D01*
X85839Y87410D02*
X86839D01*
X86339Y86910D02*
Y87910D01*
X108327Y59567D02*
X109327D01*
X108827Y59067D02*
Y60067D01*
X108327Y50331D02*
X109327D01*
X108827Y49831D02*
Y50831D01*
X41130Y27843D02*
X42130D01*
X41630Y27343D02*
Y28343D01*
X90089Y45244D02*
X91089D01*
X90589Y44744D02*
Y45744D01*
X92532Y47386D02*
X93532D01*
X93032Y46886D02*
Y47886D01*
X84232Y37614D02*
X85232D01*
X84732Y37114D02*
Y38114D01*
X79012Y37614D02*
X80012D01*
X79512Y37114D02*
Y38114D01*
X94272Y51669D02*
X95272D01*
X94772Y51169D02*
Y52169D01*
X94272Y70945D02*
X95272D01*
X94772Y70445D02*
Y71445D01*
X196673Y95909D02*
X197673D01*
X197173Y95409D02*
Y96409D01*
X196673Y86116D02*
X197673D01*
X197173Y85616D02*
Y86616D01*
X196673Y91069D02*
X197673D01*
X197173Y90569D02*
Y91569D01*
X46886Y27843D02*
X47886D01*
X47386Y27343D02*
Y28343D01*
X66831Y10307D02*
X67831D01*
X67331Y9807D02*
Y10807D01*
X159461Y15316D02*
X160461D01*
X159961Y14816D02*
Y15816D01*
X125862Y6827D02*
X126862D01*
X126362Y6327D02*
Y7327D01*
X196405Y3347D02*
X197406D01*
X196906Y2847D02*
Y3847D01*
X178966Y3347D02*
X179966D01*
X179466Y2847D02*
Y3847D01*
X178966Y114315D02*
X179966D01*
X179466Y113815D02*
Y114815D01*
X196405Y114315D02*
X197406D01*
X196906Y113815D02*
Y114815D01*
X186098Y69071D02*
X187098D01*
X186598Y68571D02*
Y69571D01*
X191185Y69071D02*
X192185D01*
X191685Y68571D02*
Y69571D01*
X196272Y69071D02*
X197272D01*
X196772Y68571D02*
Y69571D01*
X186232Y49394D02*
X187232D01*
X186732Y48894D02*
Y49894D01*
X191319Y49394D02*
X192319D01*
X191819Y48894D02*
Y49894D01*
X196405Y49394D02*
X197406D01*
X196906Y48894D02*
Y49894D01*
X152464Y15394D02*
X153464D01*
X152964Y14894D02*
Y15894D01*
X120374Y74374D02*
X121374D01*
X120874Y73874D02*
Y74874D01*
X171909Y57961D02*
X172909D01*
X172409Y57461D02*
Y58461D01*
X134429Y69205D02*
X135429D01*
X134929Y68705D02*
Y69705D01*
X103776Y21067D02*
X104776D01*
X104276Y20567D02*
Y21567D01*
X135500Y44173D02*
X136500D01*
X136000Y43673D02*
Y44673D01*
X118992Y26236D02*
X119992D01*
X119492Y25736D02*
Y26736D01*
X133382Y15528D02*
X134382D01*
X133882Y15028D02*
Y16028D01*
X127188Y15528D02*
X128188D01*
X127688Y15028D02*
Y16028D01*
X125862Y10307D02*
X126862D01*
X126362Y9807D02*
Y10807D01*
X144559Y37347D02*
X145559D01*
X145059Y36847D02*
Y37846D01*
X178268Y39890D02*
X179268D01*
X178768Y39390D02*
Y40390D01*
X143130Y20882D02*
X144130D01*
X143630Y20382D02*
Y21382D01*
X144736Y15394D02*
X145736D01*
X145236Y14894D02*
Y15894D01*
X77673Y107277D02*
X78673D01*
X78173Y106777D02*
Y107777D01*
X47153Y24094D02*
X48153D01*
X47653Y23595D02*
Y24595D01*
X123996Y92042D02*
X124996D01*
X124496Y91542D02*
Y92542D01*
X104445Y36945D02*
X105445D01*
X104945Y36445D02*
Y37445D01*
X94138Y34607D02*
X95138D01*
X94638Y34107D02*
Y35107D01*
X139248Y101555D02*
X140248D01*
X139748Y101055D02*
Y102055D01*
X122650Y114583D02*
X123650D01*
X123150Y114083D02*
Y115083D01*
X51083Y93835D02*
X52083D01*
X51583Y93335D02*
Y94335D01*
X16902Y114583D02*
X17902D01*
X17402Y114083D02*
Y115083D01*
X16902Y110924D02*
X17902D01*
X17402Y110424D02*
Y111424D01*
X16902Y107265D02*
X17902D01*
X17402Y106765D02*
Y107765D01*
X25782Y103425D02*
X26782D01*
X26282Y102925D02*
Y103925D01*
X18776Y7362D02*
X19776D01*
X19276Y6862D02*
Y7862D01*
X15238Y7228D02*
X16238D01*
X15738Y6728D02*
Y7728D01*
X26004Y34782D02*
X27004D01*
X26504Y34282D02*
Y35282D01*
X26004Y43857D02*
X27004D01*
X26504Y43357D02*
Y44357D01*
X29217Y84197D02*
X30217D01*
X29717Y83697D02*
Y84697D01*
X29217Y93433D02*
X30217D01*
X29717Y92933D02*
Y93933D01*
X46628Y15260D02*
X47627D01*
X47128Y14760D02*
Y15760D01*
X75222Y49795D02*
X76222D01*
X75722Y49295D02*
Y50295D01*
X73658Y47252D02*
X74657D01*
X74158Y46752D02*
Y47752D01*
X119303Y91069D02*
X120303D01*
X119803Y90569D02*
Y91569D01*
X191587Y91069D02*
X192587D01*
X192087Y90569D02*
Y91569D01*
X191587Y86116D02*
X192587D01*
X192087Y85616D02*
Y86616D01*
X191587Y95909D02*
X192587D01*
X192087Y95409D02*
Y96409D01*
X186232Y28110D02*
X187232D01*
X186732Y27610D02*
Y28610D01*
X191319Y28110D02*
X192319D01*
X191819Y27610D02*
Y28610D01*
X196405Y28110D02*
X197406D01*
X196906Y27610D02*
Y28610D01*
X196405Y23157D02*
X197406D01*
X196906Y22658D02*
Y23658D01*
X191319Y23157D02*
X192319D01*
X191819Y22658D02*
Y23658D01*
X186232Y23157D02*
X187232D01*
X186732Y22658D02*
Y23658D01*
X196405Y32951D02*
X197406D01*
X196906Y32451D02*
Y33451D01*
X191319Y32951D02*
X192319D01*
X191819Y32451D02*
Y33451D01*
X186232Y32951D02*
X187232D01*
X186732Y32451D02*
Y33451D01*
X186098Y59299D02*
X187098D01*
X186598Y58799D02*
Y59799D01*
X191185Y59299D02*
X192185D01*
X191685Y58799D02*
Y59799D01*
X196272Y59299D02*
X197272D01*
X196772Y58799D02*
Y59799D01*
X196272Y54347D02*
X197272D01*
X196772Y53847D02*
Y54847D01*
X191185Y54347D02*
X192185D01*
X191685Y53847D02*
Y54847D01*
X186098Y54347D02*
X187098D01*
X186598Y53847D02*
Y54847D01*
X196272Y64140D02*
X197272D01*
X196772Y63640D02*
Y64640D01*
X191185Y64140D02*
X192185D01*
X191685Y63640D02*
Y64640D01*
X186098Y64140D02*
X187098D01*
X186598Y63640D02*
Y64640D01*
X127335Y114583D02*
X128335D01*
X127835Y114083D02*
Y115083D01*
X117965Y114583D02*
X118965D01*
X118465Y114083D02*
Y115083D01*
X13287Y61433D02*
X14287D01*
X13787Y60933D02*
Y61933D01*
X95342Y87085D02*
X96342D01*
X95842Y86585D02*
Y87585D01*
X143532Y101646D02*
X144532D01*
X144032Y101146D02*
Y102146D01*
X146209Y63315D02*
X147209D01*
X146709Y62815D02*
Y63815D01*
X88382Y37564D02*
X89382D01*
X88882Y37064D02*
Y38064D01*
X174988Y35896D02*
X175988D01*
X175488Y35396D02*
Y36396D01*
X174854Y44059D02*
X175854D01*
X175354Y43559D02*
Y44559D01*
X169232Y47819D02*
X170232D01*
X169732Y47319D02*
Y48319D01*
X163945Y47819D02*
X164945D01*
X164445Y47319D02*
Y48319D01*
X158658Y47819D02*
X159658D01*
X159158Y47319D02*
Y48319D01*
X36088Y15929D02*
X37088D01*
X36588Y15429D02*
Y16429D01*
X31626Y15929D02*
X32626D01*
X32126Y15429D02*
Y16429D01*
X13421Y31323D02*
X14421D01*
X13921Y30823D02*
Y31823D01*
X172043Y78620D02*
X173043D01*
X172543Y78120D02*
Y79120D01*
X177130Y78620D02*
X178130D01*
X177630Y78120D02*
Y79120D01*
X182217Y78620D02*
X183217D01*
X182717Y78120D02*
Y79120D01*
X176327Y95909D02*
X177327D01*
X176827Y95409D02*
Y96409D01*
X181413Y95909D02*
X182413D01*
X181913Y95409D02*
Y96409D01*
X186500Y95909D02*
X187500D01*
X187000Y95409D02*
Y96409D01*
X176327Y86116D02*
X177327D01*
X176827Y85616D02*
Y86616D01*
X181413Y86116D02*
X182413D01*
X181913Y85616D02*
Y86616D01*
X186500Y86116D02*
X187500D01*
X187000Y85616D02*
Y86616D01*
X186500Y91069D02*
X187500D01*
X187000Y90569D02*
Y91569D01*
X181413Y91069D02*
X182413D01*
X181913Y90569D02*
Y91569D01*
X176327Y91069D02*
X177327D01*
X176827Y90569D02*
Y91569D01*
X152098Y111236D02*
X153098D01*
X152598Y110736D02*
Y111736D01*
X47153Y42200D02*
X48153D01*
X47653Y41700D02*
Y42700D01*
X75264Y53943D02*
X76264D01*
X75764Y53443D02*
Y54443D01*
X81689Y39890D02*
X82689D01*
X82189Y39390D02*
Y40390D01*
X168697Y4953D02*
X169697D01*
X169197Y4453D02*
Y5453D01*
X135500Y50816D02*
X136500D01*
X136000Y50316D02*
Y51316D01*
X26004Y24630D02*
X27004D01*
X26504Y24130D02*
Y25130D01*
X33366Y31236D02*
X34366D01*
X33866Y30736D02*
Y31736D01*
X39390Y44060D02*
X40390D01*
X39890Y43560D02*
Y44560D01*
X70177Y108158D02*
X71177D01*
X70677Y107658D02*
Y108658D01*
X56256Y76835D02*
X57256D01*
X56756Y76335D02*
Y77335D01*
X69910Y76835D02*
X70910D01*
X70410Y76335D02*
Y77335D01*
X26004Y55417D02*
X27004D01*
X26504Y54917D02*
Y55917D01*
X26004Y59076D02*
X27004D01*
X26504Y58576D02*
Y59576D01*
X13688Y103953D02*
X14688D01*
X14188Y103453D02*
Y104453D01*
X13421Y50331D02*
X14421D01*
X13921Y49831D02*
Y50831D01*
X13421Y24898D02*
X14421D01*
X13921Y24398D02*
Y25398D01*
X13421Y40157D02*
X14421D01*
X13921Y39658D02*
Y40657D01*
X13421Y55417D02*
X14421D01*
X13921Y54917D02*
Y55917D01*
X13421Y66126D02*
X14421D01*
X13921Y65626D02*
Y66626D01*
X13689Y83528D02*
X14689D01*
X14189Y83028D02*
Y84028D01*
X13689Y94504D02*
X14689D01*
X14189Y94004D02*
Y95004D01*
X172445Y18205D02*
X173445D01*
X172945Y17705D02*
Y18705D01*
X95342Y80583D02*
X96342D01*
X95842Y80083D02*
Y81083D01*
X103240Y88170D02*
X104240D01*
X103740Y87670D02*
Y88670D01*
X104713Y100661D02*
X105713D01*
X105213Y100161D02*
Y101161D01*
X107658Y104409D02*
X108658D01*
X108158Y103909D02*
Y104909D01*
X101902Y104425D02*
X102902D01*
X102402Y103925D02*
Y104925D01*
X84098Y85268D02*
X85098D01*
X84598Y84768D02*
Y85768D01*
X130012Y84465D02*
X131012D01*
X130512Y83965D02*
Y84965D01*
X145138Y71480D02*
X146138D01*
X145638Y70980D02*
Y71980D01*
X124657Y67795D02*
X125657D01*
X125157Y67295D02*
Y68295D01*
X141122Y75898D02*
X142122D01*
X141622Y75398D02*
Y76398D01*
X147949Y82858D02*
X148949D01*
X148449Y82358D02*
Y83358D01*
X130280Y73756D02*
X131280D01*
X130780Y73256D02*
Y74256D01*
X136972Y80315D02*
X137972D01*
X137472Y79815D02*
Y80815D01*
X73925Y113779D02*
X74925D01*
X74425Y113279D02*
Y114279D01*
X70266Y113779D02*
X71266D01*
X70766Y113279D02*
Y114279D01*
X66608Y113779D02*
X67608D01*
X67108Y113279D02*
Y114279D01*
X62949Y113779D02*
X63949D01*
X63449Y113279D02*
Y114279D01*
X15295Y3213D02*
X16295D01*
X15795Y2713D02*
Y3713D01*
X18954Y3213D02*
X19954D01*
X19454Y2713D02*
Y3713D01*
X22613Y3213D02*
X23613D01*
X23113Y2713D02*
Y3713D01*
X26272Y3213D02*
X27272D01*
X26772Y2713D02*
Y3713D01*
X21453Y114583D02*
X22453D01*
X21953Y114083D02*
Y115083D01*
X25111Y114583D02*
X26112D01*
X25611Y114083D02*
Y115083D01*
X28770Y114583D02*
X29770D01*
X29270Y114083D02*
Y115083D01*
X32429Y114583D02*
X33429D01*
X32929Y114083D02*
Y115083D01*
X62547Y7237D02*
X63547D01*
X63047Y6737D02*
Y7737D01*
X76870Y42165D02*
X77870D01*
X77370Y41665D02*
Y42665D01*
X91059Y41094D02*
X92059D01*
X91559Y40595D02*
Y41594D01*
X125862Y44173D02*
X126862D01*
X126362Y43673D02*
Y44673D01*
X125261Y79512D02*
X126261D01*
X125761Y79012D02*
Y80012D01*
X166555Y100126D02*
X167555D01*
X167055Y99626D02*
Y100626D01*
X171642Y102268D02*
X172642D01*
X172142Y101768D02*
Y102768D01*
X170035Y100126D02*
X171035D01*
X170535Y99626D02*
Y100626D01*
X168161Y102268D02*
X169161D01*
X168661Y101768D02*
Y102768D01*
X164681Y102268D02*
X165681D01*
X165181Y101768D02*
Y102768D01*
X161201Y102268D02*
X162201D01*
X161701Y101768D02*
Y102768D01*
X157720Y102268D02*
X158721D01*
X158221Y101768D02*
Y102768D01*
X154240Y102268D02*
X155240D01*
X154740Y101768D02*
Y102768D01*
X148854Y102803D02*
X149854D01*
X149354Y102303D02*
Y103303D01*
X94405Y18070D02*
X95405D01*
X94905Y17570D02*
Y18570D01*
X101232Y31323D02*
X102232D01*
X101732Y30823D02*
Y31823D01*
X98020Y31323D02*
X99020D01*
X98520Y30823D02*
Y31823D01*
X65894Y31323D02*
X66894D01*
X66394Y30823D02*
Y31823D01*
X62146Y47252D02*
X63146D01*
X62646Y46752D02*
Y47752D01*
X94547Y38284D02*
X95531D01*
X95039Y37791D02*
Y38776D01*
X75264Y44709D02*
X76264D01*
X75764Y44209D02*
Y45209D01*
X94272Y54346D02*
X95272D01*
X94772Y53846D02*
Y54846D01*
X94539Y22488D02*
X95539D01*
X95039Y21988D02*
Y22988D01*
X60004Y86472D02*
X61004D01*
X60504Y85972D02*
Y86972D01*
X71784Y86472D02*
X72783D01*
X72284Y85972D02*
Y86972D01*
X43941Y27843D02*
X44941D01*
X44441Y27343D02*
Y28343D01*
X94272Y68000D02*
X95272D01*
X94772Y67500D02*
Y68500D01*
X88382Y110118D02*
X89382D01*
X88882Y109618D02*
Y110618D01*
X65894Y86472D02*
X66894D01*
X66394Y85972D02*
Y86972D01*
X53847Y107894D02*
X54847D01*
X54347Y107394D02*
Y108394D01*
X53847Y102343D02*
X54847D01*
X54347Y101843D02*
Y102843D01*
M02*
