G04*
G04 #@! TF.GenerationSoftware,Altium Limited,Altium Designer,19.0.4 (130)*
G04*
G04 Layer_Physical_Order=2*
G04 Layer_Color=32768*
%FSLAX25Y25*%
%MOIN*%
G70*
G01*
G75*
%ADD10C,0.00787*%
%ADD48C,0.04000*%
%ADD49C,0.07937*%
%ADD50C,0.07150*%
%ADD51C,0.14000*%
%ADD52C,0.05000*%
%ADD53C,0.04984*%
D10*
X118625Y57500D02*
X119973D01*
D48*
X12601Y5286D02*
G03*
X9451Y8435I-3150J0D01*
G01*
Y109616D02*
G03*
X12601Y112766I0J3150D01*
G01*
X12601Y71254D02*
G03*
X12787Y77108I17J2929D01*
G01*
X0Y8435D02*
X9451D01*
X12601Y0D02*
Y5286D01*
Y0D02*
X200601D01*
Y118080D01*
X12601D02*
X200601D01*
X12601Y112766D02*
Y118080D01*
X21Y109616D02*
X9451D01*
X21Y77108D02*
Y109616D01*
Y77108D02*
X12787D01*
X0Y71254D02*
X12601D01*
X0Y8435D02*
Y71254D01*
D49*
X26236Y49134D02*
D03*
Y29449D02*
D03*
Y19606D02*
D03*
Y9764D02*
D03*
Y108362D02*
D03*
Y98520D02*
D03*
Y78835D02*
D03*
Y68992D02*
D03*
D50*
X176803Y50504D02*
D03*
Y67827D02*
D03*
D51*
X189163Y106650D02*
D03*
X189124Y11372D02*
D03*
D52*
X88480Y7093D02*
D03*
X121895Y36409D02*
D03*
X133457Y33866D02*
D03*
X57425Y57693D02*
D03*
X39087Y57024D02*
D03*
X114984Y110035D02*
D03*
X108827Y59567D02*
D03*
Y50331D02*
D03*
X41630Y27843D02*
D03*
X90589Y45244D02*
D03*
X93032Y47386D02*
D03*
X84732Y37614D02*
D03*
X79512D02*
D03*
X94772Y70945D02*
D03*
X47386Y27843D02*
D03*
X152964Y15394D02*
D03*
X126362Y10307D02*
D03*
X145059Y37347D02*
D03*
X178768Y39890D02*
D03*
X143630Y20882D02*
D03*
X145236Y15394D02*
D03*
X94638Y34607D02*
D03*
X75722Y49795D02*
D03*
X152598Y111236D02*
D03*
X75764Y53943D02*
D03*
X82189Y39890D02*
D03*
X169197Y4953D02*
D03*
X136000Y50816D02*
D03*
X14188Y103953D02*
D03*
X13921Y50331D02*
D03*
Y24898D02*
D03*
X103740Y88170D02*
D03*
X63047Y7237D02*
D03*
X167055Y100126D02*
D03*
X172142Y102268D02*
D03*
X170535Y100126D02*
D03*
X168661Y102268D02*
D03*
X165181D02*
D03*
X161701D02*
D03*
X158221D02*
D03*
X154740D02*
D03*
X149354Y102803D02*
D03*
X94905Y18070D02*
D03*
X101732Y31323D02*
D03*
X98520D02*
D03*
X66394D02*
D03*
X62646Y47252D02*
D03*
X75764Y44709D02*
D03*
X95039Y22488D02*
D03*
X60504Y86472D02*
D03*
X72284D02*
D03*
X44441Y27843D02*
D03*
X94772Y68000D02*
D03*
X88882Y110118D02*
D03*
X66394Y86472D02*
D03*
X54347Y107894D02*
D03*
Y102343D02*
D03*
D53*
X73488Y38234D02*
D03*
Y40961D02*
D03*
X95039Y38284D02*
D03*
M02*
