G04*
G04 #@! TF.GenerationSoftware,Altium Limited,Altium Designer,19.0.4 (130)*
G04*
G04 Layer_Color=65535*
%FSLAX25Y25*%
%MOIN*%
G70*
G01*
G75*
%ADD10C,0.00787*%
%ADD11C,0.01000*%
%ADD12C,0.00800*%
%ADD13C,0.00394*%
%ADD14C,0.00591*%
%ADD15R,0.01181X0.04724*%
%ADD16R,0.04724X0.01181*%
D10*
X97347Y12768D02*
G03*
X95772Y14343I-1575J-0D01*
G01*
X92701D02*
G03*
X91126Y12768I0J-1575D01*
G01*
X91126Y3831D02*
G03*
X92701Y2256I1575J0D01*
G01*
X95772Y2256D02*
G03*
X97347Y3831I0J1575D01*
G01*
X117146Y81226D02*
G03*
X115571Y82801I-1575J0D01*
G01*
X115571Y76580D02*
G03*
X117146Y78155I-0J1575D01*
G01*
X105059Y78155D02*
G03*
X106634Y76581I1575J0D01*
G01*
Y82801D02*
G03*
X105059Y81226I0J-1575D01*
G01*
X143780Y104256D02*
G03*
X145354Y105831I0J1575D01*
G01*
X139134Y105831D02*
G03*
X140709Y104256I1575J0D01*
G01*
X140709Y116342D02*
G03*
X139134Y114768I0J-1575D01*
G01*
X145354D02*
G03*
X143780Y116342I-1575J-0D01*
G01*
X57929Y33012D02*
G03*
X59504Y31437I1575J0D01*
G01*
X62575D02*
G03*
X64149Y33012I0J1575D01*
G01*
X64150Y41949D02*
G03*
X62575Y43524I-1575J-0D01*
G01*
X59504Y43524D02*
G03*
X57929Y41949I0J-1575D01*
G01*
X161535Y105831D02*
G03*
X163110Y104256I1575J0D01*
G01*
X166181D02*
G03*
X167756Y105831I0J1575D01*
G01*
X167756Y114768D02*
G03*
X166181Y116342I-1575J-0D01*
G01*
X163110Y116342D02*
G03*
X161535Y114768I0J-1575D01*
G01*
X154008Y105831D02*
G03*
X155583Y104256I1575J0D01*
G01*
X158653D02*
G03*
X160228Y105831I0J1575D01*
G01*
X160228Y114768D02*
G03*
X158654Y116342I-1575J-0D01*
G01*
X155583Y116342D02*
G03*
X154008Y114768I0J-1575D01*
G01*
X168764Y105894D02*
G03*
X170339Y104319I1575J0D01*
G01*
X173409D02*
G03*
X174984Y105894I0J1575D01*
G01*
X174984Y114831D02*
G03*
X173409Y116405I-1575J-0D01*
G01*
X170339Y116405D02*
G03*
X168764Y114831I0J-1575D01*
G01*
X91126Y9874D02*
Y12768D01*
X91126Y3831D02*
Y6724D01*
X97347Y3831D02*
Y6724D01*
X92701Y14343D02*
X95772D01*
X92701Y2256D02*
X95772D01*
X97347Y9874D02*
Y12768D01*
X56921Y64756D02*
Y69224D01*
Y57138D02*
Y61606D01*
X50701Y64756D02*
Y69224D01*
Y57138D02*
X56921D01*
X50701Y69224D02*
X56921D01*
X50701Y57138D02*
Y61606D01*
X106634Y82801D02*
X109528D01*
X117146Y78155D02*
Y81226D01*
X105059Y78155D02*
Y81226D01*
X112677Y82801D02*
X115571D01*
X112677Y76580D02*
X115571D01*
X106634Y76581D02*
X109528D01*
X145354Y111874D02*
Y114768D01*
X140709Y104256D02*
X143780D01*
X140709Y116342D02*
X143780D01*
X145354Y105831D02*
Y108724D01*
X139134Y105831D02*
Y108724D01*
X139134Y111874D02*
Y114768D01*
X152732Y111874D02*
Y116342D01*
Y104256D02*
Y108724D01*
X146512Y111874D02*
Y116342D01*
Y104256D02*
X152732D01*
X146512Y116342D02*
X152732D01*
X146512Y104256D02*
Y108724D01*
X112677Y84701D02*
X117146D01*
X105059D02*
X109528D01*
X112677Y90921D02*
X117146D01*
X105059Y84701D02*
Y90921D01*
X117146Y84701D02*
Y90921D01*
X105059D02*
X109528D01*
X146276Y2075D02*
Y6543D01*
Y9693D02*
Y14161D01*
X152496Y2075D02*
Y6543D01*
X146276Y14161D02*
X152496D01*
X146276Y2075D02*
X152496D01*
Y9693D02*
Y14161D01*
X160732Y2075D02*
Y6543D01*
Y9693D02*
Y14161D01*
X166953Y2075D02*
Y6543D01*
X160732Y14161D02*
X166953D01*
X160732Y2075D02*
X166953D01*
Y9693D02*
Y14161D01*
X62346Y78811D02*
X66815D01*
X54728D02*
Y85031D01*
X66815Y78811D02*
Y85031D01*
X54728Y78811D02*
X59197D01*
X62346Y85031D02*
X66815D01*
X54728D02*
X59197D01*
X50701Y31437D02*
Y35906D01*
Y43524D02*
X56921D01*
X50701Y31437D02*
X56921D01*
X50701Y39055D02*
Y43524D01*
X56921Y31437D02*
Y35906D01*
Y39055D02*
Y43524D01*
X64149Y33012D02*
Y35906D01*
X64150Y39055D02*
Y41949D01*
X57929Y39055D02*
Y41949D01*
X59504Y31437D02*
X62575D01*
X59504Y43524D02*
X62575D01*
X57929Y33012D02*
Y35906D01*
X167756Y105831D02*
Y108724D01*
X167756Y111874D02*
Y114768D01*
X161535Y111874D02*
Y114768D01*
X163110Y104256D02*
X166181D01*
X163110Y116342D02*
X166181D01*
X161535Y105831D02*
Y108724D01*
X160228Y105831D02*
Y108724D01*
X160228Y111874D02*
Y114768D01*
X154008Y111874D02*
Y114768D01*
X155583Y104256D02*
X158654D01*
X155583Y116342D02*
X158654D01*
X154008Y105831D02*
Y108724D01*
X105193Y34433D02*
X109661D01*
X117280Y28213D02*
Y34433D01*
X105193Y28213D02*
Y34433D01*
X112811D02*
X117280D01*
X105193Y28213D02*
X109661D01*
X112811D02*
X117280D01*
X112811Y20906D02*
X117280D01*
X106118D02*
X109661D01*
X112811Y27126D02*
X117280D01*
X105331Y21665D02*
Y26366D01*
X117280Y20906D02*
Y27126D01*
X106118D02*
X109661D01*
X105331Y26366D02*
X106118Y27126D01*
X105331Y21665D02*
X106118Y20906D01*
X97347Y111874D02*
Y116342D01*
X91126Y104256D02*
X97347D01*
X91126Y116342D02*
X97347D01*
Y104256D02*
Y108724D01*
X91126Y111874D02*
Y116342D01*
Y104256D02*
Y108724D01*
X57929Y57138D02*
Y61606D01*
Y64756D02*
Y69224D01*
X64150Y57138D02*
Y61606D01*
X57929Y69224D02*
X64150D01*
X57929Y57138D02*
X64150D01*
Y64756D02*
Y69224D01*
X153504Y13236D02*
X154264Y14024D01*
X158965D02*
X159724Y13236D01*
Y9693D02*
Y13236D01*
X153504Y2075D02*
X159724D01*
X154264Y14024D02*
X158965D01*
X159724Y2075D02*
Y6543D01*
X153504Y9693D02*
Y13236D01*
Y2075D02*
Y6543D01*
X139134Y2075D02*
Y6543D01*
Y14161D02*
X145354D01*
X139134Y2075D02*
X145354D01*
X139134Y9693D02*
Y14161D01*
X145354Y2075D02*
Y6543D01*
Y9693D02*
Y14161D01*
X174984Y105894D02*
Y108787D01*
X174984Y111937D02*
Y114831D01*
X168764Y111937D02*
Y114831D01*
X170339Y104319D02*
X173409D01*
X170339Y116405D02*
X173409D01*
X168764Y105894D02*
Y108787D01*
D11*
X98439Y73039D02*
G03*
X98439Y73039I-707J0D01*
G01*
X176460Y96964D02*
G03*
X176460Y96964I-707J0D01*
G01*
X100732Y71426D02*
Y72539D01*
X112732D01*
X100732Y66426D02*
Y66653D01*
Y61426D02*
Y61653D01*
Y56426D02*
Y56653D01*
Y51426D02*
Y51653D01*
X112732Y45539D02*
Y46653D01*
X100732Y45539D02*
X112732D01*
X100732D02*
Y46653D01*
X112732Y51426D02*
Y51653D01*
Y56426D02*
Y56653D01*
Y61426D02*
Y61653D01*
Y66426D02*
Y66653D01*
Y71426D02*
Y72539D01*
X130490Y102323D02*
Y105203D01*
X105687Y102323D02*
Y105203D01*
X130490Y114003D02*
Y117283D01*
X105687Y114003D02*
Y117283D01*
Y102323D02*
X130490D01*
X105687Y117283D02*
X130490D01*
X125331Y111903D02*
Y114803D01*
X111331D02*
X125331D01*
X111331Y111903D02*
Y114803D01*
X115331Y105803D02*
X121231D01*
X118331Y107803D02*
Y110403D01*
Y112203D02*
Y114803D01*
X106172Y12899D02*
Y15779D01*
X130975Y12899D02*
Y15779D01*
X106172Y819D02*
Y4099D01*
X130975Y819D02*
Y4099D01*
X106172Y15779D02*
X130975D01*
X106172Y819D02*
X130975D01*
X111331Y3299D02*
Y6199D01*
Y3299D02*
X125331D01*
Y6199D01*
X115431Y12299D02*
X121331D01*
X118331Y7699D02*
Y10299D01*
Y3299D02*
Y5899D01*
X176206Y94398D02*
X199828D01*
X176206Y23532D02*
Y94398D01*
Y23532D02*
X199828D01*
Y94398D01*
X168650Y94465D02*
X169192D01*
X162744D02*
X163287D01*
X156839D02*
X157381D01*
X150934D02*
X151476D01*
X145028D02*
X145571D01*
X139122D02*
X139665D01*
X133217D02*
X133759D01*
X127312D02*
X127854D01*
X119752Y23465D02*
X121948D01*
X119752D02*
Y94465D01*
X121948D01*
X127312Y23465D02*
X127854D01*
X133217D02*
X133759D01*
X139122D02*
X139665D01*
X145028D02*
X145570D01*
X150934D02*
X151476D01*
X156839D02*
X157381D01*
X162744D02*
X163287D01*
X168650D02*
X169192D01*
X176752D02*
Y94465D01*
X174556Y23465D02*
X176752D01*
X174556Y94465D02*
X176752D01*
D12*
X42583Y425D02*
X84315D01*
X84307Y3799D02*
X84315D01*
Y425D02*
Y3799D01*
X84307Y12799D02*
X84315D01*
Y24299D01*
X82307D02*
X84315D01*
X82307Y20799D02*
Y24299D01*
X77807Y20799D02*
X82307D01*
X78685Y5799D02*
Y10799D01*
X76185Y5799D02*
X78685D01*
X76185D02*
Y10799D01*
X78685D01*
X84307Y425D02*
X84315D01*
X42583D02*
X42591D01*
X48213Y10799D02*
X50713D01*
Y5799D02*
Y10799D01*
X48213Y5799D02*
X50713D01*
X48213D02*
Y10799D01*
X44591Y20799D02*
X49091D01*
X44591D02*
Y24299D01*
X42583D02*
X44591D01*
X42583Y12799D02*
Y24299D01*
Y12799D02*
X42591D01*
X42583Y425D02*
Y3799D01*
X42591D01*
X84307Y114264D02*
X84315D01*
Y117638D01*
X84307Y105264D02*
X84315D01*
Y93764D02*
Y105264D01*
X82307Y93764D02*
X84315D01*
X82307D02*
Y97264D01*
X77807D02*
X82307D01*
X78685Y107264D02*
Y112264D01*
X76185D02*
X78685D01*
X76185Y107264D02*
Y112264D01*
Y107264D02*
X78685D01*
X84307Y117638D02*
X84315D01*
X42583D02*
X42591D01*
X48213Y107264D02*
X50713D01*
Y112264D01*
X48213D02*
X50713D01*
X48213Y107264D02*
Y112264D01*
X44591Y97264D02*
X49091D01*
X44591Y93764D02*
Y97264D01*
X42583Y93764D02*
X44591D01*
X42583D02*
Y105264D01*
X42591D01*
X42583Y114264D02*
Y117638D01*
Y114264D02*
X42591D01*
X42583Y117638D02*
X84315D01*
D13*
X17575Y13701D02*
X20331D01*
X17575D02*
Y45197D01*
Y-79D02*
Y7795D01*
Y-79D02*
X40016D01*
X20331Y7795D02*
Y13701D01*
X17575Y7795D02*
X20331D01*
X17575Y51102D02*
Y58976D01*
X40016Y-79D02*
Y58976D01*
X37260Y-47D02*
Y58976D01*
X20331Y45197D02*
Y51102D01*
X17575D02*
X20331D01*
X17575Y45197D02*
X20331D01*
X17575Y58976D02*
X40016D01*
X17575Y72929D02*
X20331D01*
X17575D02*
Y104425D01*
Y59150D02*
Y67024D01*
Y59150D02*
X40016D01*
X20331Y67024D02*
Y72929D01*
X17575Y67024D02*
X20331D01*
X17575Y110331D02*
Y118205D01*
X40016Y59150D02*
Y118205D01*
X37260Y59181D02*
Y118205D01*
X20331Y104425D02*
Y110331D01*
X17575D02*
X20331D01*
X17575Y104425D02*
X20331D01*
X17575Y118205D02*
X40016D01*
D14*
X84063Y39149D02*
X86424D01*
X85244D01*
Y35606D01*
X87605D02*
X88786D01*
X88196D01*
Y39149D01*
X87605Y38558D01*
X49528Y58976D02*
X45985D01*
Y60747D01*
X46576Y61338D01*
X47756D01*
X48347Y60747D01*
Y58976D01*
Y60157D02*
X49528Y61338D01*
Y64880D02*
Y62519D01*
X47166Y64880D01*
X46576D01*
X45985Y64290D01*
Y63109D01*
X46576Y62519D01*
Y66061D02*
X45985Y66651D01*
Y67832D01*
X46576Y68422D01*
X47166D01*
X47756Y67832D01*
X48347Y68422D01*
X48937D01*
X49528Y67832D01*
Y66651D01*
X48937Y66061D01*
X48347D01*
X47756Y66651D01*
X47166Y66061D01*
X46576D01*
X47756Y66651D02*
Y67832D01*
X135684Y102542D02*
X135094Y103133D01*
X133913D01*
X133323Y102542D01*
Y100181D01*
X133913Y99590D01*
X135094D01*
X135684Y100181D01*
X136865Y99590D02*
X138046D01*
X137455D01*
Y103133D01*
X136865Y102542D01*
X139817D02*
X140407Y103133D01*
X141588D01*
X142178Y102542D01*
Y101952D01*
X141588Y101362D01*
X140998D01*
X141588D01*
X142178Y100771D01*
Y100181D01*
X141588Y99590D01*
X140407D01*
X139817Y100181D01*
X98763Y81660D02*
X98173Y82251D01*
X96992D01*
X96402Y81660D01*
Y79299D01*
X96992Y78709D01*
X98173D01*
X98763Y79299D01*
X101715Y78709D02*
Y82251D01*
X99944Y80480D01*
X102306D01*
X93713Y18479D02*
X93123Y19070D01*
X91942D01*
X91352Y18479D01*
Y16118D01*
X91942Y15528D01*
X93123D01*
X93713Y16118D01*
X94894Y15528D02*
X96074D01*
X95484D01*
Y19070D01*
X94894Y18479D01*
X89637Y71141D02*
X88456D01*
X89047D01*
Y68189D01*
X88456Y67598D01*
X87866D01*
X87275Y68189D01*
X93179Y71141D02*
X91998Y70550D01*
X90818Y69370D01*
Y68189D01*
X91408Y67598D01*
X92589D01*
X93179Y68189D01*
Y68779D01*
X92589Y69370D01*
X90818D01*
X145571Y15528D02*
Y19070D01*
X147342D01*
X147932Y18479D01*
Y17299D01*
X147342Y16708D01*
X145571D01*
X146751D02*
X147932Y15528D01*
X149113Y18479D02*
X149703Y19070D01*
X150884D01*
X151474Y18479D01*
Y17889D01*
X150884Y17299D01*
X150293D01*
X150884D01*
X151474Y16708D01*
Y16118D01*
X150884Y15528D01*
X149703D01*
X149113Y16118D01*
X152655Y15528D02*
X153835D01*
X153245D01*
Y19070D01*
X152655Y18479D01*
X96402Y86205D02*
Y89747D01*
X98173D01*
X98763Y89157D01*
Y87976D01*
X98173Y87385D01*
X96402D01*
X97583D02*
X98763Y86205D01*
X99944Y86795D02*
X100534Y86205D01*
X101715D01*
X102306Y86795D01*
Y89157D01*
X101715Y89747D01*
X100534D01*
X99944Y89157D01*
Y88566D01*
X100534Y87976D01*
X102306D01*
X171874Y3480D02*
X168332D01*
Y5251D01*
X168922Y5842D01*
X170103D01*
X170693Y5251D01*
Y3480D01*
Y4661D02*
X171874Y5842D01*
Y9384D02*
Y7023D01*
X169513Y9384D01*
X168922D01*
X168332Y8794D01*
Y7613D01*
X168922Y7023D01*
X168332Y12926D02*
Y10565D01*
X170103D01*
X169513Y11745D01*
Y12336D01*
X170103Y12926D01*
X171284D01*
X171874Y12336D01*
Y11155D01*
X171284Y10565D01*
X143576Y99590D02*
Y103133D01*
X145347D01*
X145938Y102542D01*
Y101362D01*
X145347Y100771D01*
X143576D01*
X144757D02*
X145938Y99590D01*
X149480D02*
X147118D01*
X149480Y101952D01*
Y102542D01*
X148890Y103133D01*
X147709D01*
X147118Y102542D01*
X152432Y99590D02*
Y103133D01*
X150661Y101362D01*
X153022D01*
X15795Y28646D02*
X12253D01*
X13434Y29826D01*
X12253Y31007D01*
X15795D01*
Y32188D02*
Y33369D01*
Y32778D01*
X13434D01*
Y32188D01*
X15795Y35140D02*
X13434D01*
Y36911D01*
X14024Y37501D01*
X15795D01*
Y38682D02*
Y39862D01*
Y39272D01*
X13434D01*
Y38682D01*
X14024Y41634D02*
Y43995D01*
X15795Y45176D02*
X12253D01*
Y46947D01*
X12844Y47537D01*
X14024D01*
X14615Y46947D01*
Y45176D01*
X12844Y51079D02*
X12253Y50489D01*
Y49308D01*
X12844Y48718D01*
X15205D01*
X15795Y49308D01*
Y50489D01*
X15205Y51079D01*
X12253Y52260D02*
Y53441D01*
Y52850D01*
X15795D01*
Y52260D01*
Y53441D01*
X12253Y57573D02*
Y55212D01*
X15795D01*
Y57573D01*
X14024Y55212D02*
Y56393D01*
X13056Y10928D02*
Y9748D01*
Y10338D01*
X16008D01*
X16598Y9748D01*
Y9157D01*
X16008Y8567D01*
X13647Y12109D02*
X13056Y12699D01*
Y13880D01*
X13647Y14470D01*
X14237D01*
X14827Y13880D01*
X15418Y14470D01*
X16008D01*
X16598Y13880D01*
Y12699D01*
X16008Y12109D01*
X15418D01*
X14827Y12699D01*
X14237Y12109D01*
X13647D01*
X14827Y12699D02*
Y13880D01*
X12788Y103826D02*
Y102645D01*
Y103236D01*
X15740D01*
X16331Y102645D01*
Y102055D01*
X15740Y101465D01*
X12788Y105007D02*
Y107368D01*
X13379D01*
X15740Y105007D01*
X16331D01*
X109582Y100506D02*
X108401D01*
X108992D01*
Y97555D01*
X108401Y96964D01*
X107811D01*
X107220Y97555D01*
X113124Y100506D02*
X110763D01*
Y98735D01*
X111943Y99326D01*
X112534D01*
X113124Y98735D01*
Y97555D01*
X112534Y96964D01*
X111353D01*
X110763Y97555D01*
X101149Y16647D02*
X99968D01*
X100558D01*
Y13695D01*
X99968Y13105D01*
X99378D01*
X98787Y13695D01*
X104101Y13105D02*
Y16647D01*
X102330Y14876D01*
X104691D01*
X80802Y30314D02*
X79622D01*
X80212D01*
Y27362D01*
X79622Y26772D01*
X79031D01*
X78441Y27362D01*
X84345Y26772D02*
X81983D01*
X84345Y29133D01*
Y29724D01*
X83754Y30314D01*
X82573D01*
X81983Y29724D01*
X156727Y102542D02*
X156136Y103133D01*
X154955D01*
X154365Y102542D01*
Y100181D01*
X154955Y99590D01*
X156136D01*
X156727Y100181D01*
X157907Y99590D02*
X159088D01*
X158498D01*
Y103133D01*
X157907Y102542D01*
X160859Y103133D02*
X163221D01*
Y102542D01*
X160859Y100181D01*
Y99590D01*
X167515Y102542D02*
X166925Y103133D01*
X165744D01*
X165154Y102542D01*
Y100181D01*
X165744Y99590D01*
X166925D01*
X167515Y100181D01*
X168696Y99590D02*
X169877D01*
X169287D01*
Y103133D01*
X168696Y102542D01*
X174009Y103133D02*
X172829Y102542D01*
X171648Y101362D01*
Y100181D01*
X172238Y99590D01*
X173419D01*
X174009Y100181D01*
Y100771D01*
X173419Y101362D01*
X171648D01*
X65851Y37432D02*
X65261Y36842D01*
Y35661D01*
X65851Y35071D01*
X68213D01*
X68803Y35661D01*
Y36842D01*
X68213Y37432D01*
Y38613D02*
X68803Y39203D01*
Y40384D01*
X68213Y40975D01*
X65851D01*
X65261Y40384D01*
Y39203D01*
X65851Y38613D01*
X66442D01*
X67032Y39203D01*
Y40975D01*
X97583Y25684D02*
Y22142D01*
X99354D01*
X99944Y22732D01*
Y25093D01*
X99354Y25684D01*
X97583D01*
X101125Y22142D02*
X102306D01*
X101715D01*
Y25684D01*
X101125Y25093D01*
X160898Y19070D02*
Y15528D01*
X162669D01*
X163259Y16118D01*
Y18479D01*
X162669Y19070D01*
X160898D01*
X164440Y18479D02*
X165030Y19070D01*
X166211D01*
X166801Y18479D01*
Y17889D01*
X166211Y17299D01*
X165621D01*
X166211D01*
X166801Y16708D01*
Y16118D01*
X166211Y15528D01*
X165030D01*
X164440Y16118D01*
X80802Y91621D02*
X79622D01*
X80212D01*
Y88669D01*
X79622Y88079D01*
X79031D01*
X78441Y88669D01*
X81983Y91031D02*
X82573Y91621D01*
X83754D01*
X84345Y91031D01*
Y90440D01*
X83754Y89850D01*
X83164D01*
X83754D01*
X84345Y89259D01*
Y88669D01*
X83754Y88079D01*
X82573D01*
X81983Y88669D01*
X97583Y29528D02*
Y33070D01*
X99354D01*
X99944Y32479D01*
Y31299D01*
X99354Y30708D01*
X97583D01*
X98763D02*
X99944Y29528D01*
X101125D02*
X102306D01*
X101715D01*
Y33070D01*
X101125Y32479D01*
X47653Y80315D02*
Y83857D01*
X49425D01*
X50015Y83267D01*
Y82086D01*
X49425Y81496D01*
X47653D01*
X48834D02*
X50015Y80315D01*
X52967D02*
Y83857D01*
X51196Y82086D01*
X53557D01*
X49528Y35071D02*
X45985D01*
Y36842D01*
X46576Y37432D01*
X47756D01*
X48347Y36842D01*
Y35071D01*
Y36252D02*
X49528Y37432D01*
X45985Y40975D02*
Y38613D01*
X47756D01*
X47166Y39794D01*
Y40384D01*
X47756Y40975D01*
X48937D01*
X49528Y40384D01*
Y39203D01*
X48937Y38613D01*
X138543Y15528D02*
Y19070D01*
X140314D01*
X140905Y18479D01*
Y17299D01*
X140314Y16708D01*
X138543D01*
X139724D02*
X140905Y15528D01*
X142086Y19070D02*
X144447D01*
Y18479D01*
X142086Y16118D01*
Y15528D01*
X68803Y58976D02*
X65261D01*
Y60747D01*
X65851Y61338D01*
X67032D01*
X67622Y60747D01*
Y58976D01*
Y60157D02*
X68803Y61338D01*
Y62519D02*
Y63699D01*
Y63109D01*
X65261D01*
X65851Y62519D01*
Y65470D02*
X65261Y66061D01*
Y67241D01*
X65851Y67832D01*
X66442D01*
X67032Y67241D01*
X67622Y67832D01*
X68213D01*
X68803Y67241D01*
Y66061D01*
X68213Y65470D01*
X67622D01*
X67032Y66061D01*
X66442Y65470D01*
X65851D01*
X67032Y66061D02*
Y67241D01*
X176954Y107966D02*
X176363Y107376D01*
Y106195D01*
X176954Y105605D01*
X179315D01*
X179905Y106195D01*
Y107376D01*
X179315Y107966D01*
X179905Y109147D02*
Y110328D01*
Y109737D01*
X176363D01*
X176954Y109147D01*
X176363Y114460D02*
Y112099D01*
X178134D01*
X177544Y113279D01*
Y113870D01*
X178134Y114460D01*
X179315D01*
X179905Y113870D01*
Y112689D01*
X179315Y112099D01*
X175752Y20944D02*
Y17992D01*
X176343Y17402D01*
X177524D01*
X178114Y17992D01*
Y20944D01*
X179295D02*
X181656D01*
Y20353D01*
X179295Y17992D01*
Y17402D01*
X89685Y99590D02*
Y103133D01*
X91456D01*
X92046Y102542D01*
Y101362D01*
X91456Y100771D01*
X89685D01*
X90866D02*
X92046Y99590D01*
X95589D02*
X93227D01*
X95589Y101952D01*
Y102542D01*
X94998Y103133D01*
X93818D01*
X93227Y102542D01*
X99131Y99590D02*
X96769D01*
X99131Y101952D01*
Y102542D01*
X98540Y103133D01*
X97360D01*
X96769Y102542D01*
D15*
X104051Y24016D02*
D03*
D16*
X156614Y15303D02*
D03*
M02*
