M48
;Layer_Color=9474304
;FILE_FORMAT=2:5
INCH,LZ
;TYPE=PLATED
T1F00S00C0.00984
T2F00S00C0.01000
T3F00S00C0.03150
T4F00S00C0.03937
T5F00S00C0.10000
%
T01
X0073488Y0038234
Y0040961
X0095039Y0038284
T02
X008848Y0007093
X0089892Y0011646
X0094905Y001807
X0095039Y0022488
X0104276Y0021067
Y0027662
X0101732Y0031323
X009852
X0094638Y0034607
X0088882Y0037564
X0084732Y0037614
X0079512
X0104945Y0036945
X0113866Y0037393
X0121895Y0036409
X0126362
X0131047
X0133457Y0033866
X0131047Y003115
X0119492Y0026236
X0111236Y0027662
X0121008Y0010256
X0126362Y0010307
X0126362Y0006827
X0127688Y0015528
X0133882
X0142693Y0017535
X014363Y0020882
X0145236Y0015394
X0152964
X0159961Y0015316
X0172945Y0018205
X0175488Y0031858
Y0035896
X0186732Y0032951
Y002811
Y0023157
X0191819
Y002811
Y0032951
X0196906
Y002811
Y0023157
Y0003347
X0179466
X0169197Y0004953
X0159559Y0035896
X0145059Y0037347
X0066394Y0031323
X0067331Y0010307
X0063047Y0007237
X0047128Y001526
X0047653Y0024094
X0047386Y0027843
X0044441
X004163Y0027843
X0033866Y0031236
X0026504Y0034782
Y002463
X0013921Y0024898
Y0031323
X0015738Y0007228
X0019276Y0007362
X0019454Y0003213
X0015795
X0023113
X0026772
X0032126Y0013146
Y0015929
X0036588
Y0013146
X003989Y004406
X0036945Y0050197
X0033598Y0046899
X0026504Y0043857
Y0055417
Y0059076
X0039087Y0057024
X0042968Y0058284
Y0061083
X0046449
Y0058284
X0057425Y0057693
X0062646Y0047252
X0074158
X0075722Y0049795
X0075764Y0053943
Y0044709
X0070276Y0063142
Y0067827
X007041Y0076835
X0072284Y0086472
X0066394
X0060504
X0056756Y0076835
X0050072Y007041
X0040341Y0085308
Y0088882
X0029717Y0093433
Y0084197
X0014189Y0083528
Y0094504
X0014188Y0103953
X0017402Y0107265
Y0110924
Y0114583
X0021953Y0114583
X0025611
X002927
X0032929
X0026282Y0103425
X0051583Y0105079
X0054347Y0102343
Y0107894
X0063449Y0113779
X0067108
X0070766
X0074425
X0070677Y0108158
X0051583Y0093835
X0047653Y00422
X0013921Y0040157
Y0050331
Y0055417
X0013787Y0061433
X0013921Y0066126
X0094772Y0068
Y0070945
X0095842Y0077346
Y0080583
Y0087085
Y0090354
X010374Y008817
X0109802Y0095441
X0112747Y0099189
X0115826Y0102559
X0114984Y0110035
X0111236Y010778
X0108158Y0104409
X0102402Y0104425
X0105213Y0100661
X0119803Y0091069
X0124496Y0092042
X0130512Y0084465
X0125761Y0079512
X0120874Y0074374
X0113378
X0104945
Y0068717
X0108827Y0063474
Y0059567
Y0050331
X0109496Y0041777
X0091559Y0041094
X0088079
X008734Y0044441
X0090589Y0045244
X0093032Y0047386
X0094772Y0051669
Y0054346
X0082189Y003989
X0076835Y003989
X007737Y0042165
X0084598Y0085268
X0086339Y008741
X0078843Y0095425
X0078173Y0107277
X0088882Y0110118
X0118465Y0114583
X012315
X0127835
X0139748Y0101555
X0144032Y0101646
X0149354Y0102803
X015474Y0102268
X0158221
X0161701
X0165181
X0168661
X0172142
X0170535Y0100126
X0167055
X0176827Y0095909
Y0091069
Y0086116
X0181913
Y0091069
Y0095909
X0187
Y0091069
Y0086116
X0192087
Y0091069
Y0095909
X0197173
Y0091069
Y0086116
X0196772Y0069071
Y006414
Y0059299
Y0054347
X0191685
Y0059299
Y006414
Y0069071
X0186598
Y006414
Y0059299
Y0054347
X0186732Y0049394
X0191819
X0196906
X0175354Y0044059
X0178768Y003989
X0169732Y0047819
X0164445
X0159158
X0153803Y006452
X0146709Y0063315
X0145638Y007148
X0141622Y0075898
X0137472Y0080315
X013078Y0073756
X0134929Y0069205
X0125157Y0067795
X0122614Y0065992
X0121677Y0051479
X0126362Y0044173
X0136
Y0050816
X0172409Y0057961
X0172543Y007862
X017763
X0182717
X0148449Y0082858
X0152598Y0111236
X0179466Y0114315
X0196906
T03
X0176803Y0050504
Y0067827
T04
X0026236Y0009764
Y0019606
Y0029449
Y0039291
Y0049134
Y0068992
Y0078835
Y0088677
Y009852
Y0108362
T05
X0189124Y0011372
X0189163Y010665
M30
