G04*
G04 #@! TF.GenerationSoftware,Altium Limited,Altium Designer,19.0.4 (130)*
G04*
G04 Layer_Color=32896*
%FSLAX25Y25*%
%MOIN*%
G70*
G01*
G75*
%ADD10C,0.00787*%
%ADD11C,0.01000*%
%ADD13C,0.00394*%
%ADD14C,0.00591*%
%ADD39C,0.01181*%
%ADD41C,0.01575*%
%ADD90C,0.00591*%
%ADD91C,0.02362*%
%ADD92C,0.00984*%
%ADD93C,0.00700*%
%ADD94R,0.08900X0.01000*%
G36*
X122977Y83314D02*
X123130Y83292D01*
X123261Y83248D01*
X123349Y83205D01*
X123436Y83161D01*
X123480Y83139D01*
X123502Y83117D01*
X123590Y83073D01*
X123633Y83052D01*
X123830Y82876D01*
X124005Y82680D01*
X124093Y82548D01*
X124136Y82505D01*
Y82483D01*
X130719Y71067D01*
X130741D01*
Y71045D01*
Y71023D01*
X130785Y70935D01*
X130828Y70870D01*
X130850Y70826D01*
Y70804D01*
X130872Y70739D01*
X130894Y70651D01*
X130916Y70586D01*
Y70564D01*
X130938Y70323D01*
Y70104D01*
X130916Y69908D01*
X130872Y69733D01*
X130807Y69580D01*
X130763Y69470D01*
X130741Y69405D01*
X130719Y69383D01*
X130632Y69230D01*
X130610Y69186D01*
X130588Y69164D01*
X130479Y69055D01*
X130435Y69011D01*
X130413Y68989D01*
X130216Y68836D01*
X130019Y68727D01*
X129823Y68639D01*
X129626Y68595D01*
X129473Y68552D01*
X129341Y68530D01*
X116023D01*
X115913Y68552D01*
X115826D01*
X115804Y68574D01*
X115716D01*
X115629Y68595D01*
X115563Y68617D01*
X115541D01*
X115323Y68705D01*
X115126Y68814D01*
X114973Y68945D01*
X114842Y69077D01*
X114732Y69186D01*
X114667Y69295D01*
X114623Y69361D01*
X114601Y69383D01*
X114579D01*
X114535Y69492D01*
X114492Y69558D01*
X114470Y69601D01*
Y69623D01*
X114448Y69711D01*
X114426Y69798D01*
X114404Y69842D01*
Y69864D01*
X114382Y70104D01*
Y70323D01*
X114404Y70542D01*
X114448Y70717D01*
X114514Y70870D01*
X114557Y71001D01*
X114579Y71067D01*
X114601Y71089D01*
X121206Y82527D01*
X121293Y82658D01*
X121315Y82702D01*
X121337Y82723D01*
X121446Y82833D01*
X121490Y82876D01*
X121512Y82898D01*
X121709Y83052D01*
X121884Y83161D01*
X122081Y83248D01*
X122256Y83292D01*
X122409Y83336D01*
X122540Y83358D01*
X122824D01*
X122977Y83314D01*
D02*
G37*
%LPC*%
G36*
X122693Y82242D02*
X122649D01*
Y82220D01*
X122518D01*
X122409Y82177D01*
X122212Y82111D01*
X122081Y82024D01*
X122059Y82002D01*
X122037Y81980D01*
X121993Y81936D01*
X121949Y81914D01*
Y81892D01*
X121906Y81805D01*
X121884Y81783D01*
X121862D01*
X119719Y78065D01*
X120462Y77759D01*
X120703Y77693D01*
X120900Y77650D01*
X120987Y77628D01*
X121381D01*
X121578Y77650D01*
X121971D01*
X122081Y77671D01*
X122343D01*
X122562Y77650D01*
X122758Y77628D01*
X122912Y77606D01*
X123043Y77584D01*
X123152Y77540D01*
X123218Y77518D01*
X123240D01*
X123415Y77453D01*
X123590Y77365D01*
X123918Y77169D01*
X124071Y77081D01*
X124180Y77015D01*
X124246Y76972D01*
X124267Y76950D01*
X124333Y76906D01*
X124443Y76840D01*
X124530Y76775D01*
X124552Y76753D01*
X124574D01*
X124639Y76709D01*
X124661Y76687D01*
X124683D01*
X124749Y76644D01*
X124771Y76622D01*
X124924Y76534D01*
X125033Y76447D01*
X125120Y76403D01*
X125142Y76381D01*
X125274Y76272D01*
X125383Y76184D01*
X125427Y76119D01*
X125449Y76097D01*
X126411Y76644D01*
X123458Y81761D01*
X123371Y81892D01*
X123283Y81980D01*
X123218Y82046D01*
X123196Y82067D01*
X123174D01*
X123152Y82089D01*
X123130Y82111D01*
X122955Y82199D01*
X122802Y82220D01*
X122693Y82242D01*
D02*
G37*
G36*
X119609Y77846D02*
X118341Y75659D01*
X118450Y75572D01*
X118494Y75550D01*
X118516Y75528D01*
X118625Y75397D01*
X118713Y75288D01*
X118778Y75200D01*
X118800Y75156D01*
X118866Y75003D01*
X118909Y74872D01*
X118953Y74741D01*
X118975Y74719D01*
Y74697D01*
X119062Y74500D01*
X119128Y74369D01*
X119150Y74304D01*
X119172Y74282D01*
X119259Y74172D01*
X119281Y74150D01*
X119303Y74129D01*
X119412Y73997D01*
X119434Y73975D01*
X119456Y73954D01*
X119675Y73757D01*
X119872Y73582D01*
X120047Y73451D01*
X120200Y73363D01*
X120331Y73298D01*
X120418Y73254D01*
X120484Y73232D01*
X120506D01*
X125230Y75966D01*
X125142Y76053D01*
X125077Y76119D01*
X125011Y76162D01*
X124989Y76184D01*
X124858Y76272D01*
X124749Y76359D01*
X124661Y76403D01*
X124639Y76425D01*
X124552Y76490D01*
X124486Y76512D01*
X124443Y76534D01*
X124289Y76644D01*
X124202Y76709D01*
X124136Y76731D01*
X124115Y76753D01*
X123918Y76884D01*
X123743Y77015D01*
X123568Y77103D01*
X123436Y77169D01*
X123305Y77234D01*
X123218Y77278D01*
X123174Y77300D01*
X123152D01*
X122824Y77365D01*
X122496Y77409D01*
X121818D01*
X121534Y77387D01*
X121315Y77365D01*
X121074D01*
X120812Y77409D01*
X120593Y77453D01*
X120506Y77496D01*
X120440Y77518D01*
X120397Y77540D01*
X120375D01*
X119609Y77846D01*
D02*
G37*
G36*
X122999Y73822D02*
X122409Y73494D01*
X122540Y73385D01*
X122671Y73276D01*
X122780Y73210D01*
X122802Y73166D01*
X122824D01*
X122868Y73232D01*
X122912Y73319D01*
X122933Y73385D01*
X122955Y73407D01*
X122977Y73451D01*
Y73472D01*
X123021Y73604D01*
Y73647D01*
Y73669D01*
Y73713D01*
X122999Y73757D01*
Y73800D01*
Y73822D01*
D02*
G37*
G36*
X123633Y74194D02*
X123218Y73954D01*
X123240Y73844D01*
X123261Y73735D01*
Y73669D01*
Y73647D01*
X123240Y73538D01*
X123218Y73451D01*
X123196Y73385D01*
Y73363D01*
X123174Y73319D01*
X123108Y73188D01*
X123043Y73079D01*
X123021Y73035D01*
X122999Y73013D01*
X123152Y72882D01*
X123283Y72751D01*
X123371Y72663D01*
X123415Y72619D01*
X123436Y72598D01*
X123458Y72576D01*
X123480Y72554D01*
Y72532D01*
X123568Y72663D01*
X123611Y72773D01*
X123655Y72838D01*
Y72860D01*
X123677Y72904D01*
X123699Y72948D01*
X123721Y73013D01*
Y73035D01*
X123743Y73144D01*
X123765Y73254D01*
Y73341D01*
Y73385D01*
Y73407D01*
Y73451D01*
Y73582D01*
Y73713D01*
Y73757D01*
Y73779D01*
Y73866D01*
X123743Y73954D01*
Y73997D01*
Y74019D01*
X123677Y74150D01*
X123633Y74172D01*
Y74194D01*
D02*
G37*
G36*
X124224Y74522D02*
X123852Y74325D01*
X123940Y74172D01*
X123983Y74107D01*
Y74085D01*
X124005Y73975D01*
Y73888D01*
Y73800D01*
Y73779D01*
Y73625D01*
Y73582D01*
Y73560D01*
Y73451D01*
Y73407D01*
Y73385D01*
Y73210D01*
X123983Y73079D01*
X123961Y73013D01*
Y72991D01*
Y72969D01*
X123940Y72904D01*
Y72882D01*
Y72860D01*
X123918D01*
X123896Y72816D01*
X123874Y72773D01*
Y72751D01*
X123808Y72598D01*
X123721Y72466D01*
X123677Y72379D01*
X123655Y72335D01*
X123765Y72160D01*
X123830Y72029D01*
X123874Y71942D01*
X123896Y71898D01*
X123983Y71942D01*
X124005Y71985D01*
X124027D01*
X124115Y72029D01*
X124158Y72073D01*
X124180Y72095D01*
X124224Y72138D01*
X124246Y72160D01*
X124267D01*
X124311Y72204D01*
X124355Y72226D01*
X124377Y72248D01*
X124399D01*
X124421Y72270D01*
Y72313D01*
Y72488D01*
X124399Y72641D01*
X124377Y72729D01*
Y72773D01*
Y72838D01*
Y72904D01*
X124421Y73101D01*
X124443Y73188D01*
X124464Y73254D01*
X124486Y73298D01*
Y73319D01*
X124530Y73451D01*
X124552Y73560D01*
X124574Y73691D01*
Y73779D01*
Y73800D01*
X124552Y73888D01*
X124486Y73997D01*
X124443Y74085D01*
X124421Y74107D01*
X124311Y74282D01*
X124246Y74413D01*
X124224Y74500D01*
Y74522D01*
D02*
G37*
G36*
X121512Y72357D02*
X121490D01*
X121446Y72313D01*
X121337Y72226D01*
X121271Y72138D01*
X121228Y72117D01*
Y72095D01*
Y72073D01*
X121206D01*
Y72051D01*
X121162Y72007D01*
Y71963D01*
Y71942D01*
Y71920D01*
Y71876D01*
X121184Y71810D01*
X121206Y71745D01*
Y71723D01*
Y71701D01*
X121271Y71657D01*
X121359Y71635D01*
X121468D01*
X121643Y71657D01*
X121774Y71679D01*
X121862Y71701D01*
X121906D01*
X122015Y71767D01*
X122037Y71788D01*
X122059D01*
Y71810D01*
X122037Y71832D01*
Y71854D01*
X121949Y71985D01*
X121862Y72095D01*
X121796Y72160D01*
X121774Y72182D01*
X121709Y72226D01*
X121621Y72291D01*
X121534Y72335D01*
X121512Y72357D01*
D02*
G37*
G36*
X125689Y75397D02*
X124443Y74675D01*
X124464Y74544D01*
X124530Y74391D01*
X124596Y74282D01*
X124618Y74260D01*
Y74238D01*
X124727Y74085D01*
X124792Y73954D01*
X124836Y73866D01*
Y73844D01*
Y73779D01*
X124814Y73669D01*
X124771Y73472D01*
X124749Y73385D01*
X124727Y73298D01*
X124705Y73254D01*
Y73232D01*
X124661Y73123D01*
X124639Y73035D01*
X124618Y72904D01*
Y72860D01*
Y72838D01*
X124661Y72641D01*
Y72488D01*
Y72357D01*
Y72335D01*
Y72313D01*
Y72248D01*
Y72226D01*
X124639Y72182D01*
Y72160D01*
X124618Y72095D01*
Y72051D01*
X124596Y72029D01*
X124574Y71942D01*
Y71898D01*
X124552Y71876D01*
X124486Y71657D01*
X124443Y71482D01*
X124399Y71329D01*
Y71220D01*
X124377Y71154D01*
Y71110D01*
Y71067D01*
X124421Y70914D01*
X124486Y70804D01*
X124552Y70717D01*
X124574Y70695D01*
X124618Y70673D01*
X124639Y70651D01*
Y70673D01*
Y70717D01*
Y70739D01*
Y70761D01*
Y70848D01*
Y70892D01*
X124705Y71045D01*
X124727Y71089D01*
X124749Y71110D01*
X124792Y71154D01*
X124814Y71198D01*
X124902Y71307D01*
X124967Y71395D01*
X125055Y71438D01*
X125142Y71482D01*
X125274Y71526D01*
X125405D01*
X125427Y71504D01*
X125470D01*
X125514Y71592D01*
X125536Y71679D01*
X125558Y71767D01*
X125580Y71788D01*
X125645Y71942D01*
X125711Y72073D01*
X125733Y72160D01*
X125755Y72204D01*
X125798Y72379D01*
X125820Y72532D01*
X125842Y72685D01*
Y72707D01*
Y72729D01*
X125886Y73013D01*
X125930Y73210D01*
X125952Y73319D01*
Y73363D01*
Y73385D01*
X125973Y73451D01*
X125995Y73516D01*
X126017Y73582D01*
Y73604D01*
X126061Y73779D01*
X126105Y73932D01*
Y74041D01*
X126127Y74150D01*
Y74216D01*
X126105Y74260D01*
Y74304D01*
X126061Y74413D01*
X126017Y74566D01*
X125952Y74697D01*
X125930Y74719D01*
Y74741D01*
X125798Y75003D01*
X125733Y75222D01*
X125689Y75353D01*
Y75375D01*
Y75397D01*
D02*
G37*
G36*
X122168Y73363D02*
X121271Y72838D01*
X121381Y72751D01*
X121490Y72663D01*
X121599Y72576D01*
X121621Y72554D01*
X121643D01*
X121774Y72466D01*
X121862Y72401D01*
X121906Y72357D01*
X121927D01*
X122059Y72226D01*
X122168Y72095D01*
X122234Y72007D01*
X122256Y71985D01*
Y71963D01*
X122299Y71876D01*
X122321Y71788D01*
X122343Y71767D01*
Y71745D01*
X122365Y71679D01*
X122387Y71657D01*
Y71635D01*
X122518Y71679D01*
X122583D01*
X122671Y71701D01*
X122693Y71723D01*
X122999D01*
X123130Y71701D01*
X123174D01*
X123218Y71679D01*
X123240D01*
X123261Y71657D01*
X123327D01*
X123349Y71635D01*
X123371D01*
X123502Y71570D01*
X123611Y71504D01*
X123677Y71460D01*
X123699Y71438D01*
X123721Y71417D01*
X123743Y71373D01*
X123762Y71354D01*
X123765Y71329D01*
Y71351D01*
X123762Y71354D01*
X123743Y71526D01*
X123677Y71723D01*
X123590Y71920D01*
X123480Y72095D01*
X123393Y72248D01*
X123305Y72357D01*
X123240Y72444D01*
X123218Y72466D01*
X123043Y72663D01*
X122868Y72816D01*
X122737Y72926D01*
X122715Y72969D01*
X122693D01*
X122474Y73123D01*
X122321Y73254D01*
X122212Y73341D01*
X122168Y73363D01*
D02*
G37*
G36*
X122146Y71548D02*
X122102Y71526D01*
X122037Y71504D01*
X121993Y71482D01*
X121971D01*
X121949Y71460D01*
X121906D01*
X121884Y71438D01*
X121862D01*
X121796Y71329D01*
Y71242D01*
Y71176D01*
Y71154D01*
Y71110D01*
X121818Y71089D01*
Y71045D01*
X121840Y71023D01*
X121862D01*
X121927Y70979D01*
X121993Y70957D01*
X122081D01*
X122190Y70979D01*
X122277Y71001D01*
X122321Y71023D01*
X122343Y71045D01*
X122256Y71198D01*
X122212Y71329D01*
X122168Y71417D01*
Y71438D01*
X122146Y71526D01*
Y71548D01*
D02*
G37*
G36*
X122780Y71614D02*
X122715D01*
X122583Y71570D01*
X122474Y71548D01*
X122431Y71526D01*
X122409Y71504D01*
X122452Y71373D01*
X122518Y71242D01*
X122605Y71132D01*
X122627Y71110D01*
Y71089D01*
X122758Y70914D01*
X122846Y70826D01*
X122912Y70761D01*
X122933Y70739D01*
X122999Y70695D01*
X123043Y70673D01*
X123087Y70651D01*
X123174Y70608D01*
X123436D01*
X123524Y70629D01*
X123568Y70651D01*
X123611Y70673D01*
X123677Y70761D01*
X123721Y70870D01*
X123765Y70957D01*
Y71001D01*
X123743Y71110D01*
X123721Y71132D01*
X123677Y71242D01*
X123633Y71307D01*
X123611Y71351D01*
X123524Y71417D01*
X123436Y71482D01*
X123371Y71504D01*
X123349Y71526D01*
X123305D01*
X123283Y71548D01*
X123196D01*
X123108Y71570D01*
X122999Y71592D01*
X122912D01*
X122780Y71614D01*
D02*
G37*
G36*
X125339Y71417D02*
X125230D01*
X125164Y71373D01*
X125033Y71285D01*
X124945Y71198D01*
X124924Y71176D01*
Y71154D01*
X124902Y71110D01*
X124880Y71089D01*
X124858Y71067D01*
Y71045D01*
X124792Y70914D01*
X124771Y70870D01*
Y70848D01*
X124749Y70826D01*
Y70804D01*
Y70782D01*
Y70761D01*
Y70695D01*
X124771Y70673D01*
Y70651D01*
Y70608D01*
Y70586D01*
X124792Y70564D01*
X124880D01*
X124989Y70608D01*
X125077Y70651D01*
X125120Y70695D01*
X125142Y70717D01*
X125186Y70782D01*
X125230Y70870D01*
X125317Y71067D01*
X125339Y71154D01*
X125383Y71242D01*
X125405Y71285D01*
Y71307D01*
X125427Y71395D01*
X125405D01*
X125339Y71417D01*
D02*
G37*
G36*
X126783Y76009D02*
X125930Y75528D01*
X125973Y75309D01*
X126039Y75069D01*
X126083Y74981D01*
X126127Y74894D01*
X126148Y74850D01*
Y74828D01*
X126236Y74632D01*
X126301Y74478D01*
X126345Y74391D01*
Y74369D01*
X126367Y74260D01*
Y74129D01*
X126323Y73866D01*
X126301Y73735D01*
X126280Y73625D01*
X126258Y73560D01*
Y73538D01*
X126236Y73451D01*
X126214Y73363D01*
X126192Y73341D01*
Y73319D01*
Y73298D01*
X126148Y73123D01*
X126127Y72926D01*
X126105Y72838D01*
X126083Y72773D01*
Y72729D01*
Y72707D01*
X126061Y72554D01*
X126039Y72423D01*
Y72335D01*
X126017Y72248D01*
X125973Y72138D01*
Y72117D01*
X125930Y71985D01*
X125886Y71854D01*
X125842Y71723D01*
X125820Y71701D01*
Y71679D01*
X125777Y71570D01*
X125733Y71504D01*
X125689Y71395D01*
X125667Y71351D01*
Y71329D01*
Y71307D01*
X125645Y71285D01*
Y71264D01*
Y71242D01*
X125580Y71067D01*
X125514Y70914D01*
X125470Y70804D01*
X125405Y70717D01*
X125383Y70651D01*
X125339Y70608D01*
X125317Y70564D01*
X125186Y70433D01*
X125033Y70367D01*
X124945Y70323D01*
X124814D01*
X124727Y70345D01*
X124661Y70367D01*
X124639D01*
X124486Y70454D01*
X124443Y70476D01*
X124421Y70498D01*
X124333Y70586D01*
X124267Y70673D01*
X124180Y70848D01*
X124136Y71001D01*
Y71023D01*
Y71045D01*
Y71132D01*
X124158Y71264D01*
X124202Y71526D01*
X124224Y71657D01*
X124267Y71767D01*
X124289Y71832D01*
Y71854D01*
X124202Y71810D01*
X124180Y71788D01*
X124158Y71767D01*
X124049Y71701D01*
X124005Y71657D01*
X123983Y71635D01*
X124005Y71504D01*
X124027Y71395D01*
Y71307D01*
Y71285D01*
Y71264D01*
Y71242D01*
Y71220D01*
X124005Y71045D01*
X123983Y70914D01*
X123940Y70782D01*
X123896Y70673D01*
X123852Y70608D01*
X123808Y70542D01*
X123765Y70520D01*
Y70498D01*
X123677Y70433D01*
X123568Y70389D01*
X123480Y70367D01*
X123196D01*
X123043Y70411D01*
X122999Y70433D01*
X122977D01*
X122890Y70476D01*
X122824Y70498D01*
X122802Y70542D01*
X122780D01*
X122671Y70629D01*
X122583Y70739D01*
X122518Y70826D01*
X122496Y70848D01*
X122365Y70761D01*
X122234Y70717D01*
X122146Y70695D01*
X122102D01*
X121927Y70717D01*
X121796Y70761D01*
X121709Y70826D01*
X121687Y70848D01*
X121665Y70870D01*
X121643Y70892D01*
X121599Y70935D01*
X121578Y70979D01*
X121556Y71045D01*
Y71067D01*
Y71089D01*
X121534Y71198D01*
Y71307D01*
X121556Y71373D01*
Y71395D01*
X121446D01*
X121249Y71417D01*
X121118Y71482D01*
X121031Y71526D01*
X121009Y71548D01*
X120987Y71614D01*
X120965Y71635D01*
X120943Y71745D01*
X120921Y71832D01*
X120900Y71898D01*
Y71920D01*
X120921Y72029D01*
X120943Y72138D01*
X120987Y72204D01*
X121009Y72226D01*
X121031Y72248D01*
X121140Y72357D01*
X121228Y72444D01*
X121271Y72466D01*
X121293Y72488D01*
X121206Y72576D01*
X121118Y72641D01*
X121074Y72685D01*
X121053Y72707D01*
X115869Y69711D01*
X116023Y69623D01*
X116088Y69580D01*
X116176D01*
X116219Y69558D01*
X116373D01*
Y69536D01*
X128926D01*
X129057Y69558D01*
X129188Y69580D01*
X129385Y69667D01*
X129516Y69733D01*
X129538Y69776D01*
X129560D01*
X129626Y69864D01*
X129648Y69886D01*
X129691Y69951D01*
X129713Y69995D01*
X129735D01*
X129823Y70214D01*
X129844Y70411D01*
Y70498D01*
X129823Y70564D01*
Y70608D01*
Y70629D01*
X129801Y70739D01*
X129779Y70761D01*
X129757Y70848D01*
X129735Y70870D01*
Y70892D01*
Y70914D01*
X126783Y76009D01*
D02*
G37*
G36*
X118231Y75463D02*
X118210D01*
X115607Y70935D01*
Y70914D01*
X115541Y70782D01*
X115498Y70673D01*
X115476Y70586D01*
Y70542D01*
Y70476D01*
Y70454D01*
Y70367D01*
Y70323D01*
X120222Y73079D01*
X120069Y73166D01*
X119894Y73276D01*
X119587Y73494D01*
X119478Y73604D01*
X119369Y73691D01*
X119303Y73757D01*
X119281Y73779D01*
X119172Y73910D01*
X119128Y73954D01*
X119106Y73975D01*
X119019Y74085D01*
X118975Y74129D01*
Y74150D01*
X118887Y74282D01*
X118822Y74435D01*
X118778Y74566D01*
X118756Y74588D01*
Y74610D01*
X118691Y74806D01*
X118625Y74938D01*
X118603Y75003D01*
X118581Y75025D01*
X118494Y75178D01*
X118406Y75266D01*
X118363Y75331D01*
X118341Y75353D01*
X118253Y75419D01*
X118231Y75463D01*
D02*
G37*
%LPD*%
D10*
X158405Y37181D02*
G03*
X159980Y38756I-0J1575D01*
G01*
X159980Y41827D02*
G03*
X158405Y43402I-1575J0D01*
G01*
X149469Y43402D02*
G03*
X147894Y41827I0J-1575D01*
G01*
Y38756D02*
G03*
X149469Y37181I1575J0D01*
G01*
X143394Y55335D02*
G03*
X141819Y56910I-1575J-0D01*
G01*
X138748Y56910D02*
G03*
X137173Y55335I0J-1575D01*
G01*
X137173Y46398D02*
G03*
X138748Y44823I1575J0D01*
G01*
X141819D02*
G03*
X143394Y46398I0J1575D01*
G01*
X124035Y51032D02*
G03*
X122461Y49457I0J-1575D01*
G01*
X122461Y46386D02*
G03*
X124035Y44811I1575J0D01*
G01*
X132973Y44811D02*
G03*
X134547Y46386I-0J1575D01*
G01*
Y49457D02*
G03*
X132973Y51032I-1575J0D01*
G01*
X60122Y88276D02*
G03*
X58547Y89850I-1575J0D01*
G01*
Y83630D02*
G03*
X60122Y85205I-0J1575D01*
G01*
X48035Y85205D02*
G03*
X49610Y83630I1575J0D01*
G01*
X49610Y89850D02*
G03*
X48035Y88276I0J-1575D01*
G01*
X143394Y68453D02*
G03*
X141819Y70028I-1575J-0D01*
G01*
X138748Y70028D02*
G03*
X137173Y68453I0J-1575D01*
G01*
X137173Y59516D02*
G03*
X138748Y57941I1575J0D01*
G01*
X141819D02*
G03*
X143394Y59516I0J1575D01*
G01*
X124752Y66398D02*
G03*
X124752Y66398I-106J0D01*
G01*
X40528Y31941D02*
G03*
X42102Y30366I1575J0D01*
G01*
X45173Y30366D02*
G03*
X46748Y31941I0J1575D01*
G01*
X46748Y40878D02*
G03*
X45173Y42453I-1575J-0D01*
G01*
X42102D02*
G03*
X40528Y40878I0J-1575D01*
G01*
X98590Y30224D02*
G03*
X97016Y28650I0J-1575D01*
G01*
X103236D02*
G03*
X101661Y30224I-1575J-0D01*
G01*
X101661Y18138D02*
G03*
X103236Y19713I0J1575D01*
G01*
X97016Y19713D02*
G03*
X98590Y18138I1575J0D01*
G01*
X34650Y22559D02*
G03*
X36224Y20984I1575J0D01*
G01*
Y27205D02*
G03*
X34650Y25630I0J-1575D01*
G01*
X46736Y25630D02*
G03*
X45161Y27205I-1575J0D01*
G01*
X45161Y20984D02*
G03*
X46736Y22559I-0J1575D01*
G01*
X34650Y5961D02*
G03*
X36224Y4386I1575J0D01*
G01*
Y10606D02*
G03*
X34650Y9031I0J-1575D01*
G01*
X46736Y9031D02*
G03*
X45161Y10606I-1575J0D01*
G01*
X45161Y4386D02*
G03*
X46736Y5961I-0J1575D01*
G01*
X103236Y76303D02*
G03*
X101661Y77878I-1575J-0D01*
G01*
X98590Y77878D02*
G03*
X97016Y76303I0J-1575D01*
G01*
X97016Y67366D02*
G03*
X98590Y65791I1575J0D01*
G01*
X101661D02*
G03*
X103236Y67366I0J1575D01*
G01*
X138437Y88315D02*
G03*
X140012Y86740I1575J0D01*
G01*
Y92961D02*
G03*
X138437Y91386I0J-1575D01*
G01*
X150524Y91386D02*
G03*
X148949Y92961I-1575J0D01*
G01*
X148949Y86740D02*
G03*
X150524Y88315I-0J1575D01*
G01*
X138437Y108764D02*
G03*
X140012Y107189I1575J0D01*
G01*
Y113409D02*
G03*
X138437Y111835I0J-1575D01*
G01*
X150524Y111835D02*
G03*
X148949Y113409I-1575J0D01*
G01*
X148949Y107189D02*
G03*
X150524Y108764I-0J1575D01*
G01*
X62213Y19713D02*
G03*
X63787Y18138I1575J0D01*
G01*
X66858Y18138D02*
G03*
X68433Y19713I0J1575D01*
G01*
X68433Y28650D02*
G03*
X66858Y30224I-1575J-0D01*
G01*
X63787D02*
G03*
X62213Y28650I0J-1575D01*
G01*
X45173Y43484D02*
G03*
X46748Y45059I0J1575D01*
G01*
X40528D02*
G03*
X42102Y43484I1575J0D01*
G01*
X42102Y55571D02*
G03*
X40528Y53996I0J-1575D01*
G01*
X46748Y53996D02*
G03*
X45173Y55571I-1575J-0D01*
G01*
X60658Y7228D02*
X64252D01*
X60658D02*
X61039D01*
X60658D02*
X60882D01*
X64252D02*
X70292Y13268D01*
X77606Y24260D02*
X82075D01*
X69988Y18039D02*
Y24260D01*
X82075Y18039D02*
Y24260D01*
X69988D02*
X74457D01*
X77606Y18039D02*
X82075D01*
X69988D02*
X74457D01*
X69988Y4118D02*
X74457D01*
X82075D02*
Y10339D01*
X69988Y4118D02*
Y10339D01*
X77606Y4118D02*
X82075D01*
X69988Y10339D02*
X74457D01*
X77606D02*
X82075D01*
X149469Y37181D02*
X152362D01*
X159980Y38756D02*
Y41827D01*
X147894Y38756D02*
Y41827D01*
X155512Y37181D02*
X158405D01*
X155512Y43402D02*
X158405D01*
X149469Y43402D02*
X152362D01*
X112811Y24394D02*
X117280D01*
X105193D02*
X109661D01*
X112811Y18173D02*
X117280D01*
X105193D02*
Y24394D01*
X117280Y18173D02*
Y24394D01*
X105193Y18173D02*
X109661D01*
X118177Y18039D02*
X122646D01*
X125795D02*
X130264D01*
X118177Y24260D02*
X122646D01*
X130264Y18039D02*
Y24260D01*
X118177Y18039D02*
Y24260D01*
X125795D02*
X130264D01*
X122417Y9260D02*
Y11622D01*
X105193Y4118D02*
X109661D01*
X112811D02*
X117280D01*
X105193Y10339D02*
X109661D01*
X117280Y4118D02*
Y10339D01*
X105193Y4118D02*
Y10339D01*
X112811D02*
X117280D01*
X112811Y17366D02*
X117280D01*
X105193D02*
X109661D01*
X112811Y11146D02*
X117280D01*
X105193D02*
Y17366D01*
X117280Y11146D02*
Y17366D01*
X105193Y11146D02*
X109661D01*
X130079Y43591D02*
X134547D01*
X122461Y37370D02*
Y43591D01*
X134547Y37370D02*
Y43591D01*
X122461D02*
X126929D01*
X130079Y37370D02*
X134547D01*
X122461D02*
X126929D01*
X120161Y112654D02*
X126657D01*
X118783Y92201D02*
Y112791D01*
X99689Y92201D02*
X118783D01*
X99689D02*
Y112791D01*
X118783D01*
X150827Y52441D02*
Y56910D01*
Y44823D02*
Y49291D01*
X157047Y52441D02*
Y56910D01*
X150827Y44823D02*
X157047D01*
X150827Y56910D02*
X157047D01*
Y44823D02*
Y49291D01*
X143394Y46398D02*
Y49291D01*
X138748Y56910D02*
X141819D01*
X138748Y44823D02*
X141819D01*
X143394Y52441D02*
Y55335D01*
X137173Y52441D02*
Y55335D01*
X137173Y46398D02*
Y49291D01*
X130079Y51032D02*
X132973D01*
X122461Y46386D02*
Y49457D01*
X134547Y46386D02*
Y49457D01*
X124035Y51032D02*
X126929D01*
X124035Y44811D02*
X126929D01*
X130079Y44811D02*
X132973D01*
X150130Y65835D02*
Y79772D01*
Y65835D02*
X158280D01*
X150130Y79772D02*
X158280D01*
Y65835D02*
Y79772D01*
X48035Y110937D02*
X52504D01*
X55654D02*
X60122D01*
X48035Y117157D02*
X52504D01*
X60122Y110937D02*
Y117157D01*
X48035Y110937D02*
Y117157D01*
X55654D02*
X60122D01*
X38449Y79894D02*
Y84362D01*
X32228Y91980D02*
X38449D01*
X32228Y79894D02*
X38449D01*
Y87512D02*
Y91980D01*
X32228Y79894D02*
Y84362D01*
Y87512D02*
Y91980D01*
X55654Y83630D02*
X58547D01*
X49610Y83630D02*
X52504D01*
X49610Y89850D02*
X52504D01*
X60122Y85205D02*
Y88276D01*
X48035Y85205D02*
Y88276D01*
X55654Y89850D02*
X58547D01*
X32228Y74661D02*
Y79130D01*
Y67043D02*
Y71512D01*
X38449Y74661D02*
Y79130D01*
X32228Y67043D02*
X38449D01*
X32228Y79130D02*
X38449D01*
Y67043D02*
Y71512D01*
X32228Y101969D02*
Y106437D01*
Y94350D02*
Y98819D01*
X38449Y101969D02*
Y106437D01*
X32228Y94350D02*
X38449D01*
X32228Y106437D02*
X38449D01*
Y94350D02*
Y98819D01*
X143394Y59516D02*
Y62410D01*
X138748Y70028D02*
X141819D01*
X138748Y57941D02*
X141819D01*
X143394Y65559D02*
Y68453D01*
X137173Y65559D02*
Y68453D01*
X137173Y59516D02*
Y62410D01*
X40528Y37984D02*
Y40878D01*
X42102Y30366D02*
X45173D01*
X42102Y42453D02*
X45173D01*
X40528Y31941D02*
Y34835D01*
X46748Y31941D02*
Y34835D01*
X46748Y37984D02*
Y40878D01*
X90386Y65705D02*
Y70173D01*
Y73323D02*
Y77791D01*
X84165Y65705D02*
Y70173D01*
Y77791D02*
X90386D01*
X84165Y65705D02*
X90386D01*
X84165Y73323D02*
Y77791D01*
X103236Y25756D02*
Y28650D01*
X103236Y19713D02*
Y22606D01*
X97016Y19713D02*
Y22606D01*
X98590Y30224D02*
X101661D01*
X98590Y18138D02*
X101661D01*
X97016Y25756D02*
Y28650D01*
X56189Y27205D02*
X60657D01*
X48571D02*
X53039D01*
X56189Y20984D02*
X60657D01*
X48571D02*
Y27205D01*
X60657Y20984D02*
Y27205D01*
X48571Y20984D02*
X53039D01*
X36224Y27205D02*
X39118D01*
X42268Y27205D02*
X45161D01*
X42268Y20984D02*
X45161D01*
X34650Y22559D02*
Y25630D01*
X46736Y22559D02*
Y25630D01*
X36224Y20984D02*
X39118D01*
X36224Y10606D02*
X39118D01*
X42268Y10606D02*
X45161D01*
X42268Y4386D02*
X45161D01*
X34650Y5961D02*
Y9031D01*
X46736Y5961D02*
Y9031D01*
X36224Y4386D02*
X39118D01*
X56189Y10339D02*
X60658D01*
X48571D02*
X53039D01*
X56189Y4118D02*
X60658D01*
X48571D02*
Y10339D01*
X60658Y4118D02*
Y10339D01*
X48571Y4118D02*
X53039D01*
X169444Y59165D02*
X200344D01*
X169430Y45442D02*
Y72804D01*
X103236Y67366D02*
Y70260D01*
X98590Y77878D02*
X101661D01*
X98590Y65791D02*
X101661D01*
X103236Y73409D02*
Y76303D01*
X97016Y73409D02*
Y76303D01*
X97016Y67366D02*
Y70260D01*
X140012Y92961D02*
X142905D01*
X146055Y92961D02*
X148949D01*
X146055Y86740D02*
X148949D01*
X138437Y88315D02*
Y91386D01*
X150524Y88315D02*
Y91386D01*
X140012Y86740D02*
X142905D01*
X140012Y113409D02*
X142905D01*
X146055Y113409D02*
X148949D01*
X146055Y107189D02*
X148949D01*
X138437Y108764D02*
Y111835D01*
X150524Y108764D02*
Y111835D01*
X140012Y107189D02*
X142905D01*
X62213Y25756D02*
Y28650D01*
X63787Y18138D02*
X66858D01*
X63787Y30224D02*
X66858D01*
X62213Y19713D02*
Y22606D01*
X68433Y19713D02*
Y22606D01*
X68433Y25756D02*
Y28650D01*
X40528Y45059D02*
Y47953D01*
X40528Y51102D02*
Y53996D01*
X46748Y51102D02*
Y53996D01*
X42102Y43484D02*
X45173D01*
X42102Y55571D02*
X45173D01*
X46748Y45059D02*
Y47953D01*
X73022Y56330D02*
X95463D01*
X73022Y33889D02*
X95463D01*
Y56330D01*
X73022Y33889D02*
Y56330D01*
X32228Y61811D02*
Y66280D01*
Y54193D02*
Y58661D01*
X38449Y61811D02*
Y66280D01*
X32228Y54193D02*
X38449D01*
X32228Y66280D02*
X38449D01*
Y54193D02*
Y58661D01*
X80417Y108748D02*
Y113216D01*
Y101130D02*
X86638D01*
X80417Y113216D02*
X86638D01*
X80417Y101130D02*
Y105598D01*
X86638Y108748D02*
Y113216D01*
Y101130D02*
Y105598D01*
X130955Y108929D02*
Y113398D01*
Y101311D02*
Y105780D01*
X137176Y108929D02*
Y113398D01*
X130955Y101311D02*
X137176D01*
X130955Y113398D02*
X137176D01*
Y101311D02*
Y105780D01*
X112677Y90921D02*
X117146D01*
X105059Y84701D02*
Y90921D01*
X117146Y84701D02*
Y90921D01*
X105059D02*
X109528D01*
X112677Y84701D02*
X117146D01*
X105059D02*
X109528D01*
D11*
X156003Y22981D02*
G03*
X156003Y17581I0J-2700D01*
G01*
X156361Y3024D02*
G03*
X156361Y3024I-1000J0D01*
G01*
X136307Y12846D02*
Y27558D01*
X155992Y12879D02*
X156003Y17581D01*
X155992Y27604D02*
X156003Y22981D01*
X128520Y4693D02*
Y7291D01*
X125311Y4693D02*
X128520D01*
X125311Y16189D02*
X128520D01*
Y13590D02*
Y16189D01*
Y13590D02*
Y16189D01*
Y13590D02*
Y16189D01*
X170027Y7367D02*
X174555D01*
Y33547D01*
X170027D02*
X174555D01*
X159988D02*
X164515D01*
X159988Y7367D02*
Y33547D01*
Y7367D02*
X164515D01*
X164515Y7366D02*
X170027D01*
X164515Y33547D02*
X170027D01*
X48567Y90945D02*
X59591D01*
X48567Y109843D02*
X59591D01*
X48567Y90945D02*
Y109843D01*
X59591Y90945D02*
Y109843D01*
X151496Y94882D02*
X175118D01*
Y105905D01*
X151496D02*
X175118D01*
X151496Y94882D02*
Y105905D01*
X60646Y30012D02*
X60646Y56193D01*
X57102Y30012D02*
X60646D01*
X57102Y56193D02*
X60646D01*
X48047Y30012D02*
X51591D01*
X48047Y56193D02*
X51591D01*
X48047Y30012D02*
X48047Y56193D01*
X48567Y63638D02*
X59591D01*
X48567Y82535D02*
X59591D01*
X48567Y63638D02*
Y82535D01*
X59591Y63638D02*
Y82535D01*
D13*
X167308Y16845D02*
Y18026D01*
X163371Y18420D02*
X171639D01*
X163765Y21176D02*
X171245D01*
Y19601D02*
Y21176D01*
X163765Y19601D02*
X171245D01*
X163765D02*
Y21176D01*
X163371Y22357D02*
X171639D01*
X167271Y22757D02*
Y24157D01*
D14*
X164202Y71165D02*
X166563D01*
X167744Y69985D01*
X166563Y68804D01*
X164202D01*
X164792Y46904D02*
X164202Y47494D01*
Y48675D01*
X164792Y49265D01*
X167154D01*
X167744Y48675D01*
Y47494D01*
X167154Y46904D01*
X165973D01*
Y48085D01*
X92764Y12449D02*
Y15991D01*
X90993D01*
X90402Y15401D01*
Y14220D01*
X90993Y13630D01*
X92764D01*
X91583D02*
X90402Y12449D01*
X86860D02*
X89222D01*
X86860Y14810D01*
Y15401D01*
X87450Y15991D01*
X88631D01*
X89222Y15401D01*
X83318Y15991D02*
X84499Y15401D01*
X85680Y14220D01*
Y13039D01*
X85089Y12449D01*
X83908D01*
X83318Y13039D01*
Y13630D01*
X83908Y14220D01*
X85680D01*
X92764Y5354D02*
Y8896D01*
X90993D01*
X90402Y8306D01*
Y7125D01*
X90993Y6535D01*
X92764D01*
X91583D02*
X90402Y5354D01*
X86860D02*
X89222D01*
X86860Y7716D01*
Y8306D01*
X87450Y8896D01*
X88631D01*
X89222Y8306D01*
X85680Y8896D02*
X83318D01*
Y8306D01*
X85680Y5945D01*
Y5354D01*
X144347Y41708D02*
X144938Y42298D01*
X146118D01*
X146709Y41708D01*
Y39346D01*
X146118Y38756D01*
X144938D01*
X144347Y39346D01*
X143166Y38756D02*
X141986D01*
X142576D01*
Y42298D01*
X143166Y41708D01*
X137853Y38756D02*
X140215D01*
X137853Y41117D01*
Y41708D01*
X138444Y42298D01*
X139624D01*
X140215Y41708D01*
X180842Y23823D02*
X178481Y20281D01*
Y23823D02*
X180842Y20281D01*
X177300D02*
X176120D01*
X176710D01*
Y23823D01*
X177300Y23233D01*
X134929Y34062D02*
Y31110D01*
X134339Y30520D01*
X133158D01*
X132568Y31110D01*
Y34062D01*
X129616Y30520D02*
Y34062D01*
X131387Y32291D01*
X129025D01*
X115654Y25433D02*
Y28975D01*
X113883D01*
X113292Y28385D01*
Y27204D01*
X113883Y26614D01*
X115654D01*
X114473D02*
X113292Y25433D01*
X112111D02*
X110931D01*
X111521D01*
Y28975D01*
X112111Y28385D01*
X106798Y28975D02*
X109160D01*
Y27204D01*
X107979Y27795D01*
X107388D01*
X106798Y27204D01*
Y26023D01*
X107388Y25433D01*
X108569D01*
X109160Y26023D01*
X121276Y39087D02*
Y42629D01*
X119504D01*
X118914Y42038D01*
Y40858D01*
X119504Y40267D01*
X121276D01*
X120095D02*
X118914Y39087D01*
X117733D02*
X116553D01*
X117143D01*
Y42629D01*
X117733Y42038D01*
X112420Y42629D02*
X113601Y42038D01*
X114782Y40858D01*
Y39677D01*
X114191Y39087D01*
X113011D01*
X112420Y39677D01*
Y40267D01*
X113011Y40858D01*
X114782D01*
X128504Y25433D02*
Y28975D01*
X126733D01*
X126143Y28385D01*
Y27204D01*
X126733Y26614D01*
X128504D01*
X127323D02*
X126143Y25433D01*
X124962D02*
X123781D01*
X124371D01*
Y28975D01*
X124962Y28385D01*
X120239Y25433D02*
Y28975D01*
X122010Y27204D01*
X119649D01*
X103740Y12449D02*
Y15991D01*
X101969D01*
X101379Y15401D01*
Y14220D01*
X101969Y13630D01*
X103740D01*
X102559D02*
X101379Y12449D01*
X100198D02*
X99017D01*
X99608D01*
Y15991D01*
X100198Y15401D01*
X94885Y12449D02*
X97246D01*
X94885Y14810D01*
Y15401D01*
X95475Y15991D01*
X96656D01*
X97246Y15401D01*
X103740Y5354D02*
Y8896D01*
X101969D01*
X101379Y8306D01*
Y7125D01*
X101969Y6535D01*
X103740D01*
X102559D02*
X101379Y5354D01*
X100198D02*
X99017D01*
X99608D01*
Y8896D01*
X100198Y8306D01*
X97246D02*
X96656Y8896D01*
X95475D01*
X94885Y8306D01*
Y5945D01*
X95475Y5354D01*
X96656D01*
X97246Y5945D01*
Y8306D01*
X132300Y3268D02*
Y5629D01*
X132890Y6219D01*
X134071D01*
X134661Y5629D01*
Y3268D01*
X134071Y2677D01*
X132890D01*
X133481Y3858D02*
X132300Y2677D01*
X132890D02*
X132300Y3268D01*
X131119Y2677D02*
X129938D01*
X130529D01*
Y6219D01*
X131119Y5629D01*
X94906Y89707D02*
Y86756D01*
X94315Y86165D01*
X93134D01*
X92544Y86756D01*
Y89707D01*
X89002D02*
X90183Y89117D01*
X91363Y87936D01*
Y86756D01*
X90773Y86165D01*
X89592D01*
X89002Y86756D01*
Y87346D01*
X89592Y87936D01*
X91363D01*
X47252Y15991D02*
Y13039D01*
X46662Y12449D01*
X45481D01*
X44890Y13039D01*
Y15991D01*
X43710Y15401D02*
X43119Y15991D01*
X41939D01*
X41348Y15401D01*
Y14810D01*
X41939Y14220D01*
X41348Y13630D01*
Y13039D01*
X41939Y12449D01*
X43119D01*
X43710Y13039D01*
Y13630D01*
X43119Y14220D01*
X43710Y14810D01*
Y15401D01*
X43119Y14220D02*
X41939D01*
X73354Y115715D02*
Y112764D01*
X72764Y112173D01*
X71583D01*
X70993Y112764D01*
Y115715D01*
X69812Y115125D02*
X69222Y115715D01*
X68041D01*
X67451Y115125D01*
Y114535D01*
X68041Y113944D01*
X68631D01*
X68041D01*
X67451Y113354D01*
Y112764D01*
X68041Y112173D01*
X69222D01*
X69812Y112764D01*
X22354Y22890D02*
Y26432D01*
X20583D01*
X19993Y25842D01*
Y24661D01*
X20583Y24070D01*
X22354D01*
X21174D02*
X19993Y22890D01*
X18812Y25842D02*
X18222Y26432D01*
X17041D01*
X16451Y25842D01*
Y25251D01*
X17041Y24661D01*
X17631D01*
X17041D01*
X16451Y24070D01*
Y23480D01*
X17041Y22890D01*
X18222D01*
X18812Y23480D01*
X15270Y25842D02*
X14680Y26432D01*
X13499D01*
X12909Y25842D01*
Y23480D01*
X13499Y22890D01*
X14680D01*
X15270Y23480D01*
Y25842D01*
X80850Y12449D02*
Y15991D01*
X79079D01*
X78489Y15401D01*
Y14220D01*
X79079Y13630D01*
X80850D01*
X79670D02*
X78489Y12449D01*
X74947D02*
X77308D01*
X74947Y14810D01*
Y15401D01*
X75537Y15991D01*
X76718D01*
X77308Y15401D01*
X73766Y13039D02*
X73176Y12449D01*
X71995D01*
X71405Y13039D01*
Y15401D01*
X71995Y15991D01*
X73176D01*
X73766Y15401D01*
Y14810D01*
X73176Y14220D01*
X71405D01*
X47118Y112173D02*
Y115715D01*
X45347D01*
X44757Y115125D01*
Y113944D01*
X45347Y113354D01*
X47118D01*
X45937D02*
X44757Y112173D01*
X41214Y115715D02*
X42395Y115125D01*
X43576Y113944D01*
Y112764D01*
X42986Y112173D01*
X41805D01*
X41214Y112764D01*
Y113354D01*
X41805Y113944D01*
X43576D01*
X146221Y78503D02*
X148583D01*
Y76732D01*
X147402D01*
X148583D01*
Y74961D01*
X145041Y78503D02*
Y74961D01*
X143269D01*
X142679Y75551D01*
Y76141D01*
X143269Y76732D01*
X145041D01*
X143269D01*
X142679Y77322D01*
Y77912D01*
X143269Y78503D01*
X145041D01*
X141498Y74961D02*
X140318D01*
X140908D01*
Y78503D01*
X141498Y77912D01*
X37796Y19283D02*
X38386Y19873D01*
X39567D01*
X40157Y19283D01*
Y16921D01*
X39567Y16331D01*
X38386D01*
X37796Y16921D01*
X34254Y16331D02*
X36615D01*
X34254Y18692D01*
Y19283D01*
X34844Y19873D01*
X36025D01*
X36615Y19283D01*
X33073Y16331D02*
X31892D01*
X32483D01*
Y19873D01*
X33073Y19283D01*
X31371Y4826D02*
X31961Y5416D01*
X33142D01*
X33732Y4826D01*
Y2464D01*
X33142Y1874D01*
X31961D01*
X31371Y2464D01*
X27829Y1874D02*
X30190D01*
X27829Y4236D01*
Y4826D01*
X28419Y5416D01*
X29600D01*
X30190Y4826D01*
X26648D02*
X26058Y5416D01*
X24877D01*
X24286Y4826D01*
Y2464D01*
X24877Y1874D01*
X26058D01*
X26648Y2464D01*
Y4826D01*
X118914Y48999D02*
X119504Y49589D01*
X120685D01*
X121276Y48999D01*
Y46638D01*
X120685Y46047D01*
X119504D01*
X118914Y46638D01*
X117733Y46047D02*
X116553D01*
X117143D01*
Y49589D01*
X117733Y48999D01*
X114782Y46638D02*
X114191Y46047D01*
X113011D01*
X112420Y46638D01*
Y48999D01*
X113011Y49589D01*
X114191D01*
X114782Y48999D01*
Y48409D01*
X114191Y47818D01*
X112420D01*
X147519Y48676D02*
X148109Y48086D01*
Y46905D01*
X147519Y46315D01*
X145157D01*
X144567Y46905D01*
Y48086D01*
X145157Y48676D01*
X144567Y49857D02*
Y51038D01*
Y50447D01*
X148109D01*
X147519Y49857D01*
Y52809D02*
X148109Y53399D01*
Y54580D01*
X147519Y55170D01*
X146928D01*
X146338Y54580D01*
X145748Y55170D01*
X145157D01*
X144567Y54580D01*
Y53399D01*
X145157Y52809D01*
X145748D01*
X146338Y53399D01*
X146928Y52809D01*
X147519D01*
X146338Y53399D02*
Y54580D01*
X93102Y22227D02*
X93692Y22818D01*
X94873D01*
X95463Y22227D01*
Y19866D01*
X94873Y19276D01*
X93692D01*
X93102Y19866D01*
X89560Y19276D02*
X91921D01*
X89560Y21637D01*
Y22227D01*
X90150Y22818D01*
X91331D01*
X91921Y22227D01*
X182047Y92692D02*
Y89740D01*
X181457Y89150D01*
X180276D01*
X179686Y89740D01*
Y92692D01*
X178505Y89150D02*
X177324D01*
X177915D01*
Y92692D01*
X178505Y92101D01*
X95314Y71369D02*
X95904Y70779D01*
Y69598D01*
X95314Y69008D01*
X92953D01*
X92362Y69598D01*
Y70779D01*
X92953Y71369D01*
X95314Y72550D02*
X95904Y73140D01*
Y74321D01*
X95314Y74911D01*
X94724D01*
X94133Y74321D01*
Y73731D01*
Y74321D01*
X93543Y74911D01*
X92953D01*
X92362Y74321D01*
Y73140D01*
X92953Y72550D01*
X145686Y85038D02*
X146276Y85629D01*
X147457D01*
X148047Y85038D01*
Y82677D01*
X147457Y82087D01*
X146276D01*
X145686Y82677D01*
X142144Y85629D02*
X144505D01*
Y83858D01*
X143324Y84448D01*
X142734D01*
X142144Y83858D01*
Y82677D01*
X142734Y82087D01*
X143915D01*
X144505Y82677D01*
X145686Y105487D02*
X146276Y106078D01*
X147457D01*
X148047Y105487D01*
Y103126D01*
X147457Y102535D01*
X146276D01*
X145686Y103126D01*
X142144Y106078D02*
X143324Y105487D01*
X144505Y104306D01*
Y103126D01*
X143915Y102535D01*
X142734D01*
X142144Y103126D01*
Y103716D01*
X142734Y104306D01*
X144505D01*
X65772Y16338D02*
X66363Y16928D01*
X67544D01*
X68134Y16338D01*
Y13976D01*
X67544Y13386D01*
X66363D01*
X65772Y13976D01*
X64592Y16928D02*
X62230D01*
Y16338D01*
X64592Y13976D01*
Y13386D01*
X38826Y35826D02*
X39416Y35236D01*
Y34055D01*
X38826Y33465D01*
X36464D01*
X35874Y34055D01*
Y35236D01*
X36464Y35826D01*
X38826Y37007D02*
X39416Y37597D01*
Y38778D01*
X38826Y39368D01*
X38236D01*
X37645Y38778D01*
X37055Y39368D01*
X36464D01*
X35874Y38778D01*
Y37597D01*
X36464Y37007D01*
X37055D01*
X37645Y37597D01*
X38236Y37007D01*
X38826D01*
X37645Y37597D02*
Y38778D01*
X38826Y46535D02*
X39416Y45944D01*
Y44764D01*
X38826Y44173D01*
X36464D01*
X35874Y44764D01*
Y45944D01*
X36464Y46535D01*
X35874Y47715D02*
Y48896D01*
Y48306D01*
X39416D01*
X38826Y47715D01*
Y50667D02*
X39416Y51258D01*
Y52438D01*
X38826Y53029D01*
X36464D01*
X35874Y52438D01*
Y51258D01*
X36464Y50667D01*
X38826D01*
X44757Y87999D02*
X45347Y88590D01*
X46528D01*
X47118Y87999D01*
Y85638D01*
X46528Y85047D01*
X45347D01*
X44757Y85638D01*
X43576Y85047D02*
X42395D01*
X42986D01*
Y88590D01*
X43576Y87999D01*
X40624Y85047D02*
X39443D01*
X40034D01*
Y88590D01*
X40624Y87999D01*
X188788Y88243D02*
X189969D01*
X189378D01*
Y85291D01*
X189969Y84701D01*
X190559D01*
X191150Y85291D01*
X187607Y84701D02*
X186427D01*
X187017D01*
Y88243D01*
X187607Y87653D01*
X156882Y58095D02*
Y61637D01*
X155111D01*
X154520Y61046D01*
Y59866D01*
X155111Y59275D01*
X156882D01*
X155701D02*
X154520Y58095D01*
X150978D02*
X153340D01*
X150978Y60456D01*
Y61046D01*
X151569Y61637D01*
X152749D01*
X153340Y61046D01*
X79512Y68992D02*
X83054D01*
Y70763D01*
X82464Y71354D01*
X81283D01*
X80692Y70763D01*
Y68992D01*
Y70173D02*
X79512Y71354D01*
X82464Y72534D02*
X83054Y73125D01*
Y74305D01*
X82464Y74896D01*
X81873D01*
X81283Y74305D01*
Y73715D01*
Y74305D01*
X80692Y74896D01*
X80102D01*
X79512Y74305D01*
Y73125D01*
X80102Y72534D01*
X17402Y69071D02*
X20944D01*
Y70842D01*
X20353Y71432D01*
X19173D01*
X18582Y70842D01*
Y69071D01*
Y70252D02*
X17402Y71432D01*
Y72613D02*
Y73794D01*
Y73203D01*
X20944D01*
X20353Y72613D01*
Y75565D02*
X20944Y76155D01*
Y77336D01*
X20353Y77926D01*
X19763D01*
X19173Y77336D01*
Y76746D01*
Y77336D01*
X18582Y77926D01*
X17992D01*
X17402Y77336D01*
Y76155D01*
X17992Y75565D01*
X38284Y107354D02*
Y110897D01*
X36512D01*
X35922Y110306D01*
Y109125D01*
X36512Y108535D01*
X38284D01*
X37103D02*
X35922Y107354D01*
X34741Y110306D02*
X34151Y110897D01*
X32970D01*
X32380Y110306D01*
Y109716D01*
X32970Y109125D01*
X32380Y108535D01*
Y107945D01*
X32970Y107354D01*
X34151D01*
X34741Y107945D01*
Y108535D01*
X34151Y109125D01*
X34741Y109716D01*
Y110306D01*
X34151Y109125D02*
X32970D01*
X69071Y62440D02*
Y59488D01*
X68480Y58898D01*
X67300D01*
X66709Y59488D01*
Y62440D01*
X63167Y58898D02*
X65529D01*
X63167Y61259D01*
Y61849D01*
X63758Y62440D01*
X64938D01*
X65529Y61849D01*
X56756Y61369D02*
Y60779D01*
X55575Y59598D01*
X54395Y60779D01*
Y61369D01*
X55575Y59598D02*
Y57827D01*
X53214D02*
X52033D01*
X52623D01*
Y61369D01*
X53214Y60779D01*
X17402Y82189D02*
X20944D01*
Y83960D01*
X20353Y84550D01*
X19173D01*
X18582Y83960D01*
Y82189D01*
Y83370D02*
X17402Y84550D01*
Y85731D02*
Y86912D01*
Y86322D01*
X20944D01*
X20353Y85731D01*
X17402Y88683D02*
Y89864D01*
Y89273D01*
X20944D01*
X20353Y88683D01*
X147519Y62062D02*
X148109Y61472D01*
Y60291D01*
X147519Y59701D01*
X145157D01*
X144567Y60291D01*
Y61472D01*
X145157Y62062D01*
X144567Y63243D02*
Y64424D01*
Y63833D01*
X148109D01*
X147519Y63243D01*
X144567Y67966D02*
X148109D01*
X146338Y66195D01*
Y68556D01*
X120874Y65652D02*
X119693D01*
X120284D01*
Y62110D01*
X120874D01*
X119693D01*
X115561Y65062D02*
X116151Y65652D01*
X117332D01*
X117922Y65062D01*
Y62701D01*
X117332Y62110D01*
X116151D01*
X115561Y62701D01*
X114380Y62110D02*
X113199D01*
X113790D01*
Y65652D01*
X114380Y65062D01*
X27575Y55953D02*
X31117D01*
Y57724D01*
X30527Y58314D01*
X29346D01*
X28756Y57724D01*
Y55953D01*
Y57134D02*
X27575Y58314D01*
Y59495D02*
Y60676D01*
Y60085D01*
X31117D01*
X30527Y59495D01*
X31117Y62447D02*
Y64808D01*
X30527D01*
X28165Y62447D01*
X27575D01*
X73354Y89211D02*
Y86260D01*
X72764Y85669D01*
X71583D01*
X70993Y86260D01*
Y89211D01*
X67451D02*
X69812D01*
Y87440D01*
X68631Y88031D01*
X68041D01*
X67451Y87440D01*
Y86260D01*
X68041Y85669D01*
X69222D01*
X69812Y86260D01*
X88079Y96378D02*
Y99920D01*
X86308D01*
X85717Y99330D01*
Y98149D01*
X86308Y97559D01*
X88079D01*
X86898D02*
X85717Y96378D01*
X84537D02*
X83356D01*
X83946D01*
Y99920D01*
X84537Y99330D01*
X81585Y96968D02*
X80994Y96378D01*
X79814D01*
X79223Y96968D01*
Y99330D01*
X79814Y99920D01*
X80994D01*
X81585Y99330D01*
Y98739D01*
X80994Y98149D01*
X79223D01*
X138945Y96378D02*
Y99920D01*
X137174D01*
X136583Y99330D01*
Y98149D01*
X137174Y97559D01*
X138945D01*
X137764D02*
X136583Y96378D01*
X133041D02*
X135403D01*
X133041Y98739D01*
Y99330D01*
X133632Y99920D01*
X134812D01*
X135403Y99330D01*
X131861D02*
X131270Y99920D01*
X130089D01*
X129499Y99330D01*
Y96968D01*
X130089Y96378D01*
X131270D01*
X131861Y96968D01*
Y99330D01*
X126362Y85937D02*
Y89479D01*
X124591D01*
X124001Y88889D01*
Y87708D01*
X124591Y87118D01*
X126362D01*
X125181D02*
X124001Y85937D01*
X120459D02*
X122820D01*
X120459Y88298D01*
Y88889D01*
X121049Y89479D01*
X122230D01*
X122820Y88889D01*
X119278Y85937D02*
X118097D01*
X118687D01*
Y89479D01*
X119278Y88889D01*
D39*
X66087Y111220D02*
G03*
X66087Y111220I-591J0D01*
G01*
Y83913D02*
G03*
X66087Y83913I-591J0D01*
G01*
D41*
X57622Y107087D02*
G03*
X57622Y107087I-787J0D01*
G01*
Y79779D02*
G03*
X57622Y79779I-787J0D01*
G01*
D90*
X49087Y12700D02*
G03*
X49087Y12700I-276J0D01*
G01*
X49369Y13956D02*
Y17509D01*
X59590Y13956D02*
Y17509D01*
D91*
X78140Y37826D02*
G03*
X78140Y37826I-1181J0D01*
G01*
D92*
X68888Y31625D02*
G03*
X68888Y31625I-492J0D01*
G01*
D93*
X160044Y67265D02*
X163023D01*
Y69545D01*
X186645Y50788D02*
X194460D01*
Y51788D01*
X186645D02*
X194460D01*
X186645Y66588D02*
X194460D01*
Y66787D01*
Y67588D01*
X186645D02*
X194460D01*
X186645Y49323D02*
Y53260D01*
X196488D01*
Y49323D02*
Y53260D01*
X186645Y49323D02*
X196488D01*
X186645Y65071D02*
Y69008D01*
Y65071D02*
X196488D01*
Y69008D01*
X186645D02*
X196488D01*
X163023Y72945D02*
X200425D01*
Y45386D02*
Y72945D01*
X163023Y45386D02*
X200425D01*
X160044Y55455D02*
Y67265D01*
X163023Y69545D02*
Y72945D01*
Y45386D02*
Y51065D01*
X160044D02*
Y55455D01*
Y51065D02*
X163023D01*
D94*
X164697Y54365D02*
D03*
Y57565D02*
D03*
X164797Y60765D02*
D03*
Y63965D02*
D03*
M02*
