G04*
G04 #@! TF.GenerationSoftware,Altium Limited,Altium Designer,19.0.4 (130)*
G04*
G04 Layer_Color=32768*
%FSLAX25Y25*%
%MOIN*%
G70*
G01*
G75*
%ADD12C,0.00800*%
%ADD13C,0.00394*%
%ADD91C,0.02362*%
%ADD96C,0.00197*%
%ADD97C,0.00010*%
G36*
X51330Y14177D02*
Y14138D01*
X51300Y14066D01*
X51245Y14010D01*
X51173Y13980D01*
X51133D01*
D01*
X51094D01*
X50858Y14098D01*
X50897Y12603D01*
Y12571D01*
X50873Y12513D01*
X50829Y12469D01*
X50771Y12445D01*
X50740D01*
D01*
X50661D01*
X50622D01*
X50550Y12475D01*
X50494Y12530D01*
X50464Y12603D01*
Y12642D01*
D01*
Y14532D01*
Y14579D01*
X50500Y14665D01*
X50567Y14732D01*
X50653Y14768D01*
X50700D01*
D01*
X50819Y14689D01*
X50897Y14610D01*
X51055Y14453D01*
X51291Y14335D01*
X51330Y14177D01*
D02*
G37*
D12*
X102575Y22047D02*
Y25984D01*
X120291Y22047D02*
Y25984D01*
X118323Y24016D02*
X122260D01*
X156614Y-2905D02*
Y1032D01*
X154646Y-937D02*
X158583D01*
X154646Y16780D02*
X158583D01*
D13*
X84243Y43141D02*
Y47078D01*
X82274Y45110D02*
X86211D01*
D91*
X173094Y96378D02*
G03*
X173094Y96378I-1181J0D01*
G01*
D96*
X119709Y109803D02*
G03*
X119709Y109803I-1378J0D01*
G01*
X64827Y8299D02*
G03*
X64827Y8299I-1378J0D01*
G01*
X119709D02*
G03*
X119709Y8299I-1378J0D01*
G01*
X64827Y109764D02*
G03*
X64827Y109764I-1378J0D01*
G01*
X127642Y91020D02*
Y113972D01*
X90831Y91020D02*
X127642D01*
X90831D02*
Y113972D01*
X127642D01*
X118331Y107835D02*
Y111772D01*
X116362Y109803D02*
X120299D01*
X61480Y8299D02*
X65417D01*
X63449Y6331D02*
Y10268D01*
X118331Y6331D02*
Y10268D01*
X116362Y8299D02*
X120299D01*
X63449Y107795D02*
Y111732D01*
X61480Y109764D02*
X65417D01*
X64951Y64401D02*
X103534D01*
X64951Y25818D02*
X103534D01*
Y64401D01*
X64951Y25818D02*
Y64401D01*
D97*
X108844Y59394D02*
X108846Y59392D01*
X165938Y20357D02*
X166138Y20557D01*
M02*
